<?xml version="1.0" encoding="UTF-8"?>
<svg width="485px" height="40px" viewBox="0 0 485 40" version="1.1" xmlns="http://www.w3.org/2000/svg" xmlns:xlink="http://www.w3.org/1999/xlink">
    <!-- Generator: Sketch 50.2 (55047) - http://www.bohemiancoding.com/sketch -->
    <title>Group</title>
    <desc>Created with Sketch.</desc>
    <defs></defs>
    <g id="Ressourcen" stroke="none" stroke-width="1" fill="none" fill-rule="evenodd">
        <g id="Turing-Bus" transform="translate(-629.000000, -198.000000)">
            <g id="Group" transform="translate(629.000000, 198.000000)">
                <rect id="Rectangle-3" fill="#F1F1F1" x="0" y="0" width="485" height="21"></rect>
                <rect id="Rectangle-3" fill="#9A9A9A" x="40" y="0" width="445" height="21"></rect>
                <path d="M18.932459,38.3878571 C18.482459,39.0278571 17.862459,39.3478571 17.052459,39.3478571 C16.242459,39.3478571 15.612459,39.0278571 15.162459,38.3878571 C14.712459,37.7378571 14.492459,36.8678571 14.492459,35.7678571 C14.492459,34.6678571 14.712459,33.7978571 15.162459,33.1578571 C15.612459,32.5078571 16.242459,32.1878571 17.052459,32.1878571 C17.862459,32.1878571 18.482459,32.5078571 18.932459,33.1578571 C19.382459,33.7978571 19.612459,34.6678571 19.612459,35.7678571 C19.612459,36.8678571 19.382459,37.7378571 18.932459,38.3878571 Z M15.372459,35.7678571 C15.372459,36.5378571 15.492459,37.1778571 15.742459,37.6678571 L17.822459,33.2178571 C17.592459,33.0678571 17.342459,32.9878571 17.052459,32.9878571 C15.982459,32.9878571 15.372459,34.0478571 15.372459,35.7678571 Z M17.052459,38.5478571 C18.122459,38.5478571 18.732459,37.4878571 18.732459,35.7678571 C18.732459,34.9778571 18.612459,34.3478571 18.362459,33.8678571 L16.282459,38.3178571 C16.512459,38.4678571 16.762459,38.5478571 17.052459,38.5478571 Z M21.372459,33.6478571 L23.642459,32.2678571 L23.962459,32.2678571 L23.962459,38.5078571 L25.762459,38.5078571 L25.762459,39.2678571 L21.322459,39.2678571 L21.322459,38.5078571 L23.122459,38.5078571 L23.122459,33.5278571 L21.372459,34.5678571 L21.372459,33.6478571 Z" id="01" fill="#112233"></path>
                <path d="M59.4472131,38.3878571 C58.9972131,39.0278571 58.3772131,39.3478571 57.5672131,39.3478571 C56.7572131,39.3478571 56.1272131,39.0278571 55.6772131,38.3878571 C55.2272131,37.7378571 55.0072131,36.8678571 55.0072131,35.7678571 C55.0072131,34.6678571 55.2272131,33.7978571 55.6772131,33.1578571 C56.1272131,32.5078571 56.7572131,32.1878571 57.5672131,32.1878571 C58.3772131,32.1878571 58.9972131,32.5078571 59.4472131,33.1578571 C59.8972131,33.7978571 60.1272131,34.6678571 60.1272131,35.7678571 C60.1272131,36.8678571 59.8972131,37.7378571 59.4472131,38.3878571 Z M55.8872131,35.7678571 C55.8872131,36.5378571 56.0072131,37.1778571 56.2572131,37.6678571 L58.3372131,33.2178571 C58.1072131,33.0678571 57.8572131,32.9878571 57.5672131,32.9878571 C56.4972131,32.9878571 55.8872131,34.0478571 55.8872131,35.7678571 Z M57.5672131,38.5478571 C58.6372131,38.5478571 59.2472131,37.4878571 59.2472131,35.7678571 C59.2472131,34.9778571 59.1272131,34.3478571 58.8772131,33.8678571 L56.7972131,38.3178571 C57.0272131,38.4678571 57.2772131,38.5478571 57.5672131,38.5478571 Z M66.1772131,39.2678571 L61.8572131,39.2678571 L61.8572131,38.8778571 L64.6172131,35.4578571 C65.0572131,34.9078571 65.1872131,34.5778571 65.1872131,34.1278571 C65.1872131,33.7978571 65.0972131,33.5378571 64.9272131,33.3278571 C64.7372131,33.0978571 64.4572131,32.9878571 64.0872131,32.9878571 C63.4372131,32.9878571 62.9672131,33.4978571 62.8572131,34.2578571 L62.0072131,34.0978571 C62.0572131,33.5478571 62.2872131,33.0978571 62.6872131,32.7378571 C63.0872131,32.3678571 63.5572131,32.1878571 64.0872131,32.1878571 C64.7372131,32.1878571 65.2472131,32.3878571 65.6072131,32.7978571 C65.8972131,33.1278571 66.0472131,33.5778571 66.0472131,34.1278571 C66.0472131,34.6678571 65.8572131,35.1778571 65.4872131,35.6478571 L63.2272131,38.4678571 L66.1772131,38.4678571 L66.1772131,39.2678571 Z" id="02" fill="#112233"></path>
                <path d="M99.9619672,38.3878571 C99.5119672,39.0278571 98.8919672,39.3478571 98.0819672,39.3478571 C97.2719672,39.3478571 96.6419672,39.0278571 96.1919672,38.3878571 C95.7419672,37.7378571 95.5219672,36.8678571 95.5219672,35.7678571 C95.5219672,34.6678571 95.7419672,33.7978571 96.1919672,33.1578571 C96.6419672,32.5078571 97.2719672,32.1878571 98.0819672,32.1878571 C98.8919672,32.1878571 99.5119672,32.5078571 99.9619672,33.1578571 C100.411967,33.7978571 100.641967,34.6678571 100.641967,35.7678571 C100.641967,36.8678571 100.411967,37.7378571 99.9619672,38.3878571 Z M96.4019672,35.7678571 C96.4019672,36.5378571 96.5219672,37.1778571 96.7719672,37.6678571 L98.8519672,33.2178571 C98.6219672,33.0678571 98.3719672,32.9878571 98.0819672,32.9878571 C97.0119672,32.9878571 96.4019672,34.0478571 96.4019672,35.7678571 Z M98.0819672,38.5478571 C99.1519672,38.5478571 99.7619672,37.4878571 99.7619672,35.7678571 C99.7619672,34.9778571 99.6419672,34.3478571 99.3919672,33.8678571 L97.3119672,38.3178571 C97.5419672,38.4678571 97.7919672,38.5478571 98.0819672,38.5478571 Z M101.981967,37.3478571 L102.821967,37.2378571 C102.951967,38.1078571 103.411967,38.5478571 104.211967,38.5478571 C105.051967,38.5478571 105.611967,37.9978571 105.611967,37.0678571 C105.611967,36.1178571 105.061967,35.5878571 104.211967,35.5878571 C103.981967,35.5878571 103.771967,35.6278571 103.591967,35.7178571 L103.241967,35.2478571 L104.831967,33.0678571 L102.311967,33.0678571 L102.311967,32.2678571 L106.111967,32.2678571 L106.111967,32.5378571 L104.331967,34.9478571 C104.391967,34.9278571 104.481967,34.9178571 104.611967,34.9178571 C105.151967,34.9178571 105.591967,35.1178571 105.941967,35.5178571 C106.291967,35.9078571 106.471967,36.4278571 106.471967,37.0678571 C106.471967,37.7378571 106.261967,38.2878571 105.841967,38.7178571 C105.421967,39.1378571 104.881967,39.3478571 104.211967,39.3478571 C103.621967,39.3478571 103.121967,39.1678571 102.701967,38.7978571 C102.281967,38.4278571 102.041967,37.9478571 101.981967,37.3478571 Z" id="03" fill="#112233"></path>
                <path d="M142.476721,38.3878571 C142.026721,39.0278571 141.406721,39.3478571 140.596721,39.3478571 C139.786721,39.3478571 139.156721,39.0278571 138.706721,38.3878571 C138.256721,37.7378571 138.036721,36.8678571 138.036721,35.7678571 C138.036721,34.6678571 138.256721,33.7978571 138.706721,33.1578571 C139.156721,32.5078571 139.786721,32.1878571 140.596721,32.1878571 C141.406721,32.1878571 142.026721,32.5078571 142.476721,33.1578571 C142.926721,33.7978571 143.156721,34.6678571 143.156721,35.7678571 C143.156721,36.8678571 142.926721,37.7378571 142.476721,38.3878571 Z M138.916721,35.7678571 C138.916721,36.5378571 139.036721,37.1778571 139.286721,37.6678571 L141.366721,33.2178571 C141.136721,33.0678571 140.886721,32.9878571 140.596721,32.9878571 C139.526721,32.9878571 138.916721,34.0478571 138.916721,35.7678571 Z M140.596721,38.5478571 C141.666721,38.5478571 142.276721,37.4878571 142.276721,35.7678571 C142.276721,34.9778571 142.156721,34.3478571 141.906721,33.8678571 L139.826721,38.3178571 C140.056721,38.4678571 140.306721,38.5478571 140.596721,38.5478571 Z M148.216721,39.2678571 L147.356721,39.2678571 L147.356721,37.7778571 L144.316721,37.7778571 L144.316721,37.4278571 L147.276721,32.2678571 L148.216721,32.2678571 L148.216721,36.9778571 L149.276721,36.9778571 L149.276721,37.7778571 L148.216721,37.7778571 L148.216721,39.2678571 Z M147.356721,33.5878571 L145.456721,36.9778571 L147.356721,36.9778571 L147.356721,33.5878571 Z" id="04" fill="#112233"></path>
                <path d="M180.798033,38.3878571 C180.348033,39.0278571 179.728033,39.3478571 178.918033,39.3478571 C178.108033,39.3478571 177.478033,39.0278571 177.028033,38.3878571 C176.578033,37.7378571 176.358033,36.8678571 176.358033,35.7678571 C176.358033,34.6678571 176.578033,33.7978571 177.028033,33.1578571 C177.478033,32.5078571 178.108033,32.1878571 178.918033,32.1878571 C179.728033,32.1878571 180.348033,32.5078571 180.798033,33.1578571 C181.248033,33.7978571 181.478033,34.6678571 181.478033,35.7678571 C181.478033,36.8678571 181.248033,37.7378571 180.798033,38.3878571 Z M177.238033,35.7678571 C177.238033,36.5378571 177.358033,37.1778571 177.608033,37.6678571 L179.688033,33.2178571 C179.458033,33.0678571 179.208033,32.9878571 178.918033,32.9878571 C177.848033,32.9878571 177.238033,34.0478571 177.238033,35.7678571 Z M178.918033,38.5478571 C179.988033,38.5478571 180.598033,37.4878571 180.598033,35.7678571 C180.598033,34.9778571 180.478033,34.3478571 180.228033,33.8678571 L178.148033,38.3178571 C178.378033,38.4678571 178.628033,38.5478571 178.918033,38.5478571 Z M182.968033,37.4378571 L183.818033,37.2778571 C183.938033,38.1078571 184.448033,38.5478571 185.168033,38.5478571 C186.018033,38.5478571 186.588033,37.9178571 186.588033,36.9878571 C186.588033,36.0378571 186.088033,35.4278571 185.248033,35.4278571 C184.618033,35.4278571 184.028033,35.7578571 183.678033,36.2078571 L183.128033,36.0878571 L183.528033,32.2678571 L186.948033,32.2678571 L186.948033,33.0678571 L184.258033,33.0678571 L183.998033,35.0978571 C184.278033,34.8278571 184.838033,34.6278571 185.308033,34.6278571 C186.638033,34.6278571 187.448033,35.5378571 187.448033,36.9878571 C187.448033,37.6778571 187.238033,38.2478571 186.808033,38.6878571 C186.388033,39.1278571 185.838033,39.3478571 185.168033,39.3478571 C183.978033,39.3478571 183.088033,38.6678571 182.968033,37.4378571 Z" id="05" fill="#112233"></path>
                <rect id="Rectangle-9" fill="#112233" x="121" y="21" width="1" height="9"></rect>
                <rect id="Rectangle-9" fill="#112233" x="161" y="21" width="1" height="9"></rect>
                <rect id="Rectangle-9" fill="#112233" x="202" y="21" width="1" height="9"></rect>
                <rect id="Rectangle-9" fill="#112233" x="242" y="21" width="1" height="9"></rect>
                <rect id="Rectangle-9" fill="#112233" x="282" y="21" width="1" height="9"></rect>
                <rect id="Rectangle-9" fill="#112233" x="323" y="21" width="1" height="9"></rect>
                <rect id="Rectangle-9" fill="#112233" x="363" y="21" width="1" height="9"></rect>
                <rect id="Rectangle-9" fill="#112233" x="403" y="21" width="1" height="9"></rect>
                <path d="M222.312787,38.3878571 C221.862787,39.0278571 221.242787,39.3478571 220.432787,39.3478571 C219.622787,39.3478571 218.992787,39.0278571 218.542787,38.3878571 C218.092787,37.7378571 217.872787,36.8678571 217.872787,35.7678571 C217.872787,34.6678571 218.092787,33.7978571 218.542787,33.1578571 C218.992787,32.5078571 219.622787,32.1878571 220.432787,32.1878571 C221.242787,32.1878571 221.862787,32.5078571 222.312787,33.1578571 C222.762787,33.7978571 222.992787,34.6678571 222.992787,35.7678571 C222.992787,36.8678571 222.762787,37.7378571 222.312787,38.3878571 Z M218.752787,35.7678571 C218.752787,36.5378571 218.872787,37.1778571 219.122787,37.6678571 L221.202787,33.2178571 C220.972787,33.0678571 220.722787,32.9878571 220.432787,32.9878571 C219.362787,32.9878571 218.752787,34.0478571 218.752787,35.7678571 Z M220.432787,38.5478571 C221.502787,38.5478571 222.112787,37.4878571 222.112787,35.7678571 C222.112787,34.9778571 221.992787,34.3478571 221.742787,33.8678571 L219.662787,38.3178571 C219.892787,38.4678571 220.142787,38.5478571 220.432787,38.5478571 Z M226.822787,34.7878571 C227.462787,34.7878571 227.982787,34.9978571 228.382787,35.4278571 C228.792787,35.8478571 228.992787,36.3978571 228.992787,37.0678571 C228.992787,37.7178571 228.782787,38.2578571 228.362787,38.6978571 C227.952787,39.1278571 227.422787,39.3478571 226.782787,39.3478571 C226.142787,39.3478571 225.612787,39.1278571 225.192787,38.6978571 C224.782787,38.2578571 224.572787,37.7178571 224.572787,37.0678571 C224.572787,36.5978571 224.692787,36.1678571 224.932787,35.7578571 L227.002787,32.1878571 L227.962787,32.1878571 L226.442787,34.8578571 C226.542787,34.8078571 226.672787,34.7878571 226.822787,34.7878571 Z M225.452787,37.0678571 C225.452787,37.9178571 226.012787,38.5478571 226.782787,38.5478571 C227.552787,38.5478571 228.112787,37.9178571 228.112787,37.0678571 C228.112787,36.1778571 227.572787,35.5878571 226.782787,35.5878571 C225.992787,35.5878571 225.452787,36.1778571 225.452787,37.0678571 Z" id="06" fill="#112233"></path>
                <path d="M262.634098,38.3878571 C262.184098,39.0278571 261.564098,39.3478571 260.754098,39.3478571 C259.944098,39.3478571 259.314098,39.0278571 258.864098,38.3878571 C258.414098,37.7378571 258.194098,36.8678571 258.194098,35.7678571 C258.194098,34.6678571 258.414098,33.7978571 258.864098,33.1578571 C259.314098,32.5078571 259.944098,32.1878571 260.754098,32.1878571 C261.564098,32.1878571 262.184098,32.5078571 262.634098,33.1578571 C263.084098,33.7978571 263.314098,34.6678571 263.314098,35.7678571 C263.314098,36.8678571 263.084098,37.7378571 262.634098,38.3878571 Z M259.074098,35.7678571 C259.074098,36.5378571 259.194098,37.1778571 259.444098,37.6678571 L261.524098,33.2178571 C261.294098,33.0678571 261.044098,32.9878571 260.754098,32.9878571 C259.684098,32.9878571 259.074098,34.0478571 259.074098,35.7678571 Z M260.754098,38.5478571 C261.824098,38.5478571 262.434098,37.4878571 262.434098,35.7678571 C262.434098,34.9778571 262.314098,34.3478571 262.064098,33.8678571 L259.984098,38.3178571 C260.214098,38.4678571 260.464098,38.5478571 260.754098,38.5478571 Z M269.414098,32.6378571 L266.294098,39.2678571 L265.364098,39.2678571 L268.314098,33.0678571 L264.924098,33.0678571 L264.924098,32.2678571 L269.414098,32.2678571 L269.414098,32.6378571 Z" id="07" fill="#112233"></path>
                <path d="M302.148852,38.3878571 C301.698852,39.0278571 301.078852,39.3478571 300.268852,39.3478571 C299.458852,39.3478571 298.828852,39.0278571 298.378852,38.3878571 C297.928852,37.7378571 297.708852,36.8678571 297.708852,35.7678571 C297.708852,34.6678571 297.928852,33.7978571 298.378852,33.1578571 C298.828852,32.5078571 299.458852,32.1878571 300.268852,32.1878571 C301.078852,32.1878571 301.698852,32.5078571 302.148852,33.1578571 C302.598852,33.7978571 302.828852,34.6678571 302.828852,35.7678571 C302.828852,36.8678571 302.598852,37.7378571 302.148852,38.3878571 Z M298.588852,35.7678571 C298.588852,36.5378571 298.708852,37.1778571 298.958852,37.6678571 L301.038852,33.2178571 C300.808852,33.0678571 300.558852,32.9878571 300.268852,32.9878571 C299.198852,32.9878571 298.588852,34.0478571 298.588852,35.7678571 Z M300.268852,38.5478571 C301.338852,38.5478571 301.948852,37.4878571 301.948852,35.7678571 C301.948852,34.9778571 301.828852,34.3478571 301.578852,33.8678571 L299.498852,38.3178571 C299.728852,38.4678571 299.978852,38.5478571 300.268852,38.5478571 Z M308.398852,34.0578571 C308.398852,34.6478571 308.068852,35.2478571 307.598852,35.4978571 C308.238852,35.7878571 308.638852,36.4178571 308.638852,37.2578571 C308.638852,37.8978571 308.428852,38.4078571 308.008852,38.7878571 C307.588852,39.1578571 307.078852,39.3478571 306.468852,39.3478571 C305.858852,39.3478571 305.348852,39.1578571 304.928852,38.7878571 C304.508852,38.4078571 304.298852,37.8978571 304.298852,37.2578571 C304.298852,36.4178571 304.698852,35.7878571 305.338852,35.4978571 C304.868852,35.2478571 304.538852,34.6478571 304.538852,34.0578571 C304.538852,33.5278571 304.718852,33.0878571 305.078852,32.7278571 C305.448852,32.3678571 305.908852,32.1878571 306.468852,32.1878571 C307.028852,32.1878571 307.488852,32.3678571 307.848852,32.7278571 C308.218852,33.0878571 308.398852,33.5278571 308.398852,34.0578571 Z M307.398852,36.3178571 C307.158852,36.0878571 306.848852,35.9678571 306.468852,35.9678571 C306.088852,35.9678571 305.778852,36.0878571 305.538852,36.3178571 C305.298852,36.5478571 305.178852,36.8678571 305.178852,37.2578571 C305.178852,37.6478571 305.298852,37.9678571 305.538852,38.1978571 C305.778852,38.4278571 306.088852,38.5478571 306.468852,38.5478571 C306.848852,38.5478571 307.158852,38.4278571 307.398852,38.1978571 C307.638852,37.9678571 307.758852,37.6478571 307.758852,37.2578571 C307.758852,36.8678571 307.638852,36.5478571 307.398852,36.3178571 Z M307.248852,33.2578571 C307.058852,33.0478571 306.798852,32.9478571 306.468852,32.9478571 C306.138852,32.9478571 305.878852,33.0478571 305.688852,33.2578571 C305.498852,33.4678571 305.398852,33.7278571 305.398852,34.0578571 C305.398852,34.3878571 305.498852,34.6478571 305.688852,34.8578571 C305.878852,35.0678571 306.138852,35.1678571 306.468852,35.1678571 C306.798852,35.1678571 307.058852,35.0678571 307.248852,34.8578571 C307.438852,34.6478571 307.538852,34.3878571 307.538852,34.0578571 C307.538852,33.7278571 307.438852,33.4678571 307.248852,33.2578571 Z" id="08" fill="#112233"></path>
                <path d="M344.470164,38.3878571 C344.020164,39.0278571 343.400164,39.3478571 342.590164,39.3478571 C341.780164,39.3478571 341.150164,39.0278571 340.700164,38.3878571 C340.250164,37.7378571 340.030164,36.8678571 340.030164,35.7678571 C340.030164,34.6678571 340.250164,33.7978571 340.700164,33.1578571 C341.150164,32.5078571 341.780164,32.1878571 342.590164,32.1878571 C343.400164,32.1878571 344.020164,32.5078571 344.470164,33.1578571 C344.920164,33.7978571 345.150164,34.6678571 345.150164,35.7678571 C345.150164,36.8678571 344.920164,37.7378571 344.470164,38.3878571 Z M340.910164,35.7678571 C340.910164,36.5378571 341.030164,37.1778571 341.280164,37.6678571 L343.360164,33.2178571 C343.130164,33.0678571 342.880164,32.9878571 342.590164,32.9878571 C341.520164,32.9878571 340.910164,34.0478571 340.910164,35.7678571 Z M342.590164,38.5478571 C343.660164,38.5478571 344.270164,37.4878571 344.270164,35.7678571 C344.270164,34.9778571 344.150164,34.3478571 343.900164,33.8678571 L341.820164,38.3178571 C342.050164,38.4678571 342.300164,38.5478571 342.590164,38.5478571 Z M348.680164,36.7478571 C348.040164,36.7478571 347.520164,36.5378571 347.110164,36.1178571 C346.710164,35.6878571 346.510164,35.1378571 346.510164,34.4678571 C346.510164,33.8178571 346.720164,33.2778571 347.130164,32.8478571 C347.550164,32.4078571 348.080164,32.1878571 348.720164,32.1878571 C349.360164,32.1878571 349.890164,32.4078571 350.300164,32.8478571 C350.720164,33.2778571 350.930164,33.8178571 350.930164,34.4678571 C350.930164,34.9378571 350.810164,35.3678571 350.570164,35.7778571 L348.500164,39.3478571 L347.540164,39.3478571 L349.060164,36.6778571 C348.960164,36.7278571 348.830164,36.7478571 348.680164,36.7478571 Z M350.050164,34.4678571 C350.050164,33.6178571 349.490164,32.9878571 348.720164,32.9878571 C347.950164,32.9878571 347.390164,33.6178571 347.390164,34.4678571 C347.390164,35.3578571 347.930164,35.9478571 348.720164,35.9478571 C349.510164,35.9478571 350.050164,35.3578571 350.050164,34.4678571 Z" id="09" fill="#112233"></path>
                <path d="M381.224918,33.6478571 L383.494918,32.2678571 L383.814918,32.2678571 L383.814918,38.5078571 L385.614918,38.5078571 L385.614918,39.2678571 L381.174918,39.2678571 L381.174918,38.5078571 L382.974918,38.5078571 L382.974918,33.5278571 L381.224918,34.5678571 L381.224918,33.6478571 Z M391.184918,38.3878571 C390.734918,39.0278571 390.114918,39.3478571 389.304918,39.3478571 C388.494918,39.3478571 387.864918,39.0278571 387.414918,38.3878571 C386.964918,37.7378571 386.744918,36.8678571 386.744918,35.7678571 C386.744918,34.6678571 386.964918,33.7978571 387.414918,33.1578571 C387.864918,32.5078571 388.494918,32.1878571 389.304918,32.1878571 C390.114918,32.1878571 390.734918,32.5078571 391.184918,33.1578571 C391.634918,33.7978571 391.864918,34.6678571 391.864918,35.7678571 C391.864918,36.8678571 391.634918,37.7378571 391.184918,38.3878571 Z M387.624918,35.7678571 C387.624918,36.5378571 387.744918,37.1778571 387.994918,37.6678571 L390.074918,33.2178571 C389.844918,33.0678571 389.594918,32.9878571 389.304918,32.9878571 C388.234918,32.9878571 387.624918,34.0478571 387.624918,35.7678571 Z M389.304918,38.5478571 C390.374918,38.5478571 390.984918,37.4878571 390.984918,35.7678571 C390.984918,34.9778571 390.864918,34.3478571 390.614918,33.8678571 L388.534918,38.3178571 C388.764918,38.4678571 389.014918,38.5478571 389.304918,38.5478571 Z" id="10" fill="#112233"></path>
                <path d="M420.142951,33.6478571 L422.412951,32.2678571 L422.732951,32.2678571 L422.732951,38.5078571 L424.532951,38.5078571 L424.532951,39.2678571 L420.092951,39.2678571 L420.092951,38.5078571 L421.892951,38.5078571 L421.892951,33.5278571 L420.142951,34.5678571 L420.142951,33.6478571 Z M426.342951,33.6478571 L428.612951,32.2678571 L428.932951,32.2678571 L428.932951,38.5078571 L430.732951,38.5078571 L430.732951,39.2678571 L426.292951,39.2678571 L426.292951,38.5078571 L428.092951,38.5078571 L428.092951,33.5278571 L426.342951,34.5678571 L426.342951,33.6478571 Z" id="11" fill="#112233"></path>
                <path d="M459.464262,33.6478571 L461.734262,32.2678571 L462.054262,32.2678571 L462.054262,38.5078571 L463.854262,38.5078571 L463.854262,39.2678571 L459.414262,39.2678571 L459.414262,38.5078571 L461.214262,38.5078571 L461.214262,33.5278571 L459.464262,34.5678571 L459.464262,33.6478571 Z M469.954262,39.2678571 L465.634262,39.2678571 L465.634262,38.8778571 L468.394262,35.4578571 C468.834262,34.9078571 468.964262,34.5778571 468.964262,34.1278571 C468.964262,33.7978571 468.874262,33.5378571 468.704262,33.3278571 C468.514262,33.0978571 468.234262,32.9878571 467.864262,32.9878571 C467.214262,32.9878571 466.744262,33.4978571 466.634262,34.2578571 L465.784262,34.0978571 C465.834262,33.5478571 466.064262,33.0978571 466.464262,32.7378571 C466.864262,32.3678571 467.334262,32.1878571 467.864262,32.1878571 C468.514262,32.1878571 469.024262,32.3878571 469.384262,32.7978571 C469.674262,33.1278571 469.824262,33.5778571 469.824262,34.1278571 C469.824262,34.6678571 469.634262,35.1778571 469.264262,35.6478571 L467.004262,38.4678571 L469.954262,38.4678571 L469.954262,39.2678571 Z" id="12" fill="#112233"></path>
                <rect id="Rectangle-9" fill="#112233" x="0" y="21" width="1" height="9"></rect>
                <rect id="Rectangle" fill="#112233" x="40" y="21" width="1" height="9"></rect>
                <rect id="Rectangle" fill="#112233" x="81" y="21" width="1" height="9"></rect>
                <rect id="Rectangle-9" fill="#112233" x="484.5" y="21" width="1" height="9"></rect>
                <rect id="Rectangle-9" fill="#112233" x="0" y="21" width="485" height="1"></rect>
                <rect id="Rectangle-4" fill="#112233" x="443" y="21" width="1" height="9"></rect>
            </g>
        </g>
    </g>
</svg>