<?xml version="1.0" encoding="UTF-8"?>
<svg width="490px" height="264px" viewBox="0 0 490 264" version="1.1" xmlns="http://www.w3.org/2000/svg" xmlns:xlink="http://www.w3.org/1999/xlink">
    <!-- Generator: Sketch 50.2 (55047) - http://www.bohemiancoding.com/sketch -->
    <title>Group</title>
    <desc>Created with Sketch.</desc>
    <defs></defs>
    <g id="Ressourcen" stroke="none" stroke-width="1" fill="none" fill-rule="evenodd">
        <g id="2030-watch" transform="translate(-621.000000, -348.000000)">
            <g id="Group" transform="translate(621.000000, 348.000000)">
                <rect id="Rectangle-3" fill="#F1F1F1" x="0" y="0" width="239" height="127"></rect>
                <path d="M58.926,64 L58.926,62.768 L66.15,53.5 C67.41,51.904 67.718,51.036 67.718,49.86 C67.718,48.068 66.822,46.864 65.03,46.864 C63.322,46.864 62.342,48.096 62.118,49.86 L59.318,49.328 C59.514,46.416 61.866,44.176 65.03,44.176 C68.334,44.176 70.714,46.248 70.714,49.748 C70.714,51.26 70.21,52.8 69.09,54.228 L63.518,61.312 L71.078,61.312 L71.078,64 L58.926,64 Z M80.542,44.4 L81.746,44.4 L81.746,64 L78.778,64 L78.778,48.6 L75.11,50.784 L75.11,47.648 L80.542,44.4 Z M94.374,64 L94.374,60.08 L85.918,60.08 L85.918,58.736 L94.206,44.4 L97.342,44.4 L97.342,57.392 L99.638,57.392 L99.638,60.08 L97.342,60.08 L97.342,64 L94.374,64 Z M89.614,57.392 L94.374,57.392 L94.374,48.88 L89.614,57.392 Z M105.714,59.996 C106.862,59.996 107.786,60.892 107.786,62.068 C107.786,63.244 106.862,64.14 105.714,64.14 C104.566,64.14 103.642,63.244 103.642,62.068 C103.642,60.892 104.566,59.996 105.714,59.996 Z M119.014,44.176 C123.634,44.176 126.07,48.012 126.07,54.2 C126.07,60.388 123.634,64.224 119.014,64.224 C114.394,64.224 111.958,60.388 111.958,54.2 C111.958,48.012 114.394,44.176 119.014,44.176 Z M119.014,46.864 C116.242,46.864 114.926,49.608 114.926,54.2 C114.926,58.792 116.242,61.536 119.014,61.536 C121.786,61.536 123.102,58.792 123.102,54.2 C123.102,49.608 121.786,46.864 119.014,46.864 Z M136.71,44.176 C141.33,44.176 143.766,48.012 143.766,54.2 C143.766,60.388 141.33,64.224 136.71,64.224 C132.09,64.224 129.654,60.388 129.654,54.2 C129.654,48.012 132.09,44.176 136.71,44.176 Z M136.71,46.864 C133.938,46.864 132.622,49.608 132.622,54.2 C132.622,58.792 133.938,61.536 136.71,61.536 C139.482,61.536 140.798,58.792 140.798,54.2 C140.798,49.608 139.482,46.864 136.71,46.864 Z M154.406,44.176 C159.026,44.176 161.462,48.012 161.462,54.2 C161.462,60.388 159.026,64.224 154.406,64.224 C149.786,64.224 147.35,60.388 147.35,54.2 C147.35,48.012 149.786,44.176 154.406,44.176 Z M154.406,46.864 C151.634,46.864 150.318,49.608 150.318,54.2 C150.318,58.792 151.634,61.536 154.406,61.536 C157.178,61.536 158.494,58.792 158.494,54.2 C158.494,49.608 157.178,46.864 154.406,46.864 Z M164.066,53.36 L165.354,50.784 L166.81,50.784 C167.622,46.36 170.478,44.176 174.174,44.176 C176.834,44.176 178.822,45.38 179.886,47.368 L177.422,48.768 C176.666,47.536 175.77,46.808 174.174,46.808 C171.934,46.808 170.366,48.012 169.806,50.784 L175.77,50.784 L174.482,53.36 L169.554,53.36 L169.554,55.04 L175.77,55.04 L174.482,57.616 L169.806,57.616 C170.366,60.416 171.934,61.592 174.174,61.592 C175.77,61.592 176.666,60.864 177.422,59.632 L179.886,61.032 C178.822,63.02 176.834,64.224 174.174,64.224 C170.478,64.224 167.622,62.04 166.81,57.616 L164.066,57.616 L165.354,55.04 L166.586,55.04 L166.586,53.36 L164.066,53.36 Z" id="214.000€" fill="#444F5A"></path>
                <path d="M81.832,84 L80.956,84 L80.896,82.872 C80.524,83.676 79.708,84.096 78.784,84.096 C77.812,84.096 77.008,83.724 76.36,82.992 C75.712,82.248 75.388,81.18 75.388,79.8 C75.388,78.408 75.712,77.34 76.36,76.608 C77.02,75.876 77.848,75.504 78.856,75.504 C80.44,75.504 81.484,76.488 81.868,78.06 L80.872,78.36 C80.488,77.112 79.9,76.512 78.856,76.512 C77.368,76.512 76.48,77.58 76.48,79.8 C76.48,82.02 77.368,83.088 78.856,83.088 C79.996,83.088 80.632,82.32 80.74,80.772 L78.856,80.772 L78.856,79.764 L81.832,79.764 L81.832,84 Z M88.972,80.772 L88.972,81.192 L84.244,81.192 C84.304,82.392 85.036,83.184 86.104,83.184 C86.968,83.184 87.616,82.788 88.048,81.984 L88.852,82.404 C88.264,83.532 87.352,84.096 86.104,84.096 C85.24,84.096 84.544,83.796 84.004,83.208 C83.476,82.62 83.212,81.876 83.212,80.976 C83.212,80.1 83.476,79.356 83.992,78.756 C84.52,78.156 85.228,77.856 86.104,77.856 C87.004,77.856 87.712,78.132 88.216,78.696 C88.72,79.248 88.972,79.944 88.972,80.772 Z M86.104,78.768 C85.156,78.768 84.52,79.332 84.316,80.28 L87.904,80.28 C87.724,79.32 87.076,78.768 86.104,78.768 Z M93.436,77.856 C94.432,77.856 95.164,78.288 95.644,79.164 L94.852,79.728 C94.504,79.092 94.012,78.768 93.4,78.768 C92.824,78.768 92.356,79.032 92.356,79.572 C92.356,80.064 92.8,80.316 93.76,80.508 C94.276,80.616 94.6,80.688 94.996,80.868 C95.56,81.108 95.932,81.516 95.932,82.152 C95.932,82.752 95.704,83.232 95.26,83.58 C94.816,83.928 94.264,84.096 93.604,84.096 C92.356,84.096 91.348,83.46 90.976,82.344 L91.936,81.984 C92.212,82.74 92.788,83.184 93.604,83.184 C94.336,83.184 94.888,82.86 94.888,82.248 C94.888,81.768 94.432,81.6 93.328,81.36 C92.092,81.108 91.372,80.676 91.372,79.608 C91.372,79.08 91.576,78.66 91.972,78.336 C92.368,78.012 92.86,77.856 93.436,77.856 Z M99.544,82.26 C99.544,82.836 99.928,83.184 100.54,83.184 C101.02,83.184 101.464,83.028 101.86,82.728 C102.268,82.416 102.472,81.948 102.472,81.336 L102.472,81.144 L101.152,81.144 C100.132,81.144 99.544,81.576 99.544,82.26 Z M103.48,80.184 L103.48,84 L102.664,84 L102.52,83.148 C102.136,83.712 101.284,84.096 100.384,84.096 C99.316,84.096 98.512,83.448 98.512,82.26 C98.512,80.952 99.532,80.28 101.248,80.28 L102.472,80.28 L102.472,80.016 C102.472,79.14 101.896,78.768 101.08,78.768 C100.396,78.768 99.844,79.188 99.652,79.8 L98.764,79.56 C99.04,78.516 99.964,77.856 101.08,77.856 C102.568,77.856 103.48,78.588 103.48,80.184 Z M111.676,79.488 L111.676,84 L110.668,84 L110.668,79.704 C110.668,79.044 110.476,78.78 110.008,78.78 C109.384,78.78 108.94,79.56 108.94,81.156 L108.94,84 L107.932,84 L107.932,79.704 C107.932,79.044 107.74,78.78 107.272,78.78 C106.648,78.78 106.204,79.56 106.204,81.156 L106.204,84 L105.196,84 L105.196,77.952 L106.204,77.952 L106.204,78.72 C106.564,78.144 107.032,77.856 107.62,77.856 C108.268,77.856 108.688,78.18 108.868,78.84 C109.192,78.252 109.732,77.856 110.356,77.856 C111.16,77.856 111.676,78.384 111.676,79.488 Z M114.46,78.864 L112.852,78.864 L112.852,77.952 L114.46,77.952 L114.46,76.14 L115.468,75.504 L115.468,77.952 L118.42,77.952 L118.42,78.864 L115.468,78.864 L115.468,81.96 C115.468,82.776 115.816,83.184 116.512,83.184 C117.052,83.184 117.544,82.944 118,82.464 L118.372,83.316 C117.856,83.832 117.232,84.096 116.512,84.096 C115.18,84.096 114.46,83.388 114.46,81.996 L114.46,78.864 Z M123.556,84.096 C122.776,84.096 122.08,83.712 121.708,83.196 L121.708,84 L120.7,84 L120.7,75.504 L121.708,75.504 L121.708,78.72 C122.08,78.228 122.752,77.856 123.556,77.856 C125.296,77.856 126.328,79.092 126.328,80.976 C126.328,82.86 125.296,84.096 123.556,84.096 Z M124.804,82.572 C125.128,82.164 125.296,81.636 125.296,80.976 C125.296,80.316 125.128,79.788 124.804,79.38 C124.48,78.972 124.024,78.768 123.46,78.768 C122.896,78.768 122.44,78.972 122.116,79.38 C121.792,79.788 121.624,80.316 121.624,80.976 C121.624,81.636 121.792,82.164 122.116,82.572 C122.44,82.98 122.896,83.184 123.46,83.184 C124.024,83.184 124.48,82.98 124.804,82.572 Z M128.176,82.164 L128.176,77.952 L129.184,77.952 L129.184,81.948 C129.184,82.776 129.556,83.184 130.3,83.184 C130.792,83.184 131.212,82.932 131.56,82.428 C131.908,81.912 132.076,81.24 132.076,80.388 L132.076,77.952 L133.084,77.952 L133.084,84 L132.076,84 L132.076,82.884 C131.632,83.604 130.852,84.096 130.024,84.096 C128.788,84.096 128.176,83.364 128.176,82.164 Z M137.992,77.856 C138.796,77.856 139.468,78.228 139.84,78.72 L139.84,75.504 L140.848,75.504 L140.848,84 L139.84,84 L139.84,83.196 C139.468,83.712 138.772,84.096 137.992,84.096 C136.252,84.096 135.22,82.86 135.22,80.976 C135.22,79.092 136.252,77.856 137.992,77.856 Z M136.744,79.38 C136.42,79.788 136.252,80.316 136.252,80.976 C136.252,81.636 136.42,82.164 136.744,82.572 C137.068,82.98 137.524,83.184 138.088,83.184 C138.652,83.184 139.108,82.98 139.432,82.572 C139.756,82.164 139.924,81.636 139.924,80.976 C139.924,80.316 139.756,79.788 139.432,79.38 C139.108,78.972 138.652,78.768 138.088,78.768 C137.524,78.768 137.068,78.972 136.744,79.38 Z M143.524,79.884 C143.524,79.272 143.728,78.78 144.124,78.408 C144.532,78.036 145.048,77.856 145.66,77.856 C146.092,77.856 146.488,77.964 146.848,78.168 L148.108,77.52 L148.564,78.348 L147.544,78.876 C147.712,79.164 147.796,79.5 147.796,79.884 C147.796,80.496 147.592,80.988 147.196,81.36 C146.8,81.732 146.284,81.912 145.66,81.912 C145.24,81.912 144.868,81.828 144.544,81.66 C144.172,81.804 143.992,82.008 143.992,82.284 C143.992,82.62 144.28,82.788 144.844,82.788 L146.416,82.788 C147.712,82.788 148.444,83.364 148.444,84.456 C148.444,85.164 148.168,85.68 147.616,86.028 C147.064,86.376 146.392,86.544 145.612,86.544 C143.848,86.544 142.816,85.848 142.816,84.552 C142.816,84.012 143.02,83.58 143.44,83.256 C143.152,83.028 143.008,82.728 143.008,82.332 C143.008,81.792 143.332,81.324 143.896,81.12 C143.644,80.784 143.524,80.376 143.524,79.884 Z M146.392,83.652 L144.964,83.652 C144.712,83.652 144.508,83.64 144.34,83.604 C143.992,83.784 143.824,84.084 143.824,84.516 C143.824,85.224 144.52,85.656 145.612,85.656 C146.752,85.656 147.412,85.236 147.412,84.552 C147.412,83.952 147.076,83.652 146.392,83.652 Z M144.832,79.032 C144.616,79.236 144.508,79.524 144.508,79.884 C144.508,80.244 144.616,80.532 144.832,80.736 C145.06,80.94 145.336,81.048 145.66,81.048 C145.984,81.048 146.26,80.952 146.476,80.748 C146.704,80.544 146.812,80.256 146.812,79.884 C146.812,79.512 146.704,79.236 146.476,79.032 C146.26,78.828 145.984,78.72 145.66,78.72 C145.336,78.72 145.06,78.828 144.832,79.032 Z M155.932,80.772 L155.932,81.192 L151.204,81.192 C151.264,82.392 151.996,83.184 153.064,83.184 C153.928,83.184 154.576,82.788 155.008,81.984 L155.812,82.404 C155.224,83.532 154.312,84.096 153.064,84.096 C152.2,84.096 151.504,83.796 150.964,83.208 C150.436,82.62 150.172,81.876 150.172,80.976 C150.172,80.1 150.436,79.356 150.952,78.756 C151.48,78.156 152.188,77.856 153.064,77.856 C153.964,77.856 154.672,78.132 155.176,78.696 C155.68,79.248 155.932,79.944 155.932,80.772 Z M153.064,78.768 C152.116,78.768 151.48,79.332 151.276,80.28 L154.864,80.28 C154.684,79.32 154.036,78.768 153.064,78.768 Z M159.1,78.864 L157.492,78.864 L157.492,77.952 L159.1,77.952 L159.1,76.14 L160.108,75.504 L160.108,77.952 L163.06,77.952 L163.06,78.864 L160.108,78.864 L160.108,81.96 C160.108,82.776 160.456,83.184 161.152,83.184 C161.692,83.184 162.184,82.944 162.64,82.464 L163.012,83.316 C162.496,83.832 161.872,84.096 161.152,84.096 C159.82,84.096 159.1,83.388 159.1,81.996 L159.1,78.864 Z" id="Gesamtbudget" fill="#444F5A"></path>
                <rect id="Rectangle-3" fill="#F1F1F1" x="251" y="0" width="239" height="127"></rect>
                <path d="M315.787351,44.4 L316.991351,44.4 L316.991351,64 L314.023351,64 L314.023351,48.6 L310.355351,50.784 L310.355351,47.648 L315.787351,44.4 Z M327.743351,44.176 C331.019351,44.176 333.287351,46.556 333.287351,49.468 C333.287351,51.092 332.503351,52.492 331.327351,53.444 C332.923351,54.368 334.015351,55.992 334.015351,58.232 C334.015351,62.012 331.103351,64.224 327.743351,64.224 C324.383351,64.224 321.471351,62.012 321.471351,58.232 C321.471351,55.992 322.563351,54.368 324.159351,53.444 C322.955351,52.492 322.199351,51.092 322.199351,49.468 C322.199351,46.556 324.467351,44.176 327.743351,44.176 Z M327.743351,55.04 C325.923351,55.04 324.439351,56.16 324.439351,58.232 C324.439351,60.304 325.923351,61.536 327.743351,61.536 C329.563351,61.536 331.047351,60.304 331.047351,58.232 C331.047351,56.16 329.563351,55.04 327.743351,55.04 Z M327.743351,46.752 C326.203351,46.752 325.083351,47.928 325.083351,49.496 C325.083351,51.092 326.203351,52.268 327.743351,52.268 C329.283351,52.268 330.403351,51.092 330.403351,49.496 C330.403351,47.928 329.283351,46.752 327.743351,46.752 Z M344.515351,51.456 C348.127351,51.456 350.619351,54.144 350.619351,57.84 C350.619351,61.424 347.987351,64.224 344.347351,64.224 C340.707351,64.224 338.075351,61.424 338.075351,57.84 C338.075351,56.524 338.439351,55.32 339.027351,54.284 L344.851351,44.176 L348.155351,44.176 L343.871351,51.568 C344.039351,51.484 344.319351,51.456 344.515351,51.456 Z M344.347351,54.144 C342.387351,54.144 341.043351,55.544 341.043351,57.84 C341.043351,59.996 342.415351,61.536 344.347351,61.536 C346.307351,61.536 347.651351,59.996 347.651351,57.84 C347.651351,55.544 346.307351,54.144 344.347351,54.144 Z M356.667351,59.996 C357.815351,59.996 358.739351,60.892 358.739351,62.068 C358.739351,63.244 357.815351,64.14 356.667351,64.14 C355.519351,64.14 354.595351,63.244 354.595351,62.068 C354.595351,60.892 355.519351,59.996 356.667351,59.996 Z M369.967351,44.176 C374.587351,44.176 377.023351,48.012 377.023351,54.2 C377.023351,60.388 374.587351,64.224 369.967351,64.224 C365.347351,64.224 362.911351,60.388 362.911351,54.2 C362.911351,48.012 365.347351,44.176 369.967351,44.176 Z M369.967351,46.864 C367.195351,46.864 365.879351,49.608 365.879351,54.2 C365.879351,58.792 367.195351,61.536 369.967351,61.536 C372.739351,61.536 374.055351,58.792 374.055351,54.2 C374.055351,49.608 372.739351,46.864 369.967351,46.864 Z M387.663351,44.176 C392.283351,44.176 394.719351,48.012 394.719351,54.2 C394.719351,60.388 392.283351,64.224 387.663351,64.224 C383.043351,64.224 380.607351,60.388 380.607351,54.2 C380.607351,48.012 383.043351,44.176 387.663351,44.176 Z M387.663351,46.864 C384.891351,46.864 383.575351,49.608 383.575351,54.2 C383.575351,58.792 384.891351,61.536 387.663351,61.536 C390.435351,61.536 391.751351,58.792 391.751351,54.2 C391.751351,49.608 390.435351,46.864 387.663351,46.864 Z M405.359351,44.176 C409.979351,44.176 412.415351,48.012 412.415351,54.2 C412.415351,60.388 409.979351,64.224 405.359351,64.224 C400.739351,64.224 398.303351,60.388 398.303351,54.2 C398.303351,48.012 400.739351,44.176 405.359351,44.176 Z M405.359351,46.864 C402.587351,46.864 401.271351,49.608 401.271351,54.2 C401.271351,58.792 402.587351,61.536 405.359351,61.536 C408.131351,61.536 409.447351,58.792 409.447351,54.2 C409.447351,49.608 408.131351,46.864 405.359351,46.864 Z M415.019351,53.36 L416.307351,50.784 L417.763351,50.784 C418.575351,46.36 421.431351,44.176 425.127351,44.176 C427.787351,44.176 429.775351,45.38 430.839351,47.368 L428.375351,48.768 C427.619351,47.536 426.723351,46.808 425.127351,46.808 C422.887351,46.808 421.319351,48.012 420.759351,50.784 L426.723351,50.784 L425.435351,53.36 L420.507351,53.36 L420.507351,55.04 L426.723351,55.04 L425.435351,57.616 L420.759351,57.616 C421.319351,60.416 422.887351,61.592 425.127351,61.592 C426.723351,61.592 427.619351,60.864 428.375351,59.632 L430.839351,61.032 C429.775351,63.02 427.787351,64.224 425.127351,64.224 C421.431351,64.224 418.575351,62.04 417.763351,57.616 L415.019351,57.616 L416.307351,55.04 L417.539351,55.04 L417.539351,53.36 L415.019351,53.36 Z" id="186.000€" fill="#444F5A"></path>
                <path d="M322.79774,80.4 L320.67374,80.4 L320.67374,84 L319.61774,84 L319.61774,75.6 L322.79774,75.6 C324.39374,75.6 325.29374,76.512 325.29374,78 C325.29374,79.488 324.39374,80.4 322.79774,80.4 Z M320.67374,79.392 L322.77374,79.392 C323.72174,79.392 324.20174,78.924 324.20174,78 C324.20174,77.076 323.72174,76.608 322.77374,76.608 L320.67374,76.608 L320.67374,79.392 Z M332.54174,80.772 L332.54174,81.192 L327.81374,81.192 C327.87374,82.392 328.60574,83.184 329.67374,83.184 C330.53774,83.184 331.18574,82.788 331.61774,81.984 L332.42174,82.404 C331.83374,83.532 330.92174,84.096 329.67374,84.096 C328.80974,84.096 328.11374,83.796 327.57374,83.208 C327.04574,82.62 326.78174,81.876 326.78174,80.976 C326.78174,80.1 327.04574,79.356 327.56174,78.756 C328.08974,78.156 328.79774,77.856 329.67374,77.856 C330.57374,77.856 331.28174,78.132 331.78574,78.696 C332.28974,79.248 332.54174,79.944 332.54174,80.772 Z M329.67374,78.768 C328.72574,78.768 328.08974,79.332 327.88574,80.28 L331.47374,80.28 C331.29374,79.32 330.64574,78.768 329.67374,78.768 Z M340.01774,79.872 L339.00974,79.872 C338.92574,79.14 338.52974,78.768 337.84574,78.768 C337.28174,78.768 336.78974,79.032 336.39374,79.572 C335.99774,80.1 335.79374,80.844 335.79374,81.816 L335.79374,84 L334.78574,84 L334.78574,77.952 L335.79374,77.952 L335.79374,79.068 C336.30974,78.264 337.05374,77.856 338.02574,77.856 C339.22574,77.856 339.95774,78.576 340.01774,79.872 Z M344.44574,77.856 C345.44174,77.856 346.17374,78.288 346.65374,79.164 L345.86174,79.728 C345.51374,79.092 345.02174,78.768 344.40974,78.768 C343.83374,78.768 343.36574,79.032 343.36574,79.572 C343.36574,80.064 343.80974,80.316 344.76974,80.508 C345.28574,80.616 345.60974,80.688 346.00574,80.868 C346.56974,81.108 346.94174,81.516 346.94174,82.152 C346.94174,82.752 346.71374,83.232 346.26974,83.58 C345.82574,83.928 345.27374,84.096 344.61374,84.096 C343.36574,84.096 342.35774,83.46 341.98574,82.344 L342.94574,81.984 C343.22174,82.74 343.79774,83.184 344.61374,83.184 C345.34574,83.184 345.89774,82.86 345.89774,82.248 C345.89774,81.768 345.44174,81.6 344.33774,81.36 C343.10174,81.108 342.38174,80.676 342.38174,79.608 C342.38174,79.08 342.58574,78.66 342.98174,78.336 C343.37774,78.012 343.86974,77.856 344.44574,77.856 Z M349.74974,83.184 C349.20974,82.572 348.93374,81.84 348.93374,80.976 C348.93374,80.112 349.20974,79.38 349.74974,78.768 C350.28974,78.156 351.00974,77.856 351.90974,77.856 C352.80974,77.856 353.52974,78.156 354.06974,78.768 C354.60974,79.38 354.88574,80.112 354.88574,80.976 C354.88574,81.84 354.60974,82.572 354.06974,83.184 C353.52974,83.796 352.80974,84.096 351.90974,84.096 C351.00974,84.096 350.28974,83.796 349.74974,83.184 Z M350.49374,79.416 C350.14574,79.848 349.96574,80.364 349.96574,80.976 C349.96574,81.588 350.14574,82.104 350.49374,82.536 C350.84174,82.968 351.32174,83.184 351.90974,83.184 C352.49774,83.184 352.97774,82.968 353.32574,82.536 C353.67374,82.104 353.85374,81.588 353.85374,80.976 C353.85374,80.364 353.67374,79.848 353.32574,79.416 C352.97774,78.984 352.49774,78.768 351.90974,78.768 C351.32174,78.768 350.84174,78.984 350.49374,79.416 Z M361.89374,79.788 L361.89374,84 L360.88574,84 L360.88574,80.004 C360.88574,79.176 360.51374,78.768 359.76974,78.768 C359.27774,78.768 358.85774,79.02 358.50974,79.536 C358.16174,80.04 357.99374,80.712 357.99374,81.564 L357.99374,84 L356.98574,84 L356.98574,77.952 L357.99374,77.952 L357.99374,79.068 C358.43774,78.348 359.21774,77.856 360.04574,77.856 C361.28174,77.856 361.89374,78.588 361.89374,79.788 Z M365.43374,82.26 C365.43374,82.836 365.81774,83.184 366.42974,83.184 C366.90974,83.184 367.35374,83.028 367.74974,82.728 C368.15774,82.416 368.36174,81.948 368.36174,81.336 L368.36174,81.144 L367.04174,81.144 C366.02174,81.144 365.43374,81.576 365.43374,82.26 Z M369.36974,80.184 L369.36974,84 L368.55374,84 L368.40974,83.148 C368.02574,83.712 367.17374,84.096 366.27374,84.096 C365.20574,84.096 364.40174,83.448 364.40174,82.26 C364.40174,80.952 365.42174,80.28 367.13774,80.28 L368.36174,80.28 L368.36174,80.016 C368.36174,79.14 367.78574,78.768 366.96974,78.768 C366.28574,78.768 365.73374,79.188 365.54174,79.8 L364.65374,79.56 C364.92974,78.516 365.85374,77.856 366.96974,77.856 C368.45774,77.856 369.36974,78.588 369.36974,80.184 Z M372.92174,81.72 L372.92174,76.512 L371.25374,76.512 L371.25374,75.6 L373.92974,75.6 L373.92974,81.72 C373.92974,82.692 374.34974,83.184 375.20174,83.184 C375.98174,83.184 376.44974,82.692 376.60574,81.72 L377.51774,81.9 C377.31374,83.34 376.46174,84.096 375.20174,84.096 C373.79774,84.096 372.92174,83.22 372.92174,81.72 Z M379.28174,84 L379.28174,75.504 L380.28974,75.504 L380.28974,80.484 L382.86974,77.952 L384.18974,77.952 L381.36974,80.724 L384.46574,84 L383.14574,84 L380.28974,80.964 L380.28974,84 L379.28174,84 Z M386.94974,83.184 C386.40974,82.572 386.13374,81.84 386.13374,80.976 C386.13374,80.112 386.40974,79.38 386.94974,78.768 C387.48974,78.156 388.20974,77.856 389.10974,77.856 C390.00974,77.856 390.72974,78.156 391.26974,78.768 C391.80974,79.38 392.08574,80.112 392.08574,80.976 C392.08574,81.84 391.80974,82.572 391.26974,83.184 C390.72974,83.796 390.00974,84.096 389.10974,84.096 C388.20974,84.096 387.48974,83.796 386.94974,83.184 Z M387.69374,79.416 C387.34574,79.848 387.16574,80.364 387.16574,80.976 C387.16574,81.588 387.34574,82.104 387.69374,82.536 C388.04174,82.968 388.52174,83.184 389.10974,83.184 C389.69774,83.184 390.17774,82.968 390.52574,82.536 C390.87374,82.104 391.05374,81.588 391.05374,80.976 C391.05374,80.364 390.87374,79.848 390.52574,79.416 C390.17774,78.984 389.69774,78.768 389.10974,78.768 C388.52174,78.768 388.04174,78.984 387.69374,79.416 Z M396.52574,77.856 C397.52174,77.856 398.25374,78.288 398.73374,79.164 L397.94174,79.728 C397.59374,79.092 397.10174,78.768 396.48974,78.768 C395.91374,78.768 395.44574,79.032 395.44574,79.572 C395.44574,80.064 395.88974,80.316 396.84974,80.508 C397.36574,80.616 397.68974,80.688 398.08574,80.868 C398.64974,81.108 399.02174,81.516 399.02174,82.152 C399.02174,82.752 398.79374,83.232 398.34974,83.58 C397.90574,83.928 397.35374,84.096 396.69374,84.096 C395.44574,84.096 394.43774,83.46 394.06574,82.344 L395.02574,81.984 C395.30174,82.74 395.87774,83.184 396.69374,83.184 C397.42574,83.184 397.97774,82.86 397.97774,82.248 C397.97774,81.768 397.52174,81.6 396.41774,81.36 C395.18174,81.108 394.46174,80.676 394.46174,79.608 C394.46174,79.08 394.66574,78.66 395.06174,78.336 C395.45774,78.012 395.94974,77.856 396.52574,77.856 Z M402.66974,78.864 L401.06174,78.864 L401.06174,77.952 L402.66974,77.952 L402.66974,76.14 L403.67774,75.504 L403.67774,77.952 L406.62974,77.952 L406.62974,78.864 L403.67774,78.864 L403.67774,81.96 C403.67774,82.776 404.02574,83.184 404.72174,83.184 C405.26174,83.184 405.75374,82.944 406.20974,82.464 L406.58174,83.316 C406.06574,83.832 405.44174,84.096 404.72174,84.096 C403.38974,84.096 402.66974,83.388 402.66974,81.996 L402.66974,78.864 Z M414.38174,80.772 L414.38174,81.192 L409.65374,81.192 C409.71374,82.392 410.44574,83.184 411.51374,83.184 C412.37774,83.184 413.02574,82.788 413.45774,81.984 L414.26174,82.404 C413.67374,83.532 412.76174,84.096 411.51374,84.096 C410.64974,84.096 409.95374,83.796 409.41374,83.208 C408.88574,82.62 408.62174,81.876 408.62174,80.976 C408.62174,80.1 408.88574,79.356 409.40174,78.756 C409.92974,78.156 410.63774,77.856 411.51374,77.856 C412.41374,77.856 413.12174,78.132 413.62574,78.696 C414.12974,79.248 414.38174,79.944 414.38174,80.772 Z M411.51374,78.768 C410.56574,78.768 409.92974,79.332 409.72574,80.28 L413.31374,80.28 C413.13374,79.32 412.48574,78.768 411.51374,78.768 Z M421.41374,79.788 L421.41374,84 L420.40574,84 L420.40574,80.004 C420.40574,79.176 420.03374,78.768 419.28974,78.768 C418.79774,78.768 418.37774,79.02 418.02974,79.536 C417.68174,80.04 417.51374,80.712 417.51374,81.564 L417.51374,84 L416.50574,84 L416.50574,77.952 L417.51374,77.952 L417.51374,79.068 C417.95774,78.348 418.73774,77.856 419.56574,77.856 C420.80174,77.856 421.41374,78.588 421.41374,79.788 Z M349.89374,93.884 C349.89374,93.272 350.09774,92.78 350.49374,92.408 C350.90174,92.036 351.41774,91.856 352.02974,91.856 C352.46174,91.856 352.85774,91.964 353.21774,92.168 L354.47774,91.52 L354.93374,92.348 L353.91374,92.876 C354.08174,93.164 354.16574,93.5 354.16574,93.884 C354.16574,94.496 353.96174,94.988 353.56574,95.36 C353.16974,95.732 352.65374,95.912 352.02974,95.912 C351.60974,95.912 351.23774,95.828 350.91374,95.66 C350.54174,95.804 350.36174,96.008 350.36174,96.284 C350.36174,96.62 350.64974,96.788 351.21374,96.788 L352.78574,96.788 C354.08174,96.788 354.81374,97.364 354.81374,98.456 C354.81374,99.164 354.53774,99.68 353.98574,100.028 C353.43374,100.376 352.76174,100.544 351.98174,100.544 C350.21774,100.544 349.18574,99.848 349.18574,98.552 C349.18574,98.012 349.38974,97.58 349.80974,97.256 C349.52174,97.028 349.37774,96.728 349.37774,96.332 C349.37774,95.792 349.70174,95.324 350.26574,95.12 C350.01374,94.784 349.89374,94.376 349.89374,93.884 Z M352.76174,97.652 L351.33374,97.652 C351.08174,97.652 350.87774,97.64 350.70974,97.604 C350.36174,97.784 350.19374,98.084 350.19374,98.516 C350.19374,99.224 350.88974,99.656 351.98174,99.656 C353.12174,99.656 353.78174,99.236 353.78174,98.552 C353.78174,97.952 353.44574,97.652 352.76174,97.652 Z M351.20174,93.032 C350.98574,93.236 350.87774,93.524 350.87774,93.884 C350.87774,94.244 350.98574,94.532 351.20174,94.736 C351.42974,94.94 351.70574,95.048 352.02974,95.048 C352.35374,95.048 352.62974,94.952 352.84574,94.748 C353.07374,94.544 353.18174,94.256 353.18174,93.884 C353.18174,93.512 353.07374,93.236 352.84574,93.032 C352.62974,92.828 352.35374,92.72 352.02974,92.72 C351.70574,92.72 351.42974,92.828 351.20174,93.032 Z M362.30174,94.772 L362.30174,95.192 L357.57374,95.192 C357.63374,96.392 358.36574,97.184 359.43374,97.184 C360.29774,97.184 360.94574,96.788 361.37774,95.984 L362.18174,96.404 C361.59374,97.532 360.68174,98.096 359.43374,98.096 C358.56974,98.096 357.87374,97.796 357.33374,97.208 C356.80574,96.62 356.54174,95.876 356.54174,94.976 C356.54174,94.1 356.80574,93.356 357.32174,92.756 C357.84974,92.156 358.55774,91.856 359.43374,91.856 C360.33374,91.856 361.04174,92.132 361.54574,92.696 C362.04974,93.248 362.30174,93.944 362.30174,94.772 Z M359.43374,92.768 C358.48574,92.768 357.84974,93.332 357.64574,94.28 L361.23374,94.28 C361.05374,93.32 360.40574,92.768 359.43374,92.768 Z M366.76574,91.856 C367.76174,91.856 368.49374,92.288 368.97374,93.164 L368.18174,93.728 C367.83374,93.092 367.34174,92.768 366.72974,92.768 C366.15374,92.768 365.68574,93.032 365.68574,93.572 C365.68574,94.064 366.12974,94.316 367.08974,94.508 C367.60574,94.616 367.92974,94.688 368.32574,94.868 C368.88974,95.108 369.26174,95.516 369.26174,96.152 C369.26174,96.752 369.03374,97.232 368.58974,97.58 C368.14574,97.928 367.59374,98.096 366.93374,98.096 C365.68574,98.096 364.67774,97.46 364.30574,96.344 L365.26574,95.984 C365.54174,96.74 366.11774,97.184 366.93374,97.184 C367.66574,97.184 368.21774,96.86 368.21774,96.248 C368.21774,95.768 367.76174,95.6 366.65774,95.36 C365.42174,95.108 364.70174,94.676 364.70174,93.608 C364.70174,93.08 364.90574,92.66 365.30174,92.336 C365.69774,92.012 366.18974,91.856 366.76574,91.856 Z M372.87374,96.26 C372.87374,96.836 373.25774,97.184 373.86974,97.184 C374.34974,97.184 374.79374,97.028 375.18974,96.728 C375.59774,96.416 375.80174,95.948 375.80174,95.336 L375.80174,95.144 L374.48174,95.144 C373.46174,95.144 372.87374,95.576 372.87374,96.26 Z M376.80974,94.184 L376.80974,98 L375.99374,98 L375.84974,97.148 C375.46574,97.712 374.61374,98.096 373.71374,98.096 C372.64574,98.096 371.84174,97.448 371.84174,96.26 C371.84174,94.952 372.86174,94.28 374.57774,94.28 L375.80174,94.28 L375.80174,94.016 C375.80174,93.14 375.22574,92.768 374.40974,92.768 C373.72574,92.768 373.17374,93.188 372.98174,93.8 L372.09374,93.56 C372.36974,92.516 373.29374,91.856 374.40974,91.856 C375.89774,91.856 376.80974,92.588 376.80974,94.184 Z M385.00574,93.488 L385.00574,98 L383.99774,98 L383.99774,93.704 C383.99774,93.044 383.80574,92.78 383.33774,92.78 C382.71374,92.78 382.26974,93.56 382.26974,95.156 L382.26974,98 L381.26174,98 L381.26174,93.704 C381.26174,93.044 381.06974,92.78 380.60174,92.78 C379.97774,92.78 379.53374,93.56 379.53374,95.156 L379.53374,98 L378.52574,98 L378.52574,91.952 L379.53374,91.952 L379.53374,92.72 C379.89374,92.144 380.36174,91.856 380.94974,91.856 C381.59774,91.856 382.01774,92.18 382.19774,92.84 C382.52174,92.252 383.06174,91.856 383.68574,91.856 C384.48974,91.856 385.00574,92.384 385.00574,93.488 Z M387.78974,92.864 L386.18174,92.864 L386.18174,91.952 L387.78974,91.952 L387.78974,90.14 L388.79774,89.504 L388.79774,91.952 L391.74974,91.952 L391.74974,92.864 L388.79774,92.864 L388.79774,95.96 C388.79774,96.776 389.14574,97.184 389.84174,97.184 C390.38174,97.184 390.87374,96.944 391.32974,96.464 L391.70174,97.316 C391.18574,97.832 390.56174,98.096 389.84174,98.096 C388.50974,98.096 387.78974,97.388 387.78974,95.996 L387.78974,92.864 Z" id="Personalkosten-gesam" fill="#444F5A"></path>
                <g id="Group-5" transform="translate(0.000000, 137.000000)">
                    <rect id="Rectangle-3" fill="#F1F1F1" x="0" y="0" width="239" height="127"></rect>
                    <path d="M80.2293506,48.908 L82.8053506,48.908 L82.8053506,53.836 L87.7613506,53.836 L87.7613506,56.412 L82.8053506,56.412 L82.8053506,61.368 L80.2293506,61.368 L80.2293506,56.412 L75.3013506,56.412 L75.3013506,53.836 L80.2293506,53.836 L80.2293506,48.908 Z M105.121351,51.456 C108.733351,51.456 111.225351,54.144 111.225351,57.84 C111.225351,61.424 108.593351,64.224 104.953351,64.224 C101.313351,64.224 98.6813506,61.424 98.6813506,57.84 C98.6813506,56.524 99.0453506,55.32 99.6333506,54.284 L105.457351,44.176 L108.761351,44.176 L104.477351,51.568 C104.645351,51.484 104.925351,51.456 105.121351,51.456 Z M104.953351,54.144 C102.993351,54.144 101.649351,55.544 101.649351,57.84 C101.649351,59.996 103.021351,61.536 104.953351,61.536 C106.913351,61.536 108.257351,59.996 108.257351,57.84 C108.257351,55.544 106.913351,54.144 104.953351,54.144 Z M121.669351,44.176 C126.289351,44.176 128.725351,48.012 128.725351,54.2 C128.725351,60.388 126.289351,64.224 121.669351,64.224 C117.049351,64.224 114.613351,60.388 114.613351,54.2 C114.613351,48.012 117.049351,44.176 121.669351,44.176 Z M121.669351,46.864 C118.897351,46.864 117.581351,49.608 117.581351,54.2 C117.581351,58.792 118.897351,61.536 121.669351,61.536 C124.441351,61.536 125.757351,58.792 125.757351,54.2 C125.757351,49.608 124.441351,46.864 121.669351,46.864 Z M139.365351,44.176 C143.985351,44.176 146.421351,48.012 146.421351,54.2 C146.421351,60.388 143.985351,64.224 139.365351,64.224 C134.745351,64.224 132.309351,60.388 132.309351,54.2 C132.309351,48.012 134.745351,44.176 139.365351,44.176 Z M139.365351,46.864 C136.593351,46.864 135.277351,49.608 135.277351,54.2 C135.277351,58.792 136.593351,61.536 139.365351,61.536 C142.137351,61.536 143.453351,58.792 143.453351,54.2 C143.453351,49.608 142.137351,46.864 139.365351,46.864 Z M150.621351,44.176 L153.533351,44.176 L153.533351,52.296 C154.541351,50.84 156.165351,49.664 158.293351,49.664 C160.897351,49.664 162.465351,51.064 162.465351,54.06 L162.465351,64 L159.553351,64 L159.553351,54.816 C159.553351,52.66 158.657351,52.24 157.341351,52.24 C155.745351,52.24 153.533351,54.284 153.533351,58.036 L153.533351,64 L150.621351,64 L150.621351,44.176 Z" id="+-600h" fill="#444F5A"></path>
                    <path d="M49.5613506,84 L49.5613506,75.6 L54.8053506,75.6 L54.8053506,76.608 L50.6173506,76.608 L50.6173506,79.116 L54.2173506,79.116 L54.2173506,80.124 L50.6173506,80.124 L50.6173506,84 L49.5613506,84 Z M62.6173506,79.872 L61.6093506,79.872 C61.5253506,79.14 61.1293506,78.768 60.4453506,78.768 C59.8813506,78.768 59.3893506,79.032 58.9933506,79.572 C58.5973506,80.1 58.3933506,80.844 58.3933506,81.816 L58.3933506,84 L57.3853506,84 L57.3853506,77.952 L58.3933506,77.952 L58.3933506,79.068 C58.9093506,78.264 59.6533506,77.856 60.6253506,77.856 C61.8253506,77.856 62.5573506,78.576 62.6173506,79.872 Z M70.0213506,80.772 L70.0213506,81.192 L65.2933506,81.192 C65.3533506,82.392 66.0853506,83.184 67.1533506,83.184 C68.0173506,83.184 68.6653506,82.788 69.0973506,81.984 L69.9013506,82.404 C69.3133506,83.532 68.4013506,84.096 67.1533506,84.096 C66.2893506,84.096 65.5933506,83.796 65.0533506,83.208 C64.5253506,82.62 64.2613506,81.876 64.2613506,80.976 C64.2613506,80.1 64.5253506,79.356 65.0413506,78.756 C65.5693506,78.156 66.2773506,77.856 67.1533506,77.856 C68.0533506,77.856 68.7613506,78.132 69.2653506,78.696 C69.7693506,79.248 70.0213506,79.944 70.0213506,80.772 Z M67.1533506,78.768 C66.2053506,78.768 65.5693506,79.332 65.3653506,80.28 L68.9533506,80.28 C68.7733506,79.32 68.1253506,78.768 67.1533506,78.768 Z M74.1853506,78.84 L72.3373506,78.84 L72.3373506,77.952 L75.1933506,77.952 L75.1933506,83.112 L77.4253506,83.112 L77.4253506,84 L72.0973506,84 L72.0973506,83.112 L74.1853506,83.112 L74.1853506,78.84 Z M73.7893506,76.344 C73.7893506,75.876 74.1493506,75.504 74.6173506,75.504 C75.0853506,75.504 75.4453506,75.876 75.4453506,76.344 C75.4453506,76.812 75.0853506,77.16 74.6173506,77.16 C74.1493506,77.16 73.7893506,76.788 73.7893506,76.344 Z M83.4853506,82.428 L84.3133506,77.952 L85.3453506,77.952 L84.0253506,84 L83.1133506,84 L81.9493506,79.752 L80.7853506,84 L79.8733506,84 L78.5533506,77.952 L79.5853506,77.952 L80.4133506,82.428 L81.4453506,78.552 L82.4533506,78.552 L83.4853506,82.428 Z M89.0653506,78.84 L87.2173506,78.84 L87.2173506,77.952 L90.0733506,77.952 L90.0733506,83.112 L92.3053506,83.112 L92.3053506,84 L86.9773506,84 L86.9773506,83.112 L89.0653506,83.112 L89.0653506,78.84 Z M88.6693506,76.344 C88.6693506,75.876 89.0293506,75.504 89.4973506,75.504 C89.9653506,75.504 90.3253506,75.876 90.3253506,76.344 C90.3253506,76.812 89.9653506,77.16 89.4973506,77.16 C89.0293506,77.16 88.6693506,76.788 88.6693506,76.344 Z M95.5213506,81.72 L95.5213506,76.512 L93.8533506,76.512 L93.8533506,75.6 L96.5293506,75.6 L96.5293506,81.72 C96.5293506,82.692 96.9493506,83.184 97.8013506,83.184 C98.5813506,83.184 99.0493506,82.692 99.2053506,81.72 L100.117351,81.9 C99.9133506,83.34 99.0613506,84.096 97.8013506,84.096 C96.3973506,84.096 95.5213506,83.22 95.5213506,81.72 Z M102.961351,81.72 L102.961351,76.512 L101.293351,76.512 L101.293351,75.6 L103.969351,75.6 L103.969351,81.72 C103.969351,82.692 104.389351,83.184 105.241351,83.184 C106.021351,83.184 106.489351,82.692 106.645351,81.72 L107.557351,81.9 C107.353351,83.34 106.501351,84.096 105.241351,84.096 C103.837351,84.096 102.961351,83.22 102.961351,81.72 Z M111.385351,78.84 L109.537351,78.84 L109.537351,77.952 L112.393351,77.952 L112.393351,83.112 L114.625351,83.112 L114.625351,84 L109.297351,84 L109.297351,83.112 L111.385351,83.112 L111.385351,78.84 Z M110.989351,76.344 C110.989351,75.876 111.349351,75.504 111.817351,75.504 C112.285351,75.504 112.645351,75.876 112.645351,76.344 C112.645351,76.812 112.285351,77.16 111.817351,77.16 C111.349351,77.16 110.989351,76.788 110.989351,76.344 Z M117.133351,79.884 C117.133351,79.272 117.337351,78.78 117.733351,78.408 C118.141351,78.036 118.657351,77.856 119.269351,77.856 C119.701351,77.856 120.097351,77.964 120.457351,78.168 L121.717351,77.52 L122.173351,78.348 L121.153351,78.876 C121.321351,79.164 121.405351,79.5 121.405351,79.884 C121.405351,80.496 121.201351,80.988 120.805351,81.36 C120.409351,81.732 119.893351,81.912 119.269351,81.912 C118.849351,81.912 118.477351,81.828 118.153351,81.66 C117.781351,81.804 117.601351,82.008 117.601351,82.284 C117.601351,82.62 117.889351,82.788 118.453351,82.788 L120.025351,82.788 C121.321351,82.788 122.053351,83.364 122.053351,84.456 C122.053351,85.164 121.777351,85.68 121.225351,86.028 C120.673351,86.376 120.001351,86.544 119.221351,86.544 C117.457351,86.544 116.425351,85.848 116.425351,84.552 C116.425351,84.012 116.629351,83.58 117.049351,83.256 C116.761351,83.028 116.617351,82.728 116.617351,82.332 C116.617351,81.792 116.941351,81.324 117.505351,81.12 C117.253351,80.784 117.133351,80.376 117.133351,79.884 Z M120.001351,83.652 L118.573351,83.652 C118.321351,83.652 118.117351,83.64 117.949351,83.604 C117.601351,83.784 117.433351,84.084 117.433351,84.516 C117.433351,85.224 118.129351,85.656 119.221351,85.656 C120.361351,85.656 121.021351,85.236 121.021351,84.552 C121.021351,83.952 120.685351,83.652 120.001351,83.652 Z M118.441351,79.032 C118.225351,79.236 118.117351,79.524 118.117351,79.884 C118.117351,80.244 118.225351,80.532 118.441351,80.736 C118.669351,80.94 118.945351,81.048 119.269351,81.048 C119.593351,81.048 119.869351,80.952 120.085351,80.748 C120.313351,80.544 120.421351,80.256 120.421351,79.884 C120.421351,79.512 120.313351,79.236 120.085351,79.032 C119.869351,78.828 119.593351,78.72 119.269351,78.72 C118.945351,78.72 118.669351,78.828 118.441351,79.032 Z M129.541351,80.772 L129.541351,81.192 L124.813351,81.192 C124.873351,82.392 125.605351,83.184 126.673351,83.184 C127.537351,83.184 128.185351,82.788 128.617351,81.984 L129.421351,82.404 C128.833351,83.532 127.921351,84.096 126.673351,84.096 C125.809351,84.096 125.113351,83.796 124.573351,83.208 C124.045351,82.62 123.781351,81.876 123.781351,80.976 C123.781351,80.1 124.045351,79.356 124.561351,78.756 C125.089351,78.156 125.797351,77.856 126.673351,77.856 C127.573351,77.856 128.281351,78.132 128.785351,78.696 C129.289351,79.248 129.541351,79.944 129.541351,80.772 Z M126.673351,78.768 C125.725351,78.768 125.089351,79.332 124.885351,80.28 L128.473351,80.28 C128.293351,79.32 127.645351,78.768 126.673351,78.768 Z M136.573351,79.788 L136.573351,84 L135.565351,84 L135.565351,80.004 C135.565351,79.176 135.193351,78.768 134.449351,78.768 C133.957351,78.768 133.537351,79.02 133.189351,79.536 C132.841351,80.04 132.673351,80.712 132.673351,81.564 L132.673351,84 L131.665351,84 L131.665351,77.952 L132.673351,77.952 L132.673351,79.068 C133.117351,78.348 133.897351,77.856 134.725351,77.856 C135.961351,77.856 136.573351,78.588 136.573351,79.788 Z M141.445351,77.856 C142.441351,77.856 143.173351,78.288 143.653351,79.164 L142.861351,79.728 C142.513351,79.092 142.021351,78.768 141.409351,78.768 C140.833351,78.768 140.365351,79.032 140.365351,79.572 C140.365351,80.064 140.809351,80.316 141.769351,80.508 C142.285351,80.616 142.609351,80.688 143.005351,80.868 C143.569351,81.108 143.941351,81.516 143.941351,82.152 C143.941351,82.752 143.713351,83.232 143.269351,83.58 C142.825351,83.928 142.273351,84.096 141.613351,84.096 C140.365351,84.096 139.357351,83.46 138.985351,82.344 L139.945351,81.984 C140.221351,82.74 140.797351,83.184 141.613351,83.184 C142.345351,83.184 142.897351,82.86 142.897351,82.248 C142.897351,81.768 142.441351,81.6 141.337351,81.36 C140.101351,81.108 139.381351,80.676 139.381351,79.608 C139.381351,79.08 139.585351,78.66 139.981351,78.336 C140.377351,78.012 140.869351,77.856 141.445351,77.856 Z M147.589351,78.864 L145.981351,78.864 L145.981351,77.952 L147.589351,77.952 L147.589351,76.14 L148.597351,75.504 L148.597351,77.952 L151.549351,77.952 L151.549351,78.864 L148.597351,78.864 L148.597351,81.96 C148.597351,82.776 148.945351,83.184 149.641351,83.184 C150.181351,83.184 150.673351,82.944 151.129351,82.464 L151.501351,83.316 C150.985351,83.832 150.361351,84.096 149.641351,84.096 C148.309351,84.096 147.589351,83.388 147.589351,81.996 L147.589351,78.864 Z M153.865351,82.164 L153.865351,77.952 L154.873351,77.952 L154.873351,81.948 C154.873351,82.776 155.245351,83.184 155.989351,83.184 C156.481351,83.184 156.901351,82.932 157.249351,82.428 C157.597351,81.912 157.765351,81.24 157.765351,80.388 L157.765351,77.952 L158.773351,77.952 L158.773351,84 L157.765351,84 L157.765351,82.884 C157.321351,83.604 156.541351,84.096 155.713351,84.096 C154.477351,84.096 153.865351,83.364 153.865351,82.164 Z M166.333351,79.788 L166.333351,84 L165.325351,84 L165.325351,80.004 C165.325351,79.176 164.953351,78.768 164.209351,78.768 C163.717351,78.768 163.297351,79.02 162.949351,79.536 C162.601351,80.04 162.433351,80.712 162.433351,81.564 L162.433351,84 L161.425351,84 L161.425351,77.952 L162.433351,77.952 L162.433351,79.068 C162.877351,78.348 163.657351,77.856 164.485351,77.856 C165.721351,77.856 166.333351,78.588 166.333351,79.788 Z M171.121351,77.856 C171.925351,77.856 172.597351,78.228 172.969351,78.72 L172.969351,75.504 L173.977351,75.504 L173.977351,84 L172.969351,84 L172.969351,83.196 C172.597351,83.712 171.901351,84.096 171.121351,84.096 C169.381351,84.096 168.349351,82.86 168.349351,80.976 C168.349351,79.092 169.381351,77.856 171.121351,77.856 Z M169.873351,79.38 C169.549351,79.788 169.381351,80.316 169.381351,80.976 C169.381351,81.636 169.549351,82.164 169.873351,82.572 C170.197351,82.98 170.653351,83.184 171.217351,83.184 C171.781351,83.184 172.237351,82.98 172.561351,82.572 C172.885351,82.164 173.053351,81.636 173.053351,80.976 C173.053351,80.316 172.885351,79.788 172.561351,79.38 C172.237351,78.972 171.781351,78.768 171.217351,78.768 C170.653351,78.768 170.197351,78.972 169.873351,79.38 Z M181.621351,80.772 L181.621351,81.192 L176.893351,81.192 C176.953351,82.392 177.685351,83.184 178.753351,83.184 C179.617351,83.184 180.265351,82.788 180.697351,81.984 L181.501351,82.404 C180.913351,83.532 180.001351,84.096 178.753351,84.096 C177.889351,84.096 177.193351,83.796 176.653351,83.208 C176.125351,82.62 175.861351,81.876 175.861351,80.976 C175.861351,80.1 176.125351,79.356 176.641351,78.756 C177.169351,78.156 177.877351,77.856 178.753351,77.856 C179.653351,77.856 180.361351,78.132 180.865351,78.696 C181.369351,79.248 181.621351,79.944 181.621351,80.772 Z M178.753351,78.768 C177.805351,78.768 177.169351,79.332 176.965351,80.28 L180.553351,80.28 C180.373351,79.32 179.725351,78.768 178.753351,78.768 Z M188.653351,79.788 L188.653351,84 L187.645351,84 L187.645351,80.004 C187.645351,79.176 187.273351,78.768 186.529351,78.768 C186.037351,78.768 185.617351,79.02 185.269351,79.536 C184.921351,80.04 184.753351,80.712 184.753351,81.564 L184.753351,84 L183.745351,84 L183.745351,77.952 L184.753351,77.952 L184.753351,79.068 C185.197351,78.348 185.977351,77.856 186.805351,77.856 C188.041351,77.856 188.653351,78.588 188.653351,79.788 Z M54.4333506,89.852 L54.1813506,90.74 C53.8453506,90.524 53.5213506,90.416 53.2093506,90.416 C52.6213506,90.416 52.3213506,90.8 52.3213506,91.556 L52.3213506,91.952 L54.6733506,91.952 L54.6733506,92.864 L52.3213506,92.864 L52.3213506,98 L51.3133506,98 L51.3133506,92.864 L49.6093506,92.864 L49.6093506,91.952 L51.3133506,91.952 L51.3133506,91.58 C51.3133506,90.2 51.9373506,89.504 53.1733506,89.504 C53.6293506,89.504 54.0493506,89.624 54.4333506,89.852 Z M57.1453506,96.164 L57.1453506,91.952 L58.1533506,91.952 L58.1533506,95.948 C58.1533506,96.776 58.5253506,97.184 59.2693506,97.184 C59.7613506,97.184 60.1813506,96.932 60.5293506,96.428 C60.8773506,95.912 61.0453506,95.24 61.0453506,94.388 L61.0453506,91.952 L62.0533506,91.952 L62.0533506,98 L61.0453506,98 L61.0453506,96.884 C60.6013506,97.604 59.8213506,98.096 58.9933506,98.096 C57.7573506,98.096 57.1453506,97.364 57.1453506,96.164 Z M58.5253506,89.504 C58.9213506,89.504 59.2093506,89.804 59.2093506,90.188 C59.2093506,90.572 58.9213506,90.86 58.5253506,90.86 C58.1533506,90.86 57.8533506,90.572 57.8533506,90.188 C57.8533506,89.804 58.1533506,89.504 58.5253506,89.504 Z M60.7333506,89.504 C61.1293506,89.504 61.4173506,89.804 61.4173506,90.188 C61.4173506,90.572 61.1293506,90.86 60.7333506,90.86 C60.3613506,90.86 60.0613506,90.572 60.0613506,90.188 C60.0613506,89.804 60.3613506,89.504 60.7333506,89.504 Z M70.0573506,93.872 L69.0493506,93.872 C68.9653506,93.14 68.5693506,92.768 67.8853506,92.768 C67.3213506,92.768 66.8293506,93.032 66.4333506,93.572 C66.0373506,94.1 65.8333506,94.844 65.8333506,95.816 L65.8333506,98 L64.8253506,98 L64.8253506,91.952 L65.8333506,91.952 L65.8333506,93.068 C66.3493506,92.264 67.0933506,91.856 68.0653506,91.856 C69.2653506,91.856 69.9973506,92.576 70.0573506,93.872 Z M82.5973506,94.4 L80.4733506,94.4 L80.4733506,98 L79.4173506,98 L79.4173506,89.6 L82.5973506,89.6 C84.1933506,89.6 85.0933506,90.512 85.0933506,92 C85.0933506,93.488 84.1933506,94.4 82.5973506,94.4 Z M80.4733506,93.392 L82.5733506,93.392 C83.5213506,93.392 84.0013506,92.924 84.0013506,92 C84.0013506,91.076 83.5213506,90.608 82.5733506,90.608 L80.4733506,90.608 L80.4733506,93.392 Z M92.3773506,93.872 L91.3693506,93.872 C91.2853506,93.14 90.8893506,92.768 90.2053506,92.768 C89.6413506,92.768 89.1493506,93.032 88.7533506,93.572 C88.3573506,94.1 88.1533506,94.844 88.1533506,95.816 L88.1533506,98 L87.1453506,98 L87.1453506,91.952 L88.1533506,91.952 L88.1533506,93.068 C88.6693506,92.264 89.4133506,91.856 90.3853506,91.856 C91.5853506,91.856 92.3173506,92.576 92.3773506,93.872 Z M94.6693506,97.184 C94.1293506,96.572 93.8533506,95.84 93.8533506,94.976 C93.8533506,94.112 94.1293506,93.38 94.6693506,92.768 C95.2093506,92.156 95.9293506,91.856 96.8293506,91.856 C97.7293506,91.856 98.4493506,92.156 98.9893506,92.768 C99.5293506,93.38 99.8053506,94.112 99.8053506,94.976 C99.8053506,95.84 99.5293506,96.572 98.9893506,97.184 C98.4493506,97.796 97.7293506,98.096 96.8293506,98.096 C95.9293506,98.096 95.2093506,97.796 94.6693506,97.184 Z M95.4133506,93.416 C95.0653506,93.848 94.8853506,94.364 94.8853506,94.976 C94.8853506,95.588 95.0653506,96.104 95.4133506,96.536 C95.7613506,96.968 96.2413506,97.184 96.8293506,97.184 C97.4173506,97.184 97.8973506,96.968 98.2453506,96.536 C98.5933506,96.104 98.7733506,95.588 98.7733506,94.976 C98.7733506,94.364 98.5933506,93.848 98.2453506,93.416 C97.8973506,92.984 97.4173506,92.768 96.8293506,92.768 C96.2413506,92.768 95.7613506,92.984 95.4133506,93.416 Z M103.441351,100.544 L103.105351,99.584 C104.257351,99.2 104.725351,98.588 104.725351,97.4 L104.725351,92.84 L102.349351,92.84 L102.349351,91.952 L105.733351,91.952 L105.733351,97.664 C105.733351,98.468 105.505351,99.116 105.061351,99.584 C104.617351,100.064 104.077351,100.388 103.441351,100.544 Z M104.329351,90.344 C104.329351,89.876 104.689351,89.504 105.157351,89.504 C105.625351,89.504 105.985351,89.876 105.985351,90.344 C105.985351,90.812 105.625351,91.16 105.157351,91.16 C104.689351,91.16 104.329351,90.788 104.329351,90.344 Z M114.661351,94.772 L114.661351,95.192 L109.933351,95.192 C109.993351,96.392 110.725351,97.184 111.793351,97.184 C112.657351,97.184 113.305351,96.788 113.737351,95.984 L114.541351,96.404 C113.953351,97.532 113.041351,98.096 111.793351,98.096 C110.929351,98.096 110.233351,97.796 109.693351,97.208 C109.165351,96.62 108.901351,95.876 108.901351,94.976 C108.901351,94.1 109.165351,93.356 109.681351,92.756 C110.209351,92.156 110.917351,91.856 111.793351,91.856 C112.693351,91.856 113.401351,92.132 113.905351,92.696 C114.409351,93.248 114.661351,93.944 114.661351,94.772 Z M111.793351,92.768 C110.845351,92.768 110.209351,93.332 110.005351,94.28 L113.593351,94.28 C113.413351,93.32 112.765351,92.768 111.793351,92.768 Z M116.761351,98 L116.761351,89.504 L117.769351,89.504 L117.769351,94.484 L120.349351,91.952 L121.669351,91.952 L118.849351,94.724 L121.945351,98 L120.625351,98 L117.769351,94.964 L117.769351,98 L116.761351,98 Z M125.269351,92.864 L123.661351,92.864 L123.661351,91.952 L125.269351,91.952 L125.269351,90.14 L126.277351,89.504 L126.277351,91.952 L129.229351,91.952 L129.229351,92.864 L126.277351,92.864 L126.277351,95.96 C126.277351,96.776 126.625351,97.184 127.321351,97.184 C127.861351,97.184 128.353351,96.944 128.809351,96.464 L129.181351,97.316 C128.665351,97.832 128.041351,98.096 127.321351,98.096 C125.989351,98.096 125.269351,97.388 125.269351,95.996 L125.269351,92.864 Z M134.365351,98.096 C133.585351,98.096 132.889351,97.712 132.517351,97.196 L132.517351,98 L131.509351,98 L131.509351,89.504 L132.517351,89.504 L132.517351,92.72 C132.889351,92.228 133.561351,91.856 134.365351,91.856 C136.105351,91.856 137.137351,93.092 137.137351,94.976 C137.137351,96.86 136.105351,98.096 134.365351,98.096 Z M135.613351,96.572 C135.937351,96.164 136.105351,95.636 136.105351,94.976 C136.105351,94.316 135.937351,93.788 135.613351,93.38 C135.289351,92.972 134.833351,92.768 134.269351,92.768 C133.705351,92.768 133.249351,92.972 132.925351,93.38 C132.601351,93.788 132.433351,94.316 132.433351,94.976 C132.433351,95.636 132.601351,96.164 132.925351,96.572 C133.249351,96.98 133.705351,97.184 134.269351,97.184 C134.833351,97.184 135.289351,96.98 135.613351,96.572 Z M144.421351,94.772 L144.421351,95.192 L139.693351,95.192 C139.753351,96.392 140.485351,97.184 141.553351,97.184 C142.417351,97.184 143.065351,96.788 143.497351,95.984 L144.301351,96.404 C143.713351,97.532 142.801351,98.096 141.553351,98.096 C140.689351,98.096 139.993351,97.796 139.453351,97.208 C138.925351,96.62 138.661351,95.876 138.661351,94.976 C138.661351,94.1 138.925351,93.356 139.441351,92.756 C139.969351,92.156 140.677351,91.856 141.553351,91.856 C142.453351,91.856 143.161351,92.132 143.665351,92.696 C144.169351,93.248 144.421351,93.944 144.421351,94.772 Z M141.553351,92.768 C140.605351,92.768 139.969351,93.332 139.765351,94.28 L143.353351,94.28 C143.173351,93.32 142.525351,92.768 141.553351,92.768 Z M151.897351,93.872 L150.889351,93.872 C150.805351,93.14 150.409351,92.768 149.725351,92.768 C149.161351,92.768 148.669351,93.032 148.273351,93.572 C147.877351,94.1 147.673351,94.844 147.673351,95.816 L147.673351,98 L146.665351,98 L146.665351,91.952 L147.673351,91.952 L147.673351,93.068 C148.189351,92.264 148.933351,91.856 149.905351,91.856 C151.105351,91.856 151.837351,92.576 151.897351,93.872 Z M154.993351,96.26 C154.993351,96.836 155.377351,97.184 155.989351,97.184 C156.469351,97.184 156.913351,97.028 157.309351,96.728 C157.717351,96.416 157.921351,95.948 157.921351,95.336 L157.921351,95.144 L156.601351,95.144 C155.581351,95.144 154.993351,95.576 154.993351,96.26 Z M158.929351,94.184 L158.929351,98 L158.113351,98 L157.969351,97.148 C157.585351,97.712 156.733351,98.096 155.833351,98.096 C154.765351,98.096 153.961351,97.448 153.961351,96.26 C153.961351,94.952 154.981351,94.28 156.697351,94.28 L157.921351,94.28 L157.921351,94.016 C157.921351,93.14 157.345351,92.768 156.529351,92.768 C155.845351,92.768 155.293351,93.188 155.101351,93.8 L154.213351,93.56 C154.489351,92.516 155.413351,91.856 156.529351,91.856 C158.017351,91.856 158.929351,92.588 158.929351,94.184 Z M162.469351,92.864 L160.861351,92.864 L160.861351,91.952 L162.469351,91.952 L162.469351,90.14 L163.477351,89.504 L163.477351,91.952 L166.429351,91.952 L166.429351,92.864 L163.477351,92.864 L163.477351,95.96 C163.477351,96.776 163.825351,97.184 164.521351,97.184 C165.061351,97.184 165.553351,96.944 166.009351,96.464 L166.381351,97.316 C165.865351,97.832 165.241351,98.096 164.521351,98.096 C163.189351,98.096 162.469351,97.388 162.469351,95.996 L162.469351,92.864 Z M168.745351,96.164 L168.745351,91.952 L169.753351,91.952 L169.753351,95.948 C169.753351,96.776 170.125351,97.184 170.869351,97.184 C171.361351,97.184 171.781351,96.932 172.129351,96.428 C172.477351,95.912 172.645351,95.24 172.645351,94.388 L172.645351,91.952 L173.653351,91.952 L173.653351,98 L172.645351,98 L172.645351,96.884 C172.201351,97.604 171.421351,98.096 170.593351,98.096 C169.357351,98.096 168.745351,97.364 168.745351,96.164 Z M181.213351,93.788 L181.213351,98 L180.205351,98 L180.205351,94.004 C180.205351,93.176 179.833351,92.768 179.089351,92.768 C178.597351,92.768 178.177351,93.02 177.829351,93.536 C177.481351,94.04 177.313351,94.712 177.313351,95.564 L177.313351,98 L176.305351,98 L176.305351,91.952 L177.313351,91.952 L177.313351,93.068 C177.757351,92.348 178.537351,91.856 179.365351,91.856 C180.601351,91.856 181.213351,92.588 181.213351,93.788 Z M184.093351,93.884 C184.093351,93.272 184.297351,92.78 184.693351,92.408 C185.101351,92.036 185.617351,91.856 186.229351,91.856 C186.661351,91.856 187.057351,91.964 187.417351,92.168 L188.677351,91.52 L189.133351,92.348 L188.113351,92.876 C188.281351,93.164 188.365351,93.5 188.365351,93.884 C188.365351,94.496 188.161351,94.988 187.765351,95.36 C187.369351,95.732 186.853351,95.912 186.229351,95.912 C185.809351,95.912 185.437351,95.828 185.113351,95.66 C184.741351,95.804 184.561351,96.008 184.561351,96.284 C184.561351,96.62 184.849351,96.788 185.413351,96.788 L186.985351,96.788 C188.281351,96.788 189.013351,97.364 189.013351,98.456 C189.013351,99.164 188.737351,99.68 188.185351,100.028 C187.633351,100.376 186.961351,100.544 186.181351,100.544 C184.417351,100.544 183.385351,99.848 183.385351,98.552 C183.385351,98.012 183.589351,97.58 184.009351,97.256 C183.721351,97.028 183.577351,96.728 183.577351,96.332 C183.577351,95.792 183.901351,95.324 184.465351,95.12 C184.213351,94.784 184.093351,94.376 184.093351,93.884 Z M186.961351,97.652 L185.533351,97.652 C185.281351,97.652 185.077351,97.64 184.909351,97.604 C184.561351,97.784 184.393351,98.084 184.393351,98.516 C184.393351,99.224 185.089351,99.656 186.181351,99.656 C187.321351,99.656 187.981351,99.236 187.981351,98.552 C187.981351,97.952 187.645351,97.652 186.961351,97.652 Z M185.401351,93.032 C185.185351,93.236 185.077351,93.524 185.077351,93.884 C185.077351,94.244 185.185351,94.532 185.401351,94.736 C185.629351,94.94 185.905351,95.048 186.229351,95.048 C186.553351,95.048 186.829351,94.952 187.045351,94.748 C187.273351,94.544 187.381351,94.256 187.381351,93.884 C187.381351,93.512 187.273351,93.236 187.045351,93.032 C186.829351,92.828 186.553351,92.72 186.229351,92.72 C185.905351,92.72 185.629351,92.828 185.401351,93.032 Z" id="Freiwilligenstunden" fill="#444F5A"></path>
                </g>
            </g>
        </g>
    </g>
</svg>