<?xml version="1.0" encoding="UTF-8"?>
<svg width="490px" height="127px" viewBox="0 0 490 127" version="1.1" xmlns="http://www.w3.org/2000/svg" xmlns:xlink="http://www.w3.org/1999/xlink">
    <!-- Generator: Sketch 50.2 (55047) - http://www.bohemiancoding.com/sketch -->
    <title>Group</title>
    <desc>Created with Sketch.</desc>
    <defs></defs>
    <g id="Ressourcen" stroke="none" stroke-width="1" fill="none" fill-rule="evenodd">
        <g id="Code-for" transform="translate(-621.000000, -348.000000)">
            <g id="Group" transform="translate(621.000000, 348.000000)">
                <rect id="Rectangle-3" fill="#F1F1F1" x="0" y="0" width="239" height="127"></rect>
                <path d="M107.24,44.176 C111.86,44.176 114.296,48.012 114.296,54.2 C114.296,60.388 111.86,64.224 107.24,64.224 C102.62,64.224 100.184,60.388 100.184,54.2 C100.184,48.012 102.62,44.176 107.24,44.176 Z M107.24,46.864 C104.468,46.864 103.152,49.608 103.152,54.2 C103.152,58.792 104.468,61.536 107.24,61.536 C110.012,61.536 111.328,58.792 111.328,54.2 C111.328,49.608 110.012,46.864 107.24,46.864 Z M117.628,48.656 C117.628,46.164 119.616,44.176 122.164,44.176 C124.712,44.176 126.7,46.164 126.7,48.656 C126.7,51.148 124.712,53.136 122.164,53.136 C119.616,53.136 117.628,51.148 117.628,48.656 Z M120.092,48.656 C120.092,49.888 120.876,50.812 122.164,50.812 C123.452,50.812 124.236,49.888 124.236,48.656 C124.236,47.424 123.452,46.5 122.164,46.5 C120.876,46.5 120.092,47.424 120.092,48.656 Z M128.996,59.744 C128.996,57.252 130.984,55.264 133.532,55.264 C136.08,55.264 138.068,57.252 138.068,59.744 C138.068,62.236 136.08,64.224 133.532,64.224 C130.984,64.224 128.996,62.236 128.996,59.744 Z M131.46,59.744 C131.46,60.976 132.244,61.9 133.532,61.9 C134.82,61.9 135.604,60.976 135.604,59.744 C135.604,58.512 134.82,57.588 133.532,57.588 C132.244,57.588 131.46,58.512 131.46,59.744 Z M134.764,43.476 L136.388,44.736 L121.296,64.896 L119.672,63.636 L134.764,43.476 Z" id="0%" fill="#444F5A"></path>
                <path d="M75.952,84 L75.952,75.6 L81.196,75.6 L81.196,76.608 L77.008,76.608 L77.008,79.116 L80.608,79.116 L80.608,80.124 L77.008,80.124 L77.008,84 L75.952,84 Z M85.696,78.84 L83.848,78.84 L83.848,77.952 L86.704,77.952 L86.704,83.112 L88.936,83.112 L88.936,84 L83.608,84 L83.608,83.112 L85.696,83.112 L85.696,78.84 Z M85.3,76.344 C85.3,75.876 85.66,75.504 86.128,75.504 C86.596,75.504 86.956,75.876 86.956,76.344 C86.956,76.812 86.596,77.16 86.128,77.16 C85.66,77.16 85.3,76.788 85.3,76.344 Z M96.004,79.788 L96.004,84 L94.996,84 L94.996,80.004 C94.996,79.176 94.624,78.768 93.88,78.768 C93.388,78.768 92.968,79.02 92.62,79.536 C92.272,80.04 92.104,80.712 92.104,81.564 L92.104,84 L91.096,84 L91.096,77.952 L92.104,77.952 L92.104,79.068 C92.548,78.348 93.328,77.856 94.156,77.856 C95.392,77.856 96.004,78.588 96.004,79.788 Z M99.544,82.26 C99.544,82.836 99.928,83.184 100.54,83.184 C101.02,83.184 101.464,83.028 101.86,82.728 C102.268,82.416 102.472,81.948 102.472,81.336 L102.472,81.144 L101.152,81.144 C100.132,81.144 99.544,81.576 99.544,82.26 Z M103.48,80.184 L103.48,84 L102.664,84 L102.52,83.148 C102.136,83.712 101.284,84.096 100.384,84.096 C99.316,84.096 98.512,83.448 98.512,82.26 C98.512,80.952 99.532,80.28 101.248,80.28 L102.472,80.28 L102.472,80.016 C102.472,79.14 101.896,78.768 101.08,78.768 C100.396,78.768 99.844,79.188 99.652,79.8 L98.764,79.56 C99.04,78.516 99.964,77.856 101.08,77.856 C102.568,77.856 103.48,78.588 103.48,80.184 Z M110.884,79.788 L110.884,84 L109.876,84 L109.876,80.004 C109.876,79.176 109.504,78.768 108.76,78.768 C108.268,78.768 107.848,79.02 107.5,79.536 C107.152,80.04 106.984,80.712 106.984,81.564 L106.984,84 L105.976,84 L105.976,77.952 L106.984,77.952 L106.984,79.068 C107.428,78.348 108.208,77.856 109.036,77.856 C110.272,77.856 110.884,78.588 110.884,79.788 Z M116.548,78.864 L113.536,78.864 L113.536,77.952 L118.072,77.952 L118.072,78.384 L114.868,83.088 L118.216,83.088 L118.216,84 L113.38,84 L113.38,83.568 L116.548,78.864 Z M122.896,78.84 L121.048,78.84 L121.048,77.952 L123.904,77.952 L123.904,83.112 L126.136,83.112 L126.136,84 L120.808,84 L120.808,83.112 L122.896,83.112 L122.896,78.84 Z M122.5,76.344 C122.5,75.876 122.86,75.504 123.328,75.504 C123.796,75.504 124.156,75.876 124.156,76.344 C124.156,76.812 123.796,77.16 123.328,77.16 C122.86,77.16 122.5,76.788 122.5,76.344 Z M133.612,80.772 L133.612,81.192 L128.884,81.192 C128.944,82.392 129.676,83.184 130.744,83.184 C131.608,83.184 132.256,82.788 132.688,81.984 L133.492,82.404 C132.904,83.532 131.992,84.096 130.744,84.096 C129.88,84.096 129.184,83.796 128.644,83.208 C128.116,82.62 127.852,81.876 127.852,80.976 C127.852,80.1 128.116,79.356 128.632,78.756 C129.16,78.156 129.868,77.856 130.744,77.856 C131.644,77.856 132.352,78.132 132.856,78.696 C133.36,79.248 133.612,79.944 133.612,80.772 Z M130.744,78.768 C129.796,78.768 129.16,79.332 128.956,80.28 L132.544,80.28 C132.364,79.32 131.716,78.768 130.744,78.768 Z M141.088,79.872 L140.08,79.872 C139.996,79.14 139.6,78.768 138.916,78.768 C138.352,78.768 137.86,79.032 137.464,79.572 C137.068,80.1 136.864,80.844 136.864,81.816 L136.864,84 L135.856,84 L135.856,77.952 L136.864,77.952 L136.864,79.068 C137.38,78.264 138.124,77.856 139.096,77.856 C140.296,77.856 141.028,78.576 141.088,79.872 Z M143.056,82.164 L143.056,77.952 L144.064,77.952 L144.064,81.948 C144.064,82.776 144.436,83.184 145.18,83.184 C145.672,83.184 146.092,82.932 146.44,82.428 C146.788,81.912 146.956,81.24 146.956,80.388 L146.956,77.952 L147.964,77.952 L147.964,84 L146.956,84 L146.956,82.884 C146.512,83.604 145.732,84.096 144.904,84.096 C143.668,84.096 143.056,83.364 143.056,82.164 Z M155.524,79.788 L155.524,84 L154.516,84 L154.516,80.004 C154.516,79.176 154.144,78.768 153.4,78.768 C152.908,78.768 152.488,79.02 152.14,79.536 C151.792,80.04 151.624,80.712 151.624,81.564 L151.624,84 L150.616,84 L150.616,77.952 L151.624,77.952 L151.624,79.068 C152.068,78.348 152.848,77.856 153.676,77.856 C154.912,77.856 155.524,78.588 155.524,79.788 Z M158.404,79.884 C158.404,79.272 158.608,78.78 159.004,78.408 C159.412,78.036 159.928,77.856 160.54,77.856 C160.972,77.856 161.368,77.964 161.728,78.168 L162.988,77.52 L163.444,78.348 L162.424,78.876 C162.592,79.164 162.676,79.5 162.676,79.884 C162.676,80.496 162.472,80.988 162.076,81.36 C161.68,81.732 161.164,81.912 160.54,81.912 C160.12,81.912 159.748,81.828 159.424,81.66 C159.052,81.804 158.872,82.008 158.872,82.284 C158.872,82.62 159.16,82.788 159.724,82.788 L161.296,82.788 C162.592,82.788 163.324,83.364 163.324,84.456 C163.324,85.164 163.048,85.68 162.496,86.028 C161.944,86.376 161.272,86.544 160.492,86.544 C158.728,86.544 157.696,85.848 157.696,84.552 C157.696,84.012 157.9,83.58 158.32,83.256 C158.032,83.028 157.888,82.728 157.888,82.332 C157.888,81.792 158.212,81.324 158.776,81.12 C158.524,80.784 158.404,80.376 158.404,79.884 Z M161.272,83.652 L159.844,83.652 C159.592,83.652 159.388,83.64 159.22,83.604 C158.872,83.784 158.704,84.084 158.704,84.516 C158.704,85.224 159.4,85.656 160.492,85.656 C161.632,85.656 162.292,85.236 162.292,84.552 C162.292,83.952 161.956,83.652 161.272,83.652 Z M159.712,79.032 C159.496,79.236 159.388,79.524 159.388,79.884 C159.388,80.244 159.496,80.532 159.712,80.736 C159.94,80.94 160.216,81.048 160.54,81.048 C160.864,81.048 161.14,80.952 161.356,80.748 C161.584,80.544 161.692,80.256 161.692,79.884 C161.692,79.512 161.584,79.236 161.356,79.032 C161.14,78.828 160.864,78.72 160.54,78.72 C160.216,78.72 159.94,78.828 159.712,79.032 Z" id="Finanzierung" fill="#444F5A"></path>
                <g id="Group-5" transform="translate(251.000000, 0.000000)">
                    <rect id="Rectangle-3" fill="#F1F1F1" x="0" y="0" width="239" height="127"></rect>
                    <path d="M81.9933506,59.212 L84.5973506,60.332 C83.4773506,62.88 81.4893506,64.224 78.4933506,64.224 C74.0133506,64.224 71.8573506,60.808 71.8573506,56.944 C71.8573506,53.08 74.0133506,49.664 78.4933506,49.664 C81.4893506,49.664 83.4773506,51.008 84.5973506,53.556 L81.9933506,54.676 C81.3213506,53.164 80.1733506,52.24 78.4933506,52.24 C76.0013506,52.24 74.9373506,54.284 74.9373506,56.944 C74.9373506,59.604 76.0013506,61.648 78.4933506,61.648 C80.1733506,61.648 81.3213506,60.724 81.9933506,59.212 Z M86.8933506,59.94 C86.8933506,57.028 89.3853506,55.32 92.9973506,55.32 L95.4333506,55.32 L95.4333506,54.704 C95.4333506,52.94 94.1733506,52.24 92.6893506,52.24 C91.5413506,52.24 90.5333506,52.856 90.0573506,54.116 L87.3973506,53.556 C87.9853506,51.176 90.0013506,49.664 92.7173506,49.664 C95.9933506,49.664 98.3453506,51.092 98.3453506,55.236 L98.3453506,64 L95.8813506,64 L95.6013506,62.152 C94.6773506,63.44 93.2213506,64.224 91.2333506,64.224 C88.8813506,64.224 86.8933506,62.88 86.8933506,59.94 Z M89.9733506,59.94 C89.9733506,60.892 90.5053506,61.648 91.7373506,61.648 C93.5293506,61.648 95.4333506,60.5 95.4333506,58.064 L95.4333506,57.756 L92.8853506,57.756 C91.0933506,57.756 89.9733506,58.596 89.9733506,59.94 Z M104.505351,59.996 C105.653351,59.996 106.577351,60.892 106.577351,62.068 C106.577351,63.244 105.653351,64.14 104.505351,64.14 C103.357351,64.14 102.433351,63.244 102.433351,62.068 C102.433351,60.892 103.357351,59.996 104.505351,59.996 Z M117.833351,58.596 L120.717351,58.232 C121.053351,60.304 122.201351,61.536 124.245351,61.536 C126.261351,61.536 127.745351,60.22 127.745351,57.756 C127.745351,55.208 126.233351,53.92 124.245351,53.92 C123.657351,53.92 123.153351,54.032 122.537351,54.312 L121.361351,52.744 L125.421351,47.088 L118.785351,47.088 L118.785351,44.4 L129.705351,44.4 L129.705351,45.408 L124.945351,51.904 C125.169351,51.848 125.505351,51.82 125.757351,51.82 C128.781351,51.82 130.713351,54.34 130.713351,57.756 C130.713351,61.508 127.857351,64.224 124.245351,64.224 C120.885351,64.224 118.057351,61.872 117.833351,58.596 Z M141.269351,44.176 C145.889351,44.176 148.325351,48.012 148.325351,54.2 C148.325351,60.388 145.889351,64.224 141.269351,64.224 C136.649351,64.224 134.213351,60.388 134.213351,54.2 C134.213351,48.012 136.649351,44.176 141.269351,44.176 Z M141.269351,46.864 C138.497351,46.864 137.181351,49.608 137.181351,54.2 C137.181351,58.792 138.497351,61.536 141.269351,61.536 C144.041351,61.536 145.357351,58.792 145.357351,54.2 C145.357351,49.608 144.041351,46.864 141.269351,46.864 Z M158.965351,44.176 C163.585351,44.176 166.021351,48.012 166.021351,54.2 C166.021351,60.388 163.585351,64.224 158.965351,64.224 C154.345351,64.224 151.909351,60.388 151.909351,54.2 C151.909351,48.012 154.345351,44.176 158.965351,44.176 Z M158.965351,46.864 C156.193351,46.864 154.877351,49.608 154.877351,54.2 C154.877351,58.792 156.193351,61.536 158.965351,61.536 C161.737351,61.536 163.053351,58.792 163.053351,54.2 C163.053351,49.608 161.737351,46.864 158.965351,46.864 Z" id="ca.-300" fill="#444F5A"></path>
                    <path d="M61.0817403,84 L61.0817403,75.6 L66.4097403,75.6 L66.4097403,76.608 L62.1377403,76.608 L62.1377403,79.02 L65.8097403,79.02 L65.8097403,80.028 L62.1377403,80.028 L62.1377403,82.992 L66.5297403,82.992 L66.5297403,84 L61.0817403,84 Z M73.7777403,79.824 L73.7777403,84 L72.7697403,84 L72.7697403,80.04 C72.7697403,79.188 72.3977403,78.768 71.6537403,78.768 C71.1377403,78.768 70.6937403,79.008 70.3097403,79.5 C69.9257403,79.992 69.7337403,80.64 69.7337403,81.468 L69.7337403,84 L68.7257403,84 L68.7257403,75.504 L69.7337403,75.504 L69.7337403,79.068 C70.2137403,78.36 71.0297403,77.856 71.9297403,77.856 C73.1657403,77.856 73.7777403,78.516 73.7777403,79.824 Z M81.5777403,79.872 L80.5697403,79.872 C80.4857403,79.14 80.0897403,78.768 79.4057403,78.768 C78.8417403,78.768 78.3497403,79.032 77.9537403,79.572 C77.5577403,80.1 77.3537403,80.844 77.3537403,81.816 L77.3537403,84 L76.3457403,84 L76.3457403,77.952 L77.3537403,77.952 L77.3537403,79.068 C77.8697403,78.264 78.6137403,77.856 79.5857403,77.856 C80.7857403,77.856 81.5177403,78.576 81.5777403,79.872 Z M88.9817403,80.772 L88.9817403,81.192 L84.2537403,81.192 C84.3137403,82.392 85.0457403,83.184 86.1137403,83.184 C86.9777403,83.184 87.6257403,82.788 88.0577403,81.984 L88.8617403,82.404 C88.2737403,83.532 87.3617403,84.096 86.1137403,84.096 C85.2497403,84.096 84.5537403,83.796 84.0137403,83.208 C83.4857403,82.62 83.2217403,81.876 83.2217403,80.976 C83.2217403,80.1 83.4857403,79.356 84.0017403,78.756 C84.5297403,78.156 85.2377403,77.856 86.1137403,77.856 C87.0137403,77.856 87.7217403,78.132 88.2257403,78.696 C88.7297403,79.248 88.9817403,79.944 88.9817403,80.772 Z M86.1137403,78.768 C85.1657403,78.768 84.5297403,79.332 84.3257403,80.28 L87.9137403,80.28 C87.7337403,79.32 87.0857403,78.768 86.1137403,78.768 Z M96.0137403,79.788 L96.0137403,84 L95.0057403,84 L95.0057403,80.004 C95.0057403,79.176 94.6337403,78.768 93.8897403,78.768 C93.3977403,78.768 92.9777403,79.02 92.6297403,79.536 C92.2817403,80.04 92.1137403,80.712 92.1137403,81.564 L92.1137403,84 L91.1057403,84 L91.1057403,77.952 L92.1137403,77.952 L92.1137403,79.068 C92.5577403,78.348 93.3377403,77.856 94.1657403,77.856 C95.4017403,77.856 96.0137403,78.588 96.0137403,79.788 Z M99.5537403,82.26 C99.5537403,82.836 99.9377403,83.184 100.54974,83.184 C101.02974,83.184 101.47374,83.028 101.86974,82.728 C102.27774,82.416 102.48174,81.948 102.48174,81.336 L102.48174,81.144 L101.16174,81.144 C100.14174,81.144 99.5537403,81.576 99.5537403,82.26 Z M103.48974,80.184 L103.48974,84 L102.67374,84 L102.52974,83.148 C102.14574,83.712 101.29374,84.096 100.39374,84.096 C99.3257403,84.096 98.5217403,83.448 98.5217403,82.26 C98.5217403,80.952 99.5417403,80.28 101.25774,80.28 L102.48174,80.28 L102.48174,80.016 C102.48174,79.14 101.90574,78.768 101.08974,78.768 C100.40574,78.768 99.8537403,79.188 99.6617403,79.8 L98.7737403,79.56 C99.0497403,78.516 99.9737403,77.856 101.08974,77.856 C102.57774,77.856 103.48974,78.588 103.48974,80.184 Z M111.68574,79.488 L111.68574,84 L110.67774,84 L110.67774,79.704 C110.67774,79.044 110.48574,78.78 110.01774,78.78 C109.39374,78.78 108.94974,79.56 108.94974,81.156 L108.94974,84 L107.94174,84 L107.94174,79.704 C107.94174,79.044 107.74974,78.78 107.28174,78.78 C106.65774,78.78 106.21374,79.56 106.21374,81.156 L106.21374,84 L105.20574,84 L105.20574,77.952 L106.21374,77.952 L106.21374,78.72 C106.57374,78.144 107.04174,77.856 107.62974,77.856 C108.27774,77.856 108.69774,78.18 108.87774,78.84 C109.20174,78.252 109.74174,77.856 110.36574,77.856 C111.16974,77.856 111.68574,78.384 111.68574,79.488 Z M114.46974,78.864 L112.86174,78.864 L112.86174,77.952 L114.46974,77.952 L114.46974,76.14 L115.47774,75.504 L115.47774,77.952 L118.42974,77.952 L118.42974,78.864 L115.47774,78.864 L115.47774,81.96 C115.47774,82.776 115.82574,83.184 116.52174,83.184 C117.06174,83.184 117.55374,82.944 118.00974,82.464 L118.38174,83.316 C117.86574,83.832 117.24174,84.096 116.52174,84.096 C115.18974,84.096 114.46974,83.388 114.46974,81.996 L114.46974,78.864 Z M121.92174,81.72 L121.92174,76.512 L120.25374,76.512 L120.25374,75.6 L122.92974,75.6 L122.92974,81.72 C122.92974,82.692 123.34974,83.184 124.20174,83.184 C124.98174,83.184 125.44974,82.692 125.60574,81.72 L126.51774,81.9 C126.31374,83.34 125.46174,84.096 124.20174,84.096 C122.79774,84.096 121.92174,83.22 121.92174,81.72 Z M130.34574,78.84 L128.49774,78.84 L128.49774,77.952 L131.35374,77.952 L131.35374,83.112 L133.58574,83.112 L133.58574,84 L128.25774,84 L128.25774,83.112 L130.34574,83.112 L130.34574,78.84 Z M129.94974,76.344 C129.94974,75.876 130.30974,75.504 130.77774,75.504 C131.24574,75.504 131.60574,75.876 131.60574,76.344 C131.60574,76.812 131.24574,77.16 130.77774,77.16 C130.30974,77.16 129.94974,76.788 129.94974,76.344 Z M140.02974,82.068 L140.90574,82.428 C140.41374,83.544 139.56174,84.096 138.34974,84.096 C137.46174,84.096 136.75374,83.796 136.23774,83.184 C135.72174,82.572 135.45774,81.84 135.45774,80.976 C135.45774,80.112 135.72174,79.38 136.23774,78.768 C136.75374,78.156 137.46174,77.856 138.34974,77.856 C139.56174,77.856 140.41374,78.408 140.90574,79.524 L140.02974,79.884 C139.70574,79.14 139.15374,78.768 138.34974,78.768 C137.18574,78.768 136.48974,79.68 136.48974,80.976 C136.48974,82.272 137.18574,83.184 138.34974,83.184 C139.15374,83.184 139.70574,82.812 140.02974,82.068 Z M148.17774,79.824 L148.17774,84 L147.16974,84 L147.16974,80.04 C147.16974,79.188 146.79774,78.768 146.05374,78.768 C145.53774,78.768 145.09374,79.008 144.70974,79.5 C144.32574,79.992 144.13374,80.64 144.13374,81.468 L144.13374,84 L143.12574,84 L143.12574,75.504 L144.13374,75.504 L144.13374,79.068 C144.61374,78.36 145.42974,77.856 146.32974,77.856 C147.56574,77.856 148.17774,78.516 148.17774,79.824 Z M155.94174,80.772 L155.94174,81.192 L151.21374,81.192 C151.27374,82.392 152.00574,83.184 153.07374,83.184 C153.93774,83.184 154.58574,82.788 155.01774,81.984 L155.82174,82.404 C155.23374,83.532 154.32174,84.096 153.07374,84.096 C152.20974,84.096 151.51374,83.796 150.97374,83.208 C150.44574,82.62 150.18174,81.876 150.18174,80.976 C150.18174,80.1 150.44574,79.356 150.96174,78.756 C151.48974,78.156 152.19774,77.856 153.07374,77.856 C153.97374,77.856 154.68174,78.132 155.18574,78.696 C155.68974,79.248 155.94174,79.944 155.94174,80.772 Z M153.07374,78.768 C152.12574,78.768 151.48974,79.332 151.28574,80.28 L154.87374,80.28 C154.69374,79.32 154.04574,78.768 153.07374,78.768 Z M167.54574,78.84 L165.69774,78.84 L165.69774,77.952 L168.55374,77.952 L168.55374,83.112 L170.78574,83.112 L170.78574,84 L165.45774,84 L165.45774,83.112 L167.54574,83.112 L167.54574,78.84 Z M167.14974,76.344 C167.14974,75.876 167.50974,75.504 167.97774,75.504 C168.44574,75.504 168.80574,75.876 168.80574,76.344 C168.80574,76.812 168.44574,77.16 167.97774,77.16 C167.50974,77.16 167.14974,76.788 167.14974,76.344 Z M177.85374,79.788 L177.85374,84 L176.84574,84 L176.84574,80.004 C176.84574,79.176 176.47374,78.768 175.72974,78.768 C175.23774,78.768 174.81774,79.02 174.46974,79.536 C174.12174,80.04 173.95374,80.712 173.95374,81.564 L173.95374,84 L172.94574,84 L172.94574,77.952 L173.95374,77.952 L173.95374,79.068 C174.39774,78.348 175.17774,77.856 176.00574,77.856 C177.24174,77.856 177.85374,78.588 177.85374,79.788 Z M74.7617403,91.856 C75.5657403,91.856 76.2377403,92.228 76.6097403,92.72 L76.6097403,89.504 L77.6177403,89.504 L77.6177403,98 L76.6097403,98 L76.6097403,97.196 C76.2377403,97.712 75.5417403,98.096 74.7617403,98.096 C73.0217403,98.096 71.9897403,96.86 71.9897403,94.976 C71.9897403,93.092 73.0217403,91.856 74.7617403,91.856 Z M73.5137403,93.38 C73.1897403,93.788 73.0217403,94.316 73.0217403,94.976 C73.0217403,95.636 73.1897403,96.164 73.5137403,96.572 C73.8377403,96.98 74.2937403,97.184 74.8577403,97.184 C75.4217403,97.184 75.8777403,96.98 76.2017403,96.572 C76.5257403,96.164 76.6937403,95.636 76.6937403,94.976 C76.6937403,94.316 76.5257403,93.788 76.2017403,93.38 C75.8777403,92.972 75.4217403,92.768 74.8577403,92.768 C74.2937403,92.768 73.8377403,92.972 73.5137403,93.38 Z M85.2617403,94.772 L85.2617403,95.192 L80.5337403,95.192 C80.5937403,96.392 81.3257403,97.184 82.3937403,97.184 C83.2577403,97.184 83.9057403,96.788 84.3377403,95.984 L85.1417403,96.404 C84.5537403,97.532 83.6417403,98.096 82.3937403,98.096 C81.5297403,98.096 80.8337403,97.796 80.2937403,97.208 C79.7657403,96.62 79.5017403,95.876 79.5017403,94.976 C79.5017403,94.1 79.7657403,93.356 80.2817403,92.756 C80.8097403,92.156 81.5177403,91.856 82.3937403,91.856 C83.2937403,91.856 84.0017403,92.132 84.5057403,92.696 C85.0097403,93.248 85.2617403,93.944 85.2617403,94.772 Z M82.3937403,92.768 C81.4457403,92.768 80.8097403,93.332 80.6057403,94.28 L84.1937403,94.28 C84.0137403,93.32 83.3657403,92.768 82.3937403,92.768 Z M92.7377403,93.872 L91.7297403,93.872 C91.6457403,93.14 91.2497403,92.768 90.5657403,92.768 C90.0017403,92.768 89.5097403,93.032 89.1137403,93.572 C88.7177403,94.1 88.5137403,94.844 88.5137403,95.816 L88.5137403,98 L87.5057403,98 L87.5057403,91.952 L88.5137403,91.952 L88.5137403,93.068 C89.0297403,92.264 89.7737403,91.856 90.7457403,91.856 C91.9457403,91.856 92.6777403,92.576 92.7377403,93.872 Z M106.98174,95.24 L107.97774,95.54 C107.59374,97.088 106.53774,98.096 104.96574,98.096 C103.95774,98.096 103.12974,97.724 102.46974,96.992 C101.82174,96.26 101.49774,95.192 101.49774,93.8 C101.49774,92.408 101.82174,91.34 102.46974,90.608 C103.12974,89.876 103.95774,89.504 104.96574,89.504 C106.53774,89.504 107.59374,90.512 107.97774,92.06 L106.98174,92.36 C106.59774,91.112 106.00974,90.512 104.96574,90.512 C103.47774,90.512 102.58974,91.58 102.58974,93.8 C102.58974,96.02 103.47774,97.088 104.96574,97.088 C106.00974,97.088 106.59774,96.488 106.98174,95.24 Z M109.90974,97.184 C109.36974,96.572 109.09374,95.84 109.09374,94.976 C109.09374,94.112 109.36974,93.38 109.90974,92.768 C110.44974,92.156 111.16974,91.856 112.06974,91.856 C112.96974,91.856 113.68974,92.156 114.22974,92.768 C114.76974,93.38 115.04574,94.112 115.04574,94.976 C115.04574,95.84 114.76974,96.572 114.22974,97.184 C113.68974,97.796 112.96974,98.096 112.06974,98.096 C111.16974,98.096 110.44974,97.796 109.90974,97.184 Z M110.65374,93.416 C110.30574,93.848 110.12574,94.364 110.12574,94.976 C110.12574,95.588 110.30574,96.104 110.65374,96.536 C111.00174,96.968 111.48174,97.184 112.06974,97.184 C112.65774,97.184 113.13774,96.968 113.48574,96.536 C113.83374,96.104 114.01374,95.588 114.01374,94.976 C114.01374,94.364 113.83374,93.848 113.48574,93.416 C113.13774,92.984 112.65774,92.768 112.06974,92.768 C111.48174,92.768 111.00174,92.984 110.65374,93.416 Z M122.84574,93.488 L122.84574,98 L121.83774,98 L121.83774,93.704 C121.83774,93.044 121.64574,92.78 121.17774,92.78 C120.55374,92.78 120.10974,93.56 120.10974,95.156 L120.10974,98 L119.10174,98 L119.10174,93.704 C119.10174,93.044 118.90974,92.78 118.44174,92.78 C117.81774,92.78 117.37374,93.56 117.37374,95.156 L117.37374,98 L116.36574,98 L116.36574,91.952 L117.37374,91.952 L117.37374,92.72 C117.73374,92.144 118.20174,91.856 118.78974,91.856 C119.43774,91.856 119.85774,92.18 120.03774,92.84 C120.36174,92.252 120.90174,91.856 121.52574,91.856 C122.32974,91.856 122.84574,92.384 122.84574,93.488 Z M130.28574,93.488 L130.28574,98 L129.27774,98 L129.27774,93.704 C129.27774,93.044 129.08574,92.78 128.61774,92.78 C127.99374,92.78 127.54974,93.56 127.54974,95.156 L127.54974,98 L126.54174,98 L126.54174,93.704 C126.54174,93.044 126.34974,92.78 125.88174,92.78 C125.25774,92.78 124.81374,93.56 124.81374,95.156 L124.81374,98 L123.80574,98 L123.80574,91.952 L124.81374,91.952 L124.81374,92.72 C125.17374,92.144 125.64174,91.856 126.22974,91.856 C126.87774,91.856 127.29774,92.18 127.47774,92.84 C127.80174,92.252 128.34174,91.856 128.96574,91.856 C129.76974,91.856 130.28574,92.384 130.28574,93.488 Z M131.90574,96.164 L131.90574,91.952 L132.91374,91.952 L132.91374,95.948 C132.91374,96.776 133.28574,97.184 134.02974,97.184 C134.52174,97.184 134.94174,96.932 135.28974,96.428 C135.63774,95.912 135.80574,95.24 135.80574,94.388 L135.80574,91.952 L136.81374,91.952 L136.81374,98 L135.80574,98 L135.80574,96.884 C135.36174,97.604 134.58174,98.096 133.75374,98.096 C132.51774,98.096 131.90574,97.364 131.90574,96.164 Z M144.37374,93.788 L144.37374,98 L143.36574,98 L143.36574,94.004 C143.36574,93.176 142.99374,92.768 142.24974,92.768 C141.75774,92.768 141.33774,93.02 140.98974,93.536 C140.64174,94.04 140.47374,94.712 140.47374,95.564 L140.47374,98 L139.46574,98 L139.46574,91.952 L140.47374,91.952 L140.47374,93.068 C140.91774,92.348 141.69774,91.856 142.52574,91.856 C143.76174,91.856 144.37374,92.588 144.37374,93.788 Z M148.94574,92.84 L147.09774,92.84 L147.09774,91.952 L149.95374,91.952 L149.95374,97.112 L152.18574,97.112 L152.18574,98 L146.85774,98 L146.85774,97.112 L148.94574,97.112 L148.94574,92.84 Z M148.54974,90.344 C148.54974,89.876 148.90974,89.504 149.37774,89.504 C149.84574,89.504 150.20574,89.876 150.20574,90.344 C150.20574,90.812 149.84574,91.16 149.37774,91.16 C148.90974,91.16 148.54974,90.788 148.54974,90.344 Z M155.38974,92.864 L153.78174,92.864 L153.78174,91.952 L155.38974,91.952 L155.38974,90.14 L156.39774,89.504 L156.39774,91.952 L159.34974,91.952 L159.34974,92.864 L156.39774,92.864 L156.39774,95.96 C156.39774,96.776 156.74574,97.184 157.44174,97.184 C157.98174,97.184 158.47374,96.944 158.92974,96.464 L159.30174,97.316 C158.78574,97.832 158.16174,98.096 157.44174,98.096 C156.10974,98.096 155.38974,97.388 155.38974,95.996 L155.38974,92.864 Z M164.44974,96.38 L166.23774,91.952 L167.32974,91.952 L163.74174,100.448 L162.73374,100.448 L163.90974,97.592 L161.29374,91.952 L162.42174,91.952 L164.44974,96.38 Z" id="Ehrenamtliche-in-der" fill="#444F5A"></path>
                </g>
            </g>
        </g>
    </g>
</svg>