<?xml version="1.0" encoding="UTF-8"?>
<svg width="490px" height="127px" viewBox="0 0 490 127" version="1.1" xmlns="http://www.w3.org/2000/svg" xmlns:xlink="http://www.w3.org/1999/xlink">
    <!-- Generator: Sketch 50.2 (55047) - http://www.bohemiancoding.com/sketch -->
    <title>Group 2</title>
    <desc>Created with Sketch.</desc>
    <defs></defs>
    <g id="Ressourcen" stroke="none" stroke-width="1" fill="none" fill-rule="evenodd">
        <g id="Datenschule" transform="translate(-621.000000, -348.000000)">
            <g id="Group-2" transform="translate(621.000000, 348.000000)">
                <rect id="Rectangle-3" fill="#F1F1F1" x="0" y="0" width="239" height="127"></rect>
                <path d="M91.42,44.4 L92.624,44.4 L92.624,64 L89.656,64 L89.656,48.6 L85.988,50.784 L85.988,47.648 L91.42,44.4 Z M103.936,44.176 C108.556,44.176 110.992,48.012 110.992,54.2 C110.992,60.388 108.556,64.224 103.936,64.224 C99.316,64.224 96.88,60.388 96.88,54.2 C96.88,48.012 99.316,44.176 103.936,44.176 Z M103.936,46.864 C101.164,46.864 99.848,49.608 99.848,54.2 C99.848,58.792 101.164,61.536 103.936,61.536 C106.708,61.536 108.024,58.792 108.024,54.2 C108.024,49.608 106.708,46.864 103.936,46.864 Z M121.632,44.176 C126.252,44.176 128.688,48.012 128.688,54.2 C128.688,60.388 126.252,64.224 121.632,64.224 C117.012,64.224 114.576,60.388 114.576,54.2 C114.576,48.012 117.012,44.176 121.632,44.176 Z M121.632,46.864 C118.86,46.864 117.544,49.608 117.544,54.2 C117.544,58.792 118.86,61.536 121.632,61.536 C124.404,61.536 125.72,58.792 125.72,54.2 C125.72,49.608 124.404,46.864 121.632,46.864 Z M132.02,48.656 C132.02,46.164 134.008,44.176 136.556,44.176 C139.104,44.176 141.092,46.164 141.092,48.656 C141.092,51.148 139.104,53.136 136.556,53.136 C134.008,53.136 132.02,51.148 132.02,48.656 Z M134.484,48.656 C134.484,49.888 135.268,50.812 136.556,50.812 C137.844,50.812 138.628,49.888 138.628,48.656 C138.628,47.424 137.844,46.5 136.556,46.5 C135.268,46.5 134.484,47.424 134.484,48.656 Z M143.388,59.744 C143.388,57.252 145.376,55.264 147.924,55.264 C150.472,55.264 152.46,57.252 152.46,59.744 C152.46,62.236 150.472,64.224 147.924,64.224 C145.376,64.224 143.388,62.236 143.388,59.744 Z M145.852,59.744 C145.852,60.976 146.636,61.9 147.924,61.9 C149.212,61.9 149.996,60.976 149.996,59.744 C149.996,58.512 149.212,57.588 147.924,57.588 C146.636,57.588 145.852,58.512 145.852,59.744 Z M149.156,43.476 L150.78,44.736 L135.688,64.896 L134.064,63.636 L149.156,43.476 Z" id="100%" fill="#444F5A"></path>
                <path d="M75.952,84 L75.952,75.6 L81.196,75.6 L81.196,76.608 L77.008,76.608 L77.008,79.116 L80.608,79.116 L80.608,80.124 L77.008,80.124 L77.008,84 L75.952,84 Z M85.696,78.84 L83.848,78.84 L83.848,77.952 L86.704,77.952 L86.704,83.112 L88.936,83.112 L88.936,84 L83.608,84 L83.608,83.112 L85.696,83.112 L85.696,78.84 Z M85.3,76.344 C85.3,75.876 85.66,75.504 86.128,75.504 C86.596,75.504 86.956,75.876 86.956,76.344 C86.956,76.812 86.596,77.16 86.128,77.16 C85.66,77.16 85.3,76.788 85.3,76.344 Z M96.004,79.788 L96.004,84 L94.996,84 L94.996,80.004 C94.996,79.176 94.624,78.768 93.88,78.768 C93.388,78.768 92.968,79.02 92.62,79.536 C92.272,80.04 92.104,80.712 92.104,81.564 L92.104,84 L91.096,84 L91.096,77.952 L92.104,77.952 L92.104,79.068 C92.548,78.348 93.328,77.856 94.156,77.856 C95.392,77.856 96.004,78.588 96.004,79.788 Z M99.544,82.26 C99.544,82.836 99.928,83.184 100.54,83.184 C101.02,83.184 101.464,83.028 101.86,82.728 C102.268,82.416 102.472,81.948 102.472,81.336 L102.472,81.144 L101.152,81.144 C100.132,81.144 99.544,81.576 99.544,82.26 Z M103.48,80.184 L103.48,84 L102.664,84 L102.52,83.148 C102.136,83.712 101.284,84.096 100.384,84.096 C99.316,84.096 98.512,83.448 98.512,82.26 C98.512,80.952 99.532,80.28 101.248,80.28 L102.472,80.28 L102.472,80.016 C102.472,79.14 101.896,78.768 101.08,78.768 C100.396,78.768 99.844,79.188 99.652,79.8 L98.764,79.56 C99.04,78.516 99.964,77.856 101.08,77.856 C102.568,77.856 103.48,78.588 103.48,80.184 Z M110.884,79.788 L110.884,84 L109.876,84 L109.876,80.004 C109.876,79.176 109.504,78.768 108.76,78.768 C108.268,78.768 107.848,79.02 107.5,79.536 C107.152,80.04 106.984,80.712 106.984,81.564 L106.984,84 L105.976,84 L105.976,77.952 L106.984,77.952 L106.984,79.068 C107.428,78.348 108.208,77.856 109.036,77.856 C110.272,77.856 110.884,78.588 110.884,79.788 Z M116.548,78.864 L113.536,78.864 L113.536,77.952 L118.072,77.952 L118.072,78.384 L114.868,83.088 L118.216,83.088 L118.216,84 L113.38,84 L113.38,83.568 L116.548,78.864 Z M122.896,78.84 L121.048,78.84 L121.048,77.952 L123.904,77.952 L123.904,83.112 L126.136,83.112 L126.136,84 L120.808,84 L120.808,83.112 L122.896,83.112 L122.896,78.84 Z M122.5,76.344 C122.5,75.876 122.86,75.504 123.328,75.504 C123.796,75.504 124.156,75.876 124.156,76.344 C124.156,76.812 123.796,77.16 123.328,77.16 C122.86,77.16 122.5,76.788 122.5,76.344 Z M133.612,80.772 L133.612,81.192 L128.884,81.192 C128.944,82.392 129.676,83.184 130.744,83.184 C131.608,83.184 132.256,82.788 132.688,81.984 L133.492,82.404 C132.904,83.532 131.992,84.096 130.744,84.096 C129.88,84.096 129.184,83.796 128.644,83.208 C128.116,82.62 127.852,81.876 127.852,80.976 C127.852,80.1 128.116,79.356 128.632,78.756 C129.16,78.156 129.868,77.856 130.744,77.856 C131.644,77.856 132.352,78.132 132.856,78.696 C133.36,79.248 133.612,79.944 133.612,80.772 Z M130.744,78.768 C129.796,78.768 129.16,79.332 128.956,80.28 L132.544,80.28 C132.364,79.32 131.716,78.768 130.744,78.768 Z M141.088,79.872 L140.08,79.872 C139.996,79.14 139.6,78.768 138.916,78.768 C138.352,78.768 137.86,79.032 137.464,79.572 C137.068,80.1 136.864,80.844 136.864,81.816 L136.864,84 L135.856,84 L135.856,77.952 L136.864,77.952 L136.864,79.068 C137.38,78.264 138.124,77.856 139.096,77.856 C140.296,77.856 141.028,78.576 141.088,79.872 Z M143.056,82.164 L143.056,77.952 L144.064,77.952 L144.064,81.948 C144.064,82.776 144.436,83.184 145.18,83.184 C145.672,83.184 146.092,82.932 146.44,82.428 C146.788,81.912 146.956,81.24 146.956,80.388 L146.956,77.952 L147.964,77.952 L147.964,84 L146.956,84 L146.956,82.884 C146.512,83.604 145.732,84.096 144.904,84.096 C143.668,84.096 143.056,83.364 143.056,82.164 Z M155.524,79.788 L155.524,84 L154.516,84 L154.516,80.004 C154.516,79.176 154.144,78.768 153.4,78.768 C152.908,78.768 152.488,79.02 152.14,79.536 C151.792,80.04 151.624,80.712 151.624,81.564 L151.624,84 L150.616,84 L150.616,77.952 L151.624,77.952 L151.624,79.068 C152.068,78.348 152.848,77.856 153.676,77.856 C154.912,77.856 155.524,78.588 155.524,79.788 Z M158.404,79.884 C158.404,79.272 158.608,78.78 159.004,78.408 C159.412,78.036 159.928,77.856 160.54,77.856 C160.972,77.856 161.368,77.964 161.728,78.168 L162.988,77.52 L163.444,78.348 L162.424,78.876 C162.592,79.164 162.676,79.5 162.676,79.884 C162.676,80.496 162.472,80.988 162.076,81.36 C161.68,81.732 161.164,81.912 160.54,81.912 C160.12,81.912 159.748,81.828 159.424,81.66 C159.052,81.804 158.872,82.008 158.872,82.284 C158.872,82.62 159.16,82.788 159.724,82.788 L161.296,82.788 C162.592,82.788 163.324,83.364 163.324,84.456 C163.324,85.164 163.048,85.68 162.496,86.028 C161.944,86.376 161.272,86.544 160.492,86.544 C158.728,86.544 157.696,85.848 157.696,84.552 C157.696,84.012 157.9,83.58 158.32,83.256 C158.032,83.028 157.888,82.728 157.888,82.332 C157.888,81.792 158.212,81.324 158.776,81.12 C158.524,80.784 158.404,80.376 158.404,79.884 Z M161.272,83.652 L159.844,83.652 C159.592,83.652 159.388,83.64 159.22,83.604 C158.872,83.784 158.704,84.084 158.704,84.516 C158.704,85.224 159.4,85.656 160.492,85.656 C161.632,85.656 162.292,85.236 162.292,84.552 C162.292,83.952 161.956,83.652 161.272,83.652 Z M159.712,79.032 C159.496,79.236 159.388,79.524 159.388,79.884 C159.388,80.244 159.496,80.532 159.712,80.736 C159.94,80.94 160.216,81.048 160.54,81.048 C160.864,81.048 161.14,80.952 161.356,80.748 C161.584,80.544 161.692,80.256 161.692,79.884 C161.692,79.512 161.584,79.236 161.356,79.032 C161.14,78.828 160.864,78.72 160.54,78.72 C160.216,78.72 159.94,78.828 159.712,79.032 Z" id="Finanzierung" fill="#444F5A"></path>
                <g id="Group-5" transform="translate(251.000000, 0.000000)">
                    <rect id="Rectangle-3" fill="#F1F1F1" x="0" y="0" width="239" height="127"></rect>
                    <path d="M64.5353506,44.4 L65.7393506,44.4 L65.7393506,64 L62.7713506,64 L62.7713506,48.6 L59.1033506,50.784 L59.1033506,47.648 L64.5353506,44.4 Z M76.3793506,56.944 C72.7673506,56.944 70.2753506,54.256 70.2753506,50.56 C70.2753506,46.976 72.9073506,44.176 76.5473506,44.176 C80.1873506,44.176 82.8193506,46.976 82.8193506,50.56 C82.8193506,51.876 82.4553506,53.08 81.8673506,54.116 L76.0433506,64.224 L72.7393506,64.224 L77.0233506,56.832 C76.8553506,56.916 76.5753506,56.944 76.3793506,56.944 Z M76.5473506,54.256 C78.5073506,54.256 79.8513506,52.856 79.8513506,50.56 C79.8513506,48.404 78.4793506,46.864 76.5473506,46.864 C74.5873506,46.864 73.2433506,48.404 73.2433506,50.56 C73.2433506,52.856 74.5873506,54.256 76.5473506,54.256 Z M94.5793506,64 L94.5793506,60.08 L86.1233506,60.08 L86.1233506,58.736 L94.4113506,44.4 L97.5473506,44.4 L97.5473506,57.392 L99.8433506,57.392 L99.8433506,60.08 L97.5473506,60.08 L97.5473506,64 L94.5793506,64 Z M89.8193506,57.392 L94.5793506,57.392 L94.5793506,48.88 L89.8193506,57.392 Z M105.919351,59.996 C107.067351,59.996 107.991351,60.892 107.991351,62.068 C107.991351,63.244 107.067351,64.14 105.919351,64.14 C104.771351,64.14 103.847351,63.244 103.847351,62.068 C103.847351,60.892 104.771351,59.996 105.919351,59.996 Z M119.219351,44.176 C123.839351,44.176 126.275351,48.012 126.275351,54.2 C126.275351,60.388 123.839351,64.224 119.219351,64.224 C114.599351,64.224 112.163351,60.388 112.163351,54.2 C112.163351,48.012 114.599351,44.176 119.219351,44.176 Z M119.219351,46.864 C116.447351,46.864 115.131351,49.608 115.131351,54.2 C115.131351,58.792 116.447351,61.536 119.219351,61.536 C121.991351,61.536 123.307351,58.792 123.307351,54.2 C123.307351,49.608 121.991351,46.864 119.219351,46.864 Z M136.915351,44.176 C141.535351,44.176 143.971351,48.012 143.971351,54.2 C143.971351,60.388 141.535351,64.224 136.915351,64.224 C132.295351,64.224 129.859351,60.388 129.859351,54.2 C129.859351,48.012 132.295351,44.176 136.915351,44.176 Z M136.915351,46.864 C134.143351,46.864 132.827351,49.608 132.827351,54.2 C132.827351,58.792 134.143351,61.536 136.915351,61.536 C139.687351,61.536 141.003351,58.792 141.003351,54.2 C141.003351,49.608 139.687351,46.864 136.915351,46.864 Z M154.611351,44.176 C159.231351,44.176 161.667351,48.012 161.667351,54.2 C161.667351,60.388 159.231351,64.224 154.611351,64.224 C149.991351,64.224 147.555351,60.388 147.555351,54.2 C147.555351,48.012 149.991351,44.176 154.611351,44.176 Z M154.611351,46.864 C151.839351,46.864 150.523351,49.608 150.523351,54.2 C150.523351,58.792 151.839351,61.536 154.611351,61.536 C157.383351,61.536 158.699351,58.792 158.699351,54.2 C158.699351,49.608 157.383351,46.864 154.611351,46.864 Z M164.271351,53.36 L165.559351,50.784 L167.015351,50.784 C167.827351,46.36 170.683351,44.176 174.379351,44.176 C177.039351,44.176 179.027351,45.38 180.091351,47.368 L177.627351,48.768 C176.871351,47.536 175.975351,46.808 174.379351,46.808 C172.139351,46.808 170.571351,48.012 170.011351,50.784 L175.975351,50.784 L174.687351,53.36 L169.759351,53.36 L169.759351,55.04 L175.975351,55.04 L174.687351,57.616 L170.011351,57.616 C170.571351,60.416 172.139351,61.592 174.379351,61.592 C175.975351,61.592 176.871351,60.864 177.627351,59.632 L180.091351,61.032 C179.027351,63.02 177.039351,64.224 174.379351,64.224 C170.683351,64.224 167.827351,62.04 167.015351,57.616 L164.271351,57.616 L165.559351,55.04 L166.791351,55.04 L166.791351,53.36 L164.271351,53.36 Z" id="194.000€" fill="#444F5A"></path>
                    <path d="M86.6957403,75.6 L89.5277403,75.6 C90.9797403,75.6 91.8917403,76.38 91.8917403,77.76 C91.8917403,78.504 91.4717403,79.116 90.9437403,79.404 C91.7477403,79.728 92.2997403,80.46 92.2997403,81.504 C92.2997403,83.064 91.3157403,84 89.6837403,84 L86.6957403,84 L86.6957403,75.6 Z M87.7517403,80.028 L87.7517403,82.992 L89.5277403,82.992 C90.6437403,82.992 91.2077403,82.536 91.2077403,81.504 C91.2077403,80.484 90.6437403,80.028 89.5277403,80.028 L87.7517403,80.028 Z M89.4677403,76.608 L87.7517403,76.608 L87.7517403,79.02 L89.4677403,79.02 C90.2477403,79.02 90.7997403,78.636 90.7997403,77.82 C90.7997403,77.004 90.2477403,76.608 89.4677403,76.608 Z M93.9797403,82.212 L93.9797403,77.952 L94.9877403,77.952 L94.9877403,81.948 C94.9877403,82.776 95.3597403,83.184 96.0317403,83.184 C96.9317403,83.184 97.7597403,82.164 97.7597403,80.484 L97.7597403,77.952 L98.7677403,77.952 L98.7677403,84 L97.7597403,84 L97.7597403,82.884 C97.3157403,83.664 96.5957403,84.096 95.7557403,84.096 C94.6517403,84.096 93.9797403,83.412 93.9797403,82.212 Z M100.51974,80.976 C100.51974,79.164 101.43174,77.856 103.20774,77.856 C103.97574,77.856 104.76774,78.324 104.97174,78.672 L104.97174,75.504 L105.97974,75.504 L105.97974,84 L104.97174,84 L104.97174,83.256 C104.68374,83.7 103.93974,84.096 103.20774,84.096 C101.43174,84.096 100.51974,82.788 100.51974,80.976 Z M101.55174,80.976 C101.55174,82.272 102.23574,83.184 103.30374,83.184 C104.40774,83.184 105.05574,82.272 105.05574,80.976 C105.05574,79.68 104.40774,78.768 103.30374,78.768 C102.23574,78.768 101.55174,79.68 101.55174,80.976 Z M108.16374,79.896 C108.16374,78.648 109.08774,77.856 110.27574,77.856 C110.67174,77.856 111.04374,77.964 111.36774,78.132 L112.44774,77.52 L112.90374,78.348 L112.08774,78.804 C112.27974,79.104 112.38774,79.476 112.38774,79.896 C112.38774,81.156 111.46374,81.912 110.27574,81.912 C109.89174,81.912 109.53174,81.84 109.23174,81.696 C108.95574,81.828 108.83574,82.02 108.83574,82.284 C108.83574,82.608 109.07574,82.788 109.51974,82.788 L110.94774,82.788 C112.07574,82.788 112.84374,83.352 112.84374,84.456 C112.84374,85.944 111.66774,86.544 110.28774,86.544 C108.75174,86.544 107.71974,85.812 107.71974,84.552 C107.71974,84 107.95974,83.568 108.28374,83.292 C108.03174,83.076 107.87574,82.764 107.87574,82.332 C107.87574,81.816 108.16374,81.444 108.60774,81.216 C108.33174,80.88 108.16374,80.436 108.16374,79.896 Z M110.79174,83.652 L109.56774,83.652 C109.41174,83.652 109.25574,83.64 109.12374,83.628 C108.83574,83.856 108.72774,84.156 108.72774,84.516 C108.72774,85.188 109.25574,85.656 110.28774,85.656 C111.34374,85.656 111.81174,85.176 111.81174,84.552 C111.81174,83.88 111.37974,83.652 110.79174,83.652 Z M109.14774,79.896 C109.14774,80.652 109.66374,81.048 110.27574,81.048 C110.88774,81.048 111.40374,80.652 111.40374,79.896 C111.40374,79.14 110.88774,78.72 110.27574,78.72 C109.66374,78.72 109.14774,79.14 109.14774,79.896 Z M119.28774,80.724 L119.28774,81.192 L114.84774,81.192 C114.90774,82.308 115.45974,83.184 116.55174,83.184 C117.43974,83.184 117.89574,82.776 118.23174,82.032 L119.11974,82.416 C118.55574,83.592 117.79974,84.096 116.55174,84.096 C114.71574,84.096 113.81574,82.596 113.81574,80.976 C113.81574,79.356 114.71574,77.856 116.55174,77.856 C118.33974,77.856 119.28774,79.224 119.28774,80.724 Z M116.55174,78.768 C115.61574,78.768 115.08774,79.404 114.90774,80.28 L118.23174,80.28 C118.05174,79.416 117.52374,78.768 116.55174,78.768 Z M120.18774,78.864 L120.18774,77.952 L121.23174,77.952 L121.23174,76.14 L122.23974,75.504 L122.23974,77.952 L123.82374,77.952 L123.82374,78.864 L122.23974,78.864 L122.23974,82.188 C122.23974,82.836 122.53974,83.184 123.04374,83.184 C123.30774,83.184 123.51174,83.136 123.72774,82.992 L123.96774,83.868 C123.67974,84.036 123.33174,84.096 122.98374,84.096 C121.96374,84.096 121.23174,83.472 121.23174,82.104 L121.23174,78.864 L120.18774,78.864 Z M128.50374,84 L128.50374,83.532 L131.70774,79.428 C132.23574,78.744 132.39174,78.36 132.39174,77.832 C132.39174,77.424 132.28374,77.112 132.07974,76.872 C131.86374,76.62 131.53974,76.464 131.07174,76.464 C130.26774,76.464 129.77574,77.064 129.69174,77.904 L128.68374,77.712 C128.76774,76.476 129.76374,75.504 131.07174,75.504 C131.89974,75.504 132.49974,75.792 132.89574,76.236 C133.25574,76.644 133.42374,77.172 133.42374,77.832 C133.42374,78.54 133.18374,79.092 132.75174,79.656 L130.13574,83.04 L133.57974,83.04 L133.57974,84 L128.50374,84 Z M138.22374,75.504 C140.17974,75.504 141.17574,77.184 141.17574,79.8 C141.17574,82.416 140.17974,84.096 138.22374,84.096 C136.26774,84.096 135.27174,82.416 135.27174,79.8 C135.27174,77.184 136.26774,75.504 138.22374,75.504 Z M138.22374,76.464 C136.93974,76.464 136.32774,77.748 136.32774,79.8 C136.32774,81.852 136.93974,83.136 138.22374,83.136 C139.50774,83.136 140.11974,81.852 140.11974,79.8 C140.11974,77.748 139.50774,76.464 138.22374,76.464 Z M145.01574,75.6 L145.38774,75.6 L145.38774,84 L144.40374,84 L144.40374,77.112 L142.85574,78.012 L142.85574,76.908 L145.01574,75.6 Z M149.98374,75.504 C151.33974,75.504 152.28774,76.5 152.28774,77.748 C152.28774,78.456 151.90374,79.176 151.33974,79.476 C152.07174,79.812 152.58774,80.544 152.58774,81.588 C152.58774,83.172 151.37574,84.096 149.98374,84.096 C148.59174,84.096 147.37974,83.172 147.37974,81.588 C147.37974,80.544 147.89574,79.812 148.62774,79.476 C148.06374,79.176 147.67974,78.456 147.67974,77.748 C147.67974,76.5 148.62774,75.504 149.98374,75.504 Z M149.98374,80.04 C149.09574,80.04 148.43574,80.628 148.43574,81.588 C148.43574,82.548 149.09574,83.136 149.98374,83.136 C150.87174,83.136 151.53174,82.548 151.53174,81.588 C151.53174,80.628 150.87174,80.04 149.98374,80.04 Z M149.98374,76.416 C149.19174,76.416 148.68774,76.98 148.68774,77.748 C148.68774,78.516 149.19174,79.08 149.98374,79.08 C150.77574,79.08 151.27974,78.516 151.27974,77.748 C151.27974,76.98 150.77574,76.416 149.98374,76.416 Z" id="Budget-2018" fill="#444F5A"></path>
                </g>
            </g>
        </g>
    </g>
</svg>