<?xml version="1.0" encoding="UTF-8"?>
<svg width="491px" height="404px" viewBox="0 0 491 404" version="1.1" xmlns="http://www.w3.org/2000/svg" xmlns:xlink="http://www.w3.org/1999/xlink">
    <!-- Generator: Sketch 50.2 (55047) - http://www.bohemiancoding.com/sketch -->
    <title>Group 3</title>
    <desc>Created with Sketch.</desc>
    <defs></defs>
    <g id="Ressourcen" stroke="none" stroke-width="1" fill="none" fill-rule="evenodd">
        <g id="Demokratielabore" transform="translate(-607.000000, -883.000000)">
            <g id="Group-3" transform="translate(607.000000, 883.000000)">
                <g id="Group-2">
                    <rect id="Rectangle-3" fill="#F1F1F1" x="1" y="0" width="239" height="127"></rect>
                    <path d="M61.606,58.876 L64.49,58.344 C64.826,60.668 66.142,61.536 67.71,61.536 C69.838,61.536 70.986,59.94 70.986,57.616 C70.986,55.32 69.922,53.696 67.71,53.696 C66.226,53.696 64.882,54.48 63.958,55.712 L62.026,55.32 L63.118,44.4 L72.862,44.4 L72.862,47.088 L65.61,47.088 L65.022,51.988 C65.694,51.428 66.814,51.008 67.878,51.008 C71.826,51.008 73.954,53.836 73.954,57.616 C73.954,61.424 71.574,64.224 67.71,64.224 C64.462,64.224 61.998,62.292 61.606,58.876 Z M83.138,44.4 L84.342,44.4 L84.342,64 L81.374,64 L81.374,48.6 L77.706,50.784 L77.706,47.648 L83.138,44.4 Z M95.654,44.176 C100.274,44.176 102.71,48.012 102.71,54.2 C102.71,60.388 100.274,64.224 95.654,64.224 C91.034,64.224 88.598,60.388 88.598,54.2 C88.598,48.012 91.034,44.176 95.654,44.176 Z M95.654,46.864 C92.882,46.864 91.566,49.608 91.566,54.2 C91.566,58.792 92.882,61.536 95.654,61.536 C98.426,61.536 99.742,58.792 99.742,54.2 C99.742,49.608 98.426,46.864 95.654,46.864 Z M108.954,59.996 C110.102,59.996 111.026,60.892 111.026,62.068 C111.026,63.244 110.102,64.14 108.954,64.14 C107.806,64.14 106.882,63.244 106.882,62.068 C106.882,60.892 107.806,59.996 108.954,59.996 Z M115.506,58.876 L118.39,58.344 C118.726,60.668 120.042,61.536 121.61,61.536 C123.738,61.536 124.886,59.94 124.886,57.616 C124.886,55.32 123.822,53.696 121.61,53.696 C120.126,53.696 118.782,54.48 117.858,55.712 L115.926,55.32 L117.018,44.4 L126.762,44.4 L126.762,47.088 L119.51,47.088 L118.922,51.988 C119.594,51.428 120.714,51.008 121.778,51.008 C125.726,51.008 127.854,53.836 127.854,57.616 C127.854,61.424 125.474,64.224 121.61,64.224 C118.362,64.224 115.898,62.292 115.506,58.876 Z M139.782,64 L139.782,60.08 L131.326,60.08 L131.326,58.736 L139.614,44.4 L142.75,44.4 L142.75,57.392 L145.046,57.392 L145.046,60.08 L142.75,60.08 L142.75,64 L139.782,64 Z M135.022,57.392 L139.782,57.392 L139.782,48.88 L135.022,57.392 Z M148.574,64 L148.574,62.768 L155.798,53.5 C157.058,51.904 157.366,51.036 157.366,49.86 C157.366,48.068 156.47,46.864 154.678,46.864 C152.97,46.864 151.99,48.096 151.766,49.86 L148.966,49.328 C149.162,46.416 151.514,44.176 154.678,44.176 C157.982,44.176 160.362,46.248 160.362,49.748 C160.362,51.26 159.858,52.8 158.738,54.228 L153.166,61.312 L160.726,61.312 L160.726,64 L148.574,64 Z M163.582,53.36 L164.87,50.784 L166.326,50.784 C167.138,46.36 169.994,44.176 173.69,44.176 C176.35,44.176 178.338,45.38 179.402,47.368 L176.938,48.768 C176.182,47.536 175.286,46.808 173.69,46.808 C171.45,46.808 169.882,48.012 169.322,50.784 L175.286,50.784 L173.998,53.36 L169.07,53.36 L169.07,55.04 L175.286,55.04 L173.998,57.616 L169.322,57.616 C169.882,60.416 171.45,61.592 173.69,61.592 C175.286,61.592 176.182,60.864 176.938,59.632 L179.402,61.032 C178.338,63.02 176.35,64.224 173.69,64.224 C169.994,64.224 167.138,62.04 166.326,57.616 L163.582,57.616 L164.87,55.04 L166.102,55.04 L166.102,53.36 L163.582,53.36 Z" id="510.542€" fill="#444F5A"></path>
                    <path d="M72.788,80.4 L70.664,80.4 L70.664,84 L69.608,84 L69.608,75.6 L72.788,75.6 C74.384,75.6 75.284,76.512 75.284,78 C75.284,79.488 74.384,80.4 72.788,80.4 Z M70.664,79.392 L72.764,79.392 C73.712,79.392 74.192,78.924 74.192,78 C74.192,77.076 73.712,76.608 72.764,76.608 L70.664,76.608 L70.664,79.392 Z M82.532,80.772 L82.532,81.192 L77.804,81.192 C77.864,82.392 78.596,83.184 79.664,83.184 C80.528,83.184 81.176,82.788 81.608,81.984 L82.412,82.404 C81.824,83.532 80.912,84.096 79.664,84.096 C78.8,84.096 78.104,83.796 77.564,83.208 C77.036,82.62 76.772,81.876 76.772,80.976 C76.772,80.1 77.036,79.356 77.552,78.756 C78.08,78.156 78.788,77.856 79.664,77.856 C80.564,77.856 81.272,78.132 81.776,78.696 C82.28,79.248 82.532,79.944 82.532,80.772 Z M79.664,78.768 C78.716,78.768 78.08,79.332 77.876,80.28 L81.464,80.28 C81.284,79.32 80.636,78.768 79.664,78.768 Z M90.008,79.872 L89,79.872 C88.916,79.14 88.52,78.768 87.836,78.768 C87.272,78.768 86.78,79.032 86.384,79.572 C85.988,80.1 85.784,80.844 85.784,81.816 L85.784,84 L84.776,84 L84.776,77.952 L85.784,77.952 L85.784,79.068 C86.3,78.264 87.044,77.856 88.016,77.856 C89.216,77.856 89.948,78.576 90.008,79.872 Z M94.436,77.856 C95.432,77.856 96.164,78.288 96.644,79.164 L95.852,79.728 C95.504,79.092 95.012,78.768 94.4,78.768 C93.824,78.768 93.356,79.032 93.356,79.572 C93.356,80.064 93.8,80.316 94.76,80.508 C95.276,80.616 95.6,80.688 95.996,80.868 C96.56,81.108 96.932,81.516 96.932,82.152 C96.932,82.752 96.704,83.232 96.26,83.58 C95.816,83.928 95.264,84.096 94.604,84.096 C93.356,84.096 92.348,83.46 91.976,82.344 L92.936,81.984 C93.212,82.74 93.788,83.184 94.604,83.184 C95.336,83.184 95.888,82.86 95.888,82.248 C95.888,81.768 95.432,81.6 94.328,81.36 C93.092,81.108 92.372,80.676 92.372,79.608 C92.372,79.08 92.576,78.66 92.972,78.336 C93.368,78.012 93.86,77.856 94.436,77.856 Z M99.74,83.184 C99.2,82.572 98.924,81.84 98.924,80.976 C98.924,80.112 99.2,79.38 99.74,78.768 C100.28,78.156 101,77.856 101.9,77.856 C102.8,77.856 103.52,78.156 104.06,78.768 C104.6,79.38 104.876,80.112 104.876,80.976 C104.876,81.84 104.6,82.572 104.06,83.184 C103.52,83.796 102.8,84.096 101.9,84.096 C101,84.096 100.28,83.796 99.74,83.184 Z M100.484,79.416 C100.136,79.848 99.956,80.364 99.956,80.976 C99.956,81.588 100.136,82.104 100.484,82.536 C100.832,82.968 101.312,83.184 101.9,83.184 C102.488,83.184 102.968,82.968 103.316,82.536 C103.664,82.104 103.844,81.588 103.844,80.976 C103.844,80.364 103.664,79.848 103.316,79.416 C102.968,78.984 102.488,78.768 101.9,78.768 C101.312,78.768 100.832,78.984 100.484,79.416 Z M111.884,79.788 L111.884,84 L110.876,84 L110.876,80.004 C110.876,79.176 110.504,78.768 109.76,78.768 C109.268,78.768 108.848,79.02 108.5,79.536 C108.152,80.04 107.984,80.712 107.984,81.564 L107.984,84 L106.976,84 L106.976,77.952 L107.984,77.952 L107.984,79.068 C108.428,78.348 109.208,77.856 110.036,77.856 C111.272,77.856 111.884,78.588 111.884,79.788 Z M115.424,82.26 C115.424,82.836 115.808,83.184 116.42,83.184 C116.9,83.184 117.344,83.028 117.74,82.728 C118.148,82.416 118.352,81.948 118.352,81.336 L118.352,81.144 L117.032,81.144 C116.012,81.144 115.424,81.576 115.424,82.26 Z M119.36,80.184 L119.36,84 L118.544,84 L118.4,83.148 C118.016,83.712 117.164,84.096 116.264,84.096 C115.196,84.096 114.392,83.448 114.392,82.26 C114.392,80.952 115.412,80.28 117.128,80.28 L118.352,80.28 L118.352,80.016 C118.352,79.14 117.776,78.768 116.96,78.768 C116.276,78.768 115.724,79.188 115.532,79.8 L114.644,79.56 C114.92,78.516 115.844,77.856 116.96,77.856 C118.448,77.856 119.36,78.588 119.36,80.184 Z M122.912,81.72 L122.912,76.512 L121.244,76.512 L121.244,75.6 L123.92,75.6 L123.92,81.72 C123.92,82.692 124.34,83.184 125.192,83.184 C125.972,83.184 126.44,82.692 126.596,81.72 L127.508,81.9 C127.304,83.34 126.452,84.096 125.192,84.096 C123.788,84.096 122.912,83.22 122.912,81.72 Z M129.272,84 L129.272,75.504 L130.28,75.504 L130.28,80.484 L132.86,77.952 L134.18,77.952 L131.36,80.724 L134.456,84 L133.136,84 L130.28,80.964 L130.28,84 L129.272,84 Z M136.94,83.184 C136.4,82.572 136.124,81.84 136.124,80.976 C136.124,80.112 136.4,79.38 136.94,78.768 C137.48,78.156 138.2,77.856 139.1,77.856 C140,77.856 140.72,78.156 141.26,78.768 C141.8,79.38 142.076,80.112 142.076,80.976 C142.076,81.84 141.8,82.572 141.26,83.184 C140.72,83.796 140,84.096 139.1,84.096 C138.2,84.096 137.48,83.796 136.94,83.184 Z M137.684,79.416 C137.336,79.848 137.156,80.364 137.156,80.976 C137.156,81.588 137.336,82.104 137.684,82.536 C138.032,82.968 138.512,83.184 139.1,83.184 C139.688,83.184 140.168,82.968 140.516,82.536 C140.864,82.104 141.044,81.588 141.044,80.976 C141.044,80.364 140.864,79.848 140.516,79.416 C140.168,78.984 139.688,78.768 139.1,78.768 C138.512,78.768 138.032,78.984 137.684,79.416 Z M146.516,77.856 C147.512,77.856 148.244,78.288 148.724,79.164 L147.932,79.728 C147.584,79.092 147.092,78.768 146.48,78.768 C145.904,78.768 145.436,79.032 145.436,79.572 C145.436,80.064 145.88,80.316 146.84,80.508 C147.356,80.616 147.68,80.688 148.076,80.868 C148.64,81.108 149.012,81.516 149.012,82.152 C149.012,82.752 148.784,83.232 148.34,83.58 C147.896,83.928 147.344,84.096 146.684,84.096 C145.436,84.096 144.428,83.46 144.056,82.344 L145.016,81.984 C145.292,82.74 145.868,83.184 146.684,83.184 C147.416,83.184 147.968,82.86 147.968,82.248 C147.968,81.768 147.512,81.6 146.408,81.36 C145.172,81.108 144.452,80.676 144.452,79.608 C144.452,79.08 144.656,78.66 145.052,78.336 C145.448,78.012 145.94,77.856 146.516,77.856 Z M152.66,78.864 L151.052,78.864 L151.052,77.952 L152.66,77.952 L152.66,76.14 L153.668,75.504 L153.668,77.952 L156.62,77.952 L156.62,78.864 L153.668,78.864 L153.668,81.96 C153.668,82.776 154.016,83.184 154.712,83.184 C155.252,83.184 155.744,82.944 156.2,82.464 L156.572,83.316 C156.056,83.832 155.432,84.096 154.712,84.096 C153.38,84.096 152.66,83.388 152.66,81.996 L152.66,78.864 Z M164.372,80.772 L164.372,81.192 L159.644,81.192 C159.704,82.392 160.436,83.184 161.504,83.184 C162.368,83.184 163.016,82.788 163.448,81.984 L164.252,82.404 C163.664,83.532 162.752,84.096 161.504,84.096 C160.64,84.096 159.944,83.796 159.404,83.208 C158.876,82.62 158.612,81.876 158.612,80.976 C158.612,80.1 158.876,79.356 159.392,78.756 C159.92,78.156 160.628,77.856 161.504,77.856 C162.404,77.856 163.112,78.132 163.616,78.696 C164.12,79.248 164.372,79.944 164.372,80.772 Z M161.504,78.768 C160.556,78.768 159.92,79.332 159.716,80.28 L163.304,80.28 C163.124,79.32 162.476,78.768 161.504,78.768 Z M171.404,79.788 L171.404,84 L170.396,84 L170.396,80.004 C170.396,79.176 170.024,78.768 169.28,78.768 C168.788,78.768 168.368,79.02 168.02,79.536 C167.672,80.04 167.504,80.712 167.504,81.564 L167.504,84 L166.496,84 L166.496,77.952 L167.504,77.952 L167.504,79.068 C167.948,78.348 168.728,77.856 169.556,77.856 C170.792,77.856 171.404,78.588 171.404,79.788 Z" id="Personalkosten" fill="#444F5A"></path>
                    <rect id="Rectangle-3" fill="#F1F1F1" x="252" y="0" width="239" height="127"></rect>
                    <path d="M322.989351,44.4 L324.193351,44.4 L324.193351,64 L321.225351,64 L321.225351,48.6 L317.557351,50.784 L317.557351,47.648 L322.989351,44.4 Z M328.561351,64 L328.561351,62.768 L335.785351,53.5 C337.045351,51.904 337.353351,51.036 337.353351,49.86 C337.353351,48.068 336.457351,46.864 334.665351,46.864 C332.957351,46.864 331.977351,48.096 331.753351,49.86 L328.953351,49.328 C329.149351,46.416 331.501351,44.176 334.665351,44.176 C337.969351,44.176 340.349351,46.248 340.349351,49.748 C340.349351,51.26 339.845351,52.8 338.725351,54.228 L333.153351,61.312 L340.713351,61.312 L340.713351,64 L328.561351,64 Z M355.805351,44.4 L355.805351,45.744 L348.301351,64 L345.333351,64 L352.305351,47.088 L344.213351,47.088 L344.213351,44.4 L355.805351,44.4 Z M360.985351,59.996 C362.133351,59.996 363.057351,60.892 363.057351,62.068 C363.057351,63.244 362.133351,64.14 360.985351,64.14 C359.837351,64.14 358.913351,63.244 358.913351,62.068 C358.913351,60.892 359.837351,59.996 360.985351,59.996 Z M367.089351,58.596 L369.973351,58.232 C370.309351,60.304 371.457351,61.536 373.501351,61.536 C375.517351,61.536 377.001351,60.22 377.001351,57.756 C377.001351,55.208 375.489351,53.92 373.501351,53.92 C372.913351,53.92 372.409351,54.032 371.793351,54.312 L370.617351,52.744 L374.677351,47.088 L368.041351,47.088 L368.041351,44.4 L378.961351,44.4 L378.961351,45.408 L374.201351,51.904 C374.425351,51.848 374.761351,51.82 375.013351,51.82 C378.037351,51.82 379.969351,54.34 379.969351,57.756 C379.969351,61.508 377.113351,64.224 373.501351,64.224 C370.141351,64.224 367.313351,61.872 367.089351,58.596 Z M383.329351,58.596 L386.213351,58.232 C386.549351,60.304 387.697351,61.536 389.741351,61.536 C391.757351,61.536 393.241351,60.22 393.241351,57.756 C393.241351,55.208 391.729351,53.92 389.741351,53.92 C389.153351,53.92 388.649351,54.032 388.033351,54.312 L386.857351,52.744 L390.917351,47.088 L384.281351,47.088 L384.281351,44.4 L395.201351,44.4 L395.201351,45.408 L390.441351,51.904 C390.665351,51.848 391.001351,51.82 391.253351,51.82 C394.277351,51.82 396.209351,54.34 396.209351,57.756 C396.209351,61.508 393.353351,64.224 389.741351,64.224 C386.381351,64.224 383.553351,61.872 383.329351,58.596 Z M405.337351,44.4 L406.541351,44.4 L406.541351,64 L403.573351,64 L403.573351,48.6 L399.905351,50.784 L399.905351,47.648 L405.337351,44.4 Z M409.817351,53.36 L411.105351,50.784 L412.561351,50.784 C413.373351,46.36 416.229351,44.176 419.925351,44.176 C422.585351,44.176 424.573351,45.38 425.637351,47.368 L423.173351,48.768 C422.417351,47.536 421.521351,46.808 419.925351,46.808 C417.685351,46.808 416.117351,48.012 415.557351,50.784 L421.521351,50.784 L420.233351,53.36 L415.305351,53.36 L415.305351,55.04 L421.521351,55.04 L420.233351,57.616 L415.557351,57.616 C416.117351,60.416 417.685351,61.592 419.925351,61.592 C421.521351,61.592 422.417351,60.864 423.173351,59.632 L425.637351,61.032 C424.573351,63.02 422.585351,64.224 419.925351,64.224 C416.229351,64.224 413.373351,62.04 412.561351,57.616 L409.817351,57.616 L411.105351,55.04 L412.337351,55.04 L412.337351,53.36 L409.817351,53.36 Z" id="127.331€" fill="#444F5A"></path>
                    <path d="M347.31774,79.032 L347.31774,75.6 L348.37374,75.6 L348.37374,84 L347.31774,84 L347.31774,80.04 L343.62174,80.04 L343.62174,84 L342.56574,84 L342.56574,75.6 L343.62174,75.6 L343.62174,79.032 L347.31774,79.032 Z M350.74974,83.184 C350.20974,82.572 349.93374,81.84 349.93374,80.976 C349.93374,80.112 350.20974,79.38 350.74974,78.768 C351.28974,78.156 352.00974,77.856 352.90974,77.856 C353.80974,77.856 354.52974,78.156 355.06974,78.768 C355.60974,79.38 355.88574,80.112 355.88574,80.976 C355.88574,81.84 355.60974,82.572 355.06974,83.184 C354.52974,83.796 353.80974,84.096 352.90974,84.096 C352.00974,84.096 351.28974,83.796 350.74974,83.184 Z M351.49374,79.416 C351.14574,79.848 350.96574,80.364 350.96574,80.976 C350.96574,81.588 351.14574,82.104 351.49374,82.536 C351.84174,82.968 352.32174,83.184 352.90974,83.184 C353.49774,83.184 353.97774,82.968 354.32574,82.536 C354.67374,82.104 354.85374,81.588 354.85374,80.976 C354.85374,80.364 354.67374,79.848 354.32574,79.416 C353.97774,78.984 353.49774,78.768 352.90974,78.768 C352.32174,78.768 351.84174,78.984 351.49374,79.416 Z M362.89374,79.788 L362.89374,84 L361.88574,84 L361.88574,80.004 C361.88574,79.176 361.51374,78.768 360.76974,78.768 C360.27774,78.768 359.85774,79.02 359.50974,79.536 C359.16174,80.04 358.99374,80.712 358.99374,81.564 L358.99374,84 L357.98574,84 L357.98574,77.952 L358.99374,77.952 L358.99374,79.068 C359.43774,78.348 360.21774,77.856 361.04574,77.856 C362.28174,77.856 362.89374,78.588 362.89374,79.788 Z M365.62974,83.184 C365.08974,82.572 364.81374,81.84 364.81374,80.976 C364.81374,80.112 365.08974,79.38 365.62974,78.768 C366.16974,78.156 366.88974,77.856 367.78974,77.856 C368.68974,77.856 369.40974,78.156 369.94974,78.768 C370.48974,79.38 370.76574,80.112 370.76574,80.976 C370.76574,81.84 370.48974,82.572 369.94974,83.184 C369.40974,83.796 368.68974,84.096 367.78974,84.096 C366.88974,84.096 366.16974,83.796 365.62974,83.184 Z M366.37374,79.416 C366.02574,79.848 365.84574,80.364 365.84574,80.976 C365.84574,81.588 366.02574,82.104 366.37374,82.536 C366.72174,82.968 367.20174,83.184 367.78974,83.184 C368.37774,83.184 368.85774,82.968 369.20574,82.536 C369.55374,82.104 369.73374,81.588 369.73374,80.976 C369.73374,80.364 369.55374,79.848 369.20574,79.416 C368.85774,78.984 368.37774,78.768 367.78974,78.768 C367.20174,78.768 366.72174,78.984 366.37374,79.416 Z M378.21774,79.872 L377.20974,79.872 C377.12574,79.14 376.72974,78.768 376.04574,78.768 C375.48174,78.768 374.98974,79.032 374.59374,79.572 C374.19774,80.1 373.99374,80.844 373.99374,81.816 L373.99374,84 L372.98574,84 L372.98574,77.952 L373.99374,77.952 L373.99374,79.068 C374.50974,78.264 375.25374,77.856 376.22574,77.856 C377.42574,77.856 378.15774,78.576 378.21774,79.872 Z M381.31374,82.26 C381.31374,82.836 381.69774,83.184 382.30974,83.184 C382.78974,83.184 383.23374,83.028 383.62974,82.728 C384.03774,82.416 384.24174,81.948 384.24174,81.336 L384.24174,81.144 L382.92174,81.144 C381.90174,81.144 381.31374,81.576 381.31374,82.26 Z M385.24974,80.184 L385.24974,84 L384.43374,84 L384.28974,83.148 C383.90574,83.712 383.05374,84.096 382.15374,84.096 C381.08574,84.096 380.28174,83.448 380.28174,82.26 C380.28174,80.952 381.30174,80.28 383.01774,80.28 L384.24174,80.28 L384.24174,80.016 C384.24174,79.14 383.66574,78.768 382.84974,78.768 C382.16574,78.768 381.61374,79.188 381.42174,79.8 L380.53374,79.56 C380.80974,78.516 381.73374,77.856 382.84974,77.856 C384.33774,77.856 385.24974,78.588 385.24974,80.184 Z M393.09774,79.872 L392.08974,79.872 C392.00574,79.14 391.60974,78.768 390.92574,78.768 C390.36174,78.768 389.86974,79.032 389.47374,79.572 C389.07774,80.1 388.87374,80.844 388.87374,81.816 L388.87374,84 L387.86574,84 L387.86574,77.952 L388.87374,77.952 L388.87374,79.068 C389.38974,78.264 390.13374,77.856 391.10574,77.856 C392.30574,77.856 393.03774,78.576 393.09774,79.872 Z M400.50174,80.772 L400.50174,81.192 L395.77374,81.192 C395.83374,82.392 396.56574,83.184 397.63374,83.184 C398.49774,83.184 399.14574,82.788 399.57774,81.984 L400.38174,82.404 C399.79374,83.532 398.88174,84.096 397.63374,84.096 C396.76974,84.096 396.07374,83.796 395.53374,83.208 C395.00574,82.62 394.74174,81.876 394.74174,80.976 C394.74174,80.1 395.00574,79.356 395.52174,78.756 C396.04974,78.156 396.75774,77.856 397.63374,77.856 C398.53374,77.856 399.24174,78.132 399.74574,78.696 C400.24974,79.248 400.50174,79.944 400.50174,80.772 Z M397.63374,78.768 C396.68574,78.768 396.04974,79.332 395.84574,80.28 L399.43374,80.28 C399.25374,79.32 398.60574,78.768 397.63374,78.768 Z" id="Honorare" fill="#444F5A"></path>
                    <rect id="Rectangle-3" fill="#F1F1F1" x="1" y="139" width="239" height="127"></rect>
                    <path d="M64.2653506,196.876 L67.1493506,196.344 C67.4853506,198.668 68.8013506,199.536 70.3693506,199.536 C72.4973506,199.536 73.6453506,197.94 73.6453506,195.616 C73.6453506,193.32 72.5813506,191.696 70.3693506,191.696 C68.8853506,191.696 67.5413506,192.48 66.6173506,193.712 L64.6853506,193.32 L65.7773506,182.4 L75.5213506,182.4 L75.5213506,185.088 L68.2693506,185.088 L67.6813506,189.988 C68.3533506,189.428 69.4733506,189.008 70.5373506,189.008 C74.4853506,189.008 76.6133506,191.836 76.6133506,195.616 C76.6133506,199.424 74.2333506,202.224 70.3693506,202.224 C67.1213506,202.224 64.6573506,200.292 64.2653506,196.876 Z M86.5533506,194.944 C82.9413506,194.944 80.4493506,192.256 80.4493506,188.56 C80.4493506,184.976 83.0813506,182.176 86.7213506,182.176 C90.3613506,182.176 92.9933506,184.976 92.9933506,188.56 C92.9933506,189.876 92.6293506,191.08 92.0413506,192.116 L86.2173506,202.224 L82.9133506,202.224 L87.1973506,194.832 C87.0293506,194.916 86.7493506,194.944 86.5533506,194.944 Z M86.7213506,192.256 C88.6813506,192.256 90.0253506,190.856 90.0253506,188.56 C90.0253506,186.404 88.6533506,184.864 86.7213506,184.864 C84.7613506,184.864 83.4173506,186.404 83.4173506,188.56 C83.4173506,190.856 84.7613506,192.256 86.7213506,192.256 Z M99.0413506,197.996 C100.189351,197.996 101.113351,198.892 101.113351,200.068 C101.113351,201.244 100.189351,202.14 99.0413506,202.14 C97.8933506,202.14 96.9693506,201.244 96.9693506,200.068 C96.9693506,198.892 97.8933506,197.996 99.0413506,197.996 Z M111.781351,182.176 C115.057351,182.176 117.325351,184.556 117.325351,187.468 C117.325351,189.092 116.541351,190.492 115.365351,191.444 C116.961351,192.368 118.053351,193.992 118.053351,196.232 C118.053351,200.012 115.141351,202.224 111.781351,202.224 C108.421351,202.224 105.509351,200.012 105.509351,196.232 C105.509351,193.992 106.601351,192.368 108.197351,191.444 C106.993351,190.492 106.237351,189.092 106.237351,187.468 C106.237351,184.556 108.505351,182.176 111.781351,182.176 Z M111.781351,193.04 C109.961351,193.04 108.477351,194.16 108.477351,196.232 C108.477351,198.304 109.961351,199.536 111.781351,199.536 C113.601351,199.536 115.085351,198.304 115.085351,196.232 C115.085351,194.16 113.601351,193.04 111.781351,193.04 Z M111.781351,184.752 C110.241351,184.752 109.121351,185.928 109.121351,187.496 C109.121351,189.092 110.241351,190.268 111.781351,190.268 C113.321351,190.268 114.441351,189.092 114.441351,187.496 C114.441351,185.928 113.321351,184.752 111.781351,184.752 Z M121.721351,196.596 L124.605351,196.232 C124.941351,198.304 126.089351,199.536 128.133351,199.536 C130.149351,199.536 131.633351,198.22 131.633351,195.756 C131.633351,193.208 130.121351,191.92 128.133351,191.92 C127.545351,191.92 127.041351,192.032 126.425351,192.312 L125.249351,190.744 L129.309351,185.088 L122.673351,185.088 L122.673351,182.4 L133.593351,182.4 L133.593351,183.408 L128.833351,189.904 C129.057351,189.848 129.393351,189.82 129.645351,189.82 C132.669351,189.82 134.601351,192.34 134.601351,195.756 C134.601351,199.508 131.745351,202.224 128.133351,202.224 C124.773351,202.224 121.945351,199.872 121.721351,196.596 Z M138.213351,202 L138.213351,200.768 L145.437351,191.5 C146.697351,189.904 147.005351,189.036 147.005351,187.86 C147.005351,186.068 146.109351,184.864 144.317351,184.864 C142.609351,184.864 141.629351,186.096 141.405351,187.86 L138.605351,187.328 C138.801351,184.416 141.153351,182.176 144.317351,182.176 C147.621351,182.176 150.001351,184.248 150.001351,187.748 C150.001351,189.26 149.497351,190.8 148.377351,192.228 L142.805351,199.312 L150.365351,199.312 L150.365351,202 L138.213351,202 Z M153.221351,191.36 L154.509351,188.784 L155.965351,188.784 C156.777351,184.36 159.633351,182.176 163.329351,182.176 C165.989351,182.176 167.977351,183.38 169.041351,185.368 L166.577351,186.768 C165.821351,185.536 164.925351,184.808 163.329351,184.808 C161.089351,184.808 159.521351,186.012 158.961351,188.784 L164.925351,188.784 L163.637351,191.36 L158.709351,191.36 L158.709351,193.04 L164.925351,193.04 L163.637351,195.616 L158.961351,195.616 C159.521351,198.416 161.089351,199.592 163.329351,199.592 C164.925351,199.592 165.821351,198.864 166.577351,197.632 L169.041351,199.032 C167.977351,201.02 165.989351,202.224 163.329351,202.224 C159.633351,202.224 156.777351,200.04 155.965351,195.616 L153.221351,195.616 L154.509351,193.04 L155.741351,193.04 L155.741351,191.36 L153.221351,191.36 Z" id="59.832€" fill="#444F5A"></path>
                    <path d="M85.7417403,216.304 L84.8177403,216.772 C84.4457403,215.932 83.8817403,215.512 83.1137403,215.512 C82.1897403,215.512 81.6017403,215.992 81.6017403,216.808 C81.6017403,217.216 81.7577403,217.516 82.0577403,217.696 C82.3697403,217.876 82.8617403,218.056 83.5457403,218.236 C84.1577403,218.392 84.4817403,218.488 84.9257403,218.728 C85.5857403,219.064 85.8977403,219.544 85.9337403,220.42 C85.9337403,222.196 84.8417403,223.096 83.1497403,223.096 C81.5297403,223.096 80.3417403,222.22 80.0177403,220.6 L81.0017403,220.216 C81.3257403,221.464 82.0457403,222.088 83.1497403,222.088 C84.2057403,222.088 84.8777403,221.56 84.8777403,220.564 C84.8777403,220.216 84.7337403,219.952 84.5777403,219.796 C84.4937403,219.712 84.3617403,219.64 84.1697403,219.568 C83.7977403,219.412 83.5817403,219.34 82.9697403,219.196 C82.3817403,219.052 82.0937403,218.968 81.6137403,218.728 C80.9417403,218.38 80.5937403,217.852 80.5457403,216.844 C80.5457403,216.16 80.7737403,215.596 81.2297403,215.164 C81.6857403,214.72 82.3097403,214.504 83.1137403,214.504 C84.4697403,214.504 85.3577403,215.284 85.7417403,216.304 Z M89.1137403,221.26 C89.1137403,221.836 89.4977403,222.184 90.1097403,222.184 C90.5897403,222.184 91.0337403,222.028 91.4297403,221.728 C91.8377403,221.416 92.0417403,220.948 92.0417403,220.336 L92.0417403,220.144 L90.7217403,220.144 C89.7017403,220.144 89.1137403,220.576 89.1137403,221.26 Z M93.0497403,219.184 L93.0497403,223 L92.2337403,223 L92.0897403,222.148 C91.7057403,222.712 90.8537403,223.096 89.9537403,223.096 C88.8857403,223.096 88.0817403,222.448 88.0817403,221.26 C88.0817403,219.952 89.1017403,219.28 90.8177403,219.28 L92.0417403,219.28 L92.0417403,219.016 C92.0417403,218.14 91.4657403,217.768 90.6497403,217.768 C89.9657403,217.768 89.4137403,218.188 89.2217403,218.8 L88.3337403,218.56 C88.6097403,217.516 89.5337403,216.856 90.6497403,216.856 C92.1377403,216.856 93.0497403,217.588 93.0497403,219.184 Z M99.8297403,221.068 L100.70574,221.428 C100.21374,222.544 99.3617403,223.096 98.1497403,223.096 C97.2617403,223.096 96.5537403,222.796 96.0377403,222.184 C95.5217403,221.572 95.2577403,220.84 95.2577403,219.976 C95.2577403,219.112 95.5217403,218.38 96.0377403,217.768 C96.5537403,217.156 97.2617403,216.856 98.1497403,216.856 C99.3617403,216.856 100.21374,217.408 100.70574,218.524 L99.8297403,218.884 C99.5057403,218.14 98.9537403,217.768 98.1497403,217.768 C96.9857403,217.768 96.2897403,218.68 96.2897403,219.976 C96.2897403,221.272 96.9857403,222.184 98.1497403,222.184 C98.9537403,222.184 99.5057403,221.812 99.8297403,221.068 Z M107.97774,218.824 L107.97774,223 L106.96974,223 L106.96974,219.04 C106.96974,218.188 106.59774,217.768 105.85374,217.768 C105.33774,217.768 104.89374,218.008 104.50974,218.5 C104.12574,218.992 103.93374,219.64 103.93374,220.468 L103.93374,223 L102.92574,223 L102.92574,214.504 L103.93374,214.504 L103.93374,218.068 C104.41374,217.36 105.22974,216.856 106.12974,216.856 C107.36574,216.856 107.97774,217.516 107.97774,218.824 Z M110.40174,223 L110.40174,214.504 L111.40974,214.504 L111.40974,219.484 L113.98974,216.952 L115.30974,216.952 L112.48974,219.724 L115.58574,223 L114.26574,223 L111.40974,219.964 L111.40974,223 L110.40174,223 Z M118.06974,222.184 C117.52974,221.572 117.25374,220.84 117.25374,219.976 C117.25374,219.112 117.52974,218.38 118.06974,217.768 C118.60974,217.156 119.32974,216.856 120.22974,216.856 C121.12974,216.856 121.84974,217.156 122.38974,217.768 C122.92974,218.38 123.20574,219.112 123.20574,219.976 C123.20574,220.84 122.92974,221.572 122.38974,222.184 C121.84974,222.796 121.12974,223.096 120.22974,223.096 C119.32974,223.096 118.60974,222.796 118.06974,222.184 Z M118.81374,218.416 C118.46574,218.848 118.28574,219.364 118.28574,219.976 C118.28574,220.588 118.46574,221.104 118.81374,221.536 C119.16174,221.968 119.64174,222.184 120.22974,222.184 C120.81774,222.184 121.29774,221.968 121.64574,221.536 C121.99374,221.104 122.17374,220.588 122.17374,219.976 C122.17374,219.364 121.99374,218.848 121.64574,218.416 C121.29774,217.984 120.81774,217.768 120.22974,217.768 C119.64174,217.768 119.16174,217.984 118.81374,218.416 Z M127.64574,216.856 C128.64174,216.856 129.37374,217.288 129.85374,218.164 L129.06174,218.728 C128.71374,218.092 128.22174,217.768 127.60974,217.768 C127.03374,217.768 126.56574,218.032 126.56574,218.572 C126.56574,219.064 127.00974,219.316 127.96974,219.508 C128.48574,219.616 128.80974,219.688 129.20574,219.868 C129.76974,220.108 130.14174,220.516 130.14174,221.152 C130.14174,221.752 129.91374,222.232 129.46974,222.58 C129.02574,222.928 128.47374,223.096 127.81374,223.096 C126.56574,223.096 125.55774,222.46 125.18574,221.344 L126.14574,220.984 C126.42174,221.74 126.99774,222.184 127.81374,222.184 C128.54574,222.184 129.09774,221.86 129.09774,221.248 C129.09774,220.768 128.64174,220.6 127.53774,220.36 C126.30174,220.108 125.58174,219.676 125.58174,218.608 C125.58174,218.08 125.78574,217.66 126.18174,217.336 C126.57774,217.012 127.06974,216.856 127.64574,216.856 Z M133.78974,217.864 L132.18174,217.864 L132.18174,216.952 L133.78974,216.952 L133.78974,215.14 L134.79774,214.504 L134.79774,216.952 L137.74974,216.952 L137.74974,217.864 L134.79774,217.864 L134.79774,220.96 C134.79774,221.776 135.14574,222.184 135.84174,222.184 C136.38174,222.184 136.87374,221.944 137.32974,221.464 L137.70174,222.316 C137.18574,222.832 136.56174,223.096 135.84174,223.096 C134.50974,223.096 133.78974,222.388 133.78974,220.996 L133.78974,217.864 Z M145.50174,219.772 L145.50174,220.192 L140.77374,220.192 C140.83374,221.392 141.56574,222.184 142.63374,222.184 C143.49774,222.184 144.14574,221.788 144.57774,220.984 L145.38174,221.404 C144.79374,222.532 143.88174,223.096 142.63374,223.096 C141.76974,223.096 141.07374,222.796 140.53374,222.208 C140.00574,221.62 139.74174,220.876 139.74174,219.976 C139.74174,219.1 140.00574,218.356 140.52174,217.756 C141.04974,217.156 141.75774,216.856 142.63374,216.856 C143.53374,216.856 144.24174,217.132 144.74574,217.696 C145.24974,218.248 145.50174,218.944 145.50174,219.772 Z M142.63374,217.768 C141.68574,217.768 141.04974,218.332 140.84574,219.28 L144.43374,219.28 C144.25374,218.32 143.60574,217.768 142.63374,217.768 Z M152.53374,218.788 L152.53374,223 L151.52574,223 L151.52574,219.004 C151.52574,218.176 151.15374,217.768 150.40974,217.768 C149.91774,217.768 149.49774,218.02 149.14974,218.536 C148.80174,219.04 148.63374,219.712 148.63374,220.564 L148.63374,223 L147.62574,223 L147.62574,216.952 L148.63374,216.952 L148.63374,218.068 C149.07774,217.348 149.85774,216.856 150.68574,216.856 C151.92174,216.856 152.53374,217.588 152.53374,218.788 Z" id="Sachkosten" fill="#444F5A"></path>
                    <rect id="Rectangle-3" fill="#F1F1F1" x="252" y="139" width="239" height="127"></rect>
                    <path d="M314.845351,196.876 L317.729351,196.344 C318.065351,198.668 319.381351,199.536 320.949351,199.536 C323.077351,199.536 324.225351,197.94 324.225351,195.616 C324.225351,193.32 323.161351,191.696 320.949351,191.696 C319.465351,191.696 318.121351,192.48 317.197351,193.712 L315.265351,193.32 L316.357351,182.4 L326.101351,182.4 L326.101351,185.088 L318.849351,185.088 L318.261351,189.988 C318.933351,189.428 320.053351,189.008 321.117351,189.008 C325.065351,189.008 327.193351,191.836 327.193351,195.616 C327.193351,199.424 324.813351,202.224 320.949351,202.224 C317.701351,202.224 315.237351,200.292 314.845351,196.876 Z M339.121351,202 L339.121351,198.08 L330.665351,198.08 L330.665351,196.736 L338.953351,182.4 L342.089351,182.4 L342.089351,195.392 L344.385351,195.392 L344.385351,198.08 L342.089351,198.08 L342.089351,202 L339.121351,202 Z M334.361351,195.392 L339.121351,195.392 L339.121351,186.88 L334.361351,195.392 Z M350.461351,197.996 C351.609351,197.996 352.533351,198.892 352.533351,200.068 C352.533351,201.244 351.609351,202.14 350.461351,202.14 C349.313351,202.14 348.389351,201.244 348.389351,200.068 C348.389351,198.892 349.313351,197.996 350.461351,197.996 Z M356.817351,202 L356.817351,200.768 L364.041351,191.5 C365.301351,189.904 365.609351,189.036 365.609351,187.86 C365.609351,186.068 364.713351,184.864 362.921351,184.864 C361.213351,184.864 360.233351,186.096 360.009351,187.86 L357.209351,187.328 C357.405351,184.416 359.757351,182.176 362.921351,182.176 C366.225351,182.176 368.605351,184.248 368.605351,187.748 C368.605351,189.26 368.101351,190.8 366.981351,192.228 L361.409351,199.312 L368.969351,199.312 L368.969351,202 L356.817351,202 Z M379.301351,182.176 C382.577351,182.176 384.845351,184.556 384.845351,187.468 C384.845351,189.092 384.061351,190.492 382.885351,191.444 C384.481351,192.368 385.573351,193.992 385.573351,196.232 C385.573351,200.012 382.661351,202.224 379.301351,202.224 C375.941351,202.224 373.029351,200.012 373.029351,196.232 C373.029351,193.992 374.121351,192.368 375.717351,191.444 C374.513351,190.492 373.757351,189.092 373.757351,187.468 C373.757351,184.556 376.025351,182.176 379.301351,182.176 Z M379.301351,193.04 C377.481351,193.04 375.997351,194.16 375.997351,196.232 C375.997351,198.304 377.481351,199.536 379.301351,199.536 C381.121351,199.536 382.605351,198.304 382.605351,196.232 C382.605351,194.16 381.121351,193.04 379.301351,193.04 Z M379.301351,184.752 C377.761351,184.752 376.641351,185.928 376.641351,187.496 C376.641351,189.092 377.761351,190.268 379.301351,190.268 C380.841351,190.268 381.961351,189.092 381.961351,187.496 C381.961351,185.928 380.841351,184.752 379.301351,184.752 Z M389.241351,196.596 L392.125351,196.232 C392.461351,198.304 393.609351,199.536 395.653351,199.536 C397.669351,199.536 399.153351,198.22 399.153351,195.756 C399.153351,193.208 397.641351,191.92 395.653351,191.92 C395.065351,191.92 394.561351,192.032 393.945351,192.312 L392.769351,190.744 L396.829351,185.088 L390.193351,185.088 L390.193351,182.4 L401.113351,182.4 L401.113351,183.408 L396.353351,189.904 C396.577351,189.848 396.913351,189.82 397.165351,189.82 C400.189351,189.82 402.121351,192.34 402.121351,195.756 C402.121351,199.508 399.265351,202.224 395.653351,202.224 C392.293351,202.224 389.465351,199.872 389.241351,196.596 Z M404.641351,191.36 L405.929351,188.784 L407.385351,188.784 C408.197351,184.36 411.053351,182.176 414.749351,182.176 C417.409351,182.176 419.397351,183.38 420.461351,185.368 L417.997351,186.768 C417.241351,185.536 416.345351,184.808 414.749351,184.808 C412.509351,184.808 410.941351,186.012 410.381351,188.784 L416.345351,188.784 L415.057351,191.36 L410.129351,191.36 L410.129351,193.04 L416.345351,193.04 L415.057351,195.616 L410.381351,195.616 C410.941351,198.416 412.509351,199.592 414.749351,199.592 C416.345351,199.592 417.241351,198.864 417.997351,197.632 L420.461351,199.032 C419.397351,201.02 417.409351,202.224 414.749351,202.224 C411.053351,202.224 408.197351,200.04 407.385351,195.616 L404.641351,195.616 L405.929351,193.04 L407.161351,193.04 L407.161351,191.36 L404.641351,191.36 Z" id="54.283€" fill="#444F5A"></path>
                    <path d="M333.71774,223 L332.46974,223 L330.00974,219.04 L328.60574,219.04 L328.60574,223 L327.54974,223 L327.54974,214.6 L330.48974,214.6 C332.02574,214.6 332.96174,215.368 332.96174,216.82 C332.96174,218.008 332.37374,218.728 331.20974,218.968 L333.71774,223 Z M330.51374,215.608 L328.60574,215.608 L328.60574,218.032 L330.51374,218.032 C331.41374,218.032 331.86974,217.624 331.86974,216.82 C331.86974,216.016 331.41374,215.608 330.51374,215.608 Z M340.70174,219.772 L340.70174,220.192 L335.97374,220.192 C336.03374,221.392 336.76574,222.184 337.83374,222.184 C338.69774,222.184 339.34574,221.788 339.77774,220.984 L340.58174,221.404 C339.99374,222.532 339.08174,223.096 337.83374,223.096 C336.96974,223.096 336.27374,222.796 335.73374,222.208 C335.20574,221.62 334.94174,220.876 334.94174,219.976 C334.94174,219.1 335.20574,218.356 335.72174,217.756 C336.24974,217.156 336.95774,216.856 337.83374,216.856 C338.73374,216.856 339.44174,217.132 339.94574,217.696 C340.44974,218.248 340.70174,218.944 340.70174,219.772 Z M337.83374,217.768 C336.88574,217.768 336.24974,218.332 336.04574,219.28 L339.63374,219.28 C339.45374,218.32 338.80574,217.768 337.83374,217.768 Z M344.86574,217.84 L343.01774,217.84 L343.01774,216.952 L345.87374,216.952 L345.87374,222.112 L348.10574,222.112 L348.10574,223 L342.77774,223 L342.77774,222.112 L344.86574,222.112 L344.86574,217.84 Z M344.46974,215.344 C344.46974,214.876 344.82974,214.504 345.29774,214.504 C345.76574,214.504 346.12574,214.876 346.12574,215.344 C346.12574,215.812 345.76574,216.16 345.29774,216.16 C344.82974,216.16 344.46974,215.788 344.46974,215.344 Z M352.60574,216.856 C353.60174,216.856 354.33374,217.288 354.81374,218.164 L354.02174,218.728 C353.67374,218.092 353.18174,217.768 352.56974,217.768 C351.99374,217.768 351.52574,218.032 351.52574,218.572 C351.52574,219.064 351.96974,219.316 352.92974,219.508 C353.44574,219.616 353.76974,219.688 354.16574,219.868 C354.72974,220.108 355.10174,220.516 355.10174,221.152 C355.10174,221.752 354.87374,222.232 354.42974,222.58 C353.98574,222.928 353.43374,223.096 352.77374,223.096 C351.52574,223.096 350.51774,222.46 350.14574,221.344 L351.10574,220.984 C351.38174,221.74 351.95774,222.184 352.77374,222.184 C353.50574,222.184 354.05774,221.86 354.05774,221.248 C354.05774,220.768 353.60174,220.6 352.49774,220.36 C351.26174,220.108 350.54174,219.676 350.54174,218.608 C350.54174,218.08 350.74574,217.66 351.14174,217.336 C351.53774,217.012 352.02974,216.856 352.60574,216.856 Z M363.02174,219.772 L363.02174,220.192 L358.29374,220.192 C358.35374,221.392 359.08574,222.184 360.15374,222.184 C361.01774,222.184 361.66574,221.788 362.09774,220.984 L362.90174,221.404 C362.31374,222.532 361.40174,223.096 360.15374,223.096 C359.28974,223.096 358.59374,222.796 358.05374,222.208 C357.52574,221.62 357.26174,220.876 357.26174,219.976 C357.26174,219.1 357.52574,218.356 358.04174,217.756 C358.56974,217.156 359.27774,216.856 360.15374,216.856 C361.05374,216.856 361.76174,217.132 362.26574,217.696 C362.76974,218.248 363.02174,218.944 363.02174,219.772 Z M360.15374,217.768 C359.20574,217.768 358.56974,218.332 358.36574,219.28 L361.95374,219.28 C361.77374,218.32 361.12574,217.768 360.15374,217.768 Z M365.12174,223 L365.12174,214.504 L366.12974,214.504 L366.12974,219.484 L368.70974,216.952 L370.02974,216.952 L367.20974,219.724 L370.30574,223 L368.98574,223 L366.12974,219.964 L366.12974,223 L365.12174,223 Z M372.78974,222.184 C372.24974,221.572 371.97374,220.84 371.97374,219.976 C371.97374,219.112 372.24974,218.38 372.78974,217.768 C373.32974,217.156 374.04974,216.856 374.94974,216.856 C375.84974,216.856 376.56974,217.156 377.10974,217.768 C377.64974,218.38 377.92574,219.112 377.92574,219.976 C377.92574,220.84 377.64974,221.572 377.10974,222.184 C376.56974,222.796 375.84974,223.096 374.94974,223.096 C374.04974,223.096 373.32974,222.796 372.78974,222.184 Z M373.53374,218.416 C373.18574,218.848 373.00574,219.364 373.00574,219.976 C373.00574,220.588 373.18574,221.104 373.53374,221.536 C373.88174,221.968 374.36174,222.184 374.94974,222.184 C375.53774,222.184 376.01774,221.968 376.36574,221.536 C376.71374,221.104 376.89374,220.588 376.89374,219.976 C376.89374,219.364 376.71374,218.848 376.36574,218.416 C376.01774,217.984 375.53774,217.768 374.94974,217.768 C374.36174,217.768 373.88174,217.984 373.53374,218.416 Z M382.36574,216.856 C383.36174,216.856 384.09374,217.288 384.57374,218.164 L383.78174,218.728 C383.43374,218.092 382.94174,217.768 382.32974,217.768 C381.75374,217.768 381.28574,218.032 381.28574,218.572 C381.28574,219.064 381.72974,219.316 382.68974,219.508 C383.20574,219.616 383.52974,219.688 383.92574,219.868 C384.48974,220.108 384.86174,220.516 384.86174,221.152 C384.86174,221.752 384.63374,222.232 384.18974,222.58 C383.74574,222.928 383.19374,223.096 382.53374,223.096 C381.28574,223.096 380.27774,222.46 379.90574,221.344 L380.86574,220.984 C381.14174,221.74 381.71774,222.184 382.53374,222.184 C383.26574,222.184 383.81774,221.86 383.81774,221.248 C383.81774,220.768 383.36174,220.6 382.25774,220.36 C381.02174,220.108 380.30174,219.676 380.30174,218.608 C380.30174,218.08 380.50574,217.66 380.90174,217.336 C381.29774,217.012 381.78974,216.856 382.36574,216.856 Z M388.50974,217.864 L386.90174,217.864 L386.90174,216.952 L388.50974,216.952 L388.50974,215.14 L389.51774,214.504 L389.51774,216.952 L392.46974,216.952 L392.46974,217.864 L389.51774,217.864 L389.51774,220.96 C389.51774,221.776 389.86574,222.184 390.56174,222.184 C391.10174,222.184 391.59374,221.944 392.04974,221.464 L392.42174,222.316 C391.90574,222.832 391.28174,223.096 390.56174,223.096 C389.22974,223.096 388.50974,222.388 388.50974,220.996 L388.50974,217.864 Z M400.22174,219.772 L400.22174,220.192 L395.49374,220.192 C395.55374,221.392 396.28574,222.184 397.35374,222.184 C398.21774,222.184 398.86574,221.788 399.29774,220.984 L400.10174,221.404 C399.51374,222.532 398.60174,223.096 397.35374,223.096 C396.48974,223.096 395.79374,222.796 395.25374,222.208 C394.72574,221.62 394.46174,220.876 394.46174,219.976 C394.46174,219.1 394.72574,218.356 395.24174,217.756 C395.76974,217.156 396.47774,216.856 397.35374,216.856 C398.25374,216.856 398.96174,217.132 399.46574,217.696 C399.96974,218.248 400.22174,218.944 400.22174,219.772 Z M397.35374,217.768 C396.40574,217.768 395.76974,218.332 395.56574,219.28 L399.15374,219.28 C398.97374,218.32 398.32574,217.768 397.35374,217.768 Z M407.25374,218.788 L407.25374,223 L406.24574,223 L406.24574,219.004 C406.24574,218.176 405.87374,217.768 405.12974,217.768 C404.63774,217.768 404.21774,218.02 403.86974,218.536 C403.52174,219.04 403.35374,219.712 403.35374,220.564 L403.35374,223 L402.34574,223 L402.34574,216.952 L403.35374,216.952 L403.35374,218.068 C403.79774,217.348 404.57774,216.856 405.40574,216.856 C406.64174,216.856 407.25374,217.588 407.25374,218.788 Z" id="Reisekosten" fill="#444F5A"></path>
                    <rect id="Rectangle-3" fill="#F1F1F1" x="0" y="277" width="239" height="127"></rect>
                    <path d="M74.9413506,320.4 L74.9413506,321.744 L67.4373506,340 L64.4693506,340 L71.4413506,323.088 L63.3493506,323.088 L63.3493506,320.4 L74.9413506,320.4 Z M77.5733506,340 L77.5733506,338.768 L84.7973506,329.5 C86.0573506,327.904 86.3653506,327.036 86.3653506,325.86 C86.3653506,324.068 85.4693506,322.864 83.6773506,322.864 C81.9693506,322.864 80.9893506,324.096 80.7653506,325.86 L77.9653506,325.328 C78.1613506,322.416 80.5133506,320.176 83.6773506,320.176 C86.9813506,320.176 89.3613506,322.248 89.3613506,325.748 C89.3613506,327.26 88.8573506,328.8 87.7373506,330.228 L82.1653506,337.312 L89.7253506,337.312 L89.7253506,340 L77.5733506,340 Z M96.2213506,335.996 C97.3693506,335.996 98.2933506,336.892 98.2933506,338.068 C98.2933506,339.244 97.3693506,340.14 96.2213506,340.14 C95.0733506,340.14 94.1493506,339.244 94.1493506,338.068 C94.1493506,336.892 95.0733506,335.996 96.2213506,335.996 Z M108.849351,332.944 C105.237351,332.944 102.745351,330.256 102.745351,326.56 C102.745351,322.976 105.377351,320.176 109.017351,320.176 C112.657351,320.176 115.289351,322.976 115.289351,326.56 C115.289351,327.876 114.925351,329.08 114.337351,330.116 L108.513351,340.224 L105.209351,340.224 L109.493351,332.832 C109.325351,332.916 109.045351,332.944 108.849351,332.944 Z M109.017351,330.256 C110.977351,330.256 112.321351,328.856 112.321351,326.56 C112.321351,324.404 110.949351,322.864 109.017351,322.864 C107.057351,322.864 105.713351,324.404 105.713351,326.56 C105.713351,328.856 107.057351,330.256 109.017351,330.256 Z M118.789351,340 L118.789351,338.768 L126.013351,329.5 C127.273351,327.904 127.581351,327.036 127.581351,325.86 C127.581351,324.068 126.685351,322.864 124.893351,322.864 C123.185351,322.864 122.205351,324.096 121.981351,325.86 L119.181351,325.328 C119.377351,322.416 121.729351,320.176 124.893351,320.176 C128.197351,320.176 130.577351,322.248 130.577351,325.748 C130.577351,327.26 130.073351,328.8 128.953351,330.228 L123.381351,337.312 L130.941351,337.312 L130.941351,340 L118.789351,340 Z M141.833351,320.176 C146.453351,320.176 148.889351,324.012 148.889351,330.2 C148.889351,336.388 146.453351,340.224 141.833351,340.224 C137.213351,340.224 134.777351,336.388 134.777351,330.2 C134.777351,324.012 137.213351,320.176 141.833351,320.176 Z M141.833351,322.864 C139.061351,322.864 137.745351,325.608 137.745351,330.2 C137.745351,334.792 139.061351,337.536 141.833351,337.536 C144.605351,337.536 145.921351,334.792 145.921351,330.2 C145.921351,325.608 144.605351,322.864 141.833351,322.864 Z M151.493351,329.36 L152.781351,326.784 L154.237351,326.784 C155.049351,322.36 157.905351,320.176 161.601351,320.176 C164.261351,320.176 166.249351,321.38 167.313351,323.368 L164.849351,324.768 C164.093351,323.536 163.197351,322.808 161.601351,322.808 C159.361351,322.808 157.793351,324.012 157.233351,326.784 L163.197351,326.784 L161.909351,329.36 L156.981351,329.36 L156.981351,331.04 L163.197351,331.04 L161.909351,333.616 L157.233351,333.616 C157.793351,336.416 159.361351,337.592 161.601351,337.592 C163.197351,337.592 164.093351,336.864 164.849351,335.632 L167.313351,337.032 C166.249351,339.02 164.261351,340.224 161.601351,340.224 C157.905351,340.224 155.049351,338.04 154.237351,333.616 L151.493351,333.616 L152.781351,331.04 L154.013351,331.04 L154.013351,329.36 L151.493351,329.36 Z" id="72.920€" fill="#444F5A"></path>
                </g>
                <path d="M55.9897403,359.5 L58.3417403,352.6 L59.4337403,352.6 L56.4937403,361 L55.4857403,361 L52.5457403,352.6 L53.6377403,352.6 L55.9897403,359.5 Z M66.3817403,357.772 L66.3817403,358.192 L61.6537403,358.192 C61.7137403,359.392 62.4457403,360.184 63.5137403,360.184 C64.3777403,360.184 65.0257403,359.788 65.4577403,358.984 L66.2617403,359.404 C65.6737403,360.532 64.7617403,361.096 63.5137403,361.096 C62.6497403,361.096 61.9537403,360.796 61.4137403,360.208 C60.8857403,359.62 60.6217403,358.876 60.6217403,357.976 C60.6217403,357.1 60.8857403,356.356 61.4017403,355.756 C61.9297403,355.156 62.6377403,354.856 63.5137403,354.856 C64.4137403,354.856 65.1217403,355.132 65.6257403,355.696 C66.1297403,356.248 66.3817403,356.944 66.3817403,357.772 Z M63.5137403,355.768 C62.5657403,355.768 61.9297403,356.332 61.7257403,357.28 L65.3137403,357.28 C65.1337403,356.32 64.4857403,355.768 63.5137403,355.768 Z M73.8577403,356.872 L72.8497403,356.872 C72.7657403,356.14 72.3697403,355.768 71.6857403,355.768 C71.1217403,355.768 70.6297403,356.032 70.2337403,356.572 C69.8377403,357.1 69.6337403,357.844 69.6337403,358.816 L69.6337403,361 L68.6257403,361 L68.6257403,354.952 L69.6337403,354.952 L69.6337403,356.068 C70.1497403,355.264 70.8937403,354.856 71.8657403,354.856 C73.0657403,354.856 73.7977403,355.576 73.8577403,356.872 Z M79.8457403,359.428 L80.6737403,354.952 L81.7057403,354.952 L80.3857403,361 L79.4737403,361 L78.3097403,356.752 L77.1457403,361 L76.2337403,361 L74.9137403,354.952 L75.9457403,354.952 L76.7737403,359.428 L77.8057403,355.552 L78.8137403,355.552 L79.8457403,359.428 Z M84.3937403,359.26 C84.3937403,359.836 84.7777403,360.184 85.3897403,360.184 C85.8697403,360.184 86.3137403,360.028 86.7097403,359.728 C87.1177403,359.416 87.3217403,358.948 87.3217403,358.336 L87.3217403,358.144 L86.0017403,358.144 C84.9817403,358.144 84.3937403,358.576 84.3937403,359.26 Z M88.3297403,357.184 L88.3297403,361 L87.5137403,361 L87.3697403,360.148 C86.9857403,360.712 86.1337403,361.096 85.2337403,361.096 C84.1657403,361.096 83.3617403,360.448 83.3617403,359.26 C83.3617403,357.952 84.3817403,357.28 86.0977403,357.28 L87.3217403,357.28 L87.3217403,357.016 C87.3217403,356.14 86.7457403,355.768 85.9297403,355.768 C85.2457403,355.768 84.6937403,356.188 84.5017403,356.8 L83.6137403,356.56 C83.8897403,355.516 84.8137403,354.856 85.9297403,354.856 C87.4177403,354.856 88.3297403,355.588 88.3297403,357.184 Z M91.8817403,358.72 L91.8817403,353.512 L90.2137403,353.512 L90.2137403,352.6 L92.8897403,352.6 L92.8897403,358.72 C92.8897403,359.692 93.3097403,360.184 94.1617403,360.184 C94.9417403,360.184 95.4097403,359.692 95.5657403,358.72 L96.4777403,358.9 C96.2737403,360.34 95.4217403,361.096 94.1617403,361.096 C92.7577403,361.096 91.8817403,360.22 91.8817403,358.72 Z M99.3097403,355.864 L97.7017403,355.864 L97.7017403,354.952 L99.3097403,354.952 L99.3097403,353.14 L100.31774,352.504 L100.31774,354.952 L103.26974,354.952 L103.26974,355.864 L100.31774,355.864 L100.31774,358.96 C100.31774,359.776 100.66574,360.184 101.36174,360.184 C101.90174,360.184 102.39374,359.944 102.84974,359.464 L103.22174,360.316 C102.70574,360.832 102.08174,361.096 101.36174,361.096 C100.02974,361.096 99.3097403,360.388 99.3097403,358.996 L99.3097403,355.864 Z M105.58574,359.164 L105.58574,354.952 L106.59374,354.952 L106.59374,358.948 C106.59374,359.776 106.96574,360.184 107.70974,360.184 C108.20174,360.184 108.62174,359.932 108.96974,359.428 C109.31774,358.912 109.48574,358.24 109.48574,357.388 L109.48574,354.952 L110.49374,354.952 L110.49374,361 L109.48574,361 L109.48574,359.884 C109.04174,360.604 108.26174,361.096 107.43374,361.096 C106.19774,361.096 105.58574,360.364 105.58574,359.164 Z M118.05374,356.788 L118.05374,361 L117.04574,361 L117.04574,357.004 C117.04574,356.176 116.67374,355.768 115.92974,355.768 C115.43774,355.768 115.01774,356.02 114.66974,356.536 C114.32174,357.04 114.15374,357.712 114.15374,358.564 L114.15374,361 L113.14574,361 L113.14574,354.952 L114.15374,354.952 L114.15374,356.068 C114.59774,355.348 115.37774,354.856 116.20574,354.856 C117.44174,354.856 118.05374,355.588 118.05374,356.788 Z M120.93374,356.884 C120.93374,356.272 121.13774,355.78 121.53374,355.408 C121.94174,355.036 122.45774,354.856 123.06974,354.856 C123.50174,354.856 123.89774,354.964 124.25774,355.168 L125.51774,354.52 L125.97374,355.348 L124.95374,355.876 C125.12174,356.164 125.20574,356.5 125.20574,356.884 C125.20574,357.496 125.00174,357.988 124.60574,358.36 C124.20974,358.732 123.69374,358.912 123.06974,358.912 C122.64974,358.912 122.27774,358.828 121.95374,358.66 C121.58174,358.804 121.40174,359.008 121.40174,359.284 C121.40174,359.62 121.68974,359.788 122.25374,359.788 L123.82574,359.788 C125.12174,359.788 125.85374,360.364 125.85374,361.456 C125.85374,362.164 125.57774,362.68 125.02574,363.028 C124.47374,363.376 123.80174,363.544 123.02174,363.544 C121.25774,363.544 120.22574,362.848 120.22574,361.552 C120.22574,361.012 120.42974,360.58 120.84974,360.256 C120.56174,360.028 120.41774,359.728 120.41774,359.332 C120.41774,358.792 120.74174,358.324 121.30574,358.12 C121.05374,357.784 120.93374,357.376 120.93374,356.884 Z M123.80174,360.652 L122.37374,360.652 C122.12174,360.652 121.91774,360.64 121.74974,360.604 C121.40174,360.784 121.23374,361.084 121.23374,361.516 C121.23374,362.224 121.92974,362.656 123.02174,362.656 C124.16174,362.656 124.82174,362.236 124.82174,361.552 C124.82174,360.952 124.48574,360.652 123.80174,360.652 Z M122.24174,356.032 C122.02574,356.236 121.91774,356.524 121.91774,356.884 C121.91774,357.244 122.02574,357.532 122.24174,357.736 C122.46974,357.94 122.74574,358.048 123.06974,358.048 C123.39374,358.048 123.66974,357.952 123.88574,357.748 C124.11374,357.544 124.22174,357.256 124.22174,356.884 C124.22174,356.512 124.11374,356.236 123.88574,356.032 C123.66974,355.828 123.39374,355.72 123.06974,355.72 C122.74574,355.72 122.46974,355.828 122.24174,356.032 Z M130.36574,354.856 C131.36174,354.856 132.09374,355.288 132.57374,356.164 L131.78174,356.728 C131.43374,356.092 130.94174,355.768 130.32974,355.768 C129.75374,355.768 129.28574,356.032 129.28574,356.572 C129.28574,357.064 129.72974,357.316 130.68974,357.508 C131.20574,357.616 131.52974,357.688 131.92574,357.868 C132.48974,358.108 132.86174,358.516 132.86174,359.152 C132.86174,359.752 132.63374,360.232 132.18974,360.58 C131.74574,360.928 131.19374,361.096 130.53374,361.096 C129.28574,361.096 128.27774,360.46 127.90574,359.344 L128.86574,358.984 C129.14174,359.74 129.71774,360.184 130.53374,360.184 C131.26574,360.184 131.81774,359.86 131.81774,359.248 C131.81774,358.768 131.36174,358.6 130.25774,358.36 C129.02174,358.108 128.30174,357.676 128.30174,356.608 C128.30174,356.08 128.50574,355.66 128.90174,355.336 C129.29774,355.012 129.78974,354.856 130.36574,354.856 Z M135.44174,361 L135.44174,352.504 L136.44974,352.504 L136.44974,357.484 L139.02974,354.952 L140.34974,354.952 L137.52974,357.724 L140.62574,361 L139.30574,361 L136.44974,357.964 L136.44974,361 L135.44174,361 Z M143.10974,360.184 C142.56974,359.572 142.29374,358.84 142.29374,357.976 C142.29374,357.112 142.56974,356.38 143.10974,355.768 C143.64974,355.156 144.36974,354.856 145.26974,354.856 C146.16974,354.856 146.88974,355.156 147.42974,355.768 C147.96974,356.38 148.24574,357.112 148.24574,357.976 C148.24574,358.84 147.96974,359.572 147.42974,360.184 C146.88974,360.796 146.16974,361.096 145.26974,361.096 C144.36974,361.096 143.64974,360.796 143.10974,360.184 Z M143.85374,356.416 C143.50574,356.848 143.32574,357.364 143.32574,357.976 C143.32574,358.588 143.50574,359.104 143.85374,359.536 C144.20174,359.968 144.68174,360.184 145.26974,360.184 C145.85774,360.184 146.33774,359.968 146.68574,359.536 C147.03374,359.104 147.21374,358.588 147.21374,357.976 C147.21374,357.364 147.03374,356.848 146.68574,356.416 C146.33774,355.984 145.85774,355.768 145.26974,355.768 C144.68174,355.768 144.20174,355.984 143.85374,356.416 Z M152.68574,354.856 C153.68174,354.856 154.41374,355.288 154.89374,356.164 L154.10174,356.728 C153.75374,356.092 153.26174,355.768 152.64974,355.768 C152.07374,355.768 151.60574,356.032 151.60574,356.572 C151.60574,357.064 152.04974,357.316 153.00974,357.508 C153.52574,357.616 153.84974,357.688 154.24574,357.868 C154.80974,358.108 155.18174,358.516 155.18174,359.152 C155.18174,359.752 154.95374,360.232 154.50974,360.58 C154.06574,360.928 153.51374,361.096 152.85374,361.096 C151.60574,361.096 150.59774,360.46 150.22574,359.344 L151.18574,358.984 C151.46174,359.74 152.03774,360.184 152.85374,360.184 C153.58574,360.184 154.13774,359.86 154.13774,359.248 C154.13774,358.768 153.68174,358.6 152.57774,358.36 C151.34174,358.108 150.62174,357.676 150.62174,356.608 C150.62174,356.08 150.82574,355.66 151.22174,355.336 C151.61774,355.012 152.10974,354.856 152.68574,354.856 Z M158.82974,355.864 L157.22174,355.864 L157.22174,354.952 L158.82974,354.952 L158.82974,353.14 L159.83774,352.504 L159.83774,354.952 L162.78974,354.952 L162.78974,355.864 L159.83774,355.864 L159.83774,358.96 C159.83774,359.776 160.18574,360.184 160.88174,360.184 C161.42174,360.184 161.91374,359.944 162.36974,359.464 L162.74174,360.316 C162.22574,360.832 161.60174,361.096 160.88174,361.096 C159.54974,361.096 158.82974,360.388 158.82974,358.996 L158.82974,355.864 Z M170.54174,357.772 L170.54174,358.192 L165.81374,358.192 C165.87374,359.392 166.60574,360.184 167.67374,360.184 C168.53774,360.184 169.18574,359.788 169.61774,358.984 L170.42174,359.404 C169.83374,360.532 168.92174,361.096 167.67374,361.096 C166.80974,361.096 166.11374,360.796 165.57374,360.208 C165.04574,359.62 164.78174,358.876 164.78174,357.976 C164.78174,357.1 165.04574,356.356 165.56174,355.756 C166.08974,355.156 166.79774,354.856 167.67374,354.856 C168.57374,354.856 169.28174,355.132 169.78574,355.696 C170.28974,356.248 170.54174,356.944 170.54174,357.772 Z M167.67374,355.768 C166.72574,355.768 166.08974,356.332 165.88574,357.28 L169.47374,357.28 C169.29374,356.32 168.64574,355.768 167.67374,355.768 Z M177.57374,356.788 L177.57374,361 L176.56574,361 L176.56574,357.004 C176.56574,356.176 176.19374,355.768 175.44974,355.768 C174.95774,355.768 174.53774,356.02 174.18974,356.536 C173.84174,357.04 173.67374,357.712 173.67374,358.564 L173.67374,361 L172.66574,361 L172.66574,354.952 L173.67374,354.952 L173.67374,356.068 C174.11774,355.348 174.89774,354.856 175.72574,354.856 C176.96174,354.856 177.57374,355.588 177.57374,356.788 Z" id="Verwaltungskosten" fill="#444F5A"></path>
            </g>
        </g>
    </g>
</svg>