<?xml version="1.0" encoding="UTF-8"?>
<svg width="490px" height="265px" viewBox="0 0 490 265" version="1.1" xmlns="http://www.w3.org/2000/svg" xmlns:xlink="http://www.w3.org/1999/xlink">
    <!-- Generator: Sketch 50.2 (55047) - http://www.bohemiancoding.com/sketch -->
    <title>Group 2</title>
    <desc>Created with Sketch.</desc>
    <defs></defs>
    <g id="Ressourcen" stroke="none" stroke-width="1" fill="none" fill-rule="evenodd">
        <g id="edulabs" transform="translate(-621.000000, -348.000000)">
            <g id="Group-2" transform="translate(621.000000, 348.000000)">
                <g id="Group">
                    <rect id="Rectangle-3" fill="#F1F1F1" x="0" y="0" width="239" height="127"></rect>
                    <path d="M91.42,44.4 L92.624,44.4 L92.624,64 L89.656,64 L89.656,48.6 L85.988,50.784 L85.988,47.648 L91.42,44.4 Z M103.936,44.176 C108.556,44.176 110.992,48.012 110.992,54.2 C110.992,60.388 108.556,64.224 103.936,64.224 C99.316,64.224 96.88,60.388 96.88,54.2 C96.88,48.012 99.316,44.176 103.936,44.176 Z M103.936,46.864 C101.164,46.864 99.848,49.608 99.848,54.2 C99.848,58.792 101.164,61.536 103.936,61.536 C106.708,61.536 108.024,58.792 108.024,54.2 C108.024,49.608 106.708,46.864 103.936,46.864 Z M121.632,44.176 C126.252,44.176 128.688,48.012 128.688,54.2 C128.688,60.388 126.252,64.224 121.632,64.224 C117.012,64.224 114.576,60.388 114.576,54.2 C114.576,48.012 117.012,44.176 121.632,44.176 Z M121.632,46.864 C118.86,46.864 117.544,49.608 117.544,54.2 C117.544,58.792 118.86,61.536 121.632,61.536 C124.404,61.536 125.72,58.792 125.72,54.2 C125.72,49.608 124.404,46.864 121.632,46.864 Z M132.02,48.656 C132.02,46.164 134.008,44.176 136.556,44.176 C139.104,44.176 141.092,46.164 141.092,48.656 C141.092,51.148 139.104,53.136 136.556,53.136 C134.008,53.136 132.02,51.148 132.02,48.656 Z M134.484,48.656 C134.484,49.888 135.268,50.812 136.556,50.812 C137.844,50.812 138.628,49.888 138.628,48.656 C138.628,47.424 137.844,46.5 136.556,46.5 C135.268,46.5 134.484,47.424 134.484,48.656 Z M143.388,59.744 C143.388,57.252 145.376,55.264 147.924,55.264 C150.472,55.264 152.46,57.252 152.46,59.744 C152.46,62.236 150.472,64.224 147.924,64.224 C145.376,64.224 143.388,62.236 143.388,59.744 Z M145.852,59.744 C145.852,60.976 146.636,61.9 147.924,61.9 C149.212,61.9 149.996,60.976 149.996,59.744 C149.996,58.512 149.212,57.588 147.924,57.588 C146.636,57.588 145.852,58.512 145.852,59.744 Z M149.156,43.476 L150.78,44.736 L135.688,64.896 L134.064,63.636 L149.156,43.476 Z" id="100%" fill="#444F5A"></path>
                    <path d="M57.352,84 L57.352,75.6 L62.596,75.6 L62.596,76.608 L58.408,76.608 L58.408,79.116 L62.008,79.116 L62.008,80.124 L58.408,80.124 L58.408,84 L57.352,84 Z M67.096,78.84 L65.248,78.84 L65.248,77.952 L68.104,77.952 L68.104,83.112 L70.336,83.112 L70.336,84 L65.008,84 L65.008,83.112 L67.096,83.112 L67.096,78.84 Z M66.7,76.344 C66.7,75.876 67.06,75.504 67.528,75.504 C67.996,75.504 68.356,75.876 68.356,76.344 C68.356,76.812 67.996,77.16 67.528,77.16 C67.06,77.16 66.7,76.788 66.7,76.344 Z M77.404,79.788 L77.404,84 L76.396,84 L76.396,80.004 C76.396,79.176 76.024,78.768 75.28,78.768 C74.788,78.768 74.368,79.02 74.02,79.536 C73.672,80.04 73.504,80.712 73.504,81.564 L73.504,84 L72.496,84 L72.496,77.952 L73.504,77.952 L73.504,79.068 C73.948,78.348 74.728,77.856 75.556,77.856 C76.792,77.856 77.404,78.588 77.404,79.788 Z M80.944,82.26 C80.944,82.836 81.328,83.184 81.94,83.184 C82.42,83.184 82.864,83.028 83.26,82.728 C83.668,82.416 83.872,81.948 83.872,81.336 L83.872,81.144 L82.552,81.144 C81.532,81.144 80.944,81.576 80.944,82.26 Z M84.88,80.184 L84.88,84 L84.064,84 L83.92,83.148 C83.536,83.712 82.684,84.096 81.784,84.096 C80.716,84.096 79.912,83.448 79.912,82.26 C79.912,80.952 80.932,80.28 82.648,80.28 L83.872,80.28 L83.872,80.016 C83.872,79.14 83.296,78.768 82.48,78.768 C81.796,78.768 81.244,79.188 81.052,79.8 L80.164,79.56 C80.44,78.516 81.364,77.856 82.48,77.856 C83.968,77.856 84.88,78.588 84.88,80.184 Z M92.284,79.788 L92.284,84 L91.276,84 L91.276,80.004 C91.276,79.176 90.904,78.768 90.16,78.768 C89.668,78.768 89.248,79.02 88.9,79.536 C88.552,80.04 88.384,80.712 88.384,81.564 L88.384,84 L87.376,84 L87.376,77.952 L88.384,77.952 L88.384,79.068 C88.828,78.348 89.608,77.856 90.436,77.856 C91.672,77.856 92.284,78.588 92.284,79.788 Z M97.948,78.864 L94.936,78.864 L94.936,77.952 L99.472,77.952 L99.472,78.384 L96.268,83.088 L99.616,83.088 L99.616,84 L94.78,84 L94.78,83.568 L97.948,78.864 Z M104.296,78.84 L102.448,78.84 L102.448,77.952 L105.304,77.952 L105.304,83.112 L107.536,83.112 L107.536,84 L102.208,84 L102.208,83.112 L104.296,83.112 L104.296,78.84 Z M103.9,76.344 C103.9,75.876 104.26,75.504 104.728,75.504 C105.196,75.504 105.556,75.876 105.556,76.344 C105.556,76.812 105.196,77.16 104.728,77.16 C104.26,77.16 103.9,76.788 103.9,76.344 Z M115.012,80.772 L115.012,81.192 L110.284,81.192 C110.344,82.392 111.076,83.184 112.144,83.184 C113.008,83.184 113.656,82.788 114.088,81.984 L114.892,82.404 C114.304,83.532 113.392,84.096 112.144,84.096 C111.28,84.096 110.584,83.796 110.044,83.208 C109.516,82.62 109.252,81.876 109.252,80.976 C109.252,80.1 109.516,79.356 110.032,78.756 C110.56,78.156 111.268,77.856 112.144,77.856 C113.044,77.856 113.752,78.132 114.256,78.696 C114.76,79.248 115.012,79.944 115.012,80.772 Z M112.144,78.768 C111.196,78.768 110.56,79.332 110.356,80.28 L113.944,80.28 C113.764,79.32 113.116,78.768 112.144,78.768 Z M122.488,79.872 L121.48,79.872 C121.396,79.14 121,78.768 120.316,78.768 C119.752,78.768 119.26,79.032 118.864,79.572 C118.468,80.1 118.264,80.844 118.264,81.816 L118.264,84 L117.256,84 L117.256,77.952 L118.264,77.952 L118.264,79.068 C118.78,78.264 119.524,77.856 120.496,77.856 C121.696,77.856 122.428,78.576 122.488,79.872 Z M124.456,82.164 L124.456,77.952 L125.464,77.952 L125.464,81.948 C125.464,82.776 125.836,83.184 126.58,83.184 C127.072,83.184 127.492,82.932 127.84,82.428 C128.188,81.912 128.356,81.24 128.356,80.388 L128.356,77.952 L129.364,77.952 L129.364,84 L128.356,84 L128.356,82.884 C127.912,83.604 127.132,84.096 126.304,84.096 C125.068,84.096 124.456,83.364 124.456,82.164 Z M136.924,79.788 L136.924,84 L135.916,84 L135.916,80.004 C135.916,79.176 135.544,78.768 134.8,78.768 C134.308,78.768 133.888,79.02 133.54,79.536 C133.192,80.04 133.024,80.712 133.024,81.564 L133.024,84 L132.016,84 L132.016,77.952 L133.024,77.952 L133.024,79.068 C133.468,78.348 134.248,77.856 135.076,77.856 C136.312,77.856 136.924,78.588 136.924,79.788 Z M139.804,79.884 C139.804,79.272 140.008,78.78 140.404,78.408 C140.812,78.036 141.328,77.856 141.94,77.856 C142.372,77.856 142.768,77.964 143.128,78.168 L144.388,77.52 L144.844,78.348 L143.824,78.876 C143.992,79.164 144.076,79.5 144.076,79.884 C144.076,80.496 143.872,80.988 143.476,81.36 C143.08,81.732 142.564,81.912 141.94,81.912 C141.52,81.912 141.148,81.828 140.824,81.66 C140.452,81.804 140.272,82.008 140.272,82.284 C140.272,82.62 140.56,82.788 141.124,82.788 L142.696,82.788 C143.992,82.788 144.724,83.364 144.724,84.456 C144.724,85.164 144.448,85.68 143.896,86.028 C143.344,86.376 142.672,86.544 141.892,86.544 C140.128,86.544 139.096,85.848 139.096,84.552 C139.096,84.012 139.3,83.58 139.72,83.256 C139.432,83.028 139.288,82.728 139.288,82.332 C139.288,81.792 139.612,81.324 140.176,81.12 C139.924,80.784 139.804,80.376 139.804,79.884 Z M142.672,83.652 L141.244,83.652 C140.992,83.652 140.788,83.64 140.62,83.604 C140.272,83.784 140.104,84.084 140.104,84.516 C140.104,85.224 140.8,85.656 141.892,85.656 C143.032,85.656 143.692,85.236 143.692,84.552 C143.692,83.952 143.356,83.652 142.672,83.652 Z M141.112,79.032 C140.896,79.236 140.788,79.524 140.788,79.884 C140.788,80.244 140.896,80.532 141.112,80.736 C141.34,80.94 141.616,81.048 141.94,81.048 C142.264,81.048 142.54,80.952 142.756,80.748 C142.984,80.544 143.092,80.256 143.092,79.884 C143.092,79.512 142.984,79.236 142.756,79.032 C142.54,78.828 142.264,78.72 141.94,78.72 C141.616,78.72 141.34,78.828 141.112,79.032 Z M149.236,77.856 C150.232,77.856 150.964,78.288 151.444,79.164 L150.652,79.728 C150.304,79.092 149.812,78.768 149.2,78.768 C148.624,78.768 148.156,79.032 148.156,79.572 C148.156,80.064 148.6,80.316 149.56,80.508 C150.076,80.616 150.4,80.688 150.796,80.868 C151.36,81.108 151.732,81.516 151.732,82.152 C151.732,82.752 151.504,83.232 151.06,83.58 C150.616,83.928 150.064,84.096 149.404,84.096 C148.156,84.096 147.148,83.46 146.776,82.344 L147.736,81.984 C148.012,82.74 148.588,83.184 149.404,83.184 C150.136,83.184 150.688,82.86 150.688,82.248 C150.688,81.768 150.232,81.6 149.128,81.36 C147.892,81.108 147.172,80.676 147.172,79.608 C147.172,79.08 147.376,78.66 147.772,78.336 C148.168,78.012 148.66,77.856 149.236,77.856 Z M154.684,79.884 C154.684,79.272 154.888,78.78 155.284,78.408 C155.692,78.036 156.208,77.856 156.82,77.856 C157.252,77.856 157.648,77.964 158.008,78.168 L159.268,77.52 L159.724,78.348 L158.704,78.876 C158.872,79.164 158.956,79.5 158.956,79.884 C158.956,80.496 158.752,80.988 158.356,81.36 C157.96,81.732 157.444,81.912 156.82,81.912 C156.4,81.912 156.028,81.828 155.704,81.66 C155.332,81.804 155.152,82.008 155.152,82.284 C155.152,82.62 155.44,82.788 156.004,82.788 L157.576,82.788 C158.872,82.788 159.604,83.364 159.604,84.456 C159.604,85.164 159.328,85.68 158.776,86.028 C158.224,86.376 157.552,86.544 156.772,86.544 C155.008,86.544 153.976,85.848 153.976,84.552 C153.976,84.012 154.18,83.58 154.6,83.256 C154.312,83.028 154.168,82.728 154.168,82.332 C154.168,81.792 154.492,81.324 155.056,81.12 C154.804,80.784 154.684,80.376 154.684,79.884 Z M157.552,83.652 L156.124,83.652 C155.872,83.652 155.668,83.64 155.5,83.604 C155.152,83.784 154.984,84.084 154.984,84.516 C154.984,85.224 155.68,85.656 156.772,85.656 C157.912,85.656 158.572,85.236 158.572,84.552 C158.572,83.952 158.236,83.652 157.552,83.652 Z M155.992,79.032 C155.776,79.236 155.668,79.524 155.668,79.884 C155.668,80.244 155.776,80.532 155.992,80.736 C156.22,80.94 156.496,81.048 156.82,81.048 C157.144,81.048 157.42,80.952 157.636,80.748 C157.864,80.544 157.972,80.256 157.972,79.884 C157.972,79.512 157.864,79.236 157.636,79.032 C157.42,78.828 157.144,78.72 156.82,78.72 C156.496,78.72 156.22,78.828 155.992,79.032 Z M167.128,79.872 L166.12,79.872 C166.036,79.14 165.64,78.768 164.956,78.768 C164.392,78.768 163.9,79.032 163.504,79.572 C163.108,80.1 162.904,80.844 162.904,81.816 L162.904,84 L161.896,84 L161.896,77.952 L162.904,77.952 L162.904,79.068 C163.42,78.264 164.164,77.856 165.136,77.856 C166.336,77.856 167.068,78.576 167.128,79.872 Z M170.224,82.26 C170.224,82.836 170.608,83.184 171.22,83.184 C171.7,83.184 172.144,83.028 172.54,82.728 C172.948,82.416 173.152,81.948 173.152,81.336 L173.152,81.144 L171.832,81.144 C170.812,81.144 170.224,81.576 170.224,82.26 Z M174.16,80.184 L174.16,84 L173.344,84 L173.2,83.148 C172.816,83.712 171.964,84.096 171.064,84.096 C169.996,84.096 169.192,83.448 169.192,82.26 C169.192,80.952 170.212,80.28 171.928,80.28 L173.152,80.28 L173.152,80.016 C173.152,79.14 172.576,78.768 171.76,78.768 C171.076,78.768 170.524,79.188 170.332,79.8 L169.444,79.56 C169.72,78.516 170.644,77.856 171.76,77.856 C173.248,77.856 174.16,78.588 174.16,80.184 Z M178.912,77.856 C179.716,77.856 180.388,78.228 180.76,78.72 L180.76,75.504 L181.768,75.504 L181.768,84 L180.76,84 L180.76,83.196 C180.388,83.712 179.692,84.096 178.912,84.096 C177.172,84.096 176.14,82.86 176.14,80.976 C176.14,79.092 177.172,77.856 178.912,77.856 Z M177.664,79.38 C177.34,79.788 177.172,80.316 177.172,80.976 C177.172,81.636 177.34,82.164 177.664,82.572 C177.988,82.98 178.444,83.184 179.008,83.184 C179.572,83.184 180.028,82.98 180.352,82.572 C180.676,82.164 180.844,81.636 180.844,80.976 C180.844,80.316 180.676,79.788 180.352,79.38 C180.028,78.972 179.572,78.768 179.008,78.768 C178.444,78.768 177.988,78.972 177.664,79.38 Z" id="Finanzierungsgrad" fill="#444F5A"></path>
                    <rect id="Rectangle-3" fill="#F1F1F1" x="251" y="0" width="239" height="127"></rect>
                    <path d="M317.341351,44.4 L318.545351,44.4 L318.545351,64 L315.577351,64 L315.577351,48.6 L311.909351,50.784 L311.909351,47.648 L317.341351,44.4 Z M331.173351,64 L331.173351,60.08 L322.717351,60.08 L322.717351,58.736 L331.005351,44.4 L334.141351,44.4 L334.141351,57.392 L336.437351,57.392 L336.437351,60.08 L334.141351,60.08 L334.141351,64 L331.173351,64 Z M326.413351,57.392 L331.173351,57.392 L331.173351,48.88 L326.413351,57.392 Z M346.237351,56.944 C342.625351,56.944 340.133351,54.256 340.133351,50.56 C340.133351,46.976 342.765351,44.176 346.405351,44.176 C350.045351,44.176 352.677351,46.976 352.677351,50.56 C352.677351,51.876 352.313351,53.08 351.725351,54.116 L345.901351,64.224 L342.597351,64.224 L346.881351,56.832 C346.713351,56.916 346.433351,56.944 346.237351,56.944 Z M346.405351,54.256 C348.365351,54.256 349.709351,52.856 349.709351,50.56 C349.709351,48.404 348.337351,46.864 346.405351,46.864 C344.445351,46.864 343.101351,48.404 343.101351,50.56 C343.101351,52.856 344.445351,54.256 346.405351,54.256 Z M358.725351,59.996 C359.873351,59.996 360.797351,60.892 360.797351,62.068 C360.797351,63.244 359.873351,64.14 358.725351,64.14 C357.577351,64.14 356.653351,63.244 356.653351,62.068 C356.653351,60.892 357.577351,59.996 358.725351,59.996 Z M373.341351,64 L373.341351,60.08 L364.885351,60.08 L364.885351,58.736 L373.173351,44.4 L376.309351,44.4 L376.309351,57.392 L378.605351,57.392 L378.605351,60.08 L376.309351,60.08 L376.309351,64 L373.341351,64 Z M368.581351,57.392 L373.341351,57.392 L373.341351,48.88 L368.581351,57.392 Z M388.405351,56.944 C384.793351,56.944 382.301351,54.256 382.301351,50.56 C382.301351,46.976 384.933351,44.176 388.573351,44.176 C392.213351,44.176 394.845351,46.976 394.845351,50.56 C394.845351,51.876 394.481351,53.08 393.893351,54.116 L388.069351,64.224 L384.765351,64.224 L389.049351,56.832 C388.881351,56.916 388.601351,56.944 388.405351,56.944 Z M388.573351,54.256 C390.533351,54.256 391.877351,52.856 391.877351,50.56 C391.877351,48.404 390.505351,46.864 388.573351,46.864 C386.613351,46.864 385.269351,48.404 385.269351,50.56 C385.269351,52.856 386.613351,54.256 388.573351,54.256 Z M398.541351,58.876 L401.425351,58.344 C401.761351,60.668 403.077351,61.536 404.645351,61.536 C406.773351,61.536 407.921351,59.94 407.921351,57.616 C407.921351,55.32 406.857351,53.696 404.645351,53.696 C403.161351,53.696 401.817351,54.48 400.893351,55.712 L398.961351,55.32 L400.053351,44.4 L409.797351,44.4 L409.797351,47.088 L402.545351,47.088 L401.957351,51.988 C402.629351,51.428 403.749351,51.008 404.813351,51.008 C408.761351,51.008 410.889351,53.836 410.889351,57.616 C410.889351,61.424 408.509351,64.224 404.645351,64.224 C401.397351,64.224 398.933351,62.292 398.541351,58.876 Z M413.465351,53.36 L414.753351,50.784 L416.209351,50.784 C417.021351,46.36 419.877351,44.176 423.573351,44.176 C426.233351,44.176 428.221351,45.38 429.285351,47.368 L426.821351,48.768 C426.065351,47.536 425.169351,46.808 423.573351,46.808 C421.333351,46.808 419.765351,48.012 419.205351,50.784 L425.169351,50.784 L423.881351,53.36 L418.953351,53.36 L418.953351,55.04 L425.169351,55.04 L423.881351,57.616 L419.205351,57.616 C419.765351,60.416 421.333351,61.592 423.573351,61.592 C425.169351,61.592 426.065351,60.864 426.821351,59.632 L429.285351,61.032 C428.221351,63.02 426.233351,64.224 423.573351,64.224 C419.877351,64.224 417.021351,62.04 416.209351,57.616 L413.465351,57.616 L414.753351,55.04 L415.985351,55.04 L415.985351,53.36 L413.465351,53.36 Z" id="149.495€" fill="#444F5A"></path>
                    <path d="M329.232,84 L329.232,75.6 L332.184,75.6 C333.684,75.6 334.572,76.38 334.572,77.76 C334.572,78.48 334.176,79.104 333.612,79.404 C334.44,79.74 334.992,80.496 334.992,81.504 C334.992,83.052 334.008,84 332.376,84 L329.232,84 Z M332.22,80.028 L330.288,80.028 L330.288,82.992 L332.22,82.992 C333.336,82.992 333.9,82.5 333.9,81.504 C333.9,80.52 333.336,80.028 332.22,80.028 Z M332.16,76.608 L330.288,76.608 L330.288,79.02 L332.16,79.02 C332.976,79.02 333.48,78.6 333.48,77.82 C333.48,77.016 332.964,76.608 332.16,76.608 Z M336.756,82.164 L336.756,77.952 L337.764,77.952 L337.764,81.948 C337.764,82.776 338.136,83.184 338.88,83.184 C339.372,83.184 339.792,82.932 340.14,82.428 C340.488,81.912 340.656,81.24 340.656,80.388 L340.656,77.952 L341.664,77.952 L341.664,84 L340.656,84 L340.656,82.884 C340.212,83.604 339.432,84.096 338.604,84.096 C337.368,84.096 336.756,83.364 336.756,82.164 Z M346.572,77.856 C347.376,77.856 348.048,78.228 348.42,78.72 L348.42,75.504 L349.428,75.504 L349.428,84 L348.42,84 L348.42,83.196 C348.048,83.712 347.352,84.096 346.572,84.096 C344.832,84.096 343.8,82.86 343.8,80.976 C343.8,79.092 344.832,77.856 346.572,77.856 Z M345.324,79.38 C345,79.788 344.832,80.316 344.832,80.976 C344.832,81.636 345,82.164 345.324,82.572 C345.648,82.98 346.104,83.184 346.668,83.184 C347.232,83.184 347.688,82.98 348.012,82.572 C348.336,82.164 348.504,81.636 348.504,80.976 C348.504,80.316 348.336,79.788 348.012,79.38 C347.688,78.972 347.232,78.768 346.668,78.768 C346.104,78.768 345.648,78.972 345.324,79.38 Z M352.104,79.884 C352.104,79.272 352.308,78.78 352.704,78.408 C353.112,78.036 353.628,77.856 354.24,77.856 C354.672,77.856 355.068,77.964 355.428,78.168 L356.688,77.52 L357.144,78.348 L356.124,78.876 C356.292,79.164 356.376,79.5 356.376,79.884 C356.376,80.496 356.172,80.988 355.776,81.36 C355.38,81.732 354.864,81.912 354.24,81.912 C353.82,81.912 353.448,81.828 353.124,81.66 C352.752,81.804 352.572,82.008 352.572,82.284 C352.572,82.62 352.86,82.788 353.424,82.788 L354.996,82.788 C356.292,82.788 357.024,83.364 357.024,84.456 C357.024,85.164 356.748,85.68 356.196,86.028 C355.644,86.376 354.972,86.544 354.192,86.544 C352.428,86.544 351.396,85.848 351.396,84.552 C351.396,84.012 351.6,83.58 352.02,83.256 C351.732,83.028 351.588,82.728 351.588,82.332 C351.588,81.792 351.912,81.324 352.476,81.12 C352.224,80.784 352.104,80.376 352.104,79.884 Z M354.972,83.652 L353.544,83.652 C353.292,83.652 353.088,83.64 352.92,83.604 C352.572,83.784 352.404,84.084 352.404,84.516 C352.404,85.224 353.1,85.656 354.192,85.656 C355.332,85.656 355.992,85.236 355.992,84.552 C355.992,83.952 355.656,83.652 354.972,83.652 Z M353.412,79.032 C353.196,79.236 353.088,79.524 353.088,79.884 C353.088,80.244 353.196,80.532 353.412,80.736 C353.64,80.94 353.916,81.048 354.24,81.048 C354.564,81.048 354.84,80.952 355.056,80.748 C355.284,80.544 355.392,80.256 355.392,79.884 C355.392,79.512 355.284,79.236 355.056,79.032 C354.84,78.828 354.564,78.72 354.24,78.72 C353.916,78.72 353.64,78.828 353.412,79.032 Z M364.512,80.772 L364.512,81.192 L359.784,81.192 C359.844,82.392 360.576,83.184 361.644,83.184 C362.508,83.184 363.156,82.788 363.588,81.984 L364.392,82.404 C363.804,83.532 362.892,84.096 361.644,84.096 C360.78,84.096 360.084,83.796 359.544,83.208 C359.016,82.62 358.752,81.876 358.752,80.976 C358.752,80.1 359.016,79.356 359.532,78.756 C360.06,78.156 360.768,77.856 361.644,77.856 C362.544,77.856 363.252,78.132 363.756,78.696 C364.26,79.248 364.512,79.944 364.512,80.772 Z M361.644,78.768 C360.696,78.768 360.06,79.332 359.856,80.28 L363.444,80.28 C363.264,79.32 362.616,78.768 361.644,78.768 Z M367.68,78.864 L366.072,78.864 L366.072,77.952 L367.68,77.952 L367.68,76.14 L368.688,75.504 L368.688,77.952 L371.64,77.952 L371.64,78.864 L368.688,78.864 L368.688,81.96 C368.688,82.776 369.036,83.184 369.732,83.184 C370.272,83.184 370.764,82.944 371.22,82.464 L371.592,83.316 C371.076,83.832 370.452,84.096 369.732,84.096 C368.4,84.096 367.68,83.388 367.68,81.996 L367.68,78.864 Z M386.772,84 L381.588,84 L381.588,83.532 L384.9,79.428 C385.428,78.768 385.584,78.372 385.584,77.832 C385.584,77.436 385.476,77.124 385.272,76.872 C385.044,76.596 384.708,76.464 384.264,76.464 C383.484,76.464 382.92,77.076 382.788,77.988 L381.768,77.796 C381.828,77.136 382.104,76.596 382.584,76.164 C383.064,75.72 383.628,75.504 384.264,75.504 C385.044,75.504 385.656,75.744 386.088,76.236 C386.436,76.632 386.616,77.172 386.616,77.832 C386.616,78.48 386.388,79.092 385.944,79.656 L383.232,83.04 L386.772,83.04 L386.772,84 Z M393.576,82.944 C393.036,83.712 392.292,84.096 391.32,84.096 C390.348,84.096 389.592,83.712 389.052,82.944 C388.512,82.164 388.248,81.12 388.248,79.8 C388.248,78.48 388.512,77.436 389.052,76.668 C389.592,75.888 390.348,75.504 391.32,75.504 C392.292,75.504 393.036,75.888 393.576,76.668 C394.116,77.436 394.392,78.48 394.392,79.8 C394.392,81.12 394.116,82.164 393.576,82.944 Z M389.304,79.8 C389.304,80.724 389.448,81.492 389.748,82.08 L392.244,76.74 C391.968,76.56 391.668,76.464 391.32,76.464 C390.036,76.464 389.304,77.736 389.304,79.8 Z M391.32,83.136 C392.604,83.136 393.336,81.864 393.336,79.8 C393.336,78.852 393.192,78.096 392.892,77.52 L390.396,82.86 C390.672,83.04 390.972,83.136 391.32,83.136 Z M396.504,77.256 L399.228,75.6 L399.612,75.6 L399.612,83.088 L401.772,83.088 L401.772,84 L396.444,84 L396.444,83.088 L398.604,83.088 L398.604,77.112 L396.504,78.36 L396.504,77.256 Z M408.516,77.748 C408.516,78.456 408.12,79.176 407.556,79.476 C408.324,79.824 408.804,80.58 408.804,81.588 C408.804,82.356 408.552,82.968 408.048,83.424 C407.544,83.868 406.932,84.096 406.2,84.096 C405.468,84.096 404.856,83.868 404.352,83.424 C403.848,82.968 403.596,82.356 403.596,81.588 C403.596,80.58 404.076,79.824 404.844,79.476 C404.28,79.176 403.884,78.456 403.884,77.748 C403.884,77.112 404.1,76.584 404.532,76.152 C404.976,75.72 405.528,75.504 406.2,75.504 C406.872,75.504 407.424,75.72 407.856,76.152 C408.3,76.584 408.516,77.112 408.516,77.748 Z M407.316,80.46 C407.028,80.184 406.656,80.04 406.2,80.04 C405.744,80.04 405.372,80.184 405.084,80.46 C404.796,80.736 404.652,81.12 404.652,81.588 C404.652,82.056 404.796,82.44 405.084,82.716 C405.372,82.992 405.744,83.136 406.2,83.136 C406.656,83.136 407.028,82.992 407.316,82.716 C407.604,82.44 407.748,82.056 407.748,81.588 C407.748,81.12 407.604,80.736 407.316,80.46 Z M407.136,76.788 C406.908,76.536 406.596,76.416 406.2,76.416 C405.804,76.416 405.492,76.536 405.264,76.788 C405.036,77.04 404.916,77.352 404.916,77.748 C404.916,78.144 405.036,78.456 405.264,78.708 C405.492,78.96 405.804,79.08 406.2,79.08 C406.596,79.08 406.908,78.96 407.136,78.708 C407.364,78.456 407.484,78.144 407.484,77.748 C407.484,77.352 407.364,77.04 407.136,76.788 Z" id="Budget-2018" fill="#444F5A"></path>
                    <rect id="Rectangle-3" fill="#F1F1F1" x="0" y="138" width="239" height="127"></rect>
                    <path d="M74.1953506,182.4 L74.1953506,183.744 L66.6913506,202 L63.7233506,202 L70.6953506,185.088 L62.6033506,185.088 L62.6033506,182.4 L74.1953506,182.4 Z M85.0873506,202 L85.0873506,198.08 L76.6313506,198.08 L76.6313506,196.736 L84.9193506,182.4 L88.0553506,182.4 L88.0553506,195.392 L90.3513506,195.392 L90.3513506,198.08 L88.0553506,198.08 L88.0553506,202 L85.0873506,202 Z M80.3273506,195.392 L85.0873506,195.392 L85.0873506,186.88 L80.3273506,195.392 Z M96.4273506,197.996 C97.5753506,197.996 98.4993506,198.892 98.4993506,200.068 C98.4993506,201.244 97.5753506,202.14 96.4273506,202.14 C95.2793506,202.14 94.3553506,201.244 94.3553506,200.068 C94.3553506,198.892 95.2793506,197.996 96.4273506,197.996 Z M109.167351,182.176 C112.443351,182.176 114.711351,184.556 114.711351,187.468 C114.711351,189.092 113.927351,190.492 112.751351,191.444 C114.347351,192.368 115.439351,193.992 115.439351,196.232 C115.439351,200.012 112.527351,202.224 109.167351,202.224 C105.807351,202.224 102.895351,200.012 102.895351,196.232 C102.895351,193.992 103.987351,192.368 105.583351,191.444 C104.379351,190.492 103.623351,189.092 103.623351,187.468 C103.623351,184.556 105.891351,182.176 109.167351,182.176 Z M109.167351,193.04 C107.347351,193.04 105.863351,194.16 105.863351,196.232 C105.863351,198.304 107.347351,199.536 109.167351,199.536 C110.987351,199.536 112.471351,198.304 112.471351,196.232 C112.471351,194.16 110.987351,193.04 109.167351,193.04 Z M109.167351,184.752 C107.627351,184.752 106.507351,185.928 106.507351,187.496 C106.507351,189.092 107.627351,190.268 109.167351,190.268 C110.707351,190.268 111.827351,189.092 111.827351,187.496 C111.827351,185.928 110.707351,184.752 109.167351,184.752 Z M127.619351,202 L127.619351,198.08 L119.163351,198.08 L119.163351,196.736 L127.451351,182.4 L130.587351,182.4 L130.587351,195.392 L132.883351,195.392 L132.883351,198.08 L130.587351,198.08 L130.587351,202 L127.619351,202 Z M122.859351,195.392 L127.619351,195.392 L127.619351,186.88 L122.859351,195.392 Z M143.355351,182.176 C147.975351,182.176 150.411351,186.012 150.411351,192.2 C150.411351,198.388 147.975351,202.224 143.355351,202.224 C138.735351,202.224 136.299351,198.388 136.299351,192.2 C136.299351,186.012 138.735351,182.176 143.355351,182.176 Z M143.355351,184.864 C140.583351,184.864 139.267351,187.608 139.267351,192.2 C139.267351,196.792 140.583351,199.536 143.355351,199.536 C146.127351,199.536 147.443351,196.792 147.443351,192.2 C147.443351,187.608 146.127351,184.864 143.355351,184.864 Z M160.239351,191.36 L161.527351,188.784 L162.983351,188.784 C163.795351,184.36 166.651351,182.176 170.347351,182.176 C173.007351,182.176 174.995351,183.38 176.059351,185.368 L173.595351,186.768 C172.839351,185.536 171.943351,184.808 170.347351,184.808 C168.107351,184.808 166.539351,186.012 165.979351,188.784 L171.943351,188.784 L170.655351,191.36 L165.727351,191.36 L165.727351,193.04 L171.943351,193.04 L170.655351,195.616 L165.979351,195.616 C166.539351,198.416 168.107351,199.592 170.347351,199.592 C171.943351,199.592 172.839351,198.864 173.595351,197.632 L176.059351,199.032 C174.995351,201.02 173.007351,202.224 170.347351,202.224 C166.651351,202.224 163.795351,200.04 162.983351,195.616 L160.239351,195.616 L161.527351,193.04 L162.759351,193.04 L162.759351,191.36 L160.239351,191.36 Z" id="74.840-€" fill="#444F5A"></path>
                    <path d="M51.688,218.4 L49.564,218.4 L49.564,222 L48.508,222 L48.508,213.6 L51.688,213.6 C53.284,213.6 54.184,214.512 54.184,216 C54.184,217.488 53.284,218.4 51.688,218.4 Z M49.564,217.392 L51.664,217.392 C52.612,217.392 53.092,216.924 53.092,216 C53.092,215.076 52.612,214.608 51.664,214.608 L49.564,214.608 L49.564,217.392 Z M61.432,218.772 L61.432,219.192 L56.704,219.192 C56.764,220.392 57.496,221.184 58.564,221.184 C59.428,221.184 60.076,220.788 60.508,219.984 L61.312,220.404 C60.724,221.532 59.812,222.096 58.564,222.096 C57.7,222.096 57.004,221.796 56.464,221.208 C55.936,220.62 55.672,219.876 55.672,218.976 C55.672,218.1 55.936,217.356 56.452,216.756 C56.98,216.156 57.688,215.856 58.564,215.856 C59.464,215.856 60.172,216.132 60.676,216.696 C61.18,217.248 61.432,217.944 61.432,218.772 Z M58.564,216.768 C57.616,216.768 56.98,217.332 56.776,218.28 L60.364,218.28 C60.184,217.32 59.536,216.768 58.564,216.768 Z M68.908,217.872 L67.9,217.872 C67.816,217.14 67.42,216.768 66.736,216.768 C66.172,216.768 65.68,217.032 65.284,217.572 C64.888,218.1 64.684,218.844 64.684,219.816 L64.684,222 L63.676,222 L63.676,215.952 L64.684,215.952 L64.684,217.068 C65.2,216.264 65.944,215.856 66.916,215.856 C68.116,215.856 68.848,216.576 68.908,217.872 Z M73.336,215.856 C74.332,215.856 75.064,216.288 75.544,217.164 L74.752,217.728 C74.404,217.092 73.912,216.768 73.3,216.768 C72.724,216.768 72.256,217.032 72.256,217.572 C72.256,218.064 72.7,218.316 73.66,218.508 C74.176,218.616 74.5,218.688 74.896,218.868 C75.46,219.108 75.832,219.516 75.832,220.152 C75.832,220.752 75.604,221.232 75.16,221.58 C74.716,221.928 74.164,222.096 73.504,222.096 C72.256,222.096 71.248,221.46 70.876,220.344 L71.836,219.984 C72.112,220.74 72.688,221.184 73.504,221.184 C74.236,221.184 74.788,220.86 74.788,220.248 C74.788,219.768 74.332,219.6 73.228,219.36 C71.992,219.108 71.272,218.676 71.272,217.608 C71.272,217.08 71.476,216.66 71.872,216.336 C72.268,216.012 72.76,215.856 73.336,215.856 Z M78.64,221.184 C78.1,220.572 77.824,219.84 77.824,218.976 C77.824,218.112 78.1,217.38 78.64,216.768 C79.18,216.156 79.9,215.856 80.8,215.856 C81.7,215.856 82.42,216.156 82.96,216.768 C83.5,217.38 83.776,218.112 83.776,218.976 C83.776,219.84 83.5,220.572 82.96,221.184 C82.42,221.796 81.7,222.096 80.8,222.096 C79.9,222.096 79.18,221.796 78.64,221.184 Z M79.384,217.416 C79.036,217.848 78.856,218.364 78.856,218.976 C78.856,219.588 79.036,220.104 79.384,220.536 C79.732,220.968 80.212,221.184 80.8,221.184 C81.388,221.184 81.868,220.968 82.216,220.536 C82.564,220.104 82.744,219.588 82.744,218.976 C82.744,218.364 82.564,217.848 82.216,217.416 C81.868,216.984 81.388,216.768 80.8,216.768 C80.212,216.768 79.732,216.984 79.384,217.416 Z M90.784,217.788 L90.784,222 L89.776,222 L89.776,218.004 C89.776,217.176 89.404,216.768 88.66,216.768 C88.168,216.768 87.748,217.02 87.4,217.536 C87.052,218.04 86.884,218.712 86.884,219.564 L86.884,222 L85.876,222 L85.876,215.952 L86.884,215.952 L86.884,217.068 C87.328,216.348 88.108,215.856 88.936,215.856 C90.172,215.856 90.784,216.588 90.784,217.788 Z M94.324,220.26 C94.324,220.836 94.708,221.184 95.32,221.184 C95.8,221.184 96.244,221.028 96.64,220.728 C97.048,220.416 97.252,219.948 97.252,219.336 L97.252,219.144 L95.932,219.144 C94.912,219.144 94.324,219.576 94.324,220.26 Z M98.26,218.184 L98.26,222 L97.444,222 L97.3,221.148 C96.916,221.712 96.064,222.096 95.164,222.096 C94.096,222.096 93.292,221.448 93.292,220.26 C93.292,218.952 94.312,218.28 96.028,218.28 L97.252,218.28 L97.252,218.016 C97.252,217.14 96.676,216.768 95.86,216.768 C95.176,216.768 94.624,217.188 94.432,217.8 L93.544,217.56 C93.82,216.516 94.744,215.856 95.86,215.856 C97.348,215.856 98.26,216.588 98.26,218.184 Z M101.812,219.72 L101.812,214.512 L100.144,214.512 L100.144,213.6 L102.82,213.6 L102.82,219.72 C102.82,220.692 103.24,221.184 104.092,221.184 C104.872,221.184 105.34,220.692 105.496,219.72 L106.408,219.9 C106.204,221.34 105.352,222.096 104.092,222.096 C102.688,222.096 101.812,221.22 101.812,219.72 Z M108.172,222 L108.172,213.504 L109.18,213.504 L109.18,218.484 L111.76,215.952 L113.08,215.952 L110.26,218.724 L113.356,222 L112.036,222 L109.18,218.964 L109.18,222 L108.172,222 Z M115.84,221.184 C115.3,220.572 115.024,219.84 115.024,218.976 C115.024,218.112 115.3,217.38 115.84,216.768 C116.38,216.156 117.1,215.856 118,215.856 C118.9,215.856 119.62,216.156 120.16,216.768 C120.7,217.38 120.976,218.112 120.976,218.976 C120.976,219.84 120.7,220.572 120.16,221.184 C119.62,221.796 118.9,222.096 118,222.096 C117.1,222.096 116.38,221.796 115.84,221.184 Z M116.584,217.416 C116.236,217.848 116.056,218.364 116.056,218.976 C116.056,219.588 116.236,220.104 116.584,220.536 C116.932,220.968 117.412,221.184 118,221.184 C118.588,221.184 119.068,220.968 119.416,220.536 C119.764,220.104 119.944,219.588 119.944,218.976 C119.944,218.364 119.764,217.848 119.416,217.416 C119.068,216.984 118.588,216.768 118,216.768 C117.412,216.768 116.932,216.984 116.584,217.416 Z M125.416,215.856 C126.412,215.856 127.144,216.288 127.624,217.164 L126.832,217.728 C126.484,217.092 125.992,216.768 125.38,216.768 C124.804,216.768 124.336,217.032 124.336,217.572 C124.336,218.064 124.78,218.316 125.74,218.508 C126.256,218.616 126.58,218.688 126.976,218.868 C127.54,219.108 127.912,219.516 127.912,220.152 C127.912,220.752 127.684,221.232 127.24,221.58 C126.796,221.928 126.244,222.096 125.584,222.096 C124.336,222.096 123.328,221.46 122.956,220.344 L123.916,219.984 C124.192,220.74 124.768,221.184 125.584,221.184 C126.316,221.184 126.868,220.86 126.868,220.248 C126.868,219.768 126.412,219.6 125.308,219.36 C124.072,219.108 123.352,218.676 123.352,217.608 C123.352,217.08 123.556,216.66 123.952,216.336 C124.348,216.012 124.84,215.856 125.416,215.856 Z M131.56,216.864 L129.952,216.864 L129.952,215.952 L131.56,215.952 L131.56,214.14 L132.568,213.504 L132.568,215.952 L135.52,215.952 L135.52,216.864 L132.568,216.864 L132.568,219.96 C132.568,220.776 132.916,221.184 133.612,221.184 C134.152,221.184 134.644,220.944 135.1,220.464 L135.472,221.316 C134.956,221.832 134.332,222.096 133.612,222.096 C132.28,222.096 131.56,221.388 131.56,219.996 L131.56,216.864 Z M143.272,218.772 L143.272,219.192 L138.544,219.192 C138.604,220.392 139.336,221.184 140.404,221.184 C141.268,221.184 141.916,220.788 142.348,219.984 L143.152,220.404 C142.564,221.532 141.652,222.096 140.404,222.096 C139.54,222.096 138.844,221.796 138.304,221.208 C137.776,220.62 137.512,219.876 137.512,218.976 C137.512,218.1 137.776,217.356 138.292,216.756 C138.82,216.156 139.528,215.856 140.404,215.856 C141.304,215.856 142.012,216.132 142.516,216.696 C143.02,217.248 143.272,217.944 143.272,218.772 Z M140.404,216.768 C139.456,216.768 138.82,217.332 138.616,218.28 L142.204,218.28 C142.024,217.32 141.376,216.768 140.404,216.768 Z M150.304,217.788 L150.304,222 L149.296,222 L149.296,218.004 C149.296,217.176 148.924,216.768 148.18,216.768 C147.688,216.768 147.268,217.02 146.92,217.536 C146.572,218.04 146.404,218.712 146.404,219.564 L146.404,222 L145.396,222 L145.396,215.952 L146.404,215.952 L146.404,217.068 C146.848,216.348 147.628,215.856 148.456,215.856 C149.692,215.856 150.304,216.588 150.304,217.788 Z M165.532,222 L160.348,222 L160.348,221.532 L163.66,217.428 C164.188,216.768 164.344,216.372 164.344,215.832 C164.344,215.436 164.236,215.124 164.032,214.872 C163.804,214.596 163.468,214.464 163.024,214.464 C162.244,214.464 161.68,215.076 161.548,215.988 L160.528,215.796 C160.588,215.136 160.864,214.596 161.344,214.164 C161.824,213.72 162.388,213.504 163.024,213.504 C163.804,213.504 164.416,213.744 164.848,214.236 C165.196,214.632 165.376,215.172 165.376,215.832 C165.376,216.48 165.148,217.092 164.704,217.656 L161.992,221.04 L165.532,221.04 L165.532,222 Z M172.336,220.944 C171.796,221.712 171.052,222.096 170.08,222.096 C169.108,222.096 168.352,221.712 167.812,220.944 C167.272,220.164 167.008,219.12 167.008,217.8 C167.008,216.48 167.272,215.436 167.812,214.668 C168.352,213.888 169.108,213.504 170.08,213.504 C171.052,213.504 171.796,213.888 172.336,214.668 C172.876,215.436 173.152,216.48 173.152,217.8 C173.152,219.12 172.876,220.164 172.336,220.944 Z M168.064,217.8 C168.064,218.724 168.208,219.492 168.508,220.08 L171.004,214.74 C170.728,214.56 170.428,214.464 170.08,214.464 C168.796,214.464 168.064,215.736 168.064,217.8 Z M170.08,221.136 C171.364,221.136 172.096,219.864 172.096,217.8 C172.096,216.852 171.952,216.096 171.652,215.52 L169.156,220.86 C169.432,221.04 169.732,221.136 170.08,221.136 Z M175.264,215.256 L177.988,213.6 L178.372,213.6 L178.372,221.088 L180.532,221.088 L180.532,222 L175.204,222 L175.204,221.088 L177.364,221.088 L177.364,215.112 L175.264,216.36 L175.264,215.256 Z M187.276,215.748 C187.276,216.456 186.88,217.176 186.316,217.476 C187.084,217.824 187.564,218.58 187.564,219.588 C187.564,220.356 187.312,220.968 186.808,221.424 C186.304,221.868 185.692,222.096 184.96,222.096 C184.228,222.096 183.616,221.868 183.112,221.424 C182.608,220.968 182.356,220.356 182.356,219.588 C182.356,218.58 182.836,217.824 183.604,217.476 C183.04,217.176 182.644,216.456 182.644,215.748 C182.644,215.112 182.86,214.584 183.292,214.152 C183.736,213.72 184.288,213.504 184.96,213.504 C185.632,213.504 186.184,213.72 186.616,214.152 C187.06,214.584 187.276,215.112 187.276,215.748 Z M186.076,218.46 C185.788,218.184 185.416,218.04 184.96,218.04 C184.504,218.04 184.132,218.184 183.844,218.46 C183.556,218.736 183.412,219.12 183.412,219.588 C183.412,220.056 183.556,220.44 183.844,220.716 C184.132,220.992 184.504,221.136 184.96,221.136 C185.416,221.136 185.788,220.992 186.076,220.716 C186.364,220.44 186.508,220.056 186.508,219.588 C186.508,219.12 186.364,218.736 186.076,218.46 Z M185.896,214.788 C185.668,214.536 185.356,214.416 184.96,214.416 C184.564,214.416 184.252,214.536 184.024,214.788 C183.796,215.04 183.676,215.352 183.676,215.748 C183.676,216.144 183.796,216.456 184.024,216.708 C184.252,216.96 184.564,217.08 184.96,217.08 C185.356,217.08 185.668,216.96 185.896,216.708 C186.124,216.456 186.244,216.144 186.244,215.748 C186.244,215.352 186.124,215.04 185.896,214.788 Z" id="Personalkosten-2018" fill="#444F5A"></path>
                </g>
            </g>
        </g>
    </g>
</svg>