<?xml version="1.0" encoding="UTF-8"?>
<svg width="490px" height="266px" viewBox="0 0 490 266" version="1.1" xmlns="http://www.w3.org/2000/svg" xmlns:xlink="http://www.w3.org/1999/xlink">
    <!-- Generator: Sketch 50.2 (55047) - http://www.bohemiancoding.com/sketch -->
    <title>Group 3</title>
    <desc>Created with Sketch.</desc>
    <defs></defs>
    <g id="Ressourcen" stroke="none" stroke-width="1" fill="none" fill-rule="evenodd">
        <g id="FDS" transform="translate(-623.000000, -584.000000)">
            <g id="Group-3" transform="translate(623.000000, 584.000000)">
                <g id="Group-2">
                    <rect id="Rectangle-3" fill="#F1F1F1" x="0" y="0" width="239" height="127"></rect>
                    <path d="M47.53,58.876 L50.414,58.344 C50.75,60.668 52.066,61.536 53.634,61.536 C55.762,61.536 56.91,59.94 56.91,57.616 C56.91,55.32 55.846,53.696 53.634,53.696 C52.15,53.696 50.806,54.48 49.882,55.712 L47.95,55.32 L49.042,44.4 L58.786,44.4 L58.786,47.088 L51.534,47.088 L50.946,51.988 C51.618,51.428 52.738,51.008 53.802,51.008 C57.75,51.008 59.878,53.836 59.878,57.616 C59.878,61.424 57.498,64.224 53.634,64.224 C50.386,64.224 47.922,62.292 47.53,58.876 Z M69.818,56.944 C66.206,56.944 63.714,54.256 63.714,50.56 C63.714,46.976 66.346,44.176 69.986,44.176 C73.626,44.176 76.258,46.976 76.258,50.56 C76.258,51.876 75.894,53.08 75.306,54.116 L69.482,64.224 L66.178,64.224 L70.462,56.832 C70.294,56.916 70.014,56.944 69.818,56.944 Z M69.986,54.256 C71.946,54.256 73.29,52.856 73.29,50.56 C73.29,48.404 71.918,46.864 69.986,46.864 C68.026,46.864 66.682,48.404 66.682,50.56 C66.682,52.856 68.026,54.256 69.986,54.256 Z M82.306,59.996 C83.454,59.996 84.378,60.892 84.378,62.068 C84.378,63.244 83.454,64.14 82.306,64.14 C81.158,64.14 80.234,63.244 80.234,62.068 C80.234,60.892 81.158,59.996 82.306,59.996 Z M99.806,44.4 L99.806,45.744 L92.302,64 L89.334,64 L96.306,47.088 L88.214,47.088 L88.214,44.4 L99.806,44.4 Z M102.186,58.596 L105.07,58.232 C105.406,60.304 106.554,61.536 108.598,61.536 C110.614,61.536 112.098,60.22 112.098,57.756 C112.098,55.208 110.586,53.92 108.598,53.92 C108.01,53.92 107.506,54.032 106.89,54.312 L105.714,52.744 L109.774,47.088 L103.138,47.088 L103.138,44.4 L114.058,44.4 L114.058,45.408 L109.298,51.904 C109.522,51.848 109.858,51.82 110.11,51.82 C113.134,51.82 115.066,54.34 115.066,57.756 C115.066,61.508 112.21,64.224 108.598,64.224 C105.238,64.224 102.41,61.872 102.186,58.596 Z M125.258,51.456 C128.87,51.456 131.362,54.144 131.362,57.84 C131.362,61.424 128.73,64.224 125.09,64.224 C121.45,64.224 118.818,61.424 118.818,57.84 C118.818,56.524 119.182,55.32 119.77,54.284 L125.594,44.176 L128.898,44.176 L124.614,51.568 C124.782,51.484 125.062,51.456 125.258,51.456 Z M125.09,54.144 C123.13,54.144 121.786,55.544 121.786,57.84 C121.786,59.996 123.158,61.536 125.09,61.536 C127.05,61.536 128.394,59.996 128.394,57.84 C128.394,55.544 127.05,54.144 125.09,54.144 Z M134.694,67.696 L136.682,60.416 L140.686,60.416 L136.878,67.696 L134.694,67.696 Z M144.466,64 L144.466,62.768 L151.69,53.5 C152.95,51.904 153.258,51.036 153.258,49.86 C153.258,48.068 152.362,46.864 150.57,46.864 C148.862,46.864 147.882,48.096 147.658,49.86 L144.858,49.328 C145.054,46.416 147.406,44.176 150.57,44.176 C153.874,44.176 156.254,46.248 156.254,49.748 C156.254,51.26 155.75,52.8 154.63,54.228 L149.058,61.312 L156.618,61.312 L156.618,64 L144.466,64 Z M167.146,51.456 C170.758,51.456 173.25,54.144 173.25,57.84 C173.25,61.424 170.618,64.224 166.978,64.224 C163.338,64.224 160.706,61.424 160.706,57.84 C160.706,56.524 161.07,55.32 161.658,54.284 L167.482,44.176 L170.786,44.176 L166.502,51.568 C166.67,51.484 166.95,51.456 167.146,51.456 Z M166.978,54.144 C165.018,54.144 163.674,55.544 163.674,57.84 C163.674,59.996 165.046,61.536 166.978,61.536 C168.938,61.536 170.282,59.996 170.282,57.84 C170.282,55.544 168.938,54.144 166.978,54.144 Z M175.658,53.36 L176.946,50.784 L178.402,50.784 C179.214,46.36 182.07,44.176 185.766,44.176 C188.426,44.176 190.414,45.38 191.478,47.368 L189.014,48.768 C188.258,47.536 187.362,46.808 185.766,46.808 C183.526,46.808 181.958,48.012 181.398,50.784 L187.362,50.784 L186.074,53.36 L181.146,53.36 L181.146,55.04 L187.362,55.04 L186.074,57.616 L181.398,57.616 C181.958,60.416 183.526,61.592 185.766,61.592 C187.362,61.592 188.258,60.864 189.014,59.632 L191.478,61.032 C190.414,63.02 188.426,64.224 185.766,64.224 C182.07,64.224 179.214,62.04 178.402,57.616 L175.658,57.616 L176.946,55.04 L178.178,55.04 L178.178,53.36 L175.658,53.36 Z" id="59.736,26€" fill="#444F5A"></path>
                    <path d="M71.788,80.4 L69.664,80.4 L69.664,84 L68.608,84 L68.608,75.6 L71.788,75.6 C73.384,75.6 74.284,76.512 74.284,78 C74.284,79.488 73.384,80.4 71.788,80.4 Z M69.664,79.392 L71.764,79.392 C72.712,79.392 73.192,78.924 73.192,78 C73.192,77.076 72.712,76.608 71.764,76.608 L69.664,76.608 L69.664,79.392 Z M81.532,80.772 L81.532,81.192 L76.804,81.192 C76.864,82.392 77.596,83.184 78.664,83.184 C79.528,83.184 80.176,82.788 80.608,81.984 L81.412,82.404 C80.824,83.532 79.912,84.096 78.664,84.096 C77.8,84.096 77.104,83.796 76.564,83.208 C76.036,82.62 75.772,81.876 75.772,80.976 C75.772,80.1 76.036,79.356 76.552,78.756 C77.08,78.156 77.788,77.856 78.664,77.856 C79.564,77.856 80.272,78.132 80.776,78.696 C81.28,79.248 81.532,79.944 81.532,80.772 Z M78.664,78.768 C77.716,78.768 77.08,79.332 76.876,80.28 L80.464,80.28 C80.284,79.32 79.636,78.768 78.664,78.768 Z M89.008,79.872 L88,79.872 C87.916,79.14 87.52,78.768 86.836,78.768 C86.272,78.768 85.78,79.032 85.384,79.572 C84.988,80.1 84.784,80.844 84.784,81.816 L84.784,84 L83.776,84 L83.776,77.952 L84.784,77.952 L84.784,79.068 C85.3,78.264 86.044,77.856 87.016,77.856 C88.216,77.856 88.948,78.576 89.008,79.872 Z M93.436,77.856 C94.432,77.856 95.164,78.288 95.644,79.164 L94.852,79.728 C94.504,79.092 94.012,78.768 93.4,78.768 C92.824,78.768 92.356,79.032 92.356,79.572 C92.356,80.064 92.8,80.316 93.76,80.508 C94.276,80.616 94.6,80.688 94.996,80.868 C95.56,81.108 95.932,81.516 95.932,82.152 C95.932,82.752 95.704,83.232 95.26,83.58 C94.816,83.928 94.264,84.096 93.604,84.096 C92.356,84.096 91.348,83.46 90.976,82.344 L91.936,81.984 C92.212,82.74 92.788,83.184 93.604,83.184 C94.336,83.184 94.888,82.86 94.888,82.248 C94.888,81.768 94.432,81.6 93.328,81.36 C92.092,81.108 91.372,80.676 91.372,79.608 C91.372,79.08 91.576,78.66 91.972,78.336 C92.368,78.012 92.86,77.856 93.436,77.856 Z M98.74,83.184 C98.2,82.572 97.924,81.84 97.924,80.976 C97.924,80.112 98.2,79.38 98.74,78.768 C99.28,78.156 100,77.856 100.9,77.856 C101.8,77.856 102.52,78.156 103.06,78.768 C103.6,79.38 103.876,80.112 103.876,80.976 C103.876,81.84 103.6,82.572 103.06,83.184 C102.52,83.796 101.8,84.096 100.9,84.096 C100,84.096 99.28,83.796 98.74,83.184 Z M99.484,79.416 C99.136,79.848 98.956,80.364 98.956,80.976 C98.956,81.588 99.136,82.104 99.484,82.536 C99.832,82.968 100.312,83.184 100.9,83.184 C101.488,83.184 101.968,82.968 102.316,82.536 C102.664,82.104 102.844,81.588 102.844,80.976 C102.844,80.364 102.664,79.848 102.316,79.416 C101.968,78.984 101.488,78.768 100.9,78.768 C100.312,78.768 99.832,78.984 99.484,79.416 Z M110.884,79.788 L110.884,84 L109.876,84 L109.876,80.004 C109.876,79.176 109.504,78.768 108.76,78.768 C108.268,78.768 107.848,79.02 107.5,79.536 C107.152,80.04 106.984,80.712 106.984,81.564 L106.984,84 L105.976,84 L105.976,77.952 L106.984,77.952 L106.984,79.068 C107.428,78.348 108.208,77.856 109.036,77.856 C110.272,77.856 110.884,78.588 110.884,79.788 Z M114.424,82.26 C114.424,82.836 114.808,83.184 115.42,83.184 C115.9,83.184 116.344,83.028 116.74,82.728 C117.148,82.416 117.352,81.948 117.352,81.336 L117.352,81.144 L116.032,81.144 C115.012,81.144 114.424,81.576 114.424,82.26 Z M118.36,80.184 L118.36,84 L117.544,84 L117.4,83.148 C117.016,83.712 116.164,84.096 115.264,84.096 C114.196,84.096 113.392,83.448 113.392,82.26 C113.392,80.952 114.412,80.28 116.128,80.28 L117.352,80.28 L117.352,80.016 C117.352,79.14 116.776,78.768 115.96,78.768 C115.276,78.768 114.724,79.188 114.532,79.8 L113.644,79.56 C113.92,78.516 114.844,77.856 115.96,77.856 C117.448,77.856 118.36,78.588 118.36,80.184 Z M121.912,81.72 L121.912,76.512 L120.244,76.512 L120.244,75.6 L122.92,75.6 L122.92,81.72 C122.92,82.692 123.34,83.184 124.192,83.184 C124.972,83.184 125.44,82.692 125.596,81.72 L126.508,81.9 C126.304,83.34 125.452,84.096 124.192,84.096 C122.788,84.096 121.912,83.22 121.912,81.72 Z M128.272,84 L128.272,75.504 L129.28,75.504 L129.28,80.484 L131.86,77.952 L133.18,77.952 L130.36,80.724 L133.456,84 L132.136,84 L129.28,80.964 L129.28,84 L128.272,84 Z M135.94,83.184 C135.4,82.572 135.124,81.84 135.124,80.976 C135.124,80.112 135.4,79.38 135.94,78.768 C136.48,78.156 137.2,77.856 138.1,77.856 C139,77.856 139.72,78.156 140.26,78.768 C140.8,79.38 141.076,80.112 141.076,80.976 C141.076,81.84 140.8,82.572 140.26,83.184 C139.72,83.796 139,84.096 138.1,84.096 C137.2,84.096 136.48,83.796 135.94,83.184 Z M136.684,79.416 C136.336,79.848 136.156,80.364 136.156,80.976 C136.156,81.588 136.336,82.104 136.684,82.536 C137.032,82.968 137.512,83.184 138.1,83.184 C138.688,83.184 139.168,82.968 139.516,82.536 C139.864,82.104 140.044,81.588 140.044,80.976 C140.044,80.364 139.864,79.848 139.516,79.416 C139.168,78.984 138.688,78.768 138.1,78.768 C137.512,78.768 137.032,78.984 136.684,79.416 Z M145.516,77.856 C146.512,77.856 147.244,78.288 147.724,79.164 L146.932,79.728 C146.584,79.092 146.092,78.768 145.48,78.768 C144.904,78.768 144.436,79.032 144.436,79.572 C144.436,80.064 144.88,80.316 145.84,80.508 C146.356,80.616 146.68,80.688 147.076,80.868 C147.64,81.108 148.012,81.516 148.012,82.152 C148.012,82.752 147.784,83.232 147.34,83.58 C146.896,83.928 146.344,84.096 145.684,84.096 C144.436,84.096 143.428,83.46 143.056,82.344 L144.016,81.984 C144.292,82.74 144.868,83.184 145.684,83.184 C146.416,83.184 146.968,82.86 146.968,82.248 C146.968,81.768 146.512,81.6 145.408,81.36 C144.172,81.108 143.452,80.676 143.452,79.608 C143.452,79.08 143.656,78.66 144.052,78.336 C144.448,78.012 144.94,77.856 145.516,77.856 Z M151.66,78.864 L150.052,78.864 L150.052,77.952 L151.66,77.952 L151.66,76.14 L152.668,75.504 L152.668,77.952 L155.62,77.952 L155.62,78.864 L152.668,78.864 L152.668,81.96 C152.668,82.776 153.016,83.184 153.712,83.184 C154.252,83.184 154.744,82.944 155.2,82.464 L155.572,83.316 C155.056,83.832 154.432,84.096 153.712,84.096 C152.38,84.096 151.66,83.388 151.66,81.996 L151.66,78.864 Z M163.372,80.772 L163.372,81.192 L158.644,81.192 C158.704,82.392 159.436,83.184 160.504,83.184 C161.368,83.184 162.016,82.788 162.448,81.984 L163.252,82.404 C162.664,83.532 161.752,84.096 160.504,84.096 C159.64,84.096 158.944,83.796 158.404,83.208 C157.876,82.62 157.612,81.876 157.612,80.976 C157.612,80.1 157.876,79.356 158.392,78.756 C158.92,78.156 159.628,77.856 160.504,77.856 C161.404,77.856 162.112,78.132 162.616,78.696 C163.12,79.248 163.372,79.944 163.372,80.772 Z M160.504,78.768 C159.556,78.768 158.92,79.332 158.716,80.28 L162.304,80.28 C162.124,79.32 161.476,78.768 160.504,78.768 Z M170.404,79.788 L170.404,84 L169.396,84 L169.396,80.004 C169.396,79.176 169.024,78.768 168.28,78.768 C167.788,78.768 167.368,79.02 167.02,79.536 C166.672,80.04 166.504,80.712 166.504,81.564 L166.504,84 L165.496,84 L165.496,77.952 L166.504,77.952 L166.504,79.068 C166.948,78.348 167.728,77.856 168.556,77.856 C169.792,77.856 170.404,78.588 170.404,79.788 Z" id="Personalkosten" fill="#444F5A"></path>
                    <rect id="Rectangle-3" fill="#F1F1F1" x="251" y="0" width="239" height="127"></rect>
                    <path d="M296.72,64 L296.72,62.768 L303.944,53.5 C305.204,51.904 305.512,51.036 305.512,49.86 C305.512,48.068 304.616,46.864 302.824,46.864 C301.116,46.864 300.136,48.096 299.912,49.86 L297.112,49.328 C297.308,46.416 299.66,44.176 302.824,44.176 C306.128,44.176 308.508,46.248 308.508,49.748 C308.508,51.26 308.004,52.8 306.884,54.228 L301.312,61.312 L308.872,61.312 L308.872,64 L296.72,64 Z M319.204,44.176 C322.48,44.176 324.748,46.556 324.748,49.468 C324.748,51.092 323.964,52.492 322.788,53.444 C324.384,54.368 325.476,55.992 325.476,58.232 C325.476,62.012 322.564,64.224 319.204,64.224 C315.844,64.224 312.932,62.012 312.932,58.232 C312.932,55.992 314.024,54.368 315.62,53.444 C314.416,52.492 313.66,51.092 313.66,49.468 C313.66,46.556 315.928,44.176 319.204,44.176 Z M319.204,55.04 C317.384,55.04 315.9,56.16 315.9,58.232 C315.9,60.304 317.384,61.536 319.204,61.536 C321.024,61.536 322.508,60.304 322.508,58.232 C322.508,56.16 321.024,55.04 319.204,55.04 Z M319.204,46.752 C317.664,46.752 316.544,47.928 316.544,49.496 C316.544,51.092 317.664,52.268 319.204,52.268 C320.744,52.268 321.864,51.092 321.864,49.496 C321.864,47.928 320.744,46.752 319.204,46.752 Z M331.944,59.996 C333.092,59.996 334.016,60.892 334.016,62.068 C334.016,63.244 333.092,64.14 331.944,64.14 C330.796,64.14 329.872,63.244 329.872,62.068 C329.872,60.892 330.796,59.996 331.944,59.996 Z M344.684,44.176 C347.96,44.176 350.228,46.556 350.228,49.468 C350.228,51.092 349.444,52.492 348.268,53.444 C349.864,54.368 350.956,55.992 350.956,58.232 C350.956,62.012 348.044,64.224 344.684,64.224 C341.324,64.224 338.412,62.012 338.412,58.232 C338.412,55.992 339.504,54.368 341.1,53.444 C339.896,52.492 339.14,51.092 339.14,49.468 C339.14,46.556 341.408,44.176 344.684,44.176 Z M344.684,55.04 C342.864,55.04 341.38,56.16 341.38,58.232 C341.38,60.304 342.864,61.536 344.684,61.536 C346.504,61.536 347.988,60.304 347.988,58.232 C347.988,56.16 346.504,55.04 344.684,55.04 Z M344.684,46.752 C343.144,46.752 342.024,47.928 342.024,49.496 C342.024,51.092 343.144,52.268 344.684,52.268 C346.224,52.268 347.344,51.092 347.344,49.496 C347.344,47.928 346.224,46.752 344.684,46.752 Z M361.148,56.944 C357.536,56.944 355.044,54.256 355.044,50.56 C355.044,46.976 357.676,44.176 361.316,44.176 C364.956,44.176 367.588,46.976 367.588,50.56 C367.588,51.876 367.224,53.08 366.636,54.116 L360.812,64.224 L357.508,64.224 L361.792,56.832 C361.624,56.916 361.344,56.944 361.148,56.944 Z M361.316,54.256 C363.276,54.256 364.62,52.856 364.62,50.56 C364.62,48.404 363.248,46.864 361.316,46.864 C359.356,46.864 358.012,48.404 358.012,50.56 C358.012,52.856 359.356,54.256 361.316,54.256 Z M377.668,51.456 C381.28,51.456 383.772,54.144 383.772,57.84 C383.772,61.424 381.14,64.224 377.5,64.224 C373.86,64.224 371.228,61.424 371.228,57.84 C371.228,56.524 371.592,55.32 372.18,54.284 L378.004,44.176 L381.308,44.176 L377.024,51.568 C377.192,51.484 377.472,51.456 377.668,51.456 Z M377.5,54.144 C375.54,54.144 374.196,55.544 374.196,57.84 C374.196,59.996 375.568,61.536 377.5,61.536 C379.46,61.536 380.804,59.996 380.804,57.84 C380.804,55.544 379.46,54.144 377.5,54.144 Z M387.104,67.696 L389.092,60.416 L393.096,60.416 L389.288,67.696 L387.104,67.696 Z M397.072,58.876 L399.956,58.344 C400.292,60.668 401.608,61.536 403.176,61.536 C405.304,61.536 406.452,59.94 406.452,57.616 C406.452,55.32 405.388,53.696 403.176,53.696 C401.692,53.696 400.348,54.48 399.424,55.712 L397.492,55.32 L398.584,44.4 L408.328,44.4 L408.328,47.088 L401.076,47.088 L400.488,51.988 C401.16,51.428 402.28,51.008 403.344,51.008 C407.292,51.008 409.42,53.836 409.42,57.616 C409.42,61.424 407.04,64.224 403.176,64.224 C399.928,64.224 397.464,62.292 397.072,58.876 Z M421.348,64 L421.348,60.08 L412.892,60.08 L412.892,58.736 L421.18,44.4 L424.316,44.4 L424.316,57.392 L426.612,57.392 L426.612,60.08 L424.316,60.08 L424.316,64 L421.348,64 Z M416.588,57.392 L421.348,57.392 L421.348,48.88 L416.588,57.392 Z M436.272,53.36 L437.56,50.784 L439.016,50.784 C439.828,46.36 442.684,44.176 446.38,44.176 C449.04,44.176 451.028,45.38 452.092,47.368 L449.628,48.768 C448.872,47.536 447.976,46.808 446.38,46.808 C444.14,46.808 442.572,48.012 442.012,50.784 L447.976,50.784 L446.688,53.36 L441.76,53.36 L441.76,55.04 L447.976,55.04 L446.688,57.616 L442.012,57.616 C442.572,60.416 444.14,61.592 446.38,61.592 C447.976,61.592 448.872,60.864 449.628,59.632 L452.092,61.032 C451.028,63.02 449.04,64.224 446.38,64.224 C442.684,64.224 439.828,62.04 439.016,57.616 L436.272,57.616 L437.56,55.04 L438.792,55.04 L438.792,53.36 L436.272,53.36 Z" id="28.896,54-€" fill="#444F5A"></path>
                    <path d="M332.79374,79.38 L336.68174,84 L335.33774,84 L331.82174,79.788 L331.82174,84 L330.76574,84 L330.76574,75.6 L331.82174,75.6 L331.82174,78.972 L335.03774,75.6 L336.41774,75.6 L332.79374,79.38 Z M339.44174,81.72 L339.44174,76.512 L337.77374,76.512 L337.77374,75.6 L340.44974,75.6 L340.44974,81.72 C340.44974,82.692 340.86974,83.184 341.72174,83.184 C342.50174,83.184 342.96974,82.692 343.12574,81.72 L344.03774,81.9 C343.83374,83.34 342.98174,84.096 341.72174,84.096 C340.31774,84.096 339.44174,83.22 339.44174,81.72 Z M346.83374,82.26 C346.83374,82.836 347.21774,83.184 347.82974,83.184 C348.30974,83.184 348.75374,83.028 349.14974,82.728 C349.55774,82.416 349.76174,81.948 349.76174,81.336 L349.76174,81.144 L348.44174,81.144 C347.42174,81.144 346.83374,81.576 346.83374,82.26 Z M350.76974,80.184 L350.76974,84 L349.95374,84 L349.80974,83.148 C349.42574,83.712 348.57374,84.096 347.67374,84.096 C346.60574,84.096 345.80174,83.448 345.80174,82.26 C345.80174,80.952 346.82174,80.28 348.53774,80.28 L349.76174,80.28 L349.76174,80.016 C349.76174,79.14 349.18574,78.768 348.36974,78.768 C347.68574,78.768 347.13374,79.188 346.94174,79.8 L346.05374,79.56 C346.32974,78.516 347.25374,77.856 348.36974,77.856 C349.85774,77.856 350.76974,78.588 350.76974,80.184 Z M353.61374,79.884 C353.61374,79.272 353.81774,78.78 354.21374,78.408 C354.62174,78.036 355.13774,77.856 355.74974,77.856 C356.18174,77.856 356.57774,77.964 356.93774,78.168 L358.19774,77.52 L358.65374,78.348 L357.63374,78.876 C357.80174,79.164 357.88574,79.5 357.88574,79.884 C357.88574,80.496 357.68174,80.988 357.28574,81.36 C356.88974,81.732 356.37374,81.912 355.74974,81.912 C355.32974,81.912 354.95774,81.828 354.63374,81.66 C354.26174,81.804 354.08174,82.008 354.08174,82.284 C354.08174,82.62 354.36974,82.788 354.93374,82.788 L356.50574,82.788 C357.80174,82.788 358.53374,83.364 358.53374,84.456 C358.53374,85.164 358.25774,85.68 357.70574,86.028 C357.15374,86.376 356.48174,86.544 355.70174,86.544 C353.93774,86.544 352.90574,85.848 352.90574,84.552 C352.90574,84.012 353.10974,83.58 353.52974,83.256 C353.24174,83.028 353.09774,82.728 353.09774,82.332 C353.09774,81.792 353.42174,81.324 353.98574,81.12 C353.73374,80.784 353.61374,80.376 353.61374,79.884 Z M356.48174,83.652 L355.05374,83.652 C354.80174,83.652 354.59774,83.64 354.42974,83.604 C354.08174,83.784 353.91374,84.084 353.91374,84.516 C353.91374,85.224 354.60974,85.656 355.70174,85.656 C356.84174,85.656 357.50174,85.236 357.50174,84.552 C357.50174,83.952 357.16574,83.652 356.48174,83.652 Z M354.92174,79.032 C354.70574,79.236 354.59774,79.524 354.59774,79.884 C354.59774,80.244 354.70574,80.532 354.92174,80.736 C355.14974,80.94 355.42574,81.048 355.74974,81.048 C356.07374,81.048 356.34974,80.952 356.56574,80.748 C356.79374,80.544 356.90174,80.256 356.90174,79.884 C356.90174,79.512 356.79374,79.236 356.56574,79.032 C356.34974,78.828 356.07374,78.72 355.74974,78.72 C355.42574,78.72 355.14974,78.828 354.92174,79.032 Z M366.02174,80.772 L366.02174,81.192 L361.29374,81.192 C361.35374,82.392 362.08574,83.184 363.15374,83.184 C364.01774,83.184 364.66574,82.788 365.09774,81.984 L365.90174,82.404 C365.31374,83.532 364.40174,84.096 363.15374,84.096 C362.28974,84.096 361.59374,83.796 361.05374,83.208 C360.52574,82.62 360.26174,81.876 360.26174,80.976 C360.26174,80.1 360.52574,79.356 361.04174,78.756 C361.56974,78.156 362.27774,77.856 363.15374,77.856 C364.05374,77.856 364.76174,78.132 365.26574,78.696 C365.76974,79.248 366.02174,79.944 366.02174,80.772 Z M363.15374,78.768 C362.20574,78.768 361.56974,79.332 361.36574,80.28 L364.95374,80.28 C364.77374,79.32 364.12574,78.768 363.15374,78.768 Z M368.12174,84 L368.12174,75.504 L369.12974,75.504 L369.12974,80.484 L371.70974,77.952 L373.02974,77.952 L370.20974,80.724 L373.30574,84 L371.98574,84 L369.12974,80.964 L369.12974,84 L368.12174,84 Z M375.78974,83.184 C375.24974,82.572 374.97374,81.84 374.97374,80.976 C374.97374,80.112 375.24974,79.38 375.78974,78.768 C376.32974,78.156 377.04974,77.856 377.94974,77.856 C378.84974,77.856 379.56974,78.156 380.10974,78.768 C380.64974,79.38 380.92574,80.112 380.92574,80.976 C380.92574,81.84 380.64974,82.572 380.10974,83.184 C379.56974,83.796 378.84974,84.096 377.94974,84.096 C377.04974,84.096 376.32974,83.796 375.78974,83.184 Z M376.53374,79.416 C376.18574,79.848 376.00574,80.364 376.00574,80.976 C376.00574,81.588 376.18574,82.104 376.53374,82.536 C376.88174,82.968 377.36174,83.184 377.94974,83.184 C378.53774,83.184 379.01774,82.968 379.36574,82.536 C379.71374,82.104 379.89374,81.588 379.89374,80.976 C379.89374,80.364 379.71374,79.848 379.36574,79.416 C379.01774,78.984 378.53774,78.768 377.94974,78.768 C377.36174,78.768 376.88174,78.984 376.53374,79.416 Z M385.36574,77.856 C386.36174,77.856 387.09374,78.288 387.57374,79.164 L386.78174,79.728 C386.43374,79.092 385.94174,78.768 385.32974,78.768 C384.75374,78.768 384.28574,79.032 384.28574,79.572 C384.28574,80.064 384.72974,80.316 385.68974,80.508 C386.20574,80.616 386.52974,80.688 386.92574,80.868 C387.48974,81.108 387.86174,81.516 387.86174,82.152 C387.86174,82.752 387.63374,83.232 387.18974,83.58 C386.74574,83.928 386.19374,84.096 385.53374,84.096 C384.28574,84.096 383.27774,83.46 382.90574,82.344 L383.86574,81.984 C384.14174,82.74 384.71774,83.184 385.53374,83.184 C386.26574,83.184 386.81774,82.86 386.81774,82.248 C386.81774,81.768 386.36174,81.6 385.25774,81.36 C384.02174,81.108 383.30174,80.676 383.30174,79.608 C383.30174,79.08 383.50574,78.66 383.90174,78.336 C384.29774,78.012 384.78974,77.856 385.36574,77.856 Z M391.50974,78.864 L389.90174,78.864 L389.90174,77.952 L391.50974,77.952 L391.50974,76.14 L392.51774,75.504 L392.51774,77.952 L395.46974,77.952 L395.46974,78.864 L392.51774,78.864 L392.51774,81.96 C392.51774,82.776 392.86574,83.184 393.56174,83.184 C394.10174,83.184 394.59374,82.944 395.04974,82.464 L395.42174,83.316 C394.90574,83.832 394.28174,84.096 393.56174,84.096 C392.22974,84.096 391.50974,83.388 391.50974,81.996 L391.50974,78.864 Z M403.22174,80.772 L403.22174,81.192 L398.49374,81.192 C398.55374,82.392 399.28574,83.184 400.35374,83.184 C401.21774,83.184 401.86574,82.788 402.29774,81.984 L403.10174,82.404 C402.51374,83.532 401.60174,84.096 400.35374,84.096 C399.48974,84.096 398.79374,83.796 398.25374,83.208 C397.72574,82.62 397.46174,81.876 397.46174,80.976 C397.46174,80.1 397.72574,79.356 398.24174,78.756 C398.76974,78.156 399.47774,77.856 400.35374,77.856 C401.25374,77.856 401.96174,78.132 402.46574,78.696 C402.96974,79.248 403.22174,79.944 403.22174,80.772 Z M400.35374,78.768 C399.40574,78.768 398.76974,79.332 398.56574,80.28 L402.15374,80.28 C401.97374,79.32 401.32574,78.768 400.35374,78.768 Z M410.25374,79.788 L410.25374,84 L409.24574,84 L409.24574,80.004 C409.24574,79.176 408.87374,78.768 408.12974,78.768 C407.63774,78.768 407.21774,79.02 406.86974,79.536 C406.52174,80.04 406.35374,80.712 406.35374,81.564 L406.35374,84 L405.34574,84 L405.34574,77.952 L406.35374,77.952 L406.35374,79.068 C406.79774,78.348 407.57774,77.856 408.40574,77.856 C409.64174,77.856 410.25374,78.588 410.25374,79.788 Z" id="Klagekosten" fill="#444F5A"></path>
                    <rect id="Rectangle-3" fill="#F1F1F1" x="0" y="139" width="239" height="127"></rect>
                    <path d="M68.2337403,223 L68.2337403,214.6 L69.3617403,214.6 L71.1497403,219.256 L72.9377403,214.6 L74.0657403,214.6 L74.0657403,223 L73.0097403,223 L73.0097403,216.844 L71.5457403,220.588 L70.7537403,220.588 L69.2897403,216.844 L69.2897403,223 L68.2337403,223 Z M77.2337403,221.26 C77.2337403,221.836 77.6177403,222.184 78.2297403,222.184 C78.7097403,222.184 79.1537403,222.028 79.5497403,221.728 C79.9577403,221.416 80.1617403,220.948 80.1617403,220.336 L80.1617403,220.144 L78.8417403,220.144 C77.8217403,220.144 77.2337403,220.576 77.2337403,221.26 Z M81.1697403,219.184 L81.1697403,223 L80.3537403,223 L80.2097403,222.148 C79.8257403,222.712 78.9737403,223.096 78.0737403,223.096 C77.0057403,223.096 76.2017403,222.448 76.2017403,221.26 C76.2017403,219.952 77.2217403,219.28 78.9377403,219.28 L80.1617403,219.28 L80.1617403,219.016 C80.1617403,218.14 79.5857403,217.768 78.7697403,217.768 C78.0857403,217.768 77.5337403,218.188 77.3417403,218.8 L76.4537403,218.56 C76.7297403,217.516 77.6537403,216.856 78.7697403,216.856 C80.2577403,216.856 81.1697403,217.588 81.1697403,219.184 Z M84.7097403,217.864 L83.1017403,217.864 L83.1017403,216.952 L84.7097403,216.952 L84.7097403,215.14 L85.7177403,214.504 L85.7177403,216.952 L88.6697403,216.952 L88.6697403,217.864 L85.7177403,217.864 L85.7177403,220.96 C85.7177403,221.776 86.0657403,222.184 86.7617403,222.184 C87.3017403,222.184 87.7937403,221.944 88.2497403,221.464 L88.6217403,222.316 C88.1057403,222.832 87.4817403,223.096 86.7617403,223.096 C85.4297403,223.096 84.7097403,222.388 84.7097403,220.996 L84.7097403,217.864 Z M96.4217403,219.772 L96.4217403,220.192 L91.6937403,220.192 C91.7537403,221.392 92.4857403,222.184 93.5537403,222.184 C94.4177403,222.184 95.0657403,221.788 95.4977403,220.984 L96.3017403,221.404 C95.7137403,222.532 94.8017403,223.096 93.5537403,223.096 C92.6897403,223.096 91.9937403,222.796 91.4537403,222.208 C90.9257403,221.62 90.6617403,220.876 90.6617403,219.976 C90.6617403,219.1 90.9257403,218.356 91.4417403,217.756 C91.9697403,217.156 92.6777403,216.856 93.5537403,216.856 C94.4537403,216.856 95.1617403,217.132 95.6657403,217.696 C96.1697403,218.248 96.4217403,218.944 96.4217403,219.772 Z M93.5537403,217.768 C92.6057403,217.768 91.9697403,218.332 91.7657403,219.28 L95.3537403,219.28 C95.1737403,218.32 94.5257403,217.768 93.5537403,217.768 Z M103.89774,218.872 L102.88974,218.872 C102.80574,218.14 102.40974,217.768 101.72574,217.768 C101.16174,217.768 100.66974,218.032 100.27374,218.572 C99.8777403,219.1 99.6737403,219.844 99.6737403,220.816 L99.6737403,223 L98.6657403,223 L98.6657403,216.952 L99.6737403,216.952 L99.6737403,218.068 C100.18974,217.264 100.93374,216.856 101.90574,216.856 C103.10574,216.856 103.83774,217.576 103.89774,218.872 Z M108.02574,217.84 L106.17774,217.84 L106.17774,216.952 L109.03374,216.952 L109.03374,222.112 L111.26574,222.112 L111.26574,223 L105.93774,223 L105.93774,222.112 L108.02574,222.112 L108.02574,217.84 Z M107.62974,215.344 C107.62974,214.876 107.98974,214.504 108.45774,214.504 C108.92574,214.504 109.28574,214.876 109.28574,215.344 C109.28574,215.812 108.92574,216.16 108.45774,216.16 C107.98974,216.16 107.62974,215.788 107.62974,215.344 Z M114.43374,221.26 C114.43374,221.836 114.81774,222.184 115.42974,222.184 C115.90974,222.184 116.35374,222.028 116.74974,221.728 C117.15774,221.416 117.36174,220.948 117.36174,220.336 L117.36174,220.144 L116.04174,220.144 C115.02174,220.144 114.43374,220.576 114.43374,221.26 Z M118.36974,219.184 L118.36974,223 L117.55374,223 L117.40974,222.148 C117.02574,222.712 116.17374,223.096 115.27374,223.096 C114.20574,223.096 113.40174,222.448 113.40174,221.26 C113.40174,219.952 114.42174,219.28 116.13774,219.28 L117.36174,219.28 L117.36174,219.016 C117.36174,218.14 116.78574,217.768 115.96974,217.768 C115.28574,217.768 114.73374,218.188 114.54174,218.8 L113.65374,218.56 C113.92974,217.516 114.85374,216.856 115.96974,216.856 C117.45774,216.856 118.36974,217.588 118.36974,219.184 Z M121.92174,220.72 L121.92174,215.512 L120.25374,215.512 L120.25374,214.6 L122.92974,214.6 L122.92974,220.72 C122.92974,221.692 123.34974,222.184 124.20174,222.184 C124.98174,222.184 125.44974,221.692 125.60574,220.72 L126.51774,220.9 C126.31374,222.34 125.46174,223.096 124.20174,223.096 C122.79774,223.096 121.92174,222.22 121.92174,220.72 Z M128.28174,223 L128.28174,214.504 L129.28974,214.504 L129.28974,219.484 L131.86974,216.952 L133.18974,216.952 L130.36974,219.724 L133.46574,223 L132.14574,223 L129.28974,219.964 L129.28974,223 L128.28174,223 Z M135.94974,222.184 C135.40974,221.572 135.13374,220.84 135.13374,219.976 C135.13374,219.112 135.40974,218.38 135.94974,217.768 C136.48974,217.156 137.20974,216.856 138.10974,216.856 C139.00974,216.856 139.72974,217.156 140.26974,217.768 C140.80974,218.38 141.08574,219.112 141.08574,219.976 C141.08574,220.84 140.80974,221.572 140.26974,222.184 C139.72974,222.796 139.00974,223.096 138.10974,223.096 C137.20974,223.096 136.48974,222.796 135.94974,222.184 Z M136.69374,218.416 C136.34574,218.848 136.16574,219.364 136.16574,219.976 C136.16574,220.588 136.34574,221.104 136.69374,221.536 C137.04174,221.968 137.52174,222.184 138.10974,222.184 C138.69774,222.184 139.17774,221.968 139.52574,221.536 C139.87374,221.104 140.05374,220.588 140.05374,219.976 C140.05374,219.364 139.87374,218.848 139.52574,218.416 C139.17774,217.984 138.69774,217.768 138.10974,217.768 C137.52174,217.768 137.04174,217.984 136.69374,218.416 Z M145.52574,216.856 C146.52174,216.856 147.25374,217.288 147.73374,218.164 L146.94174,218.728 C146.59374,218.092 146.10174,217.768 145.48974,217.768 C144.91374,217.768 144.44574,218.032 144.44574,218.572 C144.44574,219.064 144.88974,219.316 145.84974,219.508 C146.36574,219.616 146.68974,219.688 147.08574,219.868 C147.64974,220.108 148.02174,220.516 148.02174,221.152 C148.02174,221.752 147.79374,222.232 147.34974,222.58 C146.90574,222.928 146.35374,223.096 145.69374,223.096 C144.44574,223.096 143.43774,222.46 143.06574,221.344 L144.02574,220.984 C144.30174,221.74 144.87774,222.184 145.69374,222.184 C146.42574,222.184 146.97774,221.86 146.97774,221.248 C146.97774,220.768 146.52174,220.6 145.41774,220.36 C144.18174,220.108 143.46174,219.676 143.46174,218.608 C143.46174,218.08 143.66574,217.66 144.06174,217.336 C144.45774,217.012 144.94974,216.856 145.52574,216.856 Z M151.66974,217.864 L150.06174,217.864 L150.06174,216.952 L151.66974,216.952 L151.66974,215.14 L152.67774,214.504 L152.67774,216.952 L155.62974,216.952 L155.62974,217.864 L152.67774,217.864 L152.67774,220.96 C152.67774,221.776 153.02574,222.184 153.72174,222.184 C154.26174,222.184 154.75374,221.944 155.20974,221.464 L155.58174,222.316 C155.06574,222.832 154.44174,223.096 153.72174,223.096 C152.38974,223.096 151.66974,222.388 151.66974,220.996 L151.66974,217.864 Z M163.38174,219.772 L163.38174,220.192 L158.65374,220.192 C158.71374,221.392 159.44574,222.184 160.51374,222.184 C161.37774,222.184 162.02574,221.788 162.45774,220.984 L163.26174,221.404 C162.67374,222.532 161.76174,223.096 160.51374,223.096 C159.64974,223.096 158.95374,222.796 158.41374,222.208 C157.88574,221.62 157.62174,220.876 157.62174,219.976 C157.62174,219.1 157.88574,218.356 158.40174,217.756 C158.92974,217.156 159.63774,216.856 160.51374,216.856 C161.41374,216.856 162.12174,217.132 162.62574,217.696 C163.12974,218.248 163.38174,218.944 163.38174,219.772 Z M160.51374,217.768 C159.56574,217.768 158.92974,218.332 158.72574,219.28 L162.31374,219.28 C162.13374,218.32 161.48574,217.768 160.51374,217.768 Z M170.41374,218.788 L170.41374,223 L169.40574,223 L169.40574,219.004 C169.40574,218.176 169.03374,217.768 168.28974,217.768 C167.79774,217.768 167.37774,218.02 167.02974,218.536 C166.68174,219.04 166.51374,219.712 166.51374,220.564 L166.51374,223 L165.50574,223 L165.50574,216.952 L166.51374,216.952 L166.51374,218.068 C166.95774,217.348 167.73774,216.856 168.56574,216.856 C169.80174,216.856 170.41374,217.588 170.41374,218.788 Z" id="Materialkosten" fill="#444F5A"></path>
                    <rect id="Rectangle-3" fill="#F1F1F1" x="251" y="139" width="239" height="127"></rect>
                    <path d="M327.201351,186.911993 L329.777351,186.911993 L329.777351,191.839993 L334.733351,191.839993 L334.733351,194.415993 L329.777351,194.415993 L329.777351,199.371993 L327.201351,199.371993 L327.201351,194.415993 L322.273351,194.415993 L322.273351,191.839993 L327.201351,191.839993 L327.201351,186.911993 Z M345.261351,196.599993 L348.145351,196.235993 C348.481351,198.307993 349.629351,199.539993 351.673351,199.539993 C353.689351,199.539993 355.173351,198.223993 355.173351,195.759993 C355.173351,193.211993 353.661351,191.923993 351.673351,191.923993 C351.085351,191.923993 350.581351,192.035993 349.965351,192.315993 L348.789351,190.747993 L352.849351,185.091993 L346.213351,185.091993 L346.213351,182.403993 L357.133351,182.403993 L357.133351,183.411993 L352.373351,189.907993 C352.597351,189.851993 352.933351,189.823993 353.185351,189.823993 C356.209351,189.823993 358.141351,192.343993 358.141351,195.759993 C358.141351,199.511993 355.285351,202.227993 351.673351,202.227993 C348.313351,202.227993 345.485351,199.875993 345.261351,196.599993 Z M368.697351,182.179993 C373.317351,182.179993 375.753351,186.015993 375.753351,192.203993 C375.753351,198.391993 373.317351,202.227993 368.697351,202.227993 C364.077351,202.227993 361.641351,198.391993 361.641351,192.203993 C361.641351,186.015993 364.077351,182.179993 368.697351,182.179993 Z M368.697351,184.867993 C365.925351,184.867993 364.609351,187.611993 364.609351,192.203993 C364.609351,196.795993 365.925351,199.539993 368.697351,199.539993 C371.469351,199.539993 372.785351,196.795993 372.785351,192.203993 C372.785351,187.611993 371.469351,184.867993 368.697351,184.867993 Z M386.393351,182.179993 C391.013351,182.179993 393.449351,186.015993 393.449351,192.203993 C393.449351,198.391993 391.013351,202.227993 386.393351,202.227993 C381.773351,202.227993 379.337351,198.391993 379.337351,192.203993 C379.337351,186.015993 381.773351,182.179993 386.393351,182.179993 Z M386.393351,184.867993 C383.621351,184.867993 382.305351,187.611993 382.305351,192.203993 C382.305351,196.795993 383.621351,199.539993 386.393351,199.539993 C389.165351,199.539993 390.481351,196.795993 390.481351,192.203993 C390.481351,187.611993 389.165351,184.867993 386.393351,184.867993 Z M397.649351,182.179993 L400.561351,182.179993 L400.561351,190.299993 C401.569351,188.843993 403.193351,187.667993 405.321351,187.667993 C407.925351,187.667993 409.493351,189.067993 409.493351,192.063993 L409.493351,202.003993 L406.581351,202.003993 L406.581351,192.819993 C406.581351,190.663993 405.685351,190.243993 404.369351,190.243993 C402.773351,190.243993 400.561351,192.287993 400.561351,196.039993 L400.561351,202.003993 L397.649351,202.003993 L397.649351,182.179993 Z" id="+-300h" fill="#444F5A"></path>
                    <path d="M277.232,219.772 L277.232,220.192 L272.504,220.192 C272.564,221.392 273.296,222.184 274.364,222.184 C275.228,222.184 275.876,221.788 276.308,220.984 L277.112,221.404 C276.524,222.532 275.612,223.096 274.364,223.096 C273.5,223.096 272.804,222.796 272.264,222.208 C271.736,221.62 271.472,220.876 271.472,219.976 C271.472,219.1 271.736,218.356 272.252,217.756 C272.78,217.156 273.488,216.856 274.364,216.856 C275.264,216.856 275.972,217.132 276.476,217.696 C276.98,218.248 277.232,218.944 277.232,219.772 Z M274.364,217.768 C273.416,217.768 272.78,218.332 272.576,219.28 L276.164,219.28 C275.984,218.32 275.336,217.768 274.364,217.768 Z M284.348,218.824 L284.348,223 L283.34,223 L283.34,219.04 C283.34,218.188 282.968,217.768 282.224,217.768 C281.708,217.768 281.264,218.008 280.88,218.5 C280.496,218.992 280.304,219.64 280.304,220.468 L280.304,223 L279.296,223 L279.296,214.504 L280.304,214.504 L280.304,218.068 C280.784,217.36 281.6,216.856 282.5,216.856 C283.736,216.856 284.348,217.516 284.348,218.824 Z M292.148,218.872 L291.14,218.872 C291.056,218.14 290.66,217.768 289.976,217.768 C289.412,217.768 288.92,218.032 288.524,218.572 C288.128,219.1 287.924,219.844 287.924,220.816 L287.924,223 L286.916,223 L286.916,216.952 L287.924,216.952 L287.924,218.068 C288.44,217.264 289.184,216.856 290.156,216.856 C291.356,216.856 292.088,217.576 292.148,218.872 Z M299.552,219.772 L299.552,220.192 L294.824,220.192 C294.884,221.392 295.616,222.184 296.684,222.184 C297.548,222.184 298.196,221.788 298.628,220.984 L299.432,221.404 C298.844,222.532 297.932,223.096 296.684,223.096 C295.82,223.096 295.124,222.796 294.584,222.208 C294.056,221.62 293.792,220.876 293.792,219.976 C293.792,219.1 294.056,218.356 294.572,217.756 C295.1,217.156 295.808,216.856 296.684,216.856 C297.584,216.856 298.292,217.132 298.796,217.696 C299.3,218.248 299.552,218.944 299.552,219.772 Z M296.684,217.768 C295.736,217.768 295.1,218.332 294.896,219.28 L298.484,219.28 C298.304,218.32 297.656,217.768 296.684,217.768 Z M306.584,218.788 L306.584,223 L305.576,223 L305.576,219.004 C305.576,218.176 305.204,217.768 304.46,217.768 C303.968,217.768 303.548,218.02 303.2,218.536 C302.852,219.04 302.684,219.712 302.684,220.564 L302.684,223 L301.676,223 L301.676,216.952 L302.684,216.952 L302.684,218.068 C303.128,217.348 303.908,216.856 304.736,216.856 C305.972,216.856 306.584,217.588 306.584,218.788 Z M310.124,221.26 C310.124,221.836 310.508,222.184 311.12,222.184 C311.6,222.184 312.044,222.028 312.44,221.728 C312.848,221.416 313.052,220.948 313.052,220.336 L313.052,220.144 L311.732,220.144 C310.712,220.144 310.124,220.576 310.124,221.26 Z M314.06,219.184 L314.06,223 L313.244,223 L313.1,222.148 C312.716,222.712 311.864,223.096 310.964,223.096 C309.896,223.096 309.092,222.448 309.092,221.26 C309.092,219.952 310.112,219.28 311.828,219.28 L313.052,219.28 L313.052,219.016 C313.052,218.14 312.476,217.768 311.66,217.768 C310.976,217.768 310.424,218.188 310.232,218.8 L309.344,218.56 C309.62,217.516 310.544,216.856 311.66,216.856 C313.148,216.856 314.06,217.588 314.06,219.184 Z M322.256,218.488 L322.256,223 L321.248,223 L321.248,218.704 C321.248,218.044 321.056,217.78 320.588,217.78 C319.964,217.78 319.52,218.56 319.52,220.156 L319.52,223 L318.512,223 L318.512,218.704 C318.512,218.044 318.32,217.78 317.852,217.78 C317.228,217.78 316.784,218.56 316.784,220.156 L316.784,223 L315.776,223 L315.776,216.952 L316.784,216.952 L316.784,217.72 C317.144,217.144 317.612,216.856 318.2,216.856 C318.848,216.856 319.268,217.18 319.448,217.84 C319.772,217.252 320.312,216.856 320.936,216.856 C321.74,216.856 322.256,217.384 322.256,218.488 Z M325.04,217.864 L323.432,217.864 L323.432,216.952 L325.04,216.952 L325.04,215.14 L326.048,214.504 L326.048,216.952 L329,216.952 L329,217.864 L326.048,217.864 L326.048,220.96 C326.048,221.776 326.396,222.184 327.092,222.184 C327.632,222.184 328.124,221.944 328.58,221.464 L328.952,222.316 C328.436,222.832 327.812,223.096 327.092,223.096 C325.76,223.096 325.04,222.388 325.04,220.996 L325.04,217.864 Z M332.492,220.72 L332.492,215.512 L330.824,215.512 L330.824,214.6 L333.5,214.6 L333.5,220.72 C333.5,221.692 333.92,222.184 334.772,222.184 C335.552,222.184 336.02,221.692 336.176,220.72 L337.088,220.9 C336.884,222.34 336.032,223.096 334.772,223.096 C333.368,223.096 332.492,222.22 332.492,220.72 Z M340.916,217.84 L339.068,217.84 L339.068,216.952 L341.924,216.952 L341.924,222.112 L344.156,222.112 L344.156,223 L338.828,223 L338.828,222.112 L340.916,222.112 L340.916,217.84 Z M340.52,215.344 C340.52,214.876 340.88,214.504 341.348,214.504 C341.816,214.504 342.176,214.876 342.176,215.344 C342.176,215.812 341.816,216.16 341.348,216.16 C340.88,216.16 340.52,215.788 340.52,215.344 Z M350.6,221.068 L351.476,221.428 C350.984,222.544 350.132,223.096 348.92,223.096 C348.032,223.096 347.324,222.796 346.808,222.184 C346.292,221.572 346.028,220.84 346.028,219.976 C346.028,219.112 346.292,218.38 346.808,217.768 C347.324,217.156 348.032,216.856 348.92,216.856 C350.132,216.856 350.984,217.408 351.476,218.524 L350.6,218.884 C350.276,218.14 349.724,217.768 348.92,217.768 C347.756,217.768 347.06,218.68 347.06,219.976 C347.06,221.272 347.756,222.184 348.92,222.184 C349.724,222.184 350.276,221.812 350.6,221.068 Z M358.748,218.824 L358.748,223 L357.74,223 L357.74,219.04 C357.74,218.188 357.368,217.768 356.624,217.768 C356.108,217.768 355.664,218.008 355.28,218.5 C354.896,218.992 354.704,219.64 354.704,220.468 L354.704,223 L353.696,223 L353.696,214.504 L354.704,214.504 L354.704,218.068 C355.184,217.36 356,216.856 356.9,216.856 C358.136,216.856 358.748,217.516 358.748,218.824 Z M366.512,219.772 L366.512,220.192 L361.784,220.192 C361.844,221.392 362.576,222.184 363.644,222.184 C364.508,222.184 365.156,221.788 365.588,220.984 L366.392,221.404 C365.804,222.532 364.892,223.096 363.644,223.096 C362.78,223.096 362.084,222.796 361.544,222.208 C361.016,221.62 360.752,220.876 360.752,219.976 C360.752,219.1 361.016,218.356 361.532,217.756 C362.06,217.156 362.768,216.856 363.644,216.856 C364.544,216.856 365.252,217.132 365.756,217.696 C366.26,218.248 366.512,218.944 366.512,219.772 Z M363.644,217.768 C362.696,217.768 362.06,218.332 361.856,219.28 L365.444,219.28 C365.264,218.32 364.616,217.768 363.644,217.768 Z M375.464,220.084 L375.464,214.6 L376.52,214.6 L376.52,220.156 C376.52,221.308 377.228,222.088 378.44,222.088 C379.652,222.088 380.36,221.308 380.36,220.156 L380.36,214.6 L381.416,214.6 L381.416,220.084 C381.416,221.02 381.14,221.752 380.576,222.292 C380.012,222.832 379.304,223.096 378.44,223.096 C377.576,223.096 376.868,222.832 376.304,222.292 C375.74,221.752 375.464,221.02 375.464,220.084 Z M388.424,218.788 L388.424,223 L387.416,223 L387.416,219.004 C387.416,218.176 387.044,217.768 386.3,217.768 C385.808,217.768 385.388,218.02 385.04,218.536 C384.692,219.04 384.524,219.712 384.524,220.564 L384.524,223 L383.516,223 L383.516,216.952 L384.524,216.952 L384.524,218.068 C384.968,217.348 385.748,216.856 386.576,216.856 C387.812,216.856 388.424,217.588 388.424,218.788 Z M392,217.864 L390.392,217.864 L390.392,216.952 L392,216.952 L392,215.14 L393.008,214.504 L393.008,216.952 L395.96,216.952 L395.96,217.864 L393.008,217.864 L393.008,220.96 C393.008,221.776 393.356,222.184 394.052,222.184 C394.592,222.184 395.084,221.944 395.54,221.464 L395.912,222.316 C395.396,222.832 394.772,223.096 394.052,223.096 C392.72,223.096 392,222.388 392,220.996 L392,217.864 Z M403.712,219.772 L403.712,220.192 L398.984,220.192 C399.044,221.392 399.776,222.184 400.844,222.184 C401.708,222.184 402.356,221.788 402.788,220.984 L403.592,221.404 C403.004,222.532 402.092,223.096 400.844,223.096 C399.98,223.096 399.284,222.796 398.744,222.208 C398.216,221.62 397.952,220.876 397.952,219.976 C397.952,219.1 398.216,218.356 398.732,217.756 C399.26,217.156 399.968,216.856 400.844,216.856 C401.744,216.856 402.452,217.132 402.956,217.696 C403.46,218.248 403.712,218.944 403.712,219.772 Z M400.844,217.768 C399.896,217.768 399.26,218.332 399.056,219.28 L402.644,219.28 C402.464,218.32 401.816,217.768 400.844,217.768 Z M411.188,218.872 L410.18,218.872 C410.096,218.14 409.7,217.768 409.016,217.768 C408.452,217.768 407.96,218.032 407.564,218.572 C407.168,219.1 406.964,219.844 406.964,220.816 L406.964,223 L405.956,223 L405.956,216.952 L406.964,216.952 L406.964,218.068 C407.48,217.264 408.224,216.856 409.196,216.856 C410.396,216.856 411.128,217.576 411.188,218.872 Z M415.616,216.856 C416.612,216.856 417.344,217.288 417.824,218.164 L417.032,218.728 C416.684,218.092 416.192,217.768 415.58,217.768 C415.004,217.768 414.536,218.032 414.536,218.572 C414.536,219.064 414.98,219.316 415.94,219.508 C416.456,219.616 416.78,219.688 417.176,219.868 C417.74,220.108 418.112,220.516 418.112,221.152 C418.112,221.752 417.884,222.232 417.44,222.58 C416.996,222.928 416.444,223.096 415.784,223.096 C414.536,223.096 413.528,222.46 413.156,221.344 L414.116,220.984 C414.392,221.74 414.968,222.184 415.784,222.184 C416.516,222.184 417.068,221.86 417.068,221.248 C417.068,220.768 416.612,220.6 415.508,220.36 C414.272,220.108 413.552,219.676 413.552,218.608 C413.552,218.08 413.756,217.66 414.152,217.336 C414.548,217.012 415.04,216.856 415.616,216.856 Z M421.76,217.864 L420.152,217.864 L420.152,216.952 L421.76,216.952 L421.76,215.14 L422.768,214.504 L422.768,216.952 L425.72,216.952 L425.72,217.864 L422.768,217.864 L422.768,220.96 C422.768,221.776 423.116,222.184 423.812,222.184 C424.352,222.184 424.844,221.944 425.3,221.464 L425.672,222.316 C425.156,222.832 424.532,223.096 423.812,223.096 C422.48,223.096 421.76,222.388 421.76,220.996 L421.76,217.864 Z M428.036,221.164 L428.036,216.952 L429.044,216.952 L429.044,220.948 C429.044,221.776 429.416,222.184 430.16,222.184 C430.652,222.184 431.072,221.932 431.42,221.428 C431.768,220.912 431.936,220.24 431.936,219.388 L431.936,216.952 L432.944,216.952 L432.944,223 L431.936,223 L431.936,221.884 C431.492,222.604 430.712,223.096 429.884,223.096 C428.648,223.096 428.036,222.364 428.036,221.164 Z M429.416,214.504 C429.812,214.504 430.1,214.804 430.1,215.188 C430.1,215.572 429.812,215.86 429.416,215.86 C429.044,215.86 428.744,215.572 428.744,215.188 C428.744,214.804 429.044,214.504 429.416,214.504 Z M431.624,214.504 C432.02,214.504 432.308,214.804 432.308,215.188 C432.308,215.572 432.02,215.86 431.624,215.86 C431.252,215.86 430.952,215.572 430.952,215.188 C430.952,214.804 431.252,214.504 431.624,214.504 Z M436.64,217.864 L435.032,217.864 L435.032,216.952 L436.64,216.952 L436.64,215.14 L437.648,214.504 L437.648,216.952 L440.6,216.952 L440.6,217.864 L437.648,217.864 L437.648,220.96 C437.648,221.776 437.996,222.184 438.692,222.184 C439.232,222.184 439.724,221.944 440.18,221.464 L440.552,222.316 C440.036,222.832 439.412,223.096 438.692,223.096 C437.36,223.096 436.64,222.388 436.64,220.996 L436.64,217.864 Z M446.168,217.864 L443.156,217.864 L443.156,216.952 L447.692,216.952 L447.692,217.384 L444.488,222.088 L447.836,222.088 L447.836,223 L443,223 L443,222.568 L446.168,217.864 Z M450.356,221.164 L450.356,216.952 L451.364,216.952 L451.364,220.948 C451.364,221.776 451.736,222.184 452.48,222.184 C452.972,222.184 453.392,221.932 453.74,221.428 C454.088,220.912 454.256,220.24 454.256,219.388 L454.256,216.952 L455.264,216.952 L455.264,223 L454.256,223 L454.256,221.884 C453.812,222.604 453.032,223.096 452.204,223.096 C450.968,223.096 450.356,222.364 450.356,221.164 Z M462.824,218.788 L462.824,223 L461.816,223 L461.816,219.004 C461.816,218.176 461.444,217.768 460.7,217.768 C460.208,217.768 459.788,218.02 459.44,218.536 C459.092,219.04 458.924,219.712 458.924,220.564 L458.924,223 L457.916,223 L457.916,216.952 L458.924,216.952 L458.924,218.068 C459.368,217.348 460.148,216.856 460.976,216.856 C462.212,216.856 462.824,217.588 462.824,218.788 Z M465.704,218.884 C465.704,218.272 465.908,217.78 466.304,217.408 C466.712,217.036 467.228,216.856 467.84,216.856 C468.272,216.856 468.668,216.964 469.028,217.168 L470.288,216.52 L470.744,217.348 L469.724,217.876 C469.892,218.164 469.976,218.5 469.976,218.884 C469.976,219.496 469.772,219.988 469.376,220.36 C468.98,220.732 468.464,220.912 467.84,220.912 C467.42,220.912 467.048,220.828 466.724,220.66 C466.352,220.804 466.172,221.008 466.172,221.284 C466.172,221.62 466.46,221.788 467.024,221.788 L468.596,221.788 C469.892,221.788 470.624,222.364 470.624,223.456 C470.624,224.164 470.348,224.68 469.796,225.028 C469.244,225.376 468.572,225.544 467.792,225.544 C466.028,225.544 464.996,224.848 464.996,223.552 C464.996,223.012 465.2,222.58 465.62,222.256 C465.332,222.028 465.188,221.728 465.188,221.332 C465.188,220.792 465.512,220.324 466.076,220.12 C465.824,219.784 465.704,219.376 465.704,218.884 Z M468.572,222.652 L467.144,222.652 C466.892,222.652 466.688,222.64 466.52,222.604 C466.172,222.784 466.004,223.084 466.004,223.516 C466.004,224.224 466.7,224.656 467.792,224.656 C468.932,224.656 469.592,224.236 469.592,223.552 C469.592,222.952 469.256,222.652 468.572,222.652 Z M467.012,218.032 C466.796,218.236 466.688,218.524 466.688,218.884 C466.688,219.244 466.796,219.532 467.012,219.736 C467.24,219.94 467.516,220.048 467.84,220.048 C468.164,220.048 468.44,219.952 468.656,219.748 C468.884,219.544 468.992,219.256 468.992,218.884 C468.992,218.512 468.884,218.236 468.656,218.032 C468.44,217.828 468.164,217.72 467.84,217.72 C467.516,217.72 467.24,217.828 467.012,218.032 Z" id="ehrenamtliche-Unters" fill="#444F5A"></path>
                </g>
                <path d="M78.892,182.403993 L78.892,183.747993 L71.388,202.003993 L68.42,202.003993 L75.392,185.091993 L67.3,185.091993 L67.3,182.403993 L78.892,182.403993 Z M88.104,189.459993 C91.716,189.459993 94.208,192.147993 94.208,195.843993 C94.208,199.427993 91.576,202.227993 87.936,202.227993 C84.296,202.227993 81.664,199.427993 81.664,195.843993 C81.664,194.527993 82.028,193.323993 82.616,192.287993 L88.44,182.179993 L91.744,182.179993 L87.46,189.571993 C87.628,189.487993 87.908,189.459993 88.104,189.459993 Z M87.936,192.147993 C85.976,192.147993 84.632,193.547993 84.632,195.843993 C84.632,197.999993 86.004,199.539993 87.936,199.539993 C89.896,199.539993 91.24,197.999993 91.24,195.843993 C91.24,193.547993 89.896,192.147993 87.936,192.147993 Z M103.224,182.403993 L104.428,182.403993 L104.428,202.003993 L101.46,202.003993 L101.46,186.603993 L97.792,188.787993 L97.792,185.651993 L103.224,182.403993 Z M108.628,205.699993 L110.616,198.419993 L114.62,198.419993 L110.812,205.699993 L108.628,205.699993 Z M118.148,196.599993 L121.032,196.235993 C121.368,198.307993 122.516,199.539993 124.56,199.539993 C126.576,199.539993 128.06,198.223993 128.06,195.759993 C128.06,193.211993 126.548,191.923993 124.56,191.923993 C123.972,191.923993 123.468,192.035993 122.852,192.315993 L121.676,190.747993 L125.736,185.091993 L119.1,185.091993 L119.1,182.403993 L130.02,182.403993 L130.02,183.411993 L125.26,189.907993 C125.484,189.851993 125.82,189.823993 126.072,189.823993 C129.096,189.823993 131.028,192.343993 131.028,195.759993 C131.028,199.511993 128.172,202.227993 124.56,202.227993 C121.2,202.227993 118.372,199.875993 118.148,196.599993 Z M141.584,182.179993 C146.204,182.179993 148.64,186.015993 148.64,192.203993 C148.64,198.391993 146.204,202.227993 141.584,202.227993 C136.964,202.227993 134.528,198.391993 134.528,192.203993 C134.528,186.015993 136.964,182.179993 141.584,182.179993 Z M141.584,184.867993 C138.812,184.867993 137.496,187.611993 137.496,192.203993 C137.496,196.795993 138.812,199.539993 141.584,199.539993 C144.356,199.539993 145.672,196.795993 145.672,192.203993 C145.672,187.611993 144.356,184.867993 141.584,184.867993 Z M151.244,191.363993 L152.532,188.787993 L153.988,188.787993 C154.8,184.363993 157.656,182.179993 161.352,182.179993 C164.012,182.179993 166,183.383993 167.064,185.371993 L164.6,186.771993 C163.844,185.539993 162.948,184.811993 161.352,184.811993 C159.112,184.811993 157.544,186.015993 156.984,188.787993 L162.948,188.787993 L161.66,191.363993 L156.732,191.363993 L156.732,193.043993 L162.948,193.043993 L161.66,195.619993 L156.984,195.619993 C157.544,198.419993 159.112,199.595993 161.352,199.595993 C162.948,199.595993 163.844,198.867993 164.6,197.635993 L167.064,199.035993 C166,201.023993 164.012,202.227993 161.352,202.227993 C157.656,202.227993 154.8,200.043993 153.988,195.619993 L151.244,195.619993 L152.532,193.043993 L153.764,193.043993 L153.764,191.363993 L151.244,191.363993 Z" id="761,30€" fill="#444F5A"></path>
            </g>
        </g>
    </g>
</svg>