<?xml version="1.0" encoding="UTF-8"?>
<svg width="488px" height="263px" viewBox="0 0 488 263" version="1.1" xmlns="http://www.w3.org/2000/svg" xmlns:xlink="http://www.w3.org/1999/xlink">
    <!-- Generator: Sketch 50.2 (55047) - http://www.bohemiancoding.com/sketch -->
    <title>Group</title>
    <desc>Created with Sketch.</desc>
    <defs></defs>
    <g id="Ressourcen" stroke="none" stroke-width="1" fill="none" fill-rule="evenodd">
        <g id="Jugend-hackt" transform="translate(-621.000000, -349.000000)">
            <g id="Group" transform="translate(621.000000, 349.000000)">
                <rect id="Rectangle-3" fill="#F1F1F1" x="0" y="0" width="239" height="127"></rect>
                <path d="M91.5693506,44.4 L92.7733506,44.4 L92.7733506,64 L89.8053506,64 L89.8053506,48.6 L86.1373506,50.784 L86.1373506,47.648 L91.5693506,44.4 Z M104.085351,44.176 C108.705351,44.176 111.141351,48.012 111.141351,54.2 C111.141351,60.388 108.705351,64.224 104.085351,64.224 C99.4653506,64.224 97.0293506,60.388 97.0293506,54.2 C97.0293506,48.012 99.4653506,44.176 104.085351,44.176 Z M104.085351,46.864 C101.313351,46.864 99.9973506,49.608 99.9973506,54.2 C99.9973506,58.792 101.313351,61.536 104.085351,61.536 C106.857351,61.536 108.173351,58.792 108.173351,54.2 C108.173351,49.608 106.857351,46.864 104.085351,46.864 Z M121.781351,44.176 C126.401351,44.176 128.837351,48.012 128.837351,54.2 C128.837351,60.388 126.401351,64.224 121.781351,64.224 C117.161351,64.224 114.725351,60.388 114.725351,54.2 C114.725351,48.012 117.161351,44.176 121.781351,44.176 Z M121.781351,46.864 C119.009351,46.864 117.693351,49.608 117.693351,54.2 C117.693351,58.792 119.009351,61.536 121.781351,61.536 C124.553351,61.536 125.869351,58.792 125.869351,54.2 C125.869351,49.608 124.553351,46.864 121.781351,46.864 Z M132.169351,48.656 C132.169351,46.164 134.157351,44.176 136.705351,44.176 C139.253351,44.176 141.241351,46.164 141.241351,48.656 C141.241351,51.148 139.253351,53.136 136.705351,53.136 C134.157351,53.136 132.169351,51.148 132.169351,48.656 Z M134.633351,48.656 C134.633351,49.888 135.417351,50.812 136.705351,50.812 C137.993351,50.812 138.777351,49.888 138.777351,48.656 C138.777351,47.424 137.993351,46.5 136.705351,46.5 C135.417351,46.5 134.633351,47.424 134.633351,48.656 Z M143.537351,59.744 C143.537351,57.252 145.525351,55.264 148.073351,55.264 C150.621351,55.264 152.609351,57.252 152.609351,59.744 C152.609351,62.236 150.621351,64.224 148.073351,64.224 C145.525351,64.224 143.537351,62.236 143.537351,59.744 Z M146.001351,59.744 C146.001351,60.976 146.785351,61.9 148.073351,61.9 C149.361351,61.9 150.145351,60.976 150.145351,59.744 C150.145351,58.512 149.361351,57.588 148.073351,57.588 C146.785351,57.588 146.001351,58.512 146.001351,59.744 Z M149.305351,43.476 L150.929351,44.736 L135.837351,64.896 L134.213351,63.636 L149.305351,43.476 Z" id="100%" fill="#444F5A"></path>
                <path d="M75.452,84 L75.452,75.6 L80.696,75.6 L80.696,76.608 L76.508,76.608 L76.508,79.116 L80.108,79.116 L80.108,80.124 L76.508,80.124 L76.508,84 L75.452,84 Z M85.196,78.84 L83.348,78.84 L83.348,77.952 L86.204,77.952 L86.204,83.112 L88.436,83.112 L88.436,84 L83.108,84 L83.108,83.112 L85.196,83.112 L85.196,78.84 Z M84.8,76.344 C84.8,75.876 85.16,75.504 85.628,75.504 C86.096,75.504 86.456,75.876 86.456,76.344 C86.456,76.812 86.096,77.16 85.628,77.16 C85.16,77.16 84.8,76.788 84.8,76.344 Z M95.504,79.788 L95.504,84 L94.496,84 L94.496,80.004 C94.496,79.176 94.124,78.768 93.38,78.768 C92.888,78.768 92.468,79.02 92.12,79.536 C91.772,80.04 91.604,80.712 91.604,81.564 L91.604,84 L90.596,84 L90.596,77.952 L91.604,77.952 L91.604,79.068 C92.048,78.348 92.828,77.856 93.656,77.856 C94.892,77.856 95.504,78.588 95.504,79.788 Z M99.044,82.26 C99.044,82.836 99.428,83.184 100.04,83.184 C100.52,83.184 100.964,83.028 101.36,82.728 C101.768,82.416 101.972,81.948 101.972,81.336 L101.972,81.144 L100.652,81.144 C99.632,81.144 99.044,81.576 99.044,82.26 Z M102.98,80.184 L102.98,84 L102.164,84 L102.02,83.148 C101.636,83.712 100.784,84.096 99.884,84.096 C98.816,84.096 98.012,83.448 98.012,82.26 C98.012,80.952 99.032,80.28 100.748,80.28 L101.972,80.28 L101.972,80.016 C101.972,79.14 101.396,78.768 100.58,78.768 C99.896,78.768 99.344,79.188 99.152,79.8 L98.264,79.56 C98.54,78.516 99.464,77.856 100.58,77.856 C102.068,77.856 102.98,78.588 102.98,80.184 Z M110.384,79.788 L110.384,84 L109.376,84 L109.376,80.004 C109.376,79.176 109.004,78.768 108.26,78.768 C107.768,78.768 107.348,79.02 107,79.536 C106.652,80.04 106.484,80.712 106.484,81.564 L106.484,84 L105.476,84 L105.476,77.952 L106.484,77.952 L106.484,79.068 C106.928,78.348 107.708,77.856 108.536,77.856 C109.772,77.856 110.384,78.588 110.384,79.788 Z M116.048,78.864 L113.036,78.864 L113.036,77.952 L117.572,77.952 L117.572,78.384 L114.368,83.088 L117.716,83.088 L117.716,84 L112.88,84 L112.88,83.568 L116.048,78.864 Z M122.396,78.84 L120.548,78.84 L120.548,77.952 L123.404,77.952 L123.404,83.112 L125.636,83.112 L125.636,84 L120.308,84 L120.308,83.112 L122.396,83.112 L122.396,78.84 Z M122,76.344 C122,75.876 122.36,75.504 122.828,75.504 C123.296,75.504 123.656,75.876 123.656,76.344 C123.656,76.812 123.296,77.16 122.828,77.16 C122.36,77.16 122,76.788 122,76.344 Z M133.112,80.772 L133.112,81.192 L128.384,81.192 C128.444,82.392 129.176,83.184 130.244,83.184 C131.108,83.184 131.756,82.788 132.188,81.984 L132.992,82.404 C132.404,83.532 131.492,84.096 130.244,84.096 C129.38,84.096 128.684,83.796 128.144,83.208 C127.616,82.62 127.352,81.876 127.352,80.976 C127.352,80.1 127.616,79.356 128.132,78.756 C128.66,78.156 129.368,77.856 130.244,77.856 C131.144,77.856 131.852,78.132 132.356,78.696 C132.86,79.248 133.112,79.944 133.112,80.772 Z M130.244,78.768 C129.296,78.768 128.66,79.332 128.456,80.28 L132.044,80.28 C131.864,79.32 131.216,78.768 130.244,78.768 Z M140.588,79.872 L139.58,79.872 C139.496,79.14 139.1,78.768 138.416,78.768 C137.852,78.768 137.36,79.032 136.964,79.572 C136.568,80.1 136.364,80.844 136.364,81.816 L136.364,84 L135.356,84 L135.356,77.952 L136.364,77.952 L136.364,79.068 C136.88,78.264 137.624,77.856 138.596,77.856 C139.796,77.856 140.528,78.576 140.588,79.872 Z M142.556,82.164 L142.556,77.952 L143.564,77.952 L143.564,81.948 C143.564,82.776 143.936,83.184 144.68,83.184 C145.172,83.184 145.592,82.932 145.94,82.428 C146.288,81.912 146.456,81.24 146.456,80.388 L146.456,77.952 L147.464,77.952 L147.464,84 L146.456,84 L146.456,82.884 C146.012,83.604 145.232,84.096 144.404,84.096 C143.168,84.096 142.556,83.364 142.556,82.164 Z M155.024,79.788 L155.024,84 L154.016,84 L154.016,80.004 C154.016,79.176 153.644,78.768 152.9,78.768 C152.408,78.768 151.988,79.02 151.64,79.536 C151.292,80.04 151.124,80.712 151.124,81.564 L151.124,84 L150.116,84 L150.116,77.952 L151.124,77.952 L151.124,79.068 C151.568,78.348 152.348,77.856 153.176,77.856 C154.412,77.856 155.024,78.588 155.024,79.788 Z M157.904,79.884 C157.904,79.272 158.108,78.78 158.504,78.408 C158.912,78.036 159.428,77.856 160.04,77.856 C160.472,77.856 160.868,77.964 161.228,78.168 L162.488,77.52 L162.944,78.348 L161.924,78.876 C162.092,79.164 162.176,79.5 162.176,79.884 C162.176,80.496 161.972,80.988 161.576,81.36 C161.18,81.732 160.664,81.912 160.04,81.912 C159.62,81.912 159.248,81.828 158.924,81.66 C158.552,81.804 158.372,82.008 158.372,82.284 C158.372,82.62 158.66,82.788 159.224,82.788 L160.796,82.788 C162.092,82.788 162.824,83.364 162.824,84.456 C162.824,85.164 162.548,85.68 161.996,86.028 C161.444,86.376 160.772,86.544 159.992,86.544 C158.228,86.544 157.196,85.848 157.196,84.552 C157.196,84.012 157.4,83.58 157.82,83.256 C157.532,83.028 157.388,82.728 157.388,82.332 C157.388,81.792 157.712,81.324 158.276,81.12 C158.024,80.784 157.904,80.376 157.904,79.884 Z M160.772,83.652 L159.344,83.652 C159.092,83.652 158.888,83.64 158.72,83.604 C158.372,83.784 158.204,84.084 158.204,84.516 C158.204,85.224 158.9,85.656 159.992,85.656 C161.132,85.656 161.792,85.236 161.792,84.552 C161.792,83.952 161.456,83.652 160.772,83.652 Z M159.212,79.032 C158.996,79.236 158.888,79.524 158.888,79.884 C158.888,80.244 158.996,80.532 159.212,80.736 C159.44,80.94 159.716,81.048 160.04,81.048 C160.364,81.048 160.64,80.952 160.856,80.748 C161.084,80.544 161.192,80.256 161.192,79.884 C161.192,79.512 161.084,79.236 160.856,79.032 C160.64,78.828 160.364,78.72 160.04,78.72 C159.716,78.72 159.44,78.828 159.212,79.032 Z" id="Finanzierung" fill="#444F5A"></path>
                <rect id="Rectangle-3" fill="#F1F1F1" x="249" y="1" width="239" height="127"></rect>
                <path d="M315.159351,45.4 L316.363351,45.4 L316.363351,65 L313.395351,65 L313.395351,49.6 L309.727351,51.784 L309.727351,48.648 L315.159351,45.4 Z M328.991351,65 L328.991351,61.08 L320.535351,61.08 L320.535351,59.736 L328.823351,45.4 L331.959351,45.4 L331.959351,58.392 L334.255351,58.392 L334.255351,61.08 L331.959351,61.08 L331.959351,65 L328.991351,65 Z M324.231351,58.392 L328.991351,58.392 L328.991351,49.88 L324.231351,58.392 Z M344.055351,57.944 C340.443351,57.944 337.951351,55.256 337.951351,51.56 C337.951351,47.976 340.583351,45.176 344.223351,45.176 C347.863351,45.176 350.495351,47.976 350.495351,51.56 C350.495351,52.876 350.131351,54.08 349.543351,55.116 L343.719351,65.224 L340.415351,65.224 L344.699351,57.832 C344.531351,57.916 344.251351,57.944 344.055351,57.944 Z M344.223351,55.256 C346.183351,55.256 347.527351,53.856 347.527351,51.56 C347.527351,49.404 346.155351,47.864 344.223351,47.864 C342.263351,47.864 340.919351,49.404 340.919351,51.56 C340.919351,53.856 342.263351,55.256 344.223351,55.256 Z M356.543351,60.996 C357.691351,60.996 358.615351,61.892 358.615351,63.068 C358.615351,64.244 357.691351,65.14 356.543351,65.14 C355.395351,65.14 354.471351,64.244 354.471351,63.068 C354.471351,61.892 355.395351,60.996 356.543351,60.996 Z M369.283351,45.176 C372.559351,45.176 374.827351,47.556 374.827351,50.468 C374.827351,52.092 374.043351,53.492 372.867351,54.444 C374.463351,55.368 375.555351,56.992 375.555351,59.232 C375.555351,63.012 372.643351,65.224 369.283351,65.224 C365.923351,65.224 363.011351,63.012 363.011351,59.232 C363.011351,56.992 364.103351,55.368 365.699351,54.444 C364.495351,53.492 363.739351,52.092 363.739351,50.468 C363.739351,47.556 366.007351,45.176 369.283351,45.176 Z M369.283351,56.04 C367.463351,56.04 365.979351,57.16 365.979351,59.232 C365.979351,61.304 367.463351,62.536 369.283351,62.536 C371.103351,62.536 372.587351,61.304 372.587351,59.232 C372.587351,57.16 371.103351,56.04 369.283351,56.04 Z M369.283351,47.752 C367.743351,47.752 366.623351,48.928 366.623351,50.496 C366.623351,52.092 367.743351,53.268 369.283351,53.268 C370.823351,53.268 371.943351,52.092 371.943351,50.496 C371.943351,48.928 370.823351,47.752 369.283351,47.752 Z M385.747351,57.944 C382.135351,57.944 379.643351,55.256 379.643351,51.56 C379.643351,47.976 382.275351,45.176 385.915351,45.176 C389.555351,45.176 392.187351,47.976 392.187351,51.56 C392.187351,52.876 391.823351,54.08 391.235351,55.116 L385.411351,65.224 L382.107351,65.224 L386.391351,57.832 C386.223351,57.916 385.943351,57.944 385.747351,57.944 Z M385.915351,55.256 C387.875351,55.256 389.219351,53.856 389.219351,51.56 C389.219351,49.404 387.847351,47.864 385.915351,47.864 C383.955351,47.864 382.611351,49.404 382.611351,51.56 C382.611351,53.856 383.955351,55.256 385.915351,55.256 Z M403.947351,65 L403.947351,61.08 L395.491351,61.08 L395.491351,59.736 L403.779351,45.4 L406.915351,45.4 L406.915351,58.392 L409.211351,58.392 L409.211351,61.08 L406.915351,61.08 L406.915351,65 L403.947351,65 Z M399.187351,58.392 L403.947351,58.392 L403.947351,49.88 L399.187351,58.392 Z M411.647351,54.36 L412.935351,51.784 L414.391351,51.784 C415.203351,47.36 418.059351,45.176 421.755351,45.176 C424.415351,45.176 426.403351,46.38 427.467351,48.368 L425.003351,49.768 C424.247351,48.536 423.351351,47.808 421.755351,47.808 C419.515351,47.808 417.947351,49.012 417.387351,51.784 L423.351351,51.784 L422.063351,54.36 L417.135351,54.36 L417.135351,56.04 L423.351351,56.04 L422.063351,58.616 L417.387351,58.616 C417.947351,61.416 419.515351,62.592 421.755351,62.592 C423.351351,62.592 424.247351,61.864 425.003351,60.632 L427.467351,62.032 C426.403351,64.02 424.415351,65.224 421.755351,65.224 C418.059351,65.224 415.203351,63.04 414.391351,58.616 L411.647351,58.616 L412.935351,56.04 L414.167351,56.04 L414.167351,54.36 L411.647351,54.36 Z" id="149.894€" fill="#444F5A"></path>
                <path d="M337.74174,78.304 L336.81774,78.772 C336.44574,77.932 335.88174,77.512 335.11374,77.512 C334.18974,77.512 333.60174,77.992 333.60174,78.808 C333.60174,79.216 333.75774,79.516 334.05774,79.696 C334.36974,79.876 334.86174,80.056 335.54574,80.236 C336.15774,80.392 336.48174,80.488 336.92574,80.728 C337.58574,81.064 337.89774,81.544 337.93374,82.42 C337.93374,84.196 336.84174,85.096 335.14974,85.096 C333.52974,85.096 332.34174,84.22 332.01774,82.6 L333.00174,82.216 C333.32574,83.464 334.04574,84.088 335.14974,84.088 C336.20574,84.088 336.87774,83.56 336.87774,82.564 C336.87774,82.216 336.73374,81.952 336.57774,81.796 C336.49374,81.712 336.36174,81.64 336.16974,81.568 C335.79774,81.412 335.58174,81.34 334.96974,81.196 C334.38174,81.052 334.09374,80.968 333.61374,80.728 C332.94174,80.38 332.59374,79.852 332.54574,78.844 C332.54574,78.16 332.77374,77.596 333.22974,77.164 C333.68574,76.72 334.30974,76.504 335.11374,76.504 C336.46974,76.504 337.35774,77.284 337.74174,78.304 Z M341.11374,83.26 C341.11374,83.836 341.49774,84.184 342.10974,84.184 C342.58974,84.184 343.03374,84.028 343.42974,83.728 C343.83774,83.416 344.04174,82.948 344.04174,82.336 L344.04174,82.144 L342.72174,82.144 C341.70174,82.144 341.11374,82.576 341.11374,83.26 Z M345.04974,81.184 L345.04974,85 L344.23374,85 L344.08974,84.148 C343.70574,84.712 342.85374,85.096 341.95374,85.096 C340.88574,85.096 340.08174,84.448 340.08174,83.26 C340.08174,81.952 341.10174,81.28 342.81774,81.28 L344.04174,81.28 L344.04174,81.016 C344.04174,80.14 343.46574,79.768 342.64974,79.768 C341.96574,79.768 341.41374,80.188 341.22174,80.8 L340.33374,80.56 C340.60974,79.516 341.53374,78.856 342.64974,78.856 C344.13774,78.856 345.04974,79.588 345.04974,81.184 Z M351.82974,83.068 L352.70574,83.428 C352.21374,84.544 351.36174,85.096 350.14974,85.096 C349.26174,85.096 348.55374,84.796 348.03774,84.184 C347.52174,83.572 347.25774,82.84 347.25774,81.976 C347.25774,81.112 347.52174,80.38 348.03774,79.768 C348.55374,79.156 349.26174,78.856 350.14974,78.856 C351.36174,78.856 352.21374,79.408 352.70574,80.524 L351.82974,80.884 C351.50574,80.14 350.95374,79.768 350.14974,79.768 C348.98574,79.768 348.28974,80.68 348.28974,81.976 C348.28974,83.272 348.98574,84.184 350.14974,84.184 C350.95374,84.184 351.50574,83.812 351.82974,83.068 Z M359.97774,80.824 L359.97774,85 L358.96974,85 L358.96974,81.04 C358.96974,80.188 358.59774,79.768 357.85374,79.768 C357.33774,79.768 356.89374,80.008 356.50974,80.5 C356.12574,80.992 355.93374,81.64 355.93374,82.468 L355.93374,85 L354.92574,85 L354.92574,76.504 L355.93374,76.504 L355.93374,80.068 C356.41374,79.36 357.22974,78.856 358.12974,78.856 C359.36574,78.856 359.97774,79.516 359.97774,80.824 Z M362.40174,85 L362.40174,76.504 L363.40974,76.504 L363.40974,81.484 L365.98974,78.952 L367.30974,78.952 L364.48974,81.724 L367.58574,85 L366.26574,85 L363.40974,81.964 L363.40974,85 L362.40174,85 Z M370.06974,84.184 C369.52974,83.572 369.25374,82.84 369.25374,81.976 C369.25374,81.112 369.52974,80.38 370.06974,79.768 C370.60974,79.156 371.32974,78.856 372.22974,78.856 C373.12974,78.856 373.84974,79.156 374.38974,79.768 C374.92974,80.38 375.20574,81.112 375.20574,81.976 C375.20574,82.84 374.92974,83.572 374.38974,84.184 C373.84974,84.796 373.12974,85.096 372.22974,85.096 C371.32974,85.096 370.60974,84.796 370.06974,84.184 Z M370.81374,80.416 C370.46574,80.848 370.28574,81.364 370.28574,81.976 C370.28574,82.588 370.46574,83.104 370.81374,83.536 C371.16174,83.968 371.64174,84.184 372.22974,84.184 C372.81774,84.184 373.29774,83.968 373.64574,83.536 C373.99374,83.104 374.17374,82.588 374.17374,81.976 C374.17374,81.364 373.99374,80.848 373.64574,80.416 C373.29774,79.984 372.81774,79.768 372.22974,79.768 C371.64174,79.768 371.16174,79.984 370.81374,80.416 Z M379.64574,78.856 C380.64174,78.856 381.37374,79.288 381.85374,80.164 L381.06174,80.728 C380.71374,80.092 380.22174,79.768 379.60974,79.768 C379.03374,79.768 378.56574,80.032 378.56574,80.572 C378.56574,81.064 379.00974,81.316 379.96974,81.508 C380.48574,81.616 380.80974,81.688 381.20574,81.868 C381.76974,82.108 382.14174,82.516 382.14174,83.152 C382.14174,83.752 381.91374,84.232 381.46974,84.58 C381.02574,84.928 380.47374,85.096 379.81374,85.096 C378.56574,85.096 377.55774,84.46 377.18574,83.344 L378.14574,82.984 C378.42174,83.74 378.99774,84.184 379.81374,84.184 C380.54574,84.184 381.09774,83.86 381.09774,83.248 C381.09774,82.768 380.64174,82.6 379.53774,82.36 C378.30174,82.108 377.58174,81.676 377.58174,80.608 C377.58174,80.08 377.78574,79.66 378.18174,79.336 C378.57774,79.012 379.06974,78.856 379.64574,78.856 Z M385.78974,79.864 L384.18174,79.864 L384.18174,78.952 L385.78974,78.952 L385.78974,77.14 L386.79774,76.504 L386.79774,78.952 L389.74974,78.952 L389.74974,79.864 L386.79774,79.864 L386.79774,82.96 C386.79774,83.776 387.14574,84.184 387.84174,84.184 C388.38174,84.184 388.87374,83.944 389.32974,83.464 L389.70174,84.316 C389.18574,84.832 388.56174,85.096 387.84174,85.096 C386.50974,85.096 385.78974,84.388 385.78974,82.996 L385.78974,79.864 Z M397.50174,81.772 L397.50174,82.192 L392.77374,82.192 C392.83374,83.392 393.56574,84.184 394.63374,84.184 C395.49774,84.184 396.14574,83.788 396.57774,82.984 L397.38174,83.404 C396.79374,84.532 395.88174,85.096 394.63374,85.096 C393.76974,85.096 393.07374,84.796 392.53374,84.208 C392.00574,83.62 391.74174,82.876 391.74174,81.976 C391.74174,81.1 392.00574,80.356 392.52174,79.756 C393.04974,79.156 393.75774,78.856 394.63374,78.856 C395.53374,78.856 396.24174,79.132 396.74574,79.696 C397.24974,80.248 397.50174,80.944 397.50174,81.772 Z M394.63374,79.768 C393.68574,79.768 393.04974,80.332 392.84574,81.28 L396.43374,81.28 C396.25374,80.32 395.60574,79.768 394.63374,79.768 Z M404.53374,80.788 L404.53374,85 L403.52574,85 L403.52574,81.004 C403.52574,80.176 403.15374,79.768 402.40974,79.768 C401.91774,79.768 401.49774,80.02 401.14974,80.536 C400.80174,81.04 400.63374,81.712 400.63374,82.564 L400.63374,85 L399.62574,85 L399.62574,78.952 L400.63374,78.952 L400.63374,80.068 C401.07774,79.348 401.85774,78.856 402.68574,78.856 C403.92174,78.856 404.53374,79.588 404.53374,80.788 Z" id="Sachkosten" fill="#444F5A"></path>
                <rect id="Rectangle-3" fill="#F1F1F1" x="0" y="136" width="239" height="127"></rect>
                <path d="M60.9413506,194.212 L63.5453506,195.332 C62.4253506,197.88 60.4373506,199.224 57.4413506,199.224 C52.9613506,199.224 50.8053506,195.808 50.8053506,191.944 C50.8053506,188.08 52.9613506,184.664 57.4413506,184.664 C60.4373506,184.664 62.4253506,186.008 63.5453506,188.556 L60.9413506,189.676 C60.2693506,188.164 59.1213506,187.24 57.4413506,187.24 C54.9493506,187.24 53.8853506,189.284 53.8853506,191.944 C53.8853506,194.604 54.9493506,196.648 57.4413506,196.648 C59.1213506,196.648 60.2693506,195.724 60.9413506,194.212 Z M65.8413506,194.94 C65.8413506,192.028 68.3333506,190.32 71.9453506,190.32 L74.3813506,190.32 L74.3813506,189.704 C74.3813506,187.94 73.1213506,187.24 71.6373506,187.24 C70.4893506,187.24 69.4813506,187.856 69.0053506,189.116 L66.3453506,188.556 C66.9333506,186.176 68.9493506,184.664 71.6653506,184.664 C74.9413506,184.664 77.2933506,186.092 77.2933506,190.236 L77.2933506,199 L74.8293506,199 L74.5493506,197.152 C73.6253506,198.44 72.1693506,199.224 70.1813506,199.224 C67.8293506,199.224 65.8413506,197.88 65.8413506,194.94 Z M68.9213506,194.94 C68.9213506,195.892 69.4533506,196.648 70.6853506,196.648 C72.4773506,196.648 74.3813506,195.5 74.3813506,193.064 L74.3813506,192.756 L71.8333506,192.756 C70.0413506,192.756 68.9213506,193.596 68.9213506,194.94 Z M83.4533506,194.996 C84.6013506,194.996 85.5253506,195.892 85.5253506,197.068 C85.5253506,198.244 84.6013506,199.14 83.4533506,199.14 C82.3053506,199.14 81.3813506,198.244 81.3813506,197.068 C81.3813506,195.892 82.3053506,194.996 83.4533506,194.996 Z M103.613351,186.456 C107.225351,186.456 109.717351,189.144 109.717351,192.84 C109.717351,196.424 107.085351,199.224 103.445351,199.224 C99.8053506,199.224 97.1733506,196.424 97.1733506,192.84 C97.1733506,191.524 97.5373506,190.32 98.1253506,189.284 L103.949351,179.176 L107.253351,179.176 L102.969351,186.568 C103.137351,186.484 103.417351,186.456 103.613351,186.456 Z M103.445351,189.144 C101.485351,189.144 100.141351,190.544 100.141351,192.84 C100.141351,194.996 101.513351,196.536 103.445351,196.536 C105.405351,196.536 106.749351,194.996 106.749351,192.84 C106.749351,190.544 105.405351,189.144 103.445351,189.144 Z M120.161351,179.176 C124.781351,179.176 127.217351,183.012 127.217351,189.2 C127.217351,195.388 124.781351,199.224 120.161351,199.224 C115.541351,199.224 113.105351,195.388 113.105351,189.2 C113.105351,183.012 115.541351,179.176 120.161351,179.176 Z M120.161351,181.864 C117.389351,181.864 116.073351,184.608 116.073351,189.2 C116.073351,193.792 117.389351,196.536 120.161351,196.536 C122.933351,196.536 124.249351,193.792 124.249351,189.2 C124.249351,184.608 122.933351,181.864 120.161351,181.864 Z M137.857351,179.176 C142.477351,179.176 144.913351,183.012 144.913351,189.2 C144.913351,195.388 142.477351,199.224 137.857351,199.224 C133.237351,199.224 130.801351,195.388 130.801351,189.2 C130.801351,183.012 133.237351,179.176 137.857351,179.176 Z M137.857351,181.864 C135.085351,181.864 133.769351,184.608 133.769351,189.2 C133.769351,193.792 135.085351,196.536 137.857351,196.536 C140.629351,196.536 141.945351,193.792 141.945351,189.2 C141.945351,184.608 140.629351,181.864 137.857351,181.864 Z M155.553351,179.176 C160.173351,179.176 162.609351,183.012 162.609351,189.2 C162.609351,195.388 160.173351,199.224 155.553351,199.224 C150.933351,199.224 148.497351,195.388 148.497351,189.2 C148.497351,183.012 150.933351,179.176 155.553351,179.176 Z M155.553351,181.864 C152.781351,181.864 151.465351,184.608 151.465351,189.2 C151.465351,193.792 152.781351,196.536 155.553351,196.536 C158.325351,196.536 159.641351,193.792 159.641351,189.2 C159.641351,184.608 158.325351,181.864 155.553351,181.864 Z M166.809351,179.176 L169.721351,179.176 L169.721351,187.296 C170.729351,185.84 172.353351,184.664 174.481351,184.664 C177.085351,184.664 178.653351,186.064 178.653351,189.06 L178.653351,199 L175.741351,199 L175.741351,189.816 C175.741351,187.66 174.845351,187.24 173.529351,187.24 C171.933351,187.24 169.721351,189.284 169.721351,193.036 L169.721351,199 L166.809351,199 L166.809351,179.176 Z" id="ca.-6000h" fill="#444F5A"></path>
                <path d="M51.2817403,219.772 L51.2817403,220.192 L46.5537403,220.192 C46.6137403,221.392 47.3457403,222.184 48.4137403,222.184 C49.2777403,222.184 49.9257403,221.788 50.3577403,220.984 L51.1617403,221.404 C50.5737403,222.532 49.6617403,223.096 48.4137403,223.096 C47.5497403,223.096 46.8537403,222.796 46.3137403,222.208 C45.7857403,221.62 45.5217403,220.876 45.5217403,219.976 C45.5217403,219.1 45.7857403,218.356 46.3017403,217.756 C46.8297403,217.156 47.5377403,216.856 48.4137403,216.856 C49.3137403,216.856 50.0217403,217.132 50.5257403,217.696 C51.0297403,218.248 51.2817403,218.944 51.2817403,219.772 Z M48.4137403,217.768 C47.4657403,217.768 46.8297403,218.332 46.6257403,219.28 L50.2137403,219.28 C50.0337403,218.32 49.3857403,217.768 48.4137403,217.768 Z M58.3977403,218.824 L58.3977403,223 L57.3897403,223 L57.3897403,219.04 C57.3897403,218.188 57.0177403,217.768 56.2737403,217.768 C55.7577403,217.768 55.3137403,218.008 54.9297403,218.5 C54.5457403,218.992 54.3537403,219.64 54.3537403,220.468 L54.3537403,223 L53.3457403,223 L53.3457403,214.504 L54.3537403,214.504 L54.3537403,218.068 C54.8337403,217.36 55.6497403,216.856 56.5497403,216.856 C57.7857403,216.856 58.3977403,217.516 58.3977403,218.824 Z M66.1977403,218.872 L65.1897403,218.872 C65.1057403,218.14 64.7097403,217.768 64.0257403,217.768 C63.4617403,217.768 62.9697403,218.032 62.5737403,218.572 C62.1777403,219.1 61.9737403,219.844 61.9737403,220.816 L61.9737403,223 L60.9657403,223 L60.9657403,216.952 L61.9737403,216.952 L61.9737403,218.068 C62.4897403,217.264 63.2337403,216.856 64.2057403,216.856 C65.4057403,216.856 66.1377403,217.576 66.1977403,218.872 Z M73.6017403,219.772 L73.6017403,220.192 L68.8737403,220.192 C68.9337403,221.392 69.6657403,222.184 70.7337403,222.184 C71.5977403,222.184 72.2457403,221.788 72.6777403,220.984 L73.4817403,221.404 C72.8937403,222.532 71.9817403,223.096 70.7337403,223.096 C69.8697403,223.096 69.1737403,222.796 68.6337403,222.208 C68.1057403,221.62 67.8417403,220.876 67.8417403,219.976 C67.8417403,219.1 68.1057403,218.356 68.6217403,217.756 C69.1497403,217.156 69.8577403,216.856 70.7337403,216.856 C71.6337403,216.856 72.3417403,217.132 72.8457403,217.696 C73.3497403,218.248 73.6017403,218.944 73.6017403,219.772 Z M70.7337403,217.768 C69.7857403,217.768 69.1497403,218.332 68.9457403,219.28 L72.5337403,219.28 C72.3537403,218.32 71.7057403,217.768 70.7337403,217.768 Z M80.6337403,218.788 L80.6337403,223 L79.6257403,223 L79.6257403,219.004 C79.6257403,218.176 79.2537403,217.768 78.5097403,217.768 C78.0177403,217.768 77.5977403,218.02 77.2497403,218.536 C76.9017403,219.04 76.7337403,219.712 76.7337403,220.564 L76.7337403,223 L75.7257403,223 L75.7257403,216.952 L76.7337403,216.952 L76.7337403,218.068 C77.1777403,217.348 77.9577403,216.856 78.7857403,216.856 C80.0217403,216.856 80.6337403,217.588 80.6337403,218.788 Z M84.1737403,221.26 C84.1737403,221.836 84.5577403,222.184 85.1697403,222.184 C85.6497403,222.184 86.0937403,222.028 86.4897403,221.728 C86.8977403,221.416 87.1017403,220.948 87.1017403,220.336 L87.1017403,220.144 L85.7817403,220.144 C84.7617403,220.144 84.1737403,220.576 84.1737403,221.26 Z M88.1097403,219.184 L88.1097403,223 L87.2937403,223 L87.1497403,222.148 C86.7657403,222.712 85.9137403,223.096 85.0137403,223.096 C83.9457403,223.096 83.1417403,222.448 83.1417403,221.26 C83.1417403,219.952 84.1617403,219.28 85.8777403,219.28 L87.1017403,219.28 L87.1017403,219.016 C87.1017403,218.14 86.5257403,217.768 85.7097403,217.768 C85.0257403,217.768 84.4737403,218.188 84.2817403,218.8 L83.3937403,218.56 C83.6697403,217.516 84.5937403,216.856 85.7097403,216.856 C87.1977403,216.856 88.1097403,217.588 88.1097403,219.184 Z M96.3057403,218.488 L96.3057403,223 L95.2977403,223 L95.2977403,218.704 C95.2977403,218.044 95.1057403,217.78 94.6377403,217.78 C94.0137403,217.78 93.5697403,218.56 93.5697403,220.156 L93.5697403,223 L92.5617403,223 L92.5617403,218.704 C92.5617403,218.044 92.3697403,217.78 91.9017403,217.78 C91.2777403,217.78 90.8337403,218.56 90.8337403,220.156 L90.8337403,223 L89.8257403,223 L89.8257403,216.952 L90.8337403,216.952 L90.8337403,217.72 C91.1937403,217.144 91.6617403,216.856 92.2497403,216.856 C92.8977403,216.856 93.3177403,217.18 93.4977403,217.84 C93.8217403,217.252 94.3617403,216.856 94.9857403,216.856 C95.7897403,216.856 96.3057403,217.384 96.3057403,218.488 Z M99.0897403,217.864 L97.4817403,217.864 L97.4817403,216.952 L99.0897403,216.952 L99.0897403,215.14 L100.09774,214.504 L100.09774,216.952 L103.04974,216.952 L103.04974,217.864 L100.09774,217.864 L100.09774,220.96 C100.09774,221.776 100.44574,222.184 101.14174,222.184 C101.68174,222.184 102.17374,221.944 102.62974,221.464 L103.00174,222.316 C102.48574,222.832 101.86174,223.096 101.14174,223.096 C99.8097403,223.096 99.0897403,222.388 99.0897403,220.996 L99.0897403,217.864 Z M106.54174,220.72 L106.54174,215.512 L104.87374,215.512 L104.87374,214.6 L107.54974,214.6 L107.54974,220.72 C107.54974,221.692 107.96974,222.184 108.82174,222.184 C109.60174,222.184 110.06974,221.692 110.22574,220.72 L111.13774,220.9 C110.93374,222.34 110.08174,223.096 108.82174,223.096 C107.41774,223.096 106.54174,222.22 106.54174,220.72 Z M114.96574,217.84 L113.11774,217.84 L113.11774,216.952 L115.97374,216.952 L115.97374,222.112 L118.20574,222.112 L118.20574,223 L112.87774,223 L112.87774,222.112 L114.96574,222.112 L114.96574,217.84 Z M114.56974,215.344 C114.56974,214.876 114.92974,214.504 115.39774,214.504 C115.86574,214.504 116.22574,214.876 116.22574,215.344 C116.22574,215.812 115.86574,216.16 115.39774,216.16 C114.92974,216.16 114.56974,215.788 114.56974,215.344 Z M124.64974,221.068 L125.52574,221.428 C125.03374,222.544 124.18174,223.096 122.96974,223.096 C122.08174,223.096 121.37374,222.796 120.85774,222.184 C120.34174,221.572 120.07774,220.84 120.07774,219.976 C120.07774,219.112 120.34174,218.38 120.85774,217.768 C121.37374,217.156 122.08174,216.856 122.96974,216.856 C124.18174,216.856 125.03374,217.408 125.52574,218.524 L124.64974,218.884 C124.32574,218.14 123.77374,217.768 122.96974,217.768 C121.80574,217.768 121.10974,218.68 121.10974,219.976 C121.10974,221.272 121.80574,222.184 122.96974,222.184 C123.77374,222.184 124.32574,221.812 124.64974,221.068 Z M132.79774,218.824 L132.79774,223 L131.78974,223 L131.78974,219.04 C131.78974,218.188 131.41774,217.768 130.67374,217.768 C130.15774,217.768 129.71374,218.008 129.32974,218.5 C128.94574,218.992 128.75374,219.64 128.75374,220.468 L128.75374,223 L127.74574,223 L127.74574,214.504 L128.75374,214.504 L128.75374,218.068 C129.23374,217.36 130.04974,216.856 130.94974,216.856 C132.18574,216.856 132.79774,217.516 132.79774,218.824 Z M140.56174,219.772 L140.56174,220.192 L135.83374,220.192 C135.89374,221.392 136.62574,222.184 137.69374,222.184 C138.55774,222.184 139.20574,221.788 139.63774,220.984 L140.44174,221.404 C139.85374,222.532 138.94174,223.096 137.69374,223.096 C136.82974,223.096 136.13374,222.796 135.59374,222.208 C135.06574,221.62 134.80174,220.876 134.80174,219.976 C134.80174,219.1 135.06574,218.356 135.58174,217.756 C136.10974,217.156 136.81774,216.856 137.69374,216.856 C138.59374,216.856 139.30174,217.132 139.80574,217.696 C140.30974,218.248 140.56174,218.944 140.56174,219.772 Z M137.69374,217.768 C136.74574,217.768 136.10974,218.332 135.90574,219.28 L139.49374,219.28 C139.31374,218.32 138.66574,217.768 137.69374,217.768 Z M148.99774,223 L151.98574,214.6 L152.99374,214.6 L155.98174,223 L154.88974,223 L154.13374,220.756 L150.84574,220.756 L150.08974,223 L148.99774,223 Z M153.78574,219.748 L152.48974,215.968 L151.19374,219.748 L153.78574,219.748 Z M162.91774,218.872 L161.90974,218.872 C161.82574,218.14 161.42974,217.768 160.74574,217.768 C160.18174,217.768 159.68974,218.032 159.29374,218.572 C158.89774,219.1 158.69374,219.844 158.69374,220.816 L158.69374,223 L157.68574,223 L157.68574,216.952 L158.69374,216.952 L158.69374,218.068 C159.20974,217.264 159.95374,216.856 160.92574,216.856 C162.12574,216.856 162.85774,217.576 162.91774,218.872 Z M167.70574,223.096 C166.92574,223.096 166.22974,222.712 165.85774,222.196 L165.85774,223 L164.84974,223 L164.84974,214.504 L165.85774,214.504 L165.85774,217.72 C166.22974,217.228 166.90174,216.856 167.70574,216.856 C169.44574,216.856 170.47774,218.092 170.47774,219.976 C170.47774,221.86 169.44574,223.096 167.70574,223.096 Z M168.95374,221.572 C169.27774,221.164 169.44574,220.636 169.44574,219.976 C169.44574,219.316 169.27774,218.788 168.95374,218.38 C168.62974,217.972 168.17374,217.768 167.60974,217.768 C167.04574,217.768 166.58974,217.972 166.26574,218.38 C165.94174,218.788 165.77374,219.316 165.77374,219.976 C165.77374,220.636 165.94174,221.164 166.26574,221.572 C166.58974,221.98 167.04574,222.184 167.60974,222.184 C168.17374,222.184 168.62974,221.98 168.95374,221.572 Z M177.76174,219.772 L177.76174,220.192 L173.03374,220.192 C173.09374,221.392 173.82574,222.184 174.89374,222.184 C175.75774,222.184 176.40574,221.788 176.83774,220.984 L177.64174,221.404 C177.05374,222.532 176.14174,223.096 174.89374,223.096 C174.02974,223.096 173.33374,222.796 172.79374,222.208 C172.26574,221.62 172.00174,220.876 172.00174,219.976 C172.00174,219.1 172.26574,218.356 172.78174,217.756 C173.30974,217.156 174.01774,216.856 174.89374,216.856 C175.79374,216.856 176.50174,217.132 177.00574,217.696 C177.50974,218.248 177.76174,218.944 177.76174,219.772 Z M174.89374,217.768 C173.94574,217.768 173.30974,218.332 173.10574,219.28 L176.69374,219.28 C176.51374,218.32 175.86574,217.768 174.89374,217.768 Z M181.92574,217.84 L180.07774,217.84 L180.07774,216.952 L182.93374,216.952 L182.93374,222.112 L185.16574,222.112 L185.16574,223 L179.83774,223 L179.83774,222.112 L181.92574,222.112 L181.92574,217.84 Z M181.52974,215.344 C181.52974,214.876 181.88974,214.504 182.35774,214.504 C182.82574,214.504 183.18574,214.876 183.18574,215.344 C183.18574,215.812 182.82574,216.16 182.35774,216.16 C181.88974,216.16 181.52974,215.788 181.52974,215.344 Z M188.36974,217.864 L186.76174,217.864 L186.76174,216.952 L188.36974,216.952 L188.36974,215.14 L189.37774,214.504 L189.37774,216.952 L192.32974,216.952 L192.32974,217.864 L189.37774,217.864 L189.37774,220.96 C189.37774,221.776 189.72574,222.184 190.42174,222.184 C190.96174,222.184 191.45374,221.944 191.90974,221.464 L192.28174,222.316 C191.76574,222.832 191.14174,223.096 190.42174,223.096 C189.08974,223.096 188.36974,222.388 188.36974,220.996 L188.36974,217.864 Z M55.6617403,230.856 C56.4657403,230.856 57.1377403,231.228 57.5097403,231.72 L57.5097403,228.504 L58.5177403,228.504 L58.5177403,237 L57.5097403,237 L57.5097403,236.196 C57.1377403,236.712 56.4417403,237.096 55.6617403,237.096 C53.9217403,237.096 52.8897403,235.86 52.8897403,233.976 C52.8897403,232.092 53.9217403,230.856 55.6617403,230.856 Z M54.4137403,232.38 C54.0897403,232.788 53.9217403,233.316 53.9217403,233.976 C53.9217403,234.636 54.0897403,235.164 54.4137403,235.572 C54.7377403,235.98 55.1937403,236.184 55.7577403,236.184 C56.3217403,236.184 56.7777403,235.98 57.1017403,235.572 C57.4257403,235.164 57.5937403,234.636 57.5937403,233.976 C57.5937403,233.316 57.4257403,232.788 57.1017403,232.38 C56.7777403,231.972 56.3217403,231.768 55.7577403,231.768 C55.1937403,231.768 54.7377403,231.972 54.4137403,232.38 Z M60.7257403,235.164 L60.7257403,230.952 L61.7337403,230.952 L61.7337403,234.948 C61.7337403,235.776 62.1057403,236.184 62.8497403,236.184 C63.3417403,236.184 63.7617403,235.932 64.1097403,235.428 C64.4577403,234.912 64.6257403,234.24 64.6257403,233.388 L64.6257403,230.952 L65.6337403,230.952 L65.6337403,237 L64.6257403,237 L64.6257403,235.884 C64.1817403,236.604 63.4017403,237.096 62.5737403,237.096 C61.3377403,237.096 60.7257403,236.364 60.7257403,235.164 Z M73.6377403,232.872 L72.6297403,232.872 C72.5457403,232.14 72.1497403,231.768 71.4657403,231.768 C70.9017403,231.768 70.4097403,232.032 70.0137403,232.572 C69.6177403,233.1 69.4137403,233.844 69.4137403,234.816 L69.4137403,237 L68.4057403,237 L68.4057403,230.952 L69.4137403,230.952 L69.4137403,232.068 C69.9297403,231.264 70.6737403,230.856 71.6457403,230.856 C72.8457403,230.856 73.5777403,231.576 73.6377403,232.872 Z M80.0097403,235.068 L80.8857403,235.428 C80.3937403,236.544 79.5417403,237.096 78.3297403,237.096 C77.4417403,237.096 76.7337403,236.796 76.2177403,236.184 C75.7017403,235.572 75.4377403,234.84 75.4377403,233.976 C75.4377403,233.112 75.7017403,232.38 76.2177403,231.768 C76.7337403,231.156 77.4417403,230.856 78.3297403,230.856 C79.5417403,230.856 80.3937403,231.408 80.8857403,232.524 L80.0097403,232.884 C79.6857403,232.14 79.1337403,231.768 78.3297403,231.768 C77.1657403,231.768 76.4697403,232.68 76.4697403,233.976 C76.4697403,235.272 77.1657403,236.184 78.3297403,236.184 C79.1337403,236.184 79.6857403,235.812 80.0097403,235.068 Z M88.1577403,232.824 L88.1577403,237 L87.1497403,237 L87.1497403,233.04 C87.1497403,232.188 86.7777403,231.768 86.0337403,231.768 C85.5177403,231.768 85.0737403,232.008 84.6897403,232.5 C84.3057403,232.992 84.1137403,233.64 84.1137403,234.468 L84.1137403,237 L83.1057403,237 L83.1057403,228.504 L84.1137403,228.504 L84.1137403,232.068 C84.5937403,231.36 85.4097403,230.856 86.3097403,230.856 C87.5457403,230.856 88.1577403,231.516 88.1577403,232.824 Z M97.4937403,237 L97.4937403,228.6 L98.6217403,228.6 L100.40974,233.256 L102.19774,228.6 L103.32574,228.6 L103.32574,237 L102.26974,237 L102.26974,230.844 L100.80574,234.588 L100.01374,234.588 L98.5497403,230.844 L98.5497403,237 L97.4937403,237 Z M110.80174,233.772 L110.80174,234.192 L106.07374,234.192 C106.13374,235.392 106.86574,236.184 107.93374,236.184 C108.79774,236.184 109.44574,235.788 109.87774,234.984 L110.68174,235.404 C110.09374,236.532 109.18174,237.096 107.93374,237.096 C107.06974,237.096 106.37374,236.796 105.83374,236.208 C105.30574,235.62 105.04174,234.876 105.04174,233.976 C105.04174,233.1 105.30574,232.356 105.82174,231.756 C106.34974,231.156 107.05774,230.856 107.93374,230.856 C108.83374,230.856 109.54174,231.132 110.04574,231.696 C110.54974,232.248 110.80174,232.944 110.80174,233.772 Z M107.93374,231.768 C106.98574,231.768 106.34974,232.332 106.14574,233.28 L109.73374,233.28 C109.55374,232.32 108.90574,231.768 107.93374,231.768 Z M117.83374,232.788 L117.83374,237 L116.82574,237 L116.82574,233.004 C116.82574,232.176 116.45374,231.768 115.70974,231.768 C115.21774,231.768 114.79774,232.02 114.44974,232.536 C114.10174,233.04 113.93374,233.712 113.93374,234.564 L113.93374,237 L112.92574,237 L112.92574,230.952 L113.93374,230.952 L113.93374,232.068 C114.37774,231.348 115.15774,230.856 115.98574,230.856 C117.22174,230.856 117.83374,231.588 117.83374,232.788 Z M121.40974,231.864 L119.80174,231.864 L119.80174,230.952 L121.40974,230.952 L121.40974,229.14 L122.41774,228.504 L122.41774,230.952 L125.36974,230.952 L125.36974,231.864 L122.41774,231.864 L122.41774,234.96 C122.41774,235.776 122.76574,236.184 123.46174,236.184 C124.00174,236.184 124.49374,235.944 124.94974,235.464 L125.32174,236.316 C124.80574,236.832 124.18174,237.096 123.46174,237.096 C122.12974,237.096 121.40974,236.388 121.40974,234.996 L121.40974,231.864 Z M128.00974,236.184 C127.46974,235.572 127.19374,234.84 127.19374,233.976 C127.19374,233.112 127.46974,232.38 128.00974,231.768 C128.54974,231.156 129.26974,230.856 130.16974,230.856 C131.06974,230.856 131.78974,231.156 132.32974,231.768 C132.86974,232.38 133.14574,233.112 133.14574,233.976 C133.14574,234.84 132.86974,235.572 132.32974,236.184 C131.78974,236.796 131.06974,237.096 130.16974,237.096 C129.26974,237.096 128.54974,236.796 128.00974,236.184 Z M128.75374,232.416 C128.40574,232.848 128.22574,233.364 128.22574,233.976 C128.22574,234.588 128.40574,235.104 128.75374,235.536 C129.10174,235.968 129.58174,236.184 130.16974,236.184 C130.75774,236.184 131.23774,235.968 131.58574,235.536 C131.93374,235.104 132.11374,234.588 132.11374,233.976 C132.11374,233.364 131.93374,232.848 131.58574,232.416 C131.23774,231.984 130.75774,231.768 130.16974,231.768 C129.58174,231.768 129.10174,231.984 128.75374,232.416 Z M140.59774,232.872 L139.58974,232.872 C139.50574,232.14 139.10974,231.768 138.42574,231.768 C137.86174,231.768 137.36974,232.032 136.97374,232.572 C136.57774,233.1 136.37374,233.844 136.37374,234.816 L136.37374,237 L135.36574,237 L135.36574,230.952 L136.37374,230.952 L136.37374,232.068 C136.88974,231.264 137.63374,230.856 138.60574,230.856 C139.80574,230.856 140.53774,231.576 140.59774,232.872 Z M144.64174,228.504 L145.45774,228.504 L145.45774,230.16 L147.02974,229.644 L147.28174,230.424 L145.72174,230.94 L146.68174,232.272 L146.02174,232.74 L145.04974,231.408 L144.07774,232.74 L143.41774,232.272 L144.37774,230.94 L142.81774,230.424 L143.06974,229.644 L144.64174,230.16 L144.64174,228.504 Z M152.16574,231.84 L150.31774,231.84 L150.31774,230.952 L153.17374,230.952 L153.17374,236.112 L155.40574,236.112 L155.40574,237 L150.07774,237 L150.07774,236.112 L152.16574,236.112 L152.16574,231.84 Z M151.76974,229.344 C151.76974,228.876 152.12974,228.504 152.59774,228.504 C153.06574,228.504 153.42574,228.876 153.42574,229.344 C153.42574,229.812 153.06574,230.16 152.59774,230.16 C152.12974,230.16 151.76974,229.788 151.76974,229.344 Z M162.47374,232.788 L162.47374,237 L161.46574,237 L161.46574,233.004 C161.46574,232.176 161.09374,231.768 160.34974,231.768 C159.85774,231.768 159.43774,232.02 159.08974,232.536 C158.74174,233.04 158.57374,233.712 158.57374,234.564 L158.57374,237 L157.56574,237 L157.56574,230.952 L158.57374,230.952 L158.57374,232.068 C159.01774,231.348 159.79774,230.856 160.62574,230.856 C161.86174,230.856 162.47374,231.588 162.47374,232.788 Z M169.91374,232.788 L169.91374,237 L168.90574,237 L168.90574,233.004 C168.90574,232.176 168.53374,231.768 167.78974,231.768 C167.29774,231.768 166.87774,232.02 166.52974,232.536 C166.18174,233.04 166.01374,233.712 166.01374,234.564 L166.01374,237 L165.00574,237 L165.00574,230.952 L166.01374,230.952 L166.01374,232.068 C166.45774,231.348 167.23774,230.856 168.06574,230.856 C169.30174,230.856 169.91374,231.588 169.91374,232.788 Z M177.76174,233.772 L177.76174,234.192 L173.03374,234.192 C173.09374,235.392 173.82574,236.184 174.89374,236.184 C175.75774,236.184 176.40574,235.788 176.83774,234.984 L177.64174,235.404 C177.05374,236.532 176.14174,237.096 174.89374,237.096 C174.02974,237.096 173.33374,236.796 172.79374,236.208 C172.26574,235.62 172.00174,234.876 172.00174,233.976 C172.00174,233.1 172.26574,232.356 172.78174,231.756 C173.30974,231.156 174.01774,230.856 174.89374,230.856 C175.79374,230.856 176.50174,231.132 177.00574,231.696 C177.50974,232.248 177.76174,232.944 177.76174,233.772 Z M174.89374,231.768 C173.94574,231.768 173.30974,232.332 173.10574,233.28 L176.69374,233.28 C176.51374,232.32 175.86574,231.768 174.89374,231.768 Z M184.79374,232.788 L184.79374,237 L183.78574,237 L183.78574,233.004 C183.78574,232.176 183.41374,231.768 182.66974,231.768 C182.17774,231.768 181.75774,232.02 181.40974,232.536 C181.06174,233.04 180.89374,233.712 180.89374,234.564 L180.89374,237 L179.88574,237 L179.88574,230.952 L180.89374,230.952 L180.89374,232.068 C181.33774,231.348 182.11774,230.856 182.94574,230.856 C184.18174,230.856 184.79374,231.588 184.79374,232.788 Z" id="ehrenamtliche-Arbeit" fill="#444F5A"></path>
            </g>
        </g>
    </g>
</svg>