<?xml version="1.0" encoding="UTF-8"?>
<svg width="490px" height="127px" viewBox="0 0 490 127" version="1.1" xmlns="http://www.w3.org/2000/svg" xmlns:xlink="http://www.w3.org/1999/xlink">
    <!-- Generator: Sketch 50.2 (55047) - http://www.bohemiancoding.com/sketch -->
    <title>Group 3</title>
    <desc>Created with Sketch.</desc>
    <defs></defs>
    <g id="Ressourcen" stroke="none" stroke-width="1" fill="none" fill-rule="evenodd">
        <g id="kleineAnfragen" transform="translate(-621.000000, -348.000000)">
            <g id="Group-3" transform="translate(621.000000, 348.000000)">
                <g id="Group-2">
                    <g id="Group">
                        <rect id="Rectangle-3" fill="#F1F1F1" x="0" y="0" width="239" height="127"></rect>
                        <path d="M107.24,44.176 C111.86,44.176 114.296,48.012 114.296,54.2 C114.296,60.388 111.86,64.224 107.24,64.224 C102.62,64.224 100.184,60.388 100.184,54.2 C100.184,48.012 102.62,44.176 107.24,44.176 Z M107.24,46.864 C104.468,46.864 103.152,49.608 103.152,54.2 C103.152,58.792 104.468,61.536 107.24,61.536 C110.012,61.536 111.328,58.792 111.328,54.2 C111.328,49.608 110.012,46.864 107.24,46.864 Z M117.628,48.656 C117.628,46.164 119.616,44.176 122.164,44.176 C124.712,44.176 126.7,46.164 126.7,48.656 C126.7,51.148 124.712,53.136 122.164,53.136 C119.616,53.136 117.628,51.148 117.628,48.656 Z M120.092,48.656 C120.092,49.888 120.876,50.812 122.164,50.812 C123.452,50.812 124.236,49.888 124.236,48.656 C124.236,47.424 123.452,46.5 122.164,46.5 C120.876,46.5 120.092,47.424 120.092,48.656 Z M128.996,59.744 C128.996,57.252 130.984,55.264 133.532,55.264 C136.08,55.264 138.068,57.252 138.068,59.744 C138.068,62.236 136.08,64.224 133.532,64.224 C130.984,64.224 128.996,62.236 128.996,59.744 Z M131.46,59.744 C131.46,60.976 132.244,61.9 133.532,61.9 C134.82,61.9 135.604,60.976 135.604,59.744 C135.604,58.512 134.82,57.588 133.532,57.588 C132.244,57.588 131.46,58.512 131.46,59.744 Z M134.764,43.476 L136.388,44.736 L121.296,64.896 L119.672,63.636 L134.764,43.476 Z" id="0%" fill="#444F5A"></path>
                        <path d="M75.952,84 L75.952,75.6 L81.196,75.6 L81.196,76.608 L77.008,76.608 L77.008,79.116 L80.608,79.116 L80.608,80.124 L77.008,80.124 L77.008,84 L75.952,84 Z M85.696,78.84 L83.848,78.84 L83.848,77.952 L86.704,77.952 L86.704,83.112 L88.936,83.112 L88.936,84 L83.608,84 L83.608,83.112 L85.696,83.112 L85.696,78.84 Z M85.3,76.344 C85.3,75.876 85.66,75.504 86.128,75.504 C86.596,75.504 86.956,75.876 86.956,76.344 C86.956,76.812 86.596,77.16 86.128,77.16 C85.66,77.16 85.3,76.788 85.3,76.344 Z M96.004,79.788 L96.004,84 L94.996,84 L94.996,80.004 C94.996,79.176 94.624,78.768 93.88,78.768 C93.388,78.768 92.968,79.02 92.62,79.536 C92.272,80.04 92.104,80.712 92.104,81.564 L92.104,84 L91.096,84 L91.096,77.952 L92.104,77.952 L92.104,79.068 C92.548,78.348 93.328,77.856 94.156,77.856 C95.392,77.856 96.004,78.588 96.004,79.788 Z M99.544,82.26 C99.544,82.836 99.928,83.184 100.54,83.184 C101.02,83.184 101.464,83.028 101.86,82.728 C102.268,82.416 102.472,81.948 102.472,81.336 L102.472,81.144 L101.152,81.144 C100.132,81.144 99.544,81.576 99.544,82.26 Z M103.48,80.184 L103.48,84 L102.664,84 L102.52,83.148 C102.136,83.712 101.284,84.096 100.384,84.096 C99.316,84.096 98.512,83.448 98.512,82.26 C98.512,80.952 99.532,80.28 101.248,80.28 L102.472,80.28 L102.472,80.016 C102.472,79.14 101.896,78.768 101.08,78.768 C100.396,78.768 99.844,79.188 99.652,79.8 L98.764,79.56 C99.04,78.516 99.964,77.856 101.08,77.856 C102.568,77.856 103.48,78.588 103.48,80.184 Z M110.884,79.788 L110.884,84 L109.876,84 L109.876,80.004 C109.876,79.176 109.504,78.768 108.76,78.768 C108.268,78.768 107.848,79.02 107.5,79.536 C107.152,80.04 106.984,80.712 106.984,81.564 L106.984,84 L105.976,84 L105.976,77.952 L106.984,77.952 L106.984,79.068 C107.428,78.348 108.208,77.856 109.036,77.856 C110.272,77.856 110.884,78.588 110.884,79.788 Z M116.548,78.864 L113.536,78.864 L113.536,77.952 L118.072,77.952 L118.072,78.384 L114.868,83.088 L118.216,83.088 L118.216,84 L113.38,84 L113.38,83.568 L116.548,78.864 Z M122.896,78.84 L121.048,78.84 L121.048,77.952 L123.904,77.952 L123.904,83.112 L126.136,83.112 L126.136,84 L120.808,84 L120.808,83.112 L122.896,83.112 L122.896,78.84 Z M122.5,76.344 C122.5,75.876 122.86,75.504 123.328,75.504 C123.796,75.504 124.156,75.876 124.156,76.344 C124.156,76.812 123.796,77.16 123.328,77.16 C122.86,77.16 122.5,76.788 122.5,76.344 Z M133.612,80.772 L133.612,81.192 L128.884,81.192 C128.944,82.392 129.676,83.184 130.744,83.184 C131.608,83.184 132.256,82.788 132.688,81.984 L133.492,82.404 C132.904,83.532 131.992,84.096 130.744,84.096 C129.88,84.096 129.184,83.796 128.644,83.208 C128.116,82.62 127.852,81.876 127.852,80.976 C127.852,80.1 128.116,79.356 128.632,78.756 C129.16,78.156 129.868,77.856 130.744,77.856 C131.644,77.856 132.352,78.132 132.856,78.696 C133.36,79.248 133.612,79.944 133.612,80.772 Z M130.744,78.768 C129.796,78.768 129.16,79.332 128.956,80.28 L132.544,80.28 C132.364,79.32 131.716,78.768 130.744,78.768 Z M141.088,79.872 L140.08,79.872 C139.996,79.14 139.6,78.768 138.916,78.768 C138.352,78.768 137.86,79.032 137.464,79.572 C137.068,80.1 136.864,80.844 136.864,81.816 L136.864,84 L135.856,84 L135.856,77.952 L136.864,77.952 L136.864,79.068 C137.38,78.264 138.124,77.856 139.096,77.856 C140.296,77.856 141.028,78.576 141.088,79.872 Z M143.056,82.164 L143.056,77.952 L144.064,77.952 L144.064,81.948 C144.064,82.776 144.436,83.184 145.18,83.184 C145.672,83.184 146.092,82.932 146.44,82.428 C146.788,81.912 146.956,81.24 146.956,80.388 L146.956,77.952 L147.964,77.952 L147.964,84 L146.956,84 L146.956,82.884 C146.512,83.604 145.732,84.096 144.904,84.096 C143.668,84.096 143.056,83.364 143.056,82.164 Z M155.524,79.788 L155.524,84 L154.516,84 L154.516,80.004 C154.516,79.176 154.144,78.768 153.4,78.768 C152.908,78.768 152.488,79.02 152.14,79.536 C151.792,80.04 151.624,80.712 151.624,81.564 L151.624,84 L150.616,84 L150.616,77.952 L151.624,77.952 L151.624,79.068 C152.068,78.348 152.848,77.856 153.676,77.856 C154.912,77.856 155.524,78.588 155.524,79.788 Z M158.404,79.884 C158.404,79.272 158.608,78.78 159.004,78.408 C159.412,78.036 159.928,77.856 160.54,77.856 C160.972,77.856 161.368,77.964 161.728,78.168 L162.988,77.52 L163.444,78.348 L162.424,78.876 C162.592,79.164 162.676,79.5 162.676,79.884 C162.676,80.496 162.472,80.988 162.076,81.36 C161.68,81.732 161.164,81.912 160.54,81.912 C160.12,81.912 159.748,81.828 159.424,81.66 C159.052,81.804 158.872,82.008 158.872,82.284 C158.872,82.62 159.16,82.788 159.724,82.788 L161.296,82.788 C162.592,82.788 163.324,83.364 163.324,84.456 C163.324,85.164 163.048,85.68 162.496,86.028 C161.944,86.376 161.272,86.544 160.492,86.544 C158.728,86.544 157.696,85.848 157.696,84.552 C157.696,84.012 157.9,83.58 158.32,83.256 C158.032,83.028 157.888,82.728 157.888,82.332 C157.888,81.792 158.212,81.324 158.776,81.12 C158.524,80.784 158.404,80.376 158.404,79.884 Z M161.272,83.652 L159.844,83.652 C159.592,83.652 159.388,83.64 159.22,83.604 C158.872,83.784 158.704,84.084 158.704,84.516 C158.704,85.224 159.4,85.656 160.492,85.656 C161.632,85.656 162.292,85.236 162.292,84.552 C162.292,83.952 161.956,83.652 161.272,83.652 Z M159.712,79.032 C159.496,79.236 159.388,79.524 159.388,79.884 C159.388,80.244 159.496,80.532 159.712,80.736 C159.94,80.94 160.216,81.048 160.54,81.048 C160.864,81.048 161.14,80.952 161.356,80.748 C161.584,80.544 161.692,80.256 161.692,79.884 C161.692,79.512 161.584,79.236 161.356,79.032 C161.14,78.828 160.864,78.72 160.54,78.72 C160.216,78.72 159.94,78.828 159.712,79.032 Z" id="Finanzierung" fill="#444F5A"></path>
                        <g id="Group-5" transform="translate(251.000000, 0.000000)">
                            <rect id="Rectangle-3" fill="#F1F1F1" x="0" y="0" width="239" height="127"></rect>
                            <path d="M95.0973506,44.4 L96.3013506,44.4 L96.3013506,64 L93.3333506,64 L93.3333506,48.6 L89.6653506,50.784 L89.6653506,47.648 L95.0973506,44.4 Z M107.613351,44.176 C112.233351,44.176 114.669351,48.012 114.669351,54.2 C114.669351,60.388 112.233351,64.224 107.613351,64.224 C102.993351,64.224 100.557351,60.388 100.557351,54.2 C100.557351,48.012 102.993351,44.176 107.613351,44.176 Z M107.613351,46.864 C104.841351,46.864 103.525351,49.608 103.525351,54.2 C103.525351,58.792 104.841351,61.536 107.613351,61.536 C110.385351,61.536 111.701351,58.792 111.701351,54.2 C111.701351,49.608 110.385351,46.864 107.613351,46.864 Z M125.309351,44.176 C129.929351,44.176 132.365351,48.012 132.365351,54.2 C132.365351,60.388 129.929351,64.224 125.309351,64.224 C120.689351,64.224 118.253351,60.388 118.253351,54.2 C118.253351,48.012 120.689351,44.176 125.309351,44.176 Z M125.309351,46.864 C122.537351,46.864 121.221351,49.608 121.221351,54.2 C121.221351,58.792 122.537351,61.536 125.309351,61.536 C128.081351,61.536 129.397351,58.792 129.397351,54.2 C129.397351,49.608 128.081351,46.864 125.309351,46.864 Z M136.565351,44.176 L139.477351,44.176 L139.477351,52.296 C140.485351,50.84 142.109351,49.664 144.237351,49.664 C146.841351,49.664 148.409351,51.064 148.409351,54.06 L148.409351,64 L145.497351,64 L145.497351,54.816 C145.497351,52.66 144.601351,52.24 143.285351,52.24 C141.689351,52.24 139.477351,54.284 139.477351,58.036 L139.477351,64 L136.565351,64 L136.565351,44.176 Z" id="100h" fill="#444F5A"></path>
                            <path d="M49.7817403,80.772 L49.7817403,81.192 L45.0537403,81.192 C45.1137403,82.392 45.8457403,83.184 46.9137403,83.184 C47.7777403,83.184 48.4257403,82.788 48.8577403,81.984 L49.6617403,82.404 C49.0737403,83.532 48.1617403,84.096 46.9137403,84.096 C46.0497403,84.096 45.3537403,83.796 44.8137403,83.208 C44.2857403,82.62 44.0217403,81.876 44.0217403,80.976 C44.0217403,80.1 44.2857403,79.356 44.8017403,78.756 C45.3297403,78.156 46.0377403,77.856 46.9137403,77.856 C47.8137403,77.856 48.5217403,78.132 49.0257403,78.696 C49.5297403,79.248 49.7817403,79.944 49.7817403,80.772 Z M46.9137403,78.768 C45.9657403,78.768 45.3297403,79.332 45.1257403,80.28 L48.7137403,80.28 C48.5337403,79.32 47.8857403,78.768 46.9137403,78.768 Z M56.8977403,79.824 L56.8977403,84 L55.8897403,84 L55.8897403,80.04 C55.8897403,79.188 55.5177403,78.768 54.7737403,78.768 C54.2577403,78.768 53.8137403,79.008 53.4297403,79.5 C53.0457403,79.992 52.8537403,80.64 52.8537403,81.468 L52.8537403,84 L51.8457403,84 L51.8457403,75.504 L52.8537403,75.504 L52.8537403,79.068 C53.3337403,78.36 54.1497403,77.856 55.0497403,77.856 C56.2857403,77.856 56.8977403,78.516 56.8977403,79.824 Z M64.6977403,79.872 L63.6897403,79.872 C63.6057403,79.14 63.2097403,78.768 62.5257403,78.768 C61.9617403,78.768 61.4697403,79.032 61.0737403,79.572 C60.6777403,80.1 60.4737403,80.844 60.4737403,81.816 L60.4737403,84 L59.4657403,84 L59.4657403,77.952 L60.4737403,77.952 L60.4737403,79.068 C60.9897403,78.264 61.7337403,77.856 62.7057403,77.856 C63.9057403,77.856 64.6377403,78.576 64.6977403,79.872 Z M72.1017403,80.772 L72.1017403,81.192 L67.3737403,81.192 C67.4337403,82.392 68.1657403,83.184 69.2337403,83.184 C70.0977403,83.184 70.7457403,82.788 71.1777403,81.984 L71.9817403,82.404 C71.3937403,83.532 70.4817403,84.096 69.2337403,84.096 C68.3697403,84.096 67.6737403,83.796 67.1337403,83.208 C66.6057403,82.62 66.3417403,81.876 66.3417403,80.976 C66.3417403,80.1 66.6057403,79.356 67.1217403,78.756 C67.6497403,78.156 68.3577403,77.856 69.2337403,77.856 C70.1337403,77.856 70.8417403,78.132 71.3457403,78.696 C71.8497403,79.248 72.1017403,79.944 72.1017403,80.772 Z M69.2337403,78.768 C68.2857403,78.768 67.6497403,79.332 67.4457403,80.28 L71.0337403,80.28 C70.8537403,79.32 70.2057403,78.768 69.2337403,78.768 Z M79.1337403,79.788 L79.1337403,84 L78.1257403,84 L78.1257403,80.004 C78.1257403,79.176 77.7537403,78.768 77.0097403,78.768 C76.5177403,78.768 76.0977403,79.02 75.7497403,79.536 C75.4017403,80.04 75.2337403,80.712 75.2337403,81.564 L75.2337403,84 L74.2257403,84 L74.2257403,77.952 L75.2337403,77.952 L75.2337403,79.068 C75.6777403,78.348 76.4577403,77.856 77.2857403,77.856 C78.5217403,77.856 79.1337403,78.588 79.1337403,79.788 Z M82.6737403,82.26 C82.6737403,82.836 83.0577403,83.184 83.6697403,83.184 C84.1497403,83.184 84.5937403,83.028 84.9897403,82.728 C85.3977403,82.416 85.6017403,81.948 85.6017403,81.336 L85.6017403,81.144 L84.2817403,81.144 C83.2617403,81.144 82.6737403,81.576 82.6737403,82.26 Z M86.6097403,80.184 L86.6097403,84 L85.7937403,84 L85.6497403,83.148 C85.2657403,83.712 84.4137403,84.096 83.5137403,84.096 C82.4457403,84.096 81.6417403,83.448 81.6417403,82.26 C81.6417403,80.952 82.6617403,80.28 84.3777403,80.28 L85.6017403,80.28 L85.6017403,80.016 C85.6017403,79.14 85.0257403,78.768 84.2097403,78.768 C83.5257403,78.768 82.9737403,79.188 82.7817403,79.8 L81.8937403,79.56 C82.1697403,78.516 83.0937403,77.856 84.2097403,77.856 C85.6977403,77.856 86.6097403,78.588 86.6097403,80.184 Z M94.8057403,79.488 L94.8057403,84 L93.7977403,84 L93.7977403,79.704 C93.7977403,79.044 93.6057403,78.78 93.1377403,78.78 C92.5137403,78.78 92.0697403,79.56 92.0697403,81.156 L92.0697403,84 L91.0617403,84 L91.0617403,79.704 C91.0617403,79.044 90.8697403,78.78 90.4017403,78.78 C89.7777403,78.78 89.3337403,79.56 89.3337403,81.156 L89.3337403,84 L88.3257403,84 L88.3257403,77.952 L89.3337403,77.952 L89.3337403,78.72 C89.6937403,78.144 90.1617403,77.856 90.7497403,77.856 C91.3977403,77.856 91.8177403,78.18 91.9977403,78.84 C92.3217403,78.252 92.8617403,77.856 93.4857403,77.856 C94.2897403,77.856 94.8057403,78.384 94.8057403,79.488 Z M97.5897403,78.864 L95.9817403,78.864 L95.9817403,77.952 L97.5897403,77.952 L97.5897403,76.14 L98.5977403,75.504 L98.5977403,77.952 L101.54974,77.952 L101.54974,78.864 L98.5977403,78.864 L98.5977403,81.96 C98.5977403,82.776 98.9457403,83.184 99.6417403,83.184 C100.18174,83.184 100.67374,82.944 101.12974,82.464 L101.50174,83.316 C100.98574,83.832 100.36174,84.096 99.6417403,84.096 C98.3097403,84.096 97.5897403,83.388 97.5897403,81.996 L97.5897403,78.864 Z M105.04174,81.72 L105.04174,76.512 L103.37374,76.512 L103.37374,75.6 L106.04974,75.6 L106.04974,81.72 C106.04974,82.692 106.46974,83.184 107.32174,83.184 C108.10174,83.184 108.56974,82.692 108.72574,81.72 L109.63774,81.9 C109.43374,83.34 108.58174,84.096 107.32174,84.096 C105.91774,84.096 105.04174,83.22 105.04174,81.72 Z M113.46574,78.84 L111.61774,78.84 L111.61774,77.952 L114.47374,77.952 L114.47374,83.112 L116.70574,83.112 L116.70574,84 L111.37774,84 L111.37774,83.112 L113.46574,83.112 L113.46574,78.84 Z M113.06974,76.344 C113.06974,75.876 113.42974,75.504 113.89774,75.504 C114.36574,75.504 114.72574,75.876 114.72574,76.344 C114.72574,76.812 114.36574,77.16 113.89774,77.16 C113.42974,77.16 113.06974,76.788 113.06974,76.344 Z M123.14974,82.068 L124.02574,82.428 C123.53374,83.544 122.68174,84.096 121.46974,84.096 C120.58174,84.096 119.87374,83.796 119.35774,83.184 C118.84174,82.572 118.57774,81.84 118.57774,80.976 C118.57774,80.112 118.84174,79.38 119.35774,78.768 C119.87374,78.156 120.58174,77.856 121.46974,77.856 C122.68174,77.856 123.53374,78.408 124.02574,79.524 L123.14974,79.884 C122.82574,79.14 122.27374,78.768 121.46974,78.768 C120.30574,78.768 119.60974,79.68 119.60974,80.976 C119.60974,82.272 120.30574,83.184 121.46974,83.184 C122.27374,83.184 122.82574,82.812 123.14974,82.068 Z M131.29774,79.824 L131.29774,84 L130.28974,84 L130.28974,80.04 C130.28974,79.188 129.91774,78.768 129.17374,78.768 C128.65774,78.768 128.21374,79.008 127.82974,79.5 C127.44574,79.992 127.25374,80.64 127.25374,81.468 L127.25374,84 L126.24574,84 L126.24574,75.504 L127.25374,75.504 L127.25374,79.068 C127.73374,78.36 128.54974,77.856 129.44974,77.856 C130.68574,77.856 131.29774,78.516 131.29774,79.824 Z M139.06174,80.772 L139.06174,81.192 L134.33374,81.192 C134.39374,82.392 135.12574,83.184 136.19374,83.184 C137.05774,83.184 137.70574,82.788 138.13774,81.984 L138.94174,82.404 C138.35374,83.532 137.44174,84.096 136.19374,84.096 C135.32974,84.096 134.63374,83.796 134.09374,83.208 C133.56574,82.62 133.30174,81.876 133.30174,80.976 C133.30174,80.1 133.56574,79.356 134.08174,78.756 C134.60974,78.156 135.31774,77.856 136.19374,77.856 C137.09374,77.856 137.80174,78.132 138.30574,78.696 C138.80974,79.248 139.06174,79.944 139.06174,80.772 Z M136.19374,78.768 C135.24574,78.768 134.60974,79.332 134.40574,80.28 L137.99374,80.28 C137.81374,79.32 137.16574,78.768 136.19374,78.768 Z M147.49774,84 L150.48574,75.6 L151.49374,75.6 L154.48174,84 L153.38974,84 L152.63374,81.756 L149.34574,81.756 L148.58974,84 L147.49774,84 Z M152.28574,80.748 L150.98974,76.968 L149.69374,80.748 L152.28574,80.748 Z M161.41774,79.872 L160.40974,79.872 C160.32574,79.14 159.92974,78.768 159.24574,78.768 C158.68174,78.768 158.18974,79.032 157.79374,79.572 C157.39774,80.1 157.19374,80.844 157.19374,81.816 L157.19374,84 L156.18574,84 L156.18574,77.952 L157.19374,77.952 L157.19374,79.068 C157.70974,78.264 158.45374,77.856 159.42574,77.856 C160.62574,77.856 161.35774,78.576 161.41774,79.872 Z M166.20574,84.096 C165.42574,84.096 164.72974,83.712 164.35774,83.196 L164.35774,84 L163.34974,84 L163.34974,75.504 L164.35774,75.504 L164.35774,78.72 C164.72974,78.228 165.40174,77.856 166.20574,77.856 C167.94574,77.856 168.97774,79.092 168.97774,80.976 C168.97774,82.86 167.94574,84.096 166.20574,84.096 Z M167.45374,82.572 C167.77774,82.164 167.94574,81.636 167.94574,80.976 C167.94574,80.316 167.77774,79.788 167.45374,79.38 C167.12974,78.972 166.67374,78.768 166.10974,78.768 C165.54574,78.768 165.08974,78.972 164.76574,79.38 C164.44174,79.788 164.27374,80.316 164.27374,80.976 C164.27374,81.636 164.44174,82.164 164.76574,82.572 C165.08974,82.98 165.54574,83.184 166.10974,83.184 C166.67374,83.184 167.12974,82.98 167.45374,82.572 Z M176.26174,80.772 L176.26174,81.192 L171.53374,81.192 C171.59374,82.392 172.32574,83.184 173.39374,83.184 C174.25774,83.184 174.90574,82.788 175.33774,81.984 L176.14174,82.404 C175.55374,83.532 174.64174,84.096 173.39374,84.096 C172.52974,84.096 171.83374,83.796 171.29374,83.208 C170.76574,82.62 170.50174,81.876 170.50174,80.976 C170.50174,80.1 170.76574,79.356 171.28174,78.756 C171.80974,78.156 172.51774,77.856 173.39374,77.856 C174.29374,77.856 175.00174,78.132 175.50574,78.696 C176.00974,79.248 176.26174,79.944 176.26174,80.772 Z M173.39374,78.768 C172.44574,78.768 171.80974,79.332 171.60574,80.28 L175.19374,80.28 C175.01374,79.32 174.36574,78.768 173.39374,78.768 Z M180.42574,78.84 L178.57774,78.84 L178.57774,77.952 L181.43374,77.952 L181.43374,83.112 L183.66574,83.112 L183.66574,84 L178.33774,84 L178.33774,83.112 L180.42574,83.112 L180.42574,78.84 Z M180.02974,76.344 C180.02974,75.876 180.38974,75.504 180.85774,75.504 C181.32574,75.504 181.68574,75.876 181.68574,76.344 C181.68574,76.812 181.32574,77.16 180.85774,77.16 C180.38974,77.16 180.02974,76.788 180.02974,76.344 Z M186.86974,78.864 L185.26174,78.864 L185.26174,77.952 L186.86974,77.952 L186.86974,76.14 L187.87774,75.504 L187.87774,77.952 L190.82974,77.952 L190.82974,78.864 L187.87774,78.864 L187.87774,81.96 C187.87774,82.776 188.22574,83.184 188.92174,83.184 C189.46174,83.184 189.95374,82.944 190.40974,82.464 L190.78174,83.316 C190.26574,83.832 189.64174,84.096 188.92174,84.096 C187.58974,84.096 186.86974,83.388 186.86974,81.996 L186.86974,78.864 Z" id="ehrenamtliche-Arbeit" fill="#444F5A"></path>
                        </g>
                    </g>
                </g>
            </g>
        </g>
    </g>
</svg>