<?xml version="1.0" encoding="UTF-8"?>
<svg width="490px" height="127px" viewBox="0 0 490 127" version="1.1" xmlns="http://www.w3.org/2000/svg" xmlns:xlink="http://www.w3.org/1999/xlink">
    <!-- Generator: Sketch 50.2 (55047) - http://www.bohemiancoding.com/sketch -->
    <title>Group 5</title>
    <desc>Created with Sketch.</desc>
    <defs></defs>
    <g id="Ressourcen" stroke="none" stroke-width="1" fill="none" fill-rule="evenodd">
        <g id="PTF" transform="translate(-615.000000, -498.000000)">
            <g id="Group-5" transform="translate(615.000000, 498.000000)">
                <g id="Group-7">
                    <g id="Group-4">
                        <g id="Group-6">
                            <rect id="Rectangle-3" fill="#F1F1F1" x="0" y="0" width="239" height="127"></rect>
                            <path d="M91.42,44.4 L92.624,44.4 L92.624,64 L89.656,64 L89.656,48.6 L85.988,50.784 L85.988,47.648 L91.42,44.4 Z M103.936,44.176 C108.556,44.176 110.992,48.012 110.992,54.2 C110.992,60.388 108.556,64.224 103.936,64.224 C99.316,64.224 96.88,60.388 96.88,54.2 C96.88,48.012 99.316,44.176 103.936,44.176 Z M103.936,46.864 C101.164,46.864 99.848,49.608 99.848,54.2 C99.848,58.792 101.164,61.536 103.936,61.536 C106.708,61.536 108.024,58.792 108.024,54.2 C108.024,49.608 106.708,46.864 103.936,46.864 Z M121.632,44.176 C126.252,44.176 128.688,48.012 128.688,54.2 C128.688,60.388 126.252,64.224 121.632,64.224 C117.012,64.224 114.576,60.388 114.576,54.2 C114.576,48.012 117.012,44.176 121.632,44.176 Z M121.632,46.864 C118.86,46.864 117.544,49.608 117.544,54.2 C117.544,58.792 118.86,61.536 121.632,61.536 C124.404,61.536 125.72,58.792 125.72,54.2 C125.72,49.608 124.404,46.864 121.632,46.864 Z M132.02,48.656 C132.02,46.164 134.008,44.176 136.556,44.176 C139.104,44.176 141.092,46.164 141.092,48.656 C141.092,51.148 139.104,53.136 136.556,53.136 C134.008,53.136 132.02,51.148 132.02,48.656 Z M134.484,48.656 C134.484,49.888 135.268,50.812 136.556,50.812 C137.844,50.812 138.628,49.888 138.628,48.656 C138.628,47.424 137.844,46.5 136.556,46.5 C135.268,46.5 134.484,47.424 134.484,48.656 Z M143.388,59.744 C143.388,57.252 145.376,55.264 147.924,55.264 C150.472,55.264 152.46,57.252 152.46,59.744 C152.46,62.236 150.472,64.224 147.924,64.224 C145.376,64.224 143.388,62.236 143.388,59.744 Z M145.852,59.744 C145.852,60.976 146.636,61.9 147.924,61.9 C149.212,61.9 149.996,60.976 149.996,59.744 C149.996,58.512 149.212,57.588 147.924,57.588 C146.636,57.588 145.852,58.512 145.852,59.744 Z M149.156,43.476 L150.78,44.736 L135.688,64.896 L134.064,63.636 L149.156,43.476 Z" id="100%" fill="#444F5A"></path>
                            <path d="M75.952,84 L75.952,75.6 L81.196,75.6 L81.196,76.608 L77.008,76.608 L77.008,79.116 L80.608,79.116 L80.608,80.124 L77.008,80.124 L77.008,84 L75.952,84 Z M85.696,78.84 L83.848,78.84 L83.848,77.952 L86.704,77.952 L86.704,83.112 L88.936,83.112 L88.936,84 L83.608,84 L83.608,83.112 L85.696,83.112 L85.696,78.84 Z M85.3,76.344 C85.3,75.876 85.66,75.504 86.128,75.504 C86.596,75.504 86.956,75.876 86.956,76.344 C86.956,76.812 86.596,77.16 86.128,77.16 C85.66,77.16 85.3,76.788 85.3,76.344 Z M96.004,79.788 L96.004,84 L94.996,84 L94.996,80.004 C94.996,79.176 94.624,78.768 93.88,78.768 C93.388,78.768 92.968,79.02 92.62,79.536 C92.272,80.04 92.104,80.712 92.104,81.564 L92.104,84 L91.096,84 L91.096,77.952 L92.104,77.952 L92.104,79.068 C92.548,78.348 93.328,77.856 94.156,77.856 C95.392,77.856 96.004,78.588 96.004,79.788 Z M99.544,82.26 C99.544,82.836 99.928,83.184 100.54,83.184 C101.02,83.184 101.464,83.028 101.86,82.728 C102.268,82.416 102.472,81.948 102.472,81.336 L102.472,81.144 L101.152,81.144 C100.132,81.144 99.544,81.576 99.544,82.26 Z M103.48,80.184 L103.48,84 L102.664,84 L102.52,83.148 C102.136,83.712 101.284,84.096 100.384,84.096 C99.316,84.096 98.512,83.448 98.512,82.26 C98.512,80.952 99.532,80.28 101.248,80.28 L102.472,80.28 L102.472,80.016 C102.472,79.14 101.896,78.768 101.08,78.768 C100.396,78.768 99.844,79.188 99.652,79.8 L98.764,79.56 C99.04,78.516 99.964,77.856 101.08,77.856 C102.568,77.856 103.48,78.588 103.48,80.184 Z M110.884,79.788 L110.884,84 L109.876,84 L109.876,80.004 C109.876,79.176 109.504,78.768 108.76,78.768 C108.268,78.768 107.848,79.02 107.5,79.536 C107.152,80.04 106.984,80.712 106.984,81.564 L106.984,84 L105.976,84 L105.976,77.952 L106.984,77.952 L106.984,79.068 C107.428,78.348 108.208,77.856 109.036,77.856 C110.272,77.856 110.884,78.588 110.884,79.788 Z M116.548,78.864 L113.536,78.864 L113.536,77.952 L118.072,77.952 L118.072,78.384 L114.868,83.088 L118.216,83.088 L118.216,84 L113.38,84 L113.38,83.568 L116.548,78.864 Z M122.896,78.84 L121.048,78.84 L121.048,77.952 L123.904,77.952 L123.904,83.112 L126.136,83.112 L126.136,84 L120.808,84 L120.808,83.112 L122.896,83.112 L122.896,78.84 Z M122.5,76.344 C122.5,75.876 122.86,75.504 123.328,75.504 C123.796,75.504 124.156,75.876 124.156,76.344 C124.156,76.812 123.796,77.16 123.328,77.16 C122.86,77.16 122.5,76.788 122.5,76.344 Z M133.612,80.772 L133.612,81.192 L128.884,81.192 C128.944,82.392 129.676,83.184 130.744,83.184 C131.608,83.184 132.256,82.788 132.688,81.984 L133.492,82.404 C132.904,83.532 131.992,84.096 130.744,84.096 C129.88,84.096 129.184,83.796 128.644,83.208 C128.116,82.62 127.852,81.876 127.852,80.976 C127.852,80.1 128.116,79.356 128.632,78.756 C129.16,78.156 129.868,77.856 130.744,77.856 C131.644,77.856 132.352,78.132 132.856,78.696 C133.36,79.248 133.612,79.944 133.612,80.772 Z M130.744,78.768 C129.796,78.768 129.16,79.332 128.956,80.28 L132.544,80.28 C132.364,79.32 131.716,78.768 130.744,78.768 Z M141.088,79.872 L140.08,79.872 C139.996,79.14 139.6,78.768 138.916,78.768 C138.352,78.768 137.86,79.032 137.464,79.572 C137.068,80.1 136.864,80.844 136.864,81.816 L136.864,84 L135.856,84 L135.856,77.952 L136.864,77.952 L136.864,79.068 C137.38,78.264 138.124,77.856 139.096,77.856 C140.296,77.856 141.028,78.576 141.088,79.872 Z M143.056,82.164 L143.056,77.952 L144.064,77.952 L144.064,81.948 C144.064,82.776 144.436,83.184 145.18,83.184 C145.672,83.184 146.092,82.932 146.44,82.428 C146.788,81.912 146.956,81.24 146.956,80.388 L146.956,77.952 L147.964,77.952 L147.964,84 L146.956,84 L146.956,82.884 C146.512,83.604 145.732,84.096 144.904,84.096 C143.668,84.096 143.056,83.364 143.056,82.164 Z M155.524,79.788 L155.524,84 L154.516,84 L154.516,80.004 C154.516,79.176 154.144,78.768 153.4,78.768 C152.908,78.768 152.488,79.02 152.14,79.536 C151.792,80.04 151.624,80.712 151.624,81.564 L151.624,84 L150.616,84 L150.616,77.952 L151.624,77.952 L151.624,79.068 C152.068,78.348 152.848,77.856 153.676,77.856 C154.912,77.856 155.524,78.588 155.524,79.788 Z M158.404,79.884 C158.404,79.272 158.608,78.78 159.004,78.408 C159.412,78.036 159.928,77.856 160.54,77.856 C160.972,77.856 161.368,77.964 161.728,78.168 L162.988,77.52 L163.444,78.348 L162.424,78.876 C162.592,79.164 162.676,79.5 162.676,79.884 C162.676,80.496 162.472,80.988 162.076,81.36 C161.68,81.732 161.164,81.912 160.54,81.912 C160.12,81.912 159.748,81.828 159.424,81.66 C159.052,81.804 158.872,82.008 158.872,82.284 C158.872,82.62 159.16,82.788 159.724,82.788 L161.296,82.788 C162.592,82.788 163.324,83.364 163.324,84.456 C163.324,85.164 163.048,85.68 162.496,86.028 C161.944,86.376 161.272,86.544 160.492,86.544 C158.728,86.544 157.696,85.848 157.696,84.552 C157.696,84.012 157.9,83.58 158.32,83.256 C158.032,83.028 157.888,82.728 157.888,82.332 C157.888,81.792 158.212,81.324 158.776,81.12 C158.524,80.784 158.404,80.376 158.404,79.884 Z M161.272,83.652 L159.844,83.652 C159.592,83.652 159.388,83.64 159.22,83.604 C158.872,83.784 158.704,84.084 158.704,84.516 C158.704,85.224 159.4,85.656 160.492,85.656 C161.632,85.656 162.292,85.236 162.292,84.552 C162.292,83.952 161.956,83.652 161.272,83.652 Z M159.712,79.032 C159.496,79.236 159.388,79.524 159.388,79.884 C159.388,80.244 159.496,80.532 159.712,80.736 C159.94,80.94 160.216,81.048 160.54,81.048 C160.864,81.048 161.14,80.952 161.356,80.748 C161.584,80.544 161.692,80.256 161.692,79.884 C161.692,79.512 161.584,79.236 161.356,79.032 C161.14,78.828 160.864,78.72 160.54,78.72 C160.216,78.72 159.94,78.828 159.712,79.032 Z" id="Finanzierung" fill="#444F5A"></path>
                            <rect id="Rectangle-3" fill="#F1F1F1" x="251" y="0" width="239" height="127"></rect>
                            <path d="M305.539351,64 L305.539351,62.768 L312.763351,53.5 C314.023351,51.904 314.331351,51.036 314.331351,49.86 C314.331351,48.068 313.435351,46.864 311.643351,46.864 C309.935351,46.864 308.955351,48.096 308.731351,49.86 L305.931351,49.328 C306.127351,46.416 308.479351,44.176 311.643351,44.176 C314.947351,44.176 317.327351,46.248 317.327351,49.748 C317.327351,51.26 316.823351,52.8 315.703351,54.228 L310.131351,61.312 L317.691351,61.312 L317.691351,64 L305.539351,64 Z M324.187351,59.996 C325.335351,59.996 326.259351,60.892 326.259351,62.068 C326.259351,63.244 325.335351,64.14 324.187351,64.14 C323.039351,64.14 322.115351,63.244 322.115351,62.068 C322.115351,60.892 323.039351,59.996 324.187351,59.996 Z M330.291351,58.596 L333.175351,58.232 C333.511351,60.304 334.659351,61.536 336.703351,61.536 C338.719351,61.536 340.203351,60.22 340.203351,57.756 C340.203351,55.208 338.691351,53.92 336.703351,53.92 C336.115351,53.92 335.611351,54.032 334.995351,54.312 L333.819351,52.744 L337.879351,47.088 L331.243351,47.088 L331.243351,44.4 L342.163351,44.4 L342.163351,45.408 L337.403351,51.904 C337.627351,51.848 337.963351,51.82 338.215351,51.82 C341.239351,51.82 343.171351,54.34 343.171351,57.756 C343.171351,61.508 340.315351,64.224 336.703351,64.224 C333.343351,64.224 330.515351,61.872 330.291351,58.596 Z M355.043351,64 L355.043351,60.08 L346.587351,60.08 L346.587351,58.736 L354.875351,44.4 L358.011351,44.4 L358.011351,57.392 L360.307351,57.392 L360.307351,60.08 L358.011351,60.08 L358.011351,64 L355.043351,64 Z M350.283351,57.392 L355.043351,57.392 L355.043351,48.88 L350.283351,57.392 Z M363.835351,64 L363.835351,62.768 L371.059351,53.5 C372.319351,51.904 372.627351,51.036 372.627351,49.86 C372.627351,48.068 371.731351,46.864 369.939351,46.864 C368.231351,46.864 367.251351,48.096 367.027351,49.86 L364.227351,49.328 C364.423351,46.416 366.775351,44.176 369.939351,44.176 C373.243351,44.176 375.623351,46.248 375.623351,49.748 C375.623351,51.26 375.119351,52.8 373.999351,54.228 L368.427351,61.312 L375.987351,61.312 L375.987351,64 L363.835351,64 Z M382.483351,59.996 C383.631351,59.996 384.555351,60.892 384.555351,62.068 C384.555351,63.244 383.631351,64.14 382.483351,64.14 C381.335351,64.14 380.411351,63.244 380.411351,62.068 C380.411351,60.892 381.335351,59.996 382.483351,59.996 Z M388.839351,64 L388.839351,62.768 L396.063351,53.5 C397.323351,51.904 397.631351,51.036 397.631351,49.86 C397.631351,48.068 396.735351,46.864 394.943351,46.864 C393.235351,46.864 392.255351,48.096 392.031351,49.86 L389.231351,49.328 C389.427351,46.416 391.779351,44.176 394.943351,44.176 C398.247351,44.176 400.627351,46.248 400.627351,49.748 C400.627351,51.26 400.123351,52.8 399.003351,54.228 L393.431351,61.312 L400.991351,61.312 L400.991351,64 L388.839351,64 Z M411.323351,44.176 C414.599351,44.176 416.867351,46.556 416.867351,49.468 C416.867351,51.092 416.083351,52.492 414.907351,53.444 C416.503351,54.368 417.595351,55.992 417.595351,58.232 C417.595351,62.012 414.683351,64.224 411.323351,64.224 C407.963351,64.224 405.051351,62.012 405.051351,58.232 C405.051351,55.992 406.143351,54.368 407.739351,53.444 C406.535351,52.492 405.779351,51.092 405.779351,49.468 C405.779351,46.556 408.047351,44.176 411.323351,44.176 Z M411.323351,55.04 C409.503351,55.04 408.019351,56.16 408.019351,58.232 C408.019351,60.304 409.503351,61.536 411.323351,61.536 C413.143351,61.536 414.627351,60.304 414.627351,58.232 C414.627351,56.16 413.143351,55.04 411.323351,55.04 Z M411.323351,46.752 C409.783351,46.752 408.663351,47.928 408.663351,49.496 C408.663351,51.092 409.783351,52.268 411.323351,52.268 C412.863351,52.268 413.983351,51.092 413.983351,49.496 C413.983351,47.928 412.863351,46.752 411.323351,46.752 Z M429.775351,64 L429.775351,60.08 L421.319351,60.08 L421.319351,58.736 L429.607351,44.4 L432.743351,44.4 L432.743351,57.392 L435.039351,57.392 L435.039351,60.08 L432.743351,60.08 L432.743351,64 L429.775351,64 Z M425.015351,57.392 L429.775351,57.392 L429.775351,48.88 L425.015351,57.392 Z" id="2.342.284" fill="#444F5A"></path>
                            <path d="M328.74174,84 L328.74174,75.6 L331.69374,75.6 C333.19374,75.6 334.08174,76.38 334.08174,77.76 C334.08174,78.48 333.68574,79.104 333.12174,79.404 C333.94974,79.74 334.50174,80.496 334.50174,81.504 C334.50174,83.052 333.51774,84 331.88574,84 L328.74174,84 Z M331.72974,80.028 L329.79774,80.028 L329.79774,82.992 L331.72974,82.992 C332.84574,82.992 333.40974,82.5 333.40974,81.504 C333.40974,80.52 332.84574,80.028 331.72974,80.028 Z M331.66974,76.608 L329.79774,76.608 L329.79774,79.02 L331.66974,79.02 C332.48574,79.02 332.98974,78.6 332.98974,77.82 C332.98974,77.016 332.47374,76.608 331.66974,76.608 Z M336.26574,82.164 L336.26574,77.952 L337.27374,77.952 L337.27374,81.948 C337.27374,82.776 337.64574,83.184 338.38974,83.184 C338.88174,83.184 339.30174,82.932 339.64974,82.428 C339.99774,81.912 340.16574,81.24 340.16574,80.388 L340.16574,77.952 L341.17374,77.952 L341.17374,84 L340.16574,84 L340.16574,82.884 C339.72174,83.604 338.94174,84.096 338.11374,84.096 C336.87774,84.096 336.26574,83.364 336.26574,82.164 Z M346.08174,77.856 C346.88574,77.856 347.55774,78.228 347.92974,78.72 L347.92974,75.504 L348.93774,75.504 L348.93774,84 L347.92974,84 L347.92974,83.196 C347.55774,83.712 346.86174,84.096 346.08174,84.096 C344.34174,84.096 343.30974,82.86 343.30974,80.976 C343.30974,79.092 344.34174,77.856 346.08174,77.856 Z M344.83374,79.38 C344.50974,79.788 344.34174,80.316 344.34174,80.976 C344.34174,81.636 344.50974,82.164 344.83374,82.572 C345.15774,82.98 345.61374,83.184 346.17774,83.184 C346.74174,83.184 347.19774,82.98 347.52174,82.572 C347.84574,82.164 348.01374,81.636 348.01374,80.976 C348.01374,80.316 347.84574,79.788 347.52174,79.38 C347.19774,78.972 346.74174,78.768 346.17774,78.768 C345.61374,78.768 345.15774,78.972 344.83374,79.38 Z M351.61374,79.884 C351.61374,79.272 351.81774,78.78 352.21374,78.408 C352.62174,78.036 353.13774,77.856 353.74974,77.856 C354.18174,77.856 354.57774,77.964 354.93774,78.168 L356.19774,77.52 L356.65374,78.348 L355.63374,78.876 C355.80174,79.164 355.88574,79.5 355.88574,79.884 C355.88574,80.496 355.68174,80.988 355.28574,81.36 C354.88974,81.732 354.37374,81.912 353.74974,81.912 C353.32974,81.912 352.95774,81.828 352.63374,81.66 C352.26174,81.804 352.08174,82.008 352.08174,82.284 C352.08174,82.62 352.36974,82.788 352.93374,82.788 L354.50574,82.788 C355.80174,82.788 356.53374,83.364 356.53374,84.456 C356.53374,85.164 356.25774,85.68 355.70574,86.028 C355.15374,86.376 354.48174,86.544 353.70174,86.544 C351.93774,86.544 350.90574,85.848 350.90574,84.552 C350.90574,84.012 351.10974,83.58 351.52974,83.256 C351.24174,83.028 351.09774,82.728 351.09774,82.332 C351.09774,81.792 351.42174,81.324 351.98574,81.12 C351.73374,80.784 351.61374,80.376 351.61374,79.884 Z M354.48174,83.652 L353.05374,83.652 C352.80174,83.652 352.59774,83.64 352.42974,83.604 C352.08174,83.784 351.91374,84.084 351.91374,84.516 C351.91374,85.224 352.60974,85.656 353.70174,85.656 C354.84174,85.656 355.50174,85.236 355.50174,84.552 C355.50174,83.952 355.16574,83.652 354.48174,83.652 Z M352.92174,79.032 C352.70574,79.236 352.59774,79.524 352.59774,79.884 C352.59774,80.244 352.70574,80.532 352.92174,80.736 C353.14974,80.94 353.42574,81.048 353.74974,81.048 C354.07374,81.048 354.34974,80.952 354.56574,80.748 C354.79374,80.544 354.90174,80.256 354.90174,79.884 C354.90174,79.512 354.79374,79.236 354.56574,79.032 C354.34974,78.828 354.07374,78.72 353.74974,78.72 C353.42574,78.72 353.14974,78.828 352.92174,79.032 Z M364.02174,80.772 L364.02174,81.192 L359.29374,81.192 C359.35374,82.392 360.08574,83.184 361.15374,83.184 C362.01774,83.184 362.66574,82.788 363.09774,81.984 L363.90174,82.404 C363.31374,83.532 362.40174,84.096 361.15374,84.096 C360.28974,84.096 359.59374,83.796 359.05374,83.208 C358.52574,82.62 358.26174,81.876 358.26174,80.976 C358.26174,80.1 358.52574,79.356 359.04174,78.756 C359.56974,78.156 360.27774,77.856 361.15374,77.856 C362.05374,77.856 362.76174,78.132 363.26574,78.696 C363.76974,79.248 364.02174,79.944 364.02174,80.772 Z M361.15374,78.768 C360.20574,78.768 359.56974,79.332 359.36574,80.28 L362.95374,80.28 C362.77374,79.32 362.12574,78.768 361.15374,78.768 Z M367.18974,78.864 L365.58174,78.864 L365.58174,77.952 L367.18974,77.952 L367.18974,76.14 L368.19774,75.504 L368.19774,77.952 L371.14974,77.952 L371.14974,78.864 L368.19774,78.864 L368.19774,81.96 C368.19774,82.776 368.54574,83.184 369.24174,83.184 C369.78174,83.184 370.27374,82.944 370.72974,82.464 L371.10174,83.316 C370.58574,83.832 369.96174,84.096 369.24174,84.096 C367.90974,84.096 367.18974,83.388 367.18974,81.996 L367.18974,78.864 Z M386.28174,84 L381.09774,84 L381.09774,83.532 L384.40974,79.428 C384.93774,78.768 385.09374,78.372 385.09374,77.832 C385.09374,77.436 384.98574,77.124 384.78174,76.872 C384.55374,76.596 384.21774,76.464 383.77374,76.464 C382.99374,76.464 382.42974,77.076 382.29774,77.988 L381.27774,77.796 C381.33774,77.136 381.61374,76.596 382.09374,76.164 C382.57374,75.72 383.13774,75.504 383.77374,75.504 C384.55374,75.504 385.16574,75.744 385.59774,76.236 C385.94574,76.632 386.12574,77.172 386.12574,77.832 C386.12574,78.48 385.89774,79.092 385.45374,79.656 L382.74174,83.04 L386.28174,83.04 L386.28174,84 Z M393.08574,82.944 C392.54574,83.712 391.80174,84.096 390.82974,84.096 C389.85774,84.096 389.10174,83.712 388.56174,82.944 C388.02174,82.164 387.75774,81.12 387.75774,79.8 C387.75774,78.48 388.02174,77.436 388.56174,76.668 C389.10174,75.888 389.85774,75.504 390.82974,75.504 C391.80174,75.504 392.54574,75.888 393.08574,76.668 C393.62574,77.436 393.90174,78.48 393.90174,79.8 C393.90174,81.12 393.62574,82.164 393.08574,82.944 Z M388.81374,79.8 C388.81374,80.724 388.95774,81.492 389.25774,82.08 L391.75374,76.74 C391.47774,76.56 391.17774,76.464 390.82974,76.464 C389.54574,76.464 388.81374,77.736 388.81374,79.8 Z M390.82974,83.136 C392.11374,83.136 392.84574,81.864 392.84574,79.8 C392.84574,78.852 392.70174,78.096 392.40174,77.52 L389.90574,82.86 C390.18174,83.04 390.48174,83.136 390.82974,83.136 Z M396.01374,77.256 L398.73774,75.6 L399.12174,75.6 L399.12174,83.088 L401.28174,83.088 L401.28174,84 L395.95374,84 L395.95374,83.088 L398.11374,83.088 L398.11374,77.112 L396.01374,78.36 L396.01374,77.256 Z M408.02574,77.748 C408.02574,78.456 407.62974,79.176 407.06574,79.476 C407.83374,79.824 408.31374,80.58 408.31374,81.588 C408.31374,82.356 408.06174,82.968 407.55774,83.424 C407.05374,83.868 406.44174,84.096 405.70974,84.096 C404.97774,84.096 404.36574,83.868 403.86174,83.424 C403.35774,82.968 403.10574,82.356 403.10574,81.588 C403.10574,80.58 403.58574,79.824 404.35374,79.476 C403.78974,79.176 403.39374,78.456 403.39374,77.748 C403.39374,77.112 403.60974,76.584 404.04174,76.152 C404.48574,75.72 405.03774,75.504 405.70974,75.504 C406.38174,75.504 406.93374,75.72 407.36574,76.152 C407.80974,76.584 408.02574,77.112 408.02574,77.748 Z M406.82574,80.46 C406.53774,80.184 406.16574,80.04 405.70974,80.04 C405.25374,80.04 404.88174,80.184 404.59374,80.46 C404.30574,80.736 404.16174,81.12 404.16174,81.588 C404.16174,82.056 404.30574,82.44 404.59374,82.716 C404.88174,82.992 405.25374,83.136 405.70974,83.136 C406.16574,83.136 406.53774,82.992 406.82574,82.716 C407.11374,82.44 407.25774,82.056 407.25774,81.588 C407.25774,81.12 407.11374,80.736 406.82574,80.46 Z M406.64574,76.788 C406.41774,76.536 406.10574,76.416 405.70974,76.416 C405.31374,76.416 405.00174,76.536 404.77374,76.788 C404.54574,77.04 404.42574,77.352 404.42574,77.748 C404.42574,78.144 404.54574,78.456 404.77374,78.708 C405.00174,78.96 405.31374,79.08 405.70974,79.08 C406.10574,79.08 406.41774,78.96 406.64574,78.708 C406.87374,78.456 406.99374,78.144 406.99374,77.748 C406.99374,77.352 406.87374,77.04 406.64574,76.788 Z" id="Budget-2018" fill="#444F5A"></path>
                        </g>
                    </g>
                </g>
            </g>
        </g>
    </g>
</svg>