<?xml version="1.0" encoding="UTF-8"?>
<svg width="490px" height="266px" viewBox="0 0 490 266" version="1.1" xmlns="http://www.w3.org/2000/svg" xmlns:xlink="http://www.w3.org/1999/xlink">
    <!-- Generator: Sketch 50.2 (55047) - http://www.bohemiancoding.com/sketch -->
    <title>Group 2</title>
    <desc>Created with Sketch.</desc>
    <defs></defs>
    <g id="Ressourcen" stroke="none" stroke-width="1" fill="none" fill-rule="evenodd">
        <g id="Turing-Bus" transform="translate(-621.000000, -348.000000)">
            <g id="Group-2" transform="translate(621.000000, 348.000000)">
                <rect id="Rectangle-3" fill="#F1F1F1" x="0" y="0" width="239" height="127"></rect>
                <path d="M91.42,44.4 L92.624,44.4 L92.624,64 L89.656,64 L89.656,48.6 L85.988,50.784 L85.988,47.648 L91.42,44.4 Z M103.936,44.176 C108.556,44.176 110.992,48.012 110.992,54.2 C110.992,60.388 108.556,64.224 103.936,64.224 C99.316,64.224 96.88,60.388 96.88,54.2 C96.88,48.012 99.316,44.176 103.936,44.176 Z M103.936,46.864 C101.164,46.864 99.848,49.608 99.848,54.2 C99.848,58.792 101.164,61.536 103.936,61.536 C106.708,61.536 108.024,58.792 108.024,54.2 C108.024,49.608 106.708,46.864 103.936,46.864 Z M121.632,44.176 C126.252,44.176 128.688,48.012 128.688,54.2 C128.688,60.388 126.252,64.224 121.632,64.224 C117.012,64.224 114.576,60.388 114.576,54.2 C114.576,48.012 117.012,44.176 121.632,44.176 Z M121.632,46.864 C118.86,46.864 117.544,49.608 117.544,54.2 C117.544,58.792 118.86,61.536 121.632,61.536 C124.404,61.536 125.72,58.792 125.72,54.2 C125.72,49.608 124.404,46.864 121.632,46.864 Z M132.02,48.656 C132.02,46.164 134.008,44.176 136.556,44.176 C139.104,44.176 141.092,46.164 141.092,48.656 C141.092,51.148 139.104,53.136 136.556,53.136 C134.008,53.136 132.02,51.148 132.02,48.656 Z M134.484,48.656 C134.484,49.888 135.268,50.812 136.556,50.812 C137.844,50.812 138.628,49.888 138.628,48.656 C138.628,47.424 137.844,46.5 136.556,46.5 C135.268,46.5 134.484,47.424 134.484,48.656 Z M143.388,59.744 C143.388,57.252 145.376,55.264 147.924,55.264 C150.472,55.264 152.46,57.252 152.46,59.744 C152.46,62.236 150.472,64.224 147.924,64.224 C145.376,64.224 143.388,62.236 143.388,59.744 Z M145.852,59.744 C145.852,60.976 146.636,61.9 147.924,61.9 C149.212,61.9 149.996,60.976 149.996,59.744 C149.996,58.512 149.212,57.588 147.924,57.588 C146.636,57.588 145.852,58.512 145.852,59.744 Z M149.156,43.476 L150.78,44.736 L135.688,64.896 L134.064,63.636 L149.156,43.476 Z" id="100%" fill="#444F5A"></path>
                <path d="M75.952,84 L75.952,75.6 L81.196,75.6 L81.196,76.608 L77.008,76.608 L77.008,79.116 L80.608,79.116 L80.608,80.124 L77.008,80.124 L77.008,84 L75.952,84 Z M85.696,78.84 L83.848,78.84 L83.848,77.952 L86.704,77.952 L86.704,83.112 L88.936,83.112 L88.936,84 L83.608,84 L83.608,83.112 L85.696,83.112 L85.696,78.84 Z M85.3,76.344 C85.3,75.876 85.66,75.504 86.128,75.504 C86.596,75.504 86.956,75.876 86.956,76.344 C86.956,76.812 86.596,77.16 86.128,77.16 C85.66,77.16 85.3,76.788 85.3,76.344 Z M96.004,79.788 L96.004,84 L94.996,84 L94.996,80.004 C94.996,79.176 94.624,78.768 93.88,78.768 C93.388,78.768 92.968,79.02 92.62,79.536 C92.272,80.04 92.104,80.712 92.104,81.564 L92.104,84 L91.096,84 L91.096,77.952 L92.104,77.952 L92.104,79.068 C92.548,78.348 93.328,77.856 94.156,77.856 C95.392,77.856 96.004,78.588 96.004,79.788 Z M99.544,82.26 C99.544,82.836 99.928,83.184 100.54,83.184 C101.02,83.184 101.464,83.028 101.86,82.728 C102.268,82.416 102.472,81.948 102.472,81.336 L102.472,81.144 L101.152,81.144 C100.132,81.144 99.544,81.576 99.544,82.26 Z M103.48,80.184 L103.48,84 L102.664,84 L102.52,83.148 C102.136,83.712 101.284,84.096 100.384,84.096 C99.316,84.096 98.512,83.448 98.512,82.26 C98.512,80.952 99.532,80.28 101.248,80.28 L102.472,80.28 L102.472,80.016 C102.472,79.14 101.896,78.768 101.08,78.768 C100.396,78.768 99.844,79.188 99.652,79.8 L98.764,79.56 C99.04,78.516 99.964,77.856 101.08,77.856 C102.568,77.856 103.48,78.588 103.48,80.184 Z M110.884,79.788 L110.884,84 L109.876,84 L109.876,80.004 C109.876,79.176 109.504,78.768 108.76,78.768 C108.268,78.768 107.848,79.02 107.5,79.536 C107.152,80.04 106.984,80.712 106.984,81.564 L106.984,84 L105.976,84 L105.976,77.952 L106.984,77.952 L106.984,79.068 C107.428,78.348 108.208,77.856 109.036,77.856 C110.272,77.856 110.884,78.588 110.884,79.788 Z M116.548,78.864 L113.536,78.864 L113.536,77.952 L118.072,77.952 L118.072,78.384 L114.868,83.088 L118.216,83.088 L118.216,84 L113.38,84 L113.38,83.568 L116.548,78.864 Z M122.896,78.84 L121.048,78.84 L121.048,77.952 L123.904,77.952 L123.904,83.112 L126.136,83.112 L126.136,84 L120.808,84 L120.808,83.112 L122.896,83.112 L122.896,78.84 Z M122.5,76.344 C122.5,75.876 122.86,75.504 123.328,75.504 C123.796,75.504 124.156,75.876 124.156,76.344 C124.156,76.812 123.796,77.16 123.328,77.16 C122.86,77.16 122.5,76.788 122.5,76.344 Z M133.612,80.772 L133.612,81.192 L128.884,81.192 C128.944,82.392 129.676,83.184 130.744,83.184 C131.608,83.184 132.256,82.788 132.688,81.984 L133.492,82.404 C132.904,83.532 131.992,84.096 130.744,84.096 C129.88,84.096 129.184,83.796 128.644,83.208 C128.116,82.62 127.852,81.876 127.852,80.976 C127.852,80.1 128.116,79.356 128.632,78.756 C129.16,78.156 129.868,77.856 130.744,77.856 C131.644,77.856 132.352,78.132 132.856,78.696 C133.36,79.248 133.612,79.944 133.612,80.772 Z M130.744,78.768 C129.796,78.768 129.16,79.332 128.956,80.28 L132.544,80.28 C132.364,79.32 131.716,78.768 130.744,78.768 Z M141.088,79.872 L140.08,79.872 C139.996,79.14 139.6,78.768 138.916,78.768 C138.352,78.768 137.86,79.032 137.464,79.572 C137.068,80.1 136.864,80.844 136.864,81.816 L136.864,84 L135.856,84 L135.856,77.952 L136.864,77.952 L136.864,79.068 C137.38,78.264 138.124,77.856 139.096,77.856 C140.296,77.856 141.028,78.576 141.088,79.872 Z M143.056,82.164 L143.056,77.952 L144.064,77.952 L144.064,81.948 C144.064,82.776 144.436,83.184 145.18,83.184 C145.672,83.184 146.092,82.932 146.44,82.428 C146.788,81.912 146.956,81.24 146.956,80.388 L146.956,77.952 L147.964,77.952 L147.964,84 L146.956,84 L146.956,82.884 C146.512,83.604 145.732,84.096 144.904,84.096 C143.668,84.096 143.056,83.364 143.056,82.164 Z M155.524,79.788 L155.524,84 L154.516,84 L154.516,80.004 C154.516,79.176 154.144,78.768 153.4,78.768 C152.908,78.768 152.488,79.02 152.14,79.536 C151.792,80.04 151.624,80.712 151.624,81.564 L151.624,84 L150.616,84 L150.616,77.952 L151.624,77.952 L151.624,79.068 C152.068,78.348 152.848,77.856 153.676,77.856 C154.912,77.856 155.524,78.588 155.524,79.788 Z M158.404,79.884 C158.404,79.272 158.608,78.78 159.004,78.408 C159.412,78.036 159.928,77.856 160.54,77.856 C160.972,77.856 161.368,77.964 161.728,78.168 L162.988,77.52 L163.444,78.348 L162.424,78.876 C162.592,79.164 162.676,79.5 162.676,79.884 C162.676,80.496 162.472,80.988 162.076,81.36 C161.68,81.732 161.164,81.912 160.54,81.912 C160.12,81.912 159.748,81.828 159.424,81.66 C159.052,81.804 158.872,82.008 158.872,82.284 C158.872,82.62 159.16,82.788 159.724,82.788 L161.296,82.788 C162.592,82.788 163.324,83.364 163.324,84.456 C163.324,85.164 163.048,85.68 162.496,86.028 C161.944,86.376 161.272,86.544 160.492,86.544 C158.728,86.544 157.696,85.848 157.696,84.552 C157.696,84.012 157.9,83.58 158.32,83.256 C158.032,83.028 157.888,82.728 157.888,82.332 C157.888,81.792 158.212,81.324 158.776,81.12 C158.524,80.784 158.404,80.376 158.404,79.884 Z M161.272,83.652 L159.844,83.652 C159.592,83.652 159.388,83.64 159.22,83.604 C158.872,83.784 158.704,84.084 158.704,84.516 C158.704,85.224 159.4,85.656 160.492,85.656 C161.632,85.656 162.292,85.236 162.292,84.552 C162.292,83.952 161.956,83.652 161.272,83.652 Z M159.712,79.032 C159.496,79.236 159.388,79.524 159.388,79.884 C159.388,80.244 159.496,80.532 159.712,80.736 C159.94,80.94 160.216,81.048 160.54,81.048 C160.864,81.048 161.14,80.952 161.356,80.748 C161.584,80.544 161.692,80.256 161.692,79.884 C161.692,79.512 161.584,79.236 161.356,79.032 C161.14,78.828 160.864,78.72 160.54,78.72 C160.216,78.72 159.94,78.828 159.712,79.032 Z" id="Finanzierung" fill="#444F5A"></path>
                <g id="Group-5" transform="translate(251.000000, 0.000000)">
                    <rect id="Rectangle-3" fill="#F1F1F1" x="0" y="0" width="239" height="127"></rect>
                    <text id="4.500€" font-family="ApercuPro-Medium, Apercu Pro" font-size="28" font-weight="400" line-spacing="22" fill="#444F5A">
                        <tspan x="69.2673506" y="60.088">4.500€</tspan>
                    </text>
                    <text id="Sachkosten" font-family="ApercuPro, Apercu Pro" font-size="12" font-weight="normal" line-spacing="14" fill="#444F5A">
                        <tspan x="88.0517403" y="83">Sachkosten</tspan>
                    </text>
                </g>
                <rect id="Rectangle-3" fill="#F1F1F1" x="251" y="0" width="239" height="127"></rect>
                <path d="M317.985351,58.596 L320.869351,58.232 C321.205351,60.304 322.353351,61.536 324.397351,61.536 C326.413351,61.536 327.897351,60.22 327.897351,57.756 C327.897351,55.208 326.385351,53.92 324.397351,53.92 C323.809351,53.92 323.305351,54.032 322.689351,54.312 L321.513351,52.744 L325.573351,47.088 L318.937351,47.088 L318.937351,44.4 L329.857351,44.4 L329.857351,45.408 L325.097351,51.904 C325.321351,51.848 325.657351,51.82 325.909351,51.82 C328.933351,51.82 330.865351,54.34 330.865351,57.756 C330.865351,61.508 328.009351,64.224 324.397351,64.224 C321.037351,64.224 318.209351,61.872 317.985351,58.596 Z M340.749351,56.944 C337.137351,56.944 334.645351,54.256 334.645351,50.56 C334.645351,46.976 337.277351,44.176 340.917351,44.176 C344.557351,44.176 347.189351,46.976 347.189351,50.56 C347.189351,51.876 346.825351,53.08 346.237351,54.116 L340.413351,64.224 L337.109351,64.224 L341.393351,56.832 C341.225351,56.916 340.945351,56.944 340.749351,56.944 Z M340.917351,54.256 C342.877351,54.256 344.221351,52.856 344.221351,50.56 C344.221351,48.404 342.849351,46.864 340.917351,46.864 C338.957351,46.864 337.613351,48.404 337.613351,50.56 C337.613351,52.856 338.957351,54.256 340.917351,54.256 Z M353.237351,59.996 C354.385351,59.996 355.309351,60.892 355.309351,62.068 C355.309351,63.244 354.385351,64.14 353.237351,64.14 C352.089351,64.14 351.165351,63.244 351.165351,62.068 C351.165351,60.892 352.089351,59.996 353.237351,59.996 Z M359.593351,64 L359.593351,62.768 L366.817351,53.5 C368.077351,51.904 368.385351,51.036 368.385351,49.86 C368.385351,48.068 367.489351,46.864 365.697351,46.864 C363.989351,46.864 363.009351,48.096 362.785351,49.86 L359.985351,49.328 C360.181351,46.416 362.533351,44.176 365.697351,44.176 C369.001351,44.176 371.381351,46.248 371.381351,49.748 C371.381351,51.26 370.877351,52.8 369.757351,54.228 L364.185351,61.312 L371.745351,61.312 L371.745351,64 L359.593351,64 Z M381.965351,56.944 C378.353351,56.944 375.861351,54.256 375.861351,50.56 C375.861351,46.976 378.493351,44.176 382.133351,44.176 C385.773351,44.176 388.405351,46.976 388.405351,50.56 C388.405351,51.876 388.041351,53.08 387.453351,54.116 L381.629351,64.224 L378.325351,64.224 L382.609351,56.832 C382.441351,56.916 382.161351,56.944 381.965351,56.944 Z M382.133351,54.256 C384.093351,54.256 385.437351,52.856 385.437351,50.56 C385.437351,48.404 384.065351,46.864 382.133351,46.864 C380.173351,46.864 378.829351,48.404 378.829351,50.56 C378.829351,52.856 380.173351,54.256 382.133351,54.256 Z M391.653351,58.596 L394.537351,58.232 C394.873351,60.304 396.021351,61.536 398.065351,61.536 C400.081351,61.536 401.565351,60.22 401.565351,57.756 C401.565351,55.208 400.053351,53.92 398.065351,53.92 C397.477351,53.92 396.973351,54.032 396.357351,54.312 L395.181351,52.744 L399.241351,47.088 L392.605351,47.088 L392.605351,44.4 L403.525351,44.4 L403.525351,45.408 L398.765351,51.904 C398.989351,51.848 399.325351,51.82 399.577351,51.82 C402.601351,51.82 404.533351,54.34 404.533351,57.756 C404.533351,61.508 401.677351,64.224 398.065351,64.224 C394.705351,64.224 391.877351,61.872 391.653351,58.596 Z M407.053351,53.36 L408.341351,50.784 L409.797351,50.784 C410.609351,46.36 413.465351,44.176 417.161351,44.176 C419.821351,44.176 421.809351,45.38 422.873351,47.368 L420.409351,48.768 C419.653351,47.536 418.757351,46.808 417.161351,46.808 C414.921351,46.808 413.353351,48.012 412.793351,50.784 L418.757351,50.784 L417.469351,53.36 L412.541351,53.36 L412.541351,55.04 L418.757351,55.04 L417.469351,57.616 L412.793351,57.616 C413.353351,60.416 414.921351,61.592 417.161351,61.592 C418.757351,61.592 419.653351,60.864 420.409351,59.632 L422.873351,61.032 C421.809351,63.02 419.821351,64.224 417.161351,64.224 C413.465351,64.224 410.609351,62.04 409.797351,57.616 L407.053351,57.616 L408.341351,55.04 L409.573351,55.04 L409.573351,53.36 L407.053351,53.36 Z" id="39.293€" fill="#444F5A"></path>
                <path d="M322.79774,80.4 L320.67374,80.4 L320.67374,84 L319.61774,84 L319.61774,75.6 L322.79774,75.6 C324.39374,75.6 325.29374,76.512 325.29374,78 C325.29374,79.488 324.39374,80.4 322.79774,80.4 Z M320.67374,79.392 L322.77374,79.392 C323.72174,79.392 324.20174,78.924 324.20174,78 C324.20174,77.076 323.72174,76.608 322.77374,76.608 L320.67374,76.608 L320.67374,79.392 Z M332.54174,80.772 L332.54174,81.192 L327.81374,81.192 C327.87374,82.392 328.60574,83.184 329.67374,83.184 C330.53774,83.184 331.18574,82.788 331.61774,81.984 L332.42174,82.404 C331.83374,83.532 330.92174,84.096 329.67374,84.096 C328.80974,84.096 328.11374,83.796 327.57374,83.208 C327.04574,82.62 326.78174,81.876 326.78174,80.976 C326.78174,80.1 327.04574,79.356 327.56174,78.756 C328.08974,78.156 328.79774,77.856 329.67374,77.856 C330.57374,77.856 331.28174,78.132 331.78574,78.696 C332.28974,79.248 332.54174,79.944 332.54174,80.772 Z M329.67374,78.768 C328.72574,78.768 328.08974,79.332 327.88574,80.28 L331.47374,80.28 C331.29374,79.32 330.64574,78.768 329.67374,78.768 Z M340.01774,79.872 L339.00974,79.872 C338.92574,79.14 338.52974,78.768 337.84574,78.768 C337.28174,78.768 336.78974,79.032 336.39374,79.572 C335.99774,80.1 335.79374,80.844 335.79374,81.816 L335.79374,84 L334.78574,84 L334.78574,77.952 L335.79374,77.952 L335.79374,79.068 C336.30974,78.264 337.05374,77.856 338.02574,77.856 C339.22574,77.856 339.95774,78.576 340.01774,79.872 Z M344.44574,77.856 C345.44174,77.856 346.17374,78.288 346.65374,79.164 L345.86174,79.728 C345.51374,79.092 345.02174,78.768 344.40974,78.768 C343.83374,78.768 343.36574,79.032 343.36574,79.572 C343.36574,80.064 343.80974,80.316 344.76974,80.508 C345.28574,80.616 345.60974,80.688 346.00574,80.868 C346.56974,81.108 346.94174,81.516 346.94174,82.152 C346.94174,82.752 346.71374,83.232 346.26974,83.58 C345.82574,83.928 345.27374,84.096 344.61374,84.096 C343.36574,84.096 342.35774,83.46 341.98574,82.344 L342.94574,81.984 C343.22174,82.74 343.79774,83.184 344.61374,83.184 C345.34574,83.184 345.89774,82.86 345.89774,82.248 C345.89774,81.768 345.44174,81.6 344.33774,81.36 C343.10174,81.108 342.38174,80.676 342.38174,79.608 C342.38174,79.08 342.58574,78.66 342.98174,78.336 C343.37774,78.012 343.86974,77.856 344.44574,77.856 Z M349.74974,83.184 C349.20974,82.572 348.93374,81.84 348.93374,80.976 C348.93374,80.112 349.20974,79.38 349.74974,78.768 C350.28974,78.156 351.00974,77.856 351.90974,77.856 C352.80974,77.856 353.52974,78.156 354.06974,78.768 C354.60974,79.38 354.88574,80.112 354.88574,80.976 C354.88574,81.84 354.60974,82.572 354.06974,83.184 C353.52974,83.796 352.80974,84.096 351.90974,84.096 C351.00974,84.096 350.28974,83.796 349.74974,83.184 Z M350.49374,79.416 C350.14574,79.848 349.96574,80.364 349.96574,80.976 C349.96574,81.588 350.14574,82.104 350.49374,82.536 C350.84174,82.968 351.32174,83.184 351.90974,83.184 C352.49774,83.184 352.97774,82.968 353.32574,82.536 C353.67374,82.104 353.85374,81.588 353.85374,80.976 C353.85374,80.364 353.67374,79.848 353.32574,79.416 C352.97774,78.984 352.49774,78.768 351.90974,78.768 C351.32174,78.768 350.84174,78.984 350.49374,79.416 Z M361.89374,79.788 L361.89374,84 L360.88574,84 L360.88574,80.004 C360.88574,79.176 360.51374,78.768 359.76974,78.768 C359.27774,78.768 358.85774,79.02 358.50974,79.536 C358.16174,80.04 357.99374,80.712 357.99374,81.564 L357.99374,84 L356.98574,84 L356.98574,77.952 L357.99374,77.952 L357.99374,79.068 C358.43774,78.348 359.21774,77.856 360.04574,77.856 C361.28174,77.856 361.89374,78.588 361.89374,79.788 Z M365.43374,82.26 C365.43374,82.836 365.81774,83.184 366.42974,83.184 C366.90974,83.184 367.35374,83.028 367.74974,82.728 C368.15774,82.416 368.36174,81.948 368.36174,81.336 L368.36174,81.144 L367.04174,81.144 C366.02174,81.144 365.43374,81.576 365.43374,82.26 Z M369.36974,80.184 L369.36974,84 L368.55374,84 L368.40974,83.148 C368.02574,83.712 367.17374,84.096 366.27374,84.096 C365.20574,84.096 364.40174,83.448 364.40174,82.26 C364.40174,80.952 365.42174,80.28 367.13774,80.28 L368.36174,80.28 L368.36174,80.016 C368.36174,79.14 367.78574,78.768 366.96974,78.768 C366.28574,78.768 365.73374,79.188 365.54174,79.8 L364.65374,79.56 C364.92974,78.516 365.85374,77.856 366.96974,77.856 C368.45774,77.856 369.36974,78.588 369.36974,80.184 Z M372.92174,81.72 L372.92174,76.512 L371.25374,76.512 L371.25374,75.6 L373.92974,75.6 L373.92974,81.72 C373.92974,82.692 374.34974,83.184 375.20174,83.184 C375.98174,83.184 376.44974,82.692 376.60574,81.72 L377.51774,81.9 C377.31374,83.34 376.46174,84.096 375.20174,84.096 C373.79774,84.096 372.92174,83.22 372.92174,81.72 Z M379.28174,84 L379.28174,75.504 L380.28974,75.504 L380.28974,80.484 L382.86974,77.952 L384.18974,77.952 L381.36974,80.724 L384.46574,84 L383.14574,84 L380.28974,80.964 L380.28974,84 L379.28174,84 Z M386.94974,83.184 C386.40974,82.572 386.13374,81.84 386.13374,80.976 C386.13374,80.112 386.40974,79.38 386.94974,78.768 C387.48974,78.156 388.20974,77.856 389.10974,77.856 C390.00974,77.856 390.72974,78.156 391.26974,78.768 C391.80974,79.38 392.08574,80.112 392.08574,80.976 C392.08574,81.84 391.80974,82.572 391.26974,83.184 C390.72974,83.796 390.00974,84.096 389.10974,84.096 C388.20974,84.096 387.48974,83.796 386.94974,83.184 Z M387.69374,79.416 C387.34574,79.848 387.16574,80.364 387.16574,80.976 C387.16574,81.588 387.34574,82.104 387.69374,82.536 C388.04174,82.968 388.52174,83.184 389.10974,83.184 C389.69774,83.184 390.17774,82.968 390.52574,82.536 C390.87374,82.104 391.05374,81.588 391.05374,80.976 C391.05374,80.364 390.87374,79.848 390.52574,79.416 C390.17774,78.984 389.69774,78.768 389.10974,78.768 C388.52174,78.768 388.04174,78.984 387.69374,79.416 Z M396.52574,77.856 C397.52174,77.856 398.25374,78.288 398.73374,79.164 L397.94174,79.728 C397.59374,79.092 397.10174,78.768 396.48974,78.768 C395.91374,78.768 395.44574,79.032 395.44574,79.572 C395.44574,80.064 395.88974,80.316 396.84974,80.508 C397.36574,80.616 397.68974,80.688 398.08574,80.868 C398.64974,81.108 399.02174,81.516 399.02174,82.152 C399.02174,82.752 398.79374,83.232 398.34974,83.58 C397.90574,83.928 397.35374,84.096 396.69374,84.096 C395.44574,84.096 394.43774,83.46 394.06574,82.344 L395.02574,81.984 C395.30174,82.74 395.87774,83.184 396.69374,83.184 C397.42574,83.184 397.97774,82.86 397.97774,82.248 C397.97774,81.768 397.52174,81.6 396.41774,81.36 C395.18174,81.108 394.46174,80.676 394.46174,79.608 C394.46174,79.08 394.66574,78.66 395.06174,78.336 C395.45774,78.012 395.94974,77.856 396.52574,77.856 Z M402.66974,78.864 L401.06174,78.864 L401.06174,77.952 L402.66974,77.952 L402.66974,76.14 L403.67774,75.504 L403.67774,77.952 L406.62974,77.952 L406.62974,78.864 L403.67774,78.864 L403.67774,81.96 C403.67774,82.776 404.02574,83.184 404.72174,83.184 C405.26174,83.184 405.75374,82.944 406.20974,82.464 L406.58174,83.316 C406.06574,83.832 405.44174,84.096 404.72174,84.096 C403.38974,84.096 402.66974,83.388 402.66974,81.996 L402.66974,78.864 Z M414.38174,80.772 L414.38174,81.192 L409.65374,81.192 C409.71374,82.392 410.44574,83.184 411.51374,83.184 C412.37774,83.184 413.02574,82.788 413.45774,81.984 L414.26174,82.404 C413.67374,83.532 412.76174,84.096 411.51374,84.096 C410.64974,84.096 409.95374,83.796 409.41374,83.208 C408.88574,82.62 408.62174,81.876 408.62174,80.976 C408.62174,80.1 408.88574,79.356 409.40174,78.756 C409.92974,78.156 410.63774,77.856 411.51374,77.856 C412.41374,77.856 413.12174,78.132 413.62574,78.696 C414.12974,79.248 414.38174,79.944 414.38174,80.772 Z M411.51374,78.768 C410.56574,78.768 409.92974,79.332 409.72574,80.28 L413.31374,80.28 C413.13374,79.32 412.48574,78.768 411.51374,78.768 Z M421.41374,79.788 L421.41374,84 L420.40574,84 L420.40574,80.004 C420.40574,79.176 420.03374,78.768 419.28974,78.768 C418.79774,78.768 418.37774,79.02 418.02974,79.536 C417.68174,80.04 417.51374,80.712 417.51374,81.564 L417.51374,84 L416.50574,84 L416.50574,77.952 L417.51374,77.952 L417.51374,79.068 C417.95774,78.348 418.73774,77.856 419.56574,77.856 C420.80174,77.856 421.41374,78.588 421.41374,79.788 Z" id="Personalkosten" fill="#444F5A"></path>
                <rect id="Rectangle-3" fill="#F1F1F1" x="0" y="139" width="239" height="127"></rect>
                <path d="M81.522,203 L81.522,199.08 L73.066,199.08 L73.066,197.736 L81.354,183.4 L84.49,183.4 L84.49,196.392 L86.786,196.392 L86.786,199.08 L84.49,199.08 L84.49,203 L81.522,203 Z M76.762,196.392 L81.522,196.392 L81.522,187.88 L76.762,196.392 Z M92.862,198.996 C94.01,198.996 94.934,199.892 94.934,201.068 C94.934,202.244 94.01,203.14 92.862,203.14 C91.714,203.14 90.79,202.244 90.79,201.068 C90.79,199.892 91.714,198.996 92.862,198.996 Z M99.414,197.876 L102.298,197.344 C102.634,199.668 103.95,200.536 105.518,200.536 C107.646,200.536 108.794,198.94 108.794,196.616 C108.794,194.32 107.73,192.696 105.518,192.696 C104.034,192.696 102.69,193.48 101.766,194.712 L99.834,194.32 L100.926,183.4 L110.67,183.4 L110.67,186.088 L103.418,186.088 L102.83,190.988 C103.502,190.428 104.622,190.008 105.686,190.008 C109.634,190.008 111.762,192.836 111.762,196.616 C111.762,200.424 109.382,203.224 105.518,203.224 C102.27,203.224 99.806,201.292 99.414,197.876 Z M122.374,183.176 C126.994,183.176 129.43,187.012 129.43,193.2 C129.43,199.388 126.994,203.224 122.374,203.224 C117.754,203.224 115.318,199.388 115.318,193.2 C115.318,187.012 117.754,183.176 122.374,183.176 Z M122.374,185.864 C119.602,185.864 118.286,188.608 118.286,193.2 C118.286,197.792 119.602,200.536 122.374,200.536 C125.146,200.536 126.462,197.792 126.462,193.2 C126.462,188.608 125.146,185.864 122.374,185.864 Z M140.07,183.176 C144.69,183.176 147.126,187.012 147.126,193.2 C147.126,199.388 144.69,203.224 140.07,203.224 C135.45,203.224 133.014,199.388 133.014,193.2 C133.014,187.012 135.45,183.176 140.07,183.176 Z M140.07,185.864 C137.298,185.864 135.982,188.608 135.982,193.2 C135.982,197.792 137.298,200.536 140.07,200.536 C142.842,200.536 144.158,197.792 144.158,193.2 C144.158,188.608 142.842,185.864 140.07,185.864 Z M149.73,192.36 L151.018,189.784 L152.474,189.784 C153.286,185.36 156.142,183.176 159.838,183.176 C162.498,183.176 164.486,184.38 165.55,186.368 L163.086,187.768 C162.33,186.536 161.434,185.808 159.838,185.808 C157.598,185.808 156.03,187.012 155.47,189.784 L161.434,189.784 L160.146,192.36 L155.218,192.36 L155.218,194.04 L161.434,194.04 L160.146,196.616 L155.47,196.616 C156.03,199.416 157.598,200.592 159.838,200.592 C161.434,200.592 162.33,199.864 163.086,198.632 L165.55,200.032 C164.486,202.02 162.498,203.224 159.838,203.224 C156.142,203.224 153.286,201.04 152.474,196.616 L149.73,196.616 L151.018,194.04 L152.25,194.04 L152.25,192.36 L149.73,192.36 Z" id="4.500€" fill="#444F5A"></path>
                <path d="M88.732,216.304 L87.808,216.772 C87.436,215.932 86.872,215.512 86.104,215.512 C85.18,215.512 84.592,215.992 84.592,216.808 C84.592,217.216 84.748,217.516 85.048,217.696 C85.36,217.876 85.852,218.056 86.536,218.236 C87.148,218.392 87.472,218.488 87.916,218.728 C88.576,219.064 88.888,219.544 88.924,220.42 C88.924,222.196 87.832,223.096 86.14,223.096 C84.52,223.096 83.332,222.22 83.008,220.6 L83.992,220.216 C84.316,221.464 85.036,222.088 86.14,222.088 C87.196,222.088 87.868,221.56 87.868,220.564 C87.868,220.216 87.724,219.952 87.568,219.796 C87.484,219.712 87.352,219.64 87.16,219.568 C86.788,219.412 86.572,219.34 85.96,219.196 C85.372,219.052 85.084,218.968 84.604,218.728 C83.932,218.38 83.584,217.852 83.536,216.844 C83.536,216.16 83.764,215.596 84.22,215.164 C84.676,214.72 85.3,214.504 86.104,214.504 C87.46,214.504 88.348,215.284 88.732,216.304 Z M92.104,221.26 C92.104,221.836 92.488,222.184 93.1,222.184 C93.58,222.184 94.024,222.028 94.42,221.728 C94.828,221.416 95.032,220.948 95.032,220.336 L95.032,220.144 L93.712,220.144 C92.692,220.144 92.104,220.576 92.104,221.26 Z M96.04,219.184 L96.04,223 L95.224,223 L95.08,222.148 C94.696,222.712 93.844,223.096 92.944,223.096 C91.876,223.096 91.072,222.448 91.072,221.26 C91.072,219.952 92.092,219.28 93.808,219.28 L95.032,219.28 L95.032,219.016 C95.032,218.14 94.456,217.768 93.64,217.768 C92.956,217.768 92.404,218.188 92.212,218.8 L91.324,218.56 C91.6,217.516 92.524,216.856 93.64,216.856 C95.128,216.856 96.04,217.588 96.04,219.184 Z M102.82,221.068 L103.696,221.428 C103.204,222.544 102.352,223.096 101.14,223.096 C100.252,223.096 99.544,222.796 99.028,222.184 C98.512,221.572 98.248,220.84 98.248,219.976 C98.248,219.112 98.512,218.38 99.028,217.768 C99.544,217.156 100.252,216.856 101.14,216.856 C102.352,216.856 103.204,217.408 103.696,218.524 L102.82,218.884 C102.496,218.14 101.944,217.768 101.14,217.768 C99.976,217.768 99.28,218.68 99.28,219.976 C99.28,221.272 99.976,222.184 101.14,222.184 C101.944,222.184 102.496,221.812 102.82,221.068 Z M110.968,218.824 L110.968,223 L109.96,223 L109.96,219.04 C109.96,218.188 109.588,217.768 108.844,217.768 C108.328,217.768 107.884,218.008 107.5,218.5 C107.116,218.992 106.924,219.64 106.924,220.468 L106.924,223 L105.916,223 L105.916,214.504 L106.924,214.504 L106.924,218.068 C107.404,217.36 108.22,216.856 109.12,216.856 C110.356,216.856 110.968,217.516 110.968,218.824 Z M113.392,223 L113.392,214.504 L114.4,214.504 L114.4,219.484 L116.98,216.952 L118.3,216.952 L115.48,219.724 L118.576,223 L117.256,223 L114.4,219.964 L114.4,223 L113.392,223 Z M121.06,222.184 C120.52,221.572 120.244,220.84 120.244,219.976 C120.244,219.112 120.52,218.38 121.06,217.768 C121.6,217.156 122.32,216.856 123.22,216.856 C124.12,216.856 124.84,217.156 125.38,217.768 C125.92,218.38 126.196,219.112 126.196,219.976 C126.196,220.84 125.92,221.572 125.38,222.184 C124.84,222.796 124.12,223.096 123.22,223.096 C122.32,223.096 121.6,222.796 121.06,222.184 Z M121.804,218.416 C121.456,218.848 121.276,219.364 121.276,219.976 C121.276,220.588 121.456,221.104 121.804,221.536 C122.152,221.968 122.632,222.184 123.22,222.184 C123.808,222.184 124.288,221.968 124.636,221.536 C124.984,221.104 125.164,220.588 125.164,219.976 C125.164,219.364 124.984,218.848 124.636,218.416 C124.288,217.984 123.808,217.768 123.22,217.768 C122.632,217.768 122.152,217.984 121.804,218.416 Z M130.636,216.856 C131.632,216.856 132.364,217.288 132.844,218.164 L132.052,218.728 C131.704,218.092 131.212,217.768 130.6,217.768 C130.024,217.768 129.556,218.032 129.556,218.572 C129.556,219.064 130,219.316 130.96,219.508 C131.476,219.616 131.8,219.688 132.196,219.868 C132.76,220.108 133.132,220.516 133.132,221.152 C133.132,221.752 132.904,222.232 132.46,222.58 C132.016,222.928 131.464,223.096 130.804,223.096 C129.556,223.096 128.548,222.46 128.176,221.344 L129.136,220.984 C129.412,221.74 129.988,222.184 130.804,222.184 C131.536,222.184 132.088,221.86 132.088,221.248 C132.088,220.768 131.632,220.6 130.528,220.36 C129.292,220.108 128.572,219.676 128.572,218.608 C128.572,218.08 128.776,217.66 129.172,217.336 C129.568,217.012 130.06,216.856 130.636,216.856 Z M136.78,217.864 L135.172,217.864 L135.172,216.952 L136.78,216.952 L136.78,215.14 L137.788,214.504 L137.788,216.952 L140.74,216.952 L140.74,217.864 L137.788,217.864 L137.788,220.96 C137.788,221.776 138.136,222.184 138.832,222.184 C139.372,222.184 139.864,221.944 140.32,221.464 L140.692,222.316 C140.176,222.832 139.552,223.096 138.832,223.096 C137.5,223.096 136.78,222.388 136.78,220.996 L136.78,217.864 Z M148.492,219.772 L148.492,220.192 L143.764,220.192 C143.824,221.392 144.556,222.184 145.624,222.184 C146.488,222.184 147.136,221.788 147.568,220.984 L148.372,221.404 C147.784,222.532 146.872,223.096 145.624,223.096 C144.76,223.096 144.064,222.796 143.524,222.208 C142.996,221.62 142.732,220.876 142.732,219.976 C142.732,219.1 142.996,218.356 143.512,217.756 C144.04,217.156 144.748,216.856 145.624,216.856 C146.524,216.856 147.232,217.132 147.736,217.696 C148.24,218.248 148.492,218.944 148.492,219.772 Z M145.624,217.768 C144.676,217.768 144.04,218.332 143.836,219.28 L147.424,219.28 C147.244,218.32 146.596,217.768 145.624,217.768 Z M155.524,218.788 L155.524,223 L154.516,223 L154.516,219.004 C154.516,218.176 154.144,217.768 153.4,217.768 C152.908,217.768 152.488,218.02 152.14,218.536 C151.792,219.04 151.624,219.712 151.624,220.564 L151.624,223 L150.616,223 L150.616,216.952 L151.624,216.952 L151.624,218.068 C152.068,217.348 152.848,216.856 153.676,216.856 C154.912,216.856 155.524,217.588 155.524,218.788 Z" id="Sachkosten" fill="#444F5A"></path>
            </g>
        </g>
    </g>
</svg>